<svg width="1em" height="1em" viewBox="0 0 24 24" fill="none" xmlns="http://www.w3.org/2000/svg">
<path fill-rule="evenodd" clip-rule="evenodd" d="M22 12C22 17.5228 17.5228 22 12 22C6.47715 22 2 17.5228 2 12C2 6.47715 6.47715 2 12 2C17.5228 2 22 6.47715 22 12ZM12 7.5C12.2761 7.5 12.5 7.72386 12.5 8V11.5H16C16.2761 11.5 16.5 11.7239 16.5 12C16.5 12.2761 16.2761 12.5 16 12.5H12.5V16C12.5 16.2761 12.2761 16.5 12 16.5C11.7239 16.5 11.5 16.2761 11.5 16V12.5H8C7.72386 12.5 7.5 12.2761 7.5 12C7.5 11.7239 7.72386 11.5 8 11.5H11.5V8C11.5 7.72386 11.7239 7.5 12 7.5Z" fill="currentColor"></path>
</svg>