<svg width="1em" height="1em" viewBox="0 0 24 24" fill="none" xmlns="http://www.w3.org/2000/svg">
<path fill-rule="evenodd" clip-rule="evenodd" d="M17.5 1C18.1213 1 18.625 1.50368 18.625 2.125V4.375H20.875C21.4963 4.375 22 4.87868 22 5.5C22 6.12132 21.4963 6.625 20.875 6.625H18.625V8.875C18.625 9.49632 18.1213 10 17.5 10C16.8787 10 16.375 9.49632 16.375 8.875V6.625H14.125C13.5037 6.625 13 6.12132 13 5.5C13 4.87868 13.5037 4.375 14.125 4.375H16.375V2.125C16.375 1.50368 16.8787 1 17.5 1ZM12 8C12.2224 8 12.4381 8.02905 12.6433 8.08356C13.5829 8.33305 14.3052 9.11596 14.4663 10.0884C14.4885 10.2223 14.5 10.3598 14.5 10.5C14.5 11.8807 13.3807 13 12 13C10.6193 13 9.5 11.8807 9.5 10.5C9.5 9.11929 10.6193 8 12 8ZM18.4872 10.9117C18.2748 14.3097 15.4516 17 12 17C8.41015 17 5.5 14.0899 5.5 10.5C5.5 6.91015 8.41015 4 12 4C12.069 4 12.1377 4.00108 12.2061 4.00321C12.4061 3.29462 12.7445 2.64409 13.1902 2.08267C12.8013 2.02818 12.4039 2 12 2C7.30558 2 3.5 5.80558 3.5 10.5C3.5 14.8567 6.77769 18.4478 11.0017 18.942C11.0006 18.9612 11 18.9805 11 19V21C11 21.5523 11.4477 22 12 22C12.5523 22 13 21.5523 13 21V19C13 18.9805 12.9994 18.9612 12.9983 18.942C17.2223 18.4478 20.5 14.8567 20.5 10.5C20.5 10.3713 20.4971 10.2433 20.4915 10.1161C19.8935 10.5044 19.2153 10.7797 18.4872 10.9117Z" fill="currentColor"></path>
</svg>