<svg width="1em" height="1em" viewBox="0 0 24 24" fill="none" xmlns="http://www.w3.org/2000/svg">
<path fill-rule="evenodd" clip-rule="evenodd" d="M20.5 10.5C20.5 14.8561 17.2232 18.4469 13 18.9418V21C13 21.5523 12.5523 22 12 22C11.4477 22 11 21.5523 11 21V18.9418C6.77683 18.4469 3.5 14.8561 3.5 10.5C3.5 5.80558 7.30558 2 12 2C16.6944 2 20.5 5.80558 20.5 10.5ZM12 6.5C12.5523 6.5 13 6.94772 13 7.5V9.5H15C15.5523 9.5 16 9.94772 16 10.5C16 11.0523 15.5523 11.5 15 11.5H13V13.5C13 14.0523 12.5523 14.5 12 14.5C11.4477 14.5 11 14.0523 11 13.5V11.5H9C8.44772 11.5 8 11.0523 8 10.5C8 9.94772 8.44772 9.5 9 9.5H11V7.5C11 6.94772 11.4477 6.5 12 6.5Z" fill="currentColor"></path>
</svg>