<svg width="1em" height="1em" viewBox="0 0 24 24" fill="none" xmlns="http://www.w3.org/2000/svg">
<path fill-rule="evenodd" clip-rule="evenodd" d="M14.0229 9.03074C14.0074 9.01043 13.9921 8.98999 13.9769 8.96943C13.5195 8.37963 12.8041 8 12 8C10.6193 8 9.5 9.11929 9.5 10.5C9.5 11.8807 10.6193 13 12 13C13.3807 13 14.5 11.8807 14.5 10.5C14.5 9.95092 14.323 9.44318 14.0229 9.03074ZM12 17C15.4294 17 18.2385 14.3441 18.4828 10.977C19.2117 10.9072 19.8948 10.6808 20.4984 10.332C20.4995 10.3879 20.5 10.4439 20.5 10.5C20.5 14.8567 17.2223 18.4478 12.9983 18.942C12.9994 18.9612 13 18.9805 13 19V21C13 21.5523 12.5523 22 12 22C11.4477 22 11 21.5523 11 21V19C11 18.9805 11.0006 18.9612 11.0017 18.942C6.77769 18.4478 3.5 14.8567 3.5 10.5C3.5 5.80558 7.30558 2 12 2C12.8861 2 13.7404 2.13557 14.5435 2.38711C14.0321 2.87657 13.6243 3.47357 13.3567 4.1418C12.9191 4.04888 12.4653 4 12 4C8.41015 4 5.5 6.91015 5.5 10.5C5.5 14.0899 8.41015 17 12 17ZM18 2C18.5523 2 19 2.44772 19 3V5H21C21.5523 5 22 5.44772 22 6C22 6.55228 21.5523 7 21 7H19V9C19 9.55228 18.5523 10 18 10C17.4477 10 17 9.55228 17 9V7H15C14.4477 7 14 6.55228 14 6C14 5.44772 14.4477 5 15 5H17V3C17 2.44772 17.4477 2 18 2Z" fill="currentColor"></path>
</svg>