<svg width="1em" height="1em" viewBox="0 0 24 24" fill="none" xmlns="http://www.w3.org/2000/svg">
<path fill-rule="evenodd" clip-rule="evenodd" d="M12 3C7.58172 3 4 6.58172 4 11C4 15.2504 7.31464 18.7265 11.5 18.9846V20.5C11.5 20.7761 11.7239 21 12 21C12.2761 21 12.5 20.7761 12.5 20.5V18.9846C16.6854 18.7265 20 15.2504 20 11C20 6.58172 16.4183 3 12 3ZM12.5 8C12.5 7.72386 12.2761 7.5 12 7.5C11.7239 7.5 11.5 7.72386 11.5 8V10.5H9C8.72386 10.5 8.5 10.7239 8.5 11C8.5 11.2761 8.72386 11.5 9 11.5H11.5V14C11.5 14.2761 11.7239 14.5 12 14.5C12.2761 14.5 12.5 14.2761 12.5 14V11.5H15C15.2761 11.5 15.5 11.2761 15.5 11C15.5 10.7239 15.2761 10.5 15 10.5H12.5V8Z" fill="currentColor"></path>
</svg>