<svg width="1em" height="1em" viewBox="0 0 24 24" fill="none" xmlns="http://www.w3.org/2000/svg">
<path fill-rule="evenodd" clip-rule="evenodd" d="M5.5 15.5H4C3.72386 15.5 3.5 15.7239 3.5 16C3.5 16.2761 3.72386 16.5 4 16.5H5.5V21.5C5.5 21.7761 5.72386 22 6 22H20C20.2761 22 20.5 21.7761 20.5 21.5V2.5C20.5 2.22386 20.2761 2 20 2H6C5.72386 2 5.5 2.22386 5.5 2.5V7.5H4C3.72386 7.5 3.5 7.72386 3.5 8C3.5 8.27614 3.72386 8.5 4 8.5H5.5V11.5H4C3.72386 11.5 3.5 11.7239 3.5 12C3.5 12.2761 3.72386 12.5 4 12.5H5.5V15.5ZM13 7.5V3H6.5V7.5H8C8.27614 7.5 8.5 7.72386 8.5 8C8.5 8.27614 8.27614 8.5 8 8.5H6.5V11.5H8C8.27614 11.5 8.5 11.7239 8.5 12C8.5 12.2761 8.27614 12.5 8 12.5H6.5V15.5H8C8.27614 15.5 8.5 15.7239 8.5 16C8.5 16.2761 8.27614 16.5 8 16.5H6.5V21H19.5V3H18V7.5C18 7.67329 17.9103 7.83422 17.7629 7.92533C17.6155 8.01643 17.4314 8.02471 17.2764 7.94721L15.5 7.05902L13.7236 7.94721C13.5686 8.02471 13.3845 8.01643 13.2371 7.92533C13.0897 7.83422 13 7.67329 13 7.5ZM17 3H14V6.69098L15.2764 6.05279C15.4172 5.9824 15.5828 5.9824 15.7236 6.05279L17 6.69098V3Z" fill="currentColor"></path>
</svg>