<svg width="1em" height="1em" viewBox="0 0 24 24" fill="none" xmlns="http://www.w3.org/2000/svg">
<path fill-rule="evenodd" clip-rule="evenodd" d="M2 4.4898C2 3.12245 3.12245 2 4.4898 2H11.8367L2 11.8571V4.4898Z" fill="white"></path>
<path fill-rule="evenodd" clip-rule="evenodd" d="M11.8163 2H19.5102C20.8776 2 22 3.12245 22 4.4898V19.5102C22 20.8776 20.8776 22 19.5102 22H4.4898C3.12245 22 2 20.8776 2 19.5102V11.8571L11.8163 2Z" fill="#00ADEE"></path>
<path fill-rule="evenodd" clip-rule="evenodd" d="M6.61215 5.93878C6.65296 5.97959 6.71419 5.97959 6.755 5.93878L7.02031 5.67347C7.06112 5.63265 7.06112 5.57143 7.02031 5.53061L6.12235 4.65306L7.83664 4.83673C7.85704 4.83673 7.87745 4.83673 7.91827 4.79592L8.2448 4.46939C8.30602 4.40816 8.26521 4.32653 8.20398 4.30612L6.38766 4.14286L6.28561 2.5102C6.28561 2.42857 6.18357 2.38775 6.12235 2.44898L5.83663 2.73469C5.81623 2.7551 5.81623 2.79592 5.81623 2.81633L5.91827 4.38775L5.10194 3.63265C5.06113 3.59184 4.9999 3.59184 4.95908 3.63265L4.69378 3.89796C4.65296 3.93877 4.65296 4 4.69378 4.04082L6.61215 5.93878ZM4.5101 8.10204C4.53051 8.12245 4.59174 8.12245 4.61215 8.10204L4.87745 7.83674C4.91827 7.79592 4.89786 7.7551 4.87745 7.73469L4.06113 6.91837L5.02031 5.95918L5.83663 6.77551C5.85704 6.79592 5.91827 6.81633 5.93868 6.77551L6.20398 6.5102C6.22439 6.4898 6.22439 6.42857 6.20398 6.40816L4.2448 4.44898C4.22439 4.42857 4.16317 4.42857 4.14276 4.44898L3.87745 4.71429C3.83663 4.7551 3.85704 4.79592 3.87745 4.81633L4.65296 5.59184L3.69378 6.55102L2.91827 5.77551C2.89786 5.7551 2.83663 5.73469 2.81623 5.77551L2.55092 6.04082C2.53051 6.06122 2.53051 6.12245 2.55092 6.14286L4.5101 8.10204Z" fill="#00ADEE"></path>
<path fill-rule="evenodd" clip-rule="evenodd" d="M8.06198 17.2449C5.24565 17.2449 4.38851 15.0408 5.81708 13.8368C6.28647 13.4286 7.1232 13.2245 7.57218 13.1837C9.28647 13 10.8375 13.6531 12.6742 14.551C11.3885 16.1837 9.73545 17.2449 8.06198 17.2449ZM15.3885 13.6939C16.0212 12.5919 16.5518 11.2857 16.8987 9.89798H13.2865V8.61227H17.6742V7.89798H13.2865V5.75513H11.4905C11.164 5.75513 11.164 6.06125 11.164 6.04084V7.89798H6.73545V8.61227H11.2048V9.89798H7.53136V10.6123H14.6334C14.3681 11.4898 14.0212 12.3266 13.5926 13.0817C11.2865 12.347 8.81708 11.7143 7.26606 12.1225C6.26606 12.347 5.63341 12.7755 5.26606 13.2245C3.51096 15.3061 4.75585 18.449 8.40892 18.449C10.5518 18.449 12.6334 17.2653 14.2252 15.3061C16.6334 16.449 21.9599 18.6123 21.9599 18.6123V15.8163C21.9599 15.7959 20.7763 15.5715 18.164 14.6939C17.4293 14.4694 16.4497 14.1021 15.3885 13.6939Z" fill="white"></path>
</svg>