<svg width="1em" height="1em" viewBox="0 0 24 24" fill="none" xmlns="http://www.w3.org/2000/svg">
<path d="M2 4H22C23.1 4 24 4.9 24 6V18C24 19.1 23.1 20 22 20H2C0.9 20 0 19.1 0 18V6C0 4.9 0.9 4 2 4Z" fill="#0077A6"></path>
<path d="M15.23 13.72C15.15 13.66 15.03 13.66 14.91 13.66H14.09V14.3L14.91 14.28C15.03 14.28 15.13 14.28 15.23 14.24C15.31 14.18 15.37 14.08 15.37 13.96C15.37 13.84 15.31 13.76 15.23 13.72Z" fill="white"></path>
<path d="M11.95 13.66H11.06V14.38H11.95C12.19 14.38 12.35 14.24 12.35 14C12.35 13.76 12.19 13.66 11.95 13.66Z" fill="white"></path>
<path d="M6.06 13.66V14.19H7.54V14.75H6.06V15.31H7.72L8.49 14.49L7.74 13.66H6.06Z" fill="white"></path>
<path d="M10.4 15.65V13.38L9.35 14.49L10.4 15.65Z" fill="white"></path>
<path d="M1.25 9.82004H2.17L1.71 8.71004L1.25 9.82004Z" fill="white"></path>
<path d="M21.79 15.9V15.3H23.1C23.22 15.3 23.32 15.28 23.36 15.24C23.4 15.2 23.44 15.14 23.44 15.06C23.44 14.98 23.4 14.9 23.36 14.86C23.32 14.82 23.24 14.8 23.12 14.8C22.5 14.78 21.71 14.82 21.71 13.93C21.71 13.53 21.97 13.09 22.68 13.09H24V12.52H22.75C22.39 12.52 22.11 12.62 21.91 12.76V12.52H20.08C19.78 12.52 19.44 12.6 19.26 12.76V12.52H15.98V12.76C15.7 12.56 15.28 12.52 15.05 12.52H12.88V12.76C12.68 12.56 12.22 12.52 11.93 12.52H9.5L8.94 13.12L8.42 12.52H4.79V16.46H8.35L8.93 15.86L9.45 16.46H11.66V15.53H11.86C12.16 15.53 12.5 15.53 12.81 15.39V16.46H14.62V15.43H14.72C14.82 15.43 14.84 15.43 14.84 15.55V16.46H20.35C20.69 16.46 21.05 16.38 21.26 16.22V16.46H23.01C23.37 16.46 23.73 16.4 24 16.28V15.53C23.83 15.77 23.53 15.9 23.09 15.9H21.79ZM11.91 14.95H11.07V15.9H9.76L8.94 14.97L8.07 15.9H5.39V13.08H8.11L8.93 14L9.8 13.08H11.95C12.47 13.08 13.08 13.24 13.08 14.01C13.08 14.79 12.49 14.95 11.91 14.95ZM15.97 14.83C16.05 14.97 16.07 15.09 16.07 15.35V15.89H15.41V15.55C15.41 15.37 15.41 15.13 15.29 14.99C15.19 14.89 15.05 14.87 14.81 14.87H14.09V15.9H13.4V13.08H14.95C15.29 13.08 15.55 13.1 15.77 13.22C15.99 13.34 16.11 13.52 16.11 13.84C16.11 14.28 15.81 14.52 15.63 14.58C15.79 14.65 15.91 14.75 15.97 14.83ZM18.75 13.66H17.16V14.18H18.71V14.74H17.16V15.3H18.75V15.88H16.5V13.08H18.75V13.66ZM20.46 15.9H19.15V15.3H20.46C20.58 15.3 20.66 15.28 20.72 15.24C20.76 15.2 20.8 15.14 20.8 15.06C20.8 14.98 20.76 14.9 20.72 14.86C20.68 14.82 20.6 14.8 20.48 14.8C19.86 14.78 19.07 14.82 19.07 13.93C19.07 13.53 19.31 13.09 20.04 13.09H21.39V13.69H20.14C20.02 13.69 19.94 13.69 19.88 13.73C19.8 13.79 19.78 13.85 19.78 13.95C19.78 14.05 19.84 14.11 19.92 14.15C20 14.17 20.08 14.19 20.18 14.19H20.54C20.92 14.19 21.16 14.27 21.32 14.41C21.44 14.55 21.52 14.73 21.52 15.01C21.52 15.61 21.14 15.9 20.46 15.9Z" fill="white"></path>
<path d="M17.72 8.71004L17.26 9.82004H18.19L17.72 8.71004Z" fill="white"></path>
<path d="M1.43 10.97H2.01L2.25 11.61H4.52V11.13L4.72 11.61H5.91L6.11 11.11V11.61H11.74V10.56H11.84C11.92 10.56 11.94 10.58 11.94 10.7V11.61H14.86V11.37C15.1 11.49 15.46 11.61 15.95 11.61H17.18L17.44 10.97H18.02L18.28 11.61H20.63V11.01L21 11.61H22.89V7.67004H21.02V8.13004L20.74 7.67004H18.83V8.13004L18.59 7.67004H16C15.56 7.67004 15.18 7.73004 14.87 7.89004V7.67004H13.08V7.89004C12.88 7.73004 12.62 7.67004 12.32 7.67004H5.77L5.33 8.67004L4.87 7.67004H2.82V8.13004L2.57 7.67004H0.82L0 9.54004V11.61H1.17L1.43 10.97ZM15.01 8.55004C15.21 8.33004 15.57 8.23004 16.04 8.23004H16.68V8.83004H16.04C15.8 8.83004 15.66 8.87004 15.52 8.99004C15.4 9.11004 15.34 9.33004 15.34 9.63004C15.34 9.93004 15.4 10.15 15.52 10.29C15.62 10.39 15.8 10.43 15.98 10.43H16.28L17.25 8.22004H18.26L19.39 10.88V8.23004H20.44L21.63 10.18V8.23004H22.31V11.05H21.34L20.07 8.94004V11.05H18.7L18.44 10.43H17.03L16.77 11.05H15.99C15.67 11.05 15.25 10.97 15 10.73C14.78 10.49 14.66 10.17 14.66 9.66004C14.64 9.24004 14.71 8.85004 15.01 8.55004ZM13.62 8.23004H14.3V11.05H13.62V8.23004ZM10.52 8.23004H12.07C12.41 8.23004 12.65 8.23004 12.87 8.35004C13.1 8.49004 13.24 8.67004 13.24 9.00004C13.24 9.44004 12.94 9.66004 12.76 9.74004C12.9 9.80004 13.02 9.90004 13.08 9.98004C13.18 10.12 13.2 10.24 13.2 10.48V11.04H12.52V10.69C12.52 10.53 12.54 10.29 12.42 10.15C12.32 10.05 12.16 10.03 11.92 10.03H11.2V11.06H10.54V8.23004H10.52ZM7.79 8.23004H10.04V8.81004H8.47V9.31004H10.02V9.90004H8.47V10.46H10.04V11.04H7.79V8.23004ZM0.74 11.05H0.02L1.23 8.23004H2.24L3.39 10.89V8.23004H4.48L5.37 10.14L6.19 8.23004H7.3V11.05H6.6V8.83004L5.61 11.05H5.03L4.04 8.83004V11.04H2.68L2.41 10.42H1.01L0.74 11.05Z" fill="white"></path>
<path d="M22.77 13.68C22.65 13.68 22.57 13.68 22.51 13.72C22.45 13.78 22.41 13.84 22.41 13.94C22.41 14.04 22.47 14.1 22.55 14.14C22.63 14.16 22.71 14.18 22.81 14.18H23.17C23.55 14.18 23.79 14.26 23.95 14.4C23.97 14.42 23.98 14.45 23.99 14.47V13.68H22.77Z" fill="white"></path>
<path d="M12.35 9.38004C12.43 9.34004 12.47 9.24004 12.47 9.12004C12.47 9.00004 12.43 8.92004 12.35 8.86004C12.27 8.82004 12.13 8.82004 12.01 8.82004H11.19V9.44004H12.01C12.15 9.44004 12.25 9.44004 12.35 9.38004Z" fill="white"></path>
</svg>