<svg width="1em" height="1em" viewBox="0 0 24 24" fill="none" xmlns="http://www.w3.org/2000/svg">
<path fill-rule="evenodd" clip-rule="evenodd" d="M12 4C9.55228 4 7.5 6.05228 7.5 8.5V15C7.5 15.5523 7.05228 16 6.5 16C5.94772 16 5.5 15.5523 5.5 15V8.5C5.5 4.94772 8.44772 2 12 2C15.5523 2 18.5 4.94772 18.5 8.5V17.3C18.5 19.9698 16.3346 22 13.8 22C11.1302 22 9.1 19.8346 9.1 17.3V10C9.1 8.34772 10.4477 7 12.1 7C13.7523 7 15.1 8.34772 15.1 10V15C15.1 15.5523 14.6523 16 14.1 16C13.5477 16 13.1 15.5523 13.1 15V10C13.1 9.45228 12.6477 9 12.1 9C11.5523 9 11.1 9.45228 11.1 10V17.3C11.1 18.7654 12.2698 20 13.8 20C15.2654 20 16.5 18.8302 16.5 17.3V8.5C16.5 6.05228 14.4477 4 12 4Z" fill="currentColor"></path>
</svg>