<svg width="1em" height="1em" viewBox="0 0 24 24" fill="none" xmlns="http://www.w3.org/2000/svg">
<path fill-rule="evenodd" clip-rule="evenodd" d="M12.5548 2.16795C12.2189 1.94402 11.7813 1.94402 11.4454 2.16795L2.44538 8.16795C2.07872 8.41239 1.91529 8.86803 2.04299 9.28978C2.17068 9.71154 2.55941 10 3.00008 10H3.5V20H3C2.44772 20 2 20.4477 2 21C2 21.5523 2.44772 22 3 22H21C21.5523 22 22 21.5523 22 21C22 20.4477 21.5523 20 21 20H20.5V10H21.0001C21.4407 10 21.8295 9.71154 21.9572 9.28978C22.0849 8.86803 21.9214 8.41239 21.5548 8.16795L12.5548 2.16795ZM17.5 20H18.5V10H17.5V20ZM15.5 10V20H14.5V10H15.5ZM17.6973 8L12.0001 4.20185L6.30285 8H17.6973ZM12.5 10V20H11.5V10H12.5ZM9.5 10V20H8.5V10H9.5ZM6.5 10V20H5.5V10H6.5Z" fill="currentColor"></path>
</svg>