<svg width="1em" height="1em" viewBox="0 0 24 24" fill="none" xmlns="http://www.w3.org/2000/svg">
<path d="M15.4961 9.08854C15.545 8.53842 15.1387 8.05283 14.5886 8.00393C14.0384 7.95503 13.5528 8.36135 13.5039 8.91146L12.7039 17.9115C12.655 18.4616 13.0614 18.9472 13.6115 18.9961C14.1616 19.045 14.6472 18.6387 14.6961 18.0885L15.4961 9.08854Z" fill="currentColor"></path>
<path d="M9.41146 8.00393C9.96158 7.95503 10.4472 8.36135 10.4961 8.91146L11.2961 17.9115C11.345 18.4616 10.9387 18.9472 10.3885 18.9961C9.83843 19.045 9.35283 18.6387 9.30393 18.0885L8.50393 9.08854C8.45503 8.53842 8.86135 8.05283 9.41146 8.00393Z" fill="currentColor"></path>
<path fill-rule="evenodd" clip-rule="evenodd" d="M15.8802 5C15.4498 3.25092 13.9055 2 12 2C10.0945 2 8.55019 3.25092 8.11978 5H4C3.44772 5 3 5.44772 3 6C3 6.55228 3.44772 7 4 7H4.12449L6.00878 21.1322C6.07502 21.629 6.4988 22 7.00001 22H17C17.5012 22 17.925 21.629 17.9912 21.1322L19.8755 7H20C20.5523 7 21 6.55228 21 6C21 5.44772 20.5523 5 20 5H15.8802ZM12 4C11.2226 4 10.5808 4.39101 10.2475 5H13.7525C13.4192 4.39101 12.7774 4 12 4ZM17.8578 7H6.14219L7.87552 20H16.1245L17.8578 7Z" fill="currentColor"></path>
</svg>