<svg width="1em" height="1em" viewBox="0 0 24 24" fill="none" xmlns="http://www.w3.org/2000/svg">
<path fill-rule="evenodd" clip-rule="evenodd" d="M6 3.5C6 3.22386 6.22386 3 6.5 3H17.5C17.7761 3 18 3.22386 18 3.5V20.5C18 20.6881 17.8945 20.8602 17.7269 20.9456C17.5593 21.0309 17.358 21.015 17.2059 20.9044L12 17.1182L6.79409 20.9044C6.64199 21.015 6.4407 21.0309 6.27311 20.9456C6.10553 20.8602 6 20.6881 6 20.5V3.5ZM7 4V19.5181L11.7059 16.0956C11.8812 15.9681 12.1188 15.9681 12.2941 16.0956L17 19.5181V4H7Z" fill="currentColor"></path>
</svg>