<svg width="1em" height="1em" viewBox="0 0 24 24" fill="none" xmlns="http://www.w3.org/2000/svg">
<path fill-rule="evenodd" clip-rule="evenodd" d="M6 3.5C6 3.22386 6.22386 3 6.5 3H17.5C17.7761 3 18 3.22386 18 3.5V20.5C18 20.6881 17.8945 20.8602 17.7269 20.9456C17.5593 21.0309 17.358 21.015 17.2059 20.9044L12 17.1182L6.79409 20.9044C6.64199 21.015 6.4407 21.0309 6.27311 20.9456C6.10553 20.8602 6 20.6881 6 20.5V3.5ZM12 7C12.2761 7 12.5 7.22386 12.5 7.5V9.5H14.5C14.7761 9.5 15 9.72386 15 10C15 10.2761 14.7761 10.5 14.5 10.5H12.5V12.5C12.5 12.7761 12.2761 13 12 13C11.7239 13 11.5 12.7761 11.5 12.5V10.5H9.5C9.22386 10.5 9 10.2761 9 10C9 9.72386 9.22386 9.5 9.5 9.5H11.5V7.5C11.5 7.22386 11.7239 7 12 7Z" fill="currentColor"></path>
</svg>