<svg width="1em" height="1em" viewBox="0 0 24 24" fill="none" xmlns="http://www.w3.org/2000/svg">
<path fill-rule="evenodd" clip-rule="evenodd" d="M5 4C5 3.44772 5.44772 3 6 3H18C18.5523 3 19 3.44772 19 4V20C19 20.3466 18.8205 20.6684 18.5257 20.8507C18.2309 21.0329 17.8628 21.0494 17.5528 20.8944L12 18.118L6.44721 20.8944C6.13723 21.0494 5.76909 21.0329 5.47427 20.8507C5.17945 20.6684 5 20.3466 5 20V4ZM12 7C12.5523 7 13 7.44772 13 8V9H14C14.5523 9 15 9.44772 15 10C15 10.5523 14.5523 11 14 11H13V12C13 12.5523 12.5523 13 12 13C11.4477 13 11 12.5523 11 12V11H10C9.44772 11 9 10.5523 9 10C9 9.44772 9.44772 9 10 9H11V8C11 7.44772 11.4477 7 12 7Z" fill="currentColor"></path>
</svg>