<svg width="1em" height="1em" viewBox="0 0 24 24" fill="none" xmlns="http://www.w3.org/2000/svg">
<path fill-rule="evenodd" clip-rule="evenodd" d="M6 4C5.44772 4 5 4.44772 5 5V11.5H4C3.44772 11.5 3 11.9477 3 12.5V19C3 19.5523 3.44772 20 4 20H10.5H20C20.5523 20 21 19.5523 21 19V10C21 9.44772 20.5523 9 20 9H16.5V5C16.5 4.44772 16.0523 4 15.5 4H6ZM14.5 9V6H12.25V7C12.25 7.27614 12.0261 7.5 11.75 7.5H9.75C9.47386 7.5 9.25 7.27614 9.25 7V6H7V11.5H9.5V10C9.5 9.44772 9.94772 9 10.5 9H14.5ZM9.5 13.5V18H5V13.5H6.5V14C6.5 14.2761 6.72386 14.5 7 14.5H8C8.27614 14.5 8.5 14.2761 8.5 14V13.5H9.5ZM19 18H11.5V12.5V11H13.75V12.5C13.75 12.7761 13.9739 13 14.25 13H16.25C16.5261 13 16.75 12.7761 16.75 12.5V11H19V18Z" fill="currentColor"></path>
</svg>