<svg width="1em" height="1em" viewBox="0 0 24 24" fill="none" xmlns="http://www.w3.org/2000/svg">
<path fill-rule="evenodd" clip-rule="evenodd" d="M4.5 4C4.22386 4 4 4.22386 4 4.5V12H3.5C3.22386 12 3 12.2239 3 12.5V19.5C3 19.7761 3.22386 20 3.5 20H10.5H20.5C20.7761 20 21 19.7761 21 19.5V10.5C21 10.2239 20.7761 10 20.5 10H20V6.5C20 6.22386 19.7761 6 19.5 6H17.5H15.5H15V4.5C15 4.22386 14.7761 4 14.5 4H11H8H4.5ZM19 10V7H18V8C18 8.27614 17.7761 8.5 17.5 8.5H15.5C15.2239 8.5 15 8.27614 15 8V7H14V10H14.25H16.75H19ZM13 10V6.5C13 6.22386 13.2239 6 13.5 6H14V5H11.5V7.5C11.5 7.77614 11.2761 8 11 8H8C7.72386 8 7.5 7.77614 7.5 7.5V5H5V12H6H8H10V10.5C10 10.2239 10.2239 10 10.5 10H13ZM16 7H17V7.5H16V7ZM8.5 7V5H10.5V7H8.5ZM13.75 13.5V11H13.5H11V12.5V19H20V11H19.5H17.25V13.5C17.25 13.7761 17.0261 14 16.75 14H14.25C13.9739 14 13.75 13.7761 13.75 13.5ZM16.25 11H14.75V13H16.25V11ZM10 19V13H8.5V15C8.5 15.2761 8.27614 15.5 8 15.5H6C5.72386 15.5 5.5 15.2761 5.5 15V13H4V19H10ZM6.5 13H7.5V14.5H6.5V13Z" fill="currentColor"></path>
</svg>