<svg width="1em" height="1em" viewBox="0 0 24 24" fill="none" xmlns="http://www.w3.org/2000/svg">
<path fill-rule="evenodd" clip-rule="evenodd" d="M12 2C7.02944 2 3 6.02944 3 11C3 15.2447 5.93857 18.8032 9.89237 19.7519L11.6159 21.8201C11.7109 21.9341 11.8516 22 12 22C12.1484 22 12.2891 21.9341 12.3841 21.8201L14.1076 19.7519C18.0614 18.8031 21 15.2447 21 11C21 6.02944 16.9706 2 12 2Z" fill="currentColor"></path>
<path fill-rule="evenodd" clip-rule="evenodd" d="M12.8161 6.82265C12.6309 6.54485 12.3304 6.375 12.0125 6.375C11.6899 6.375 11.3705 6.55768 11.238 6.9073L10.2865 8.90542L10.2831 8.90867L10.2801 8.9114L8.03538 9.2042C8.00361 9.20834 7.97232 9.21553 7.94193 9.22566C7.61054 9.33612 7.40493 9.6068 7.33016 9.88094C7.25674 10.1502 7.29194 10.499 7.54649 10.7536L9.0926 12.2997L8.70744 14.5143C8.70252 14.5426 8.70005 14.5713 8.70005 14.6C8.70005 15.2824 9.37441 15.6689 9.95816 15.4743C9.98681 15.4648 10.0145 15.4527 10.041 15.4381L11.9285 14.4H12.0716L13.9591 15.4381C13.9856 15.4527 14.0133 15.4648 14.0419 15.4743C14.3374 15.5728 14.6636 15.525 14.9073 15.3787C15.0337 15.3029 15.1629 15.1853 15.2425 15.0172C15.3204 14.8527 15.3372 14.6673 15.2877 14.4858L14.908 12.3027L16.5427 10.7641C16.5704 10.7381 16.595 10.709 16.6161 10.6774C16.7906 10.4156 16.8481 10.0925 16.7699 9.80594C16.6904 9.51437 16.4431 9.21884 16.0391 9.20086L13.8199 8.9114L13.817 8.90867L13.8136 8.90542L12.8515 6.88503C12.8412 6.86342 12.8294 6.84257 12.8161 6.82265Z" fill="white"></path>
</svg>