<svg width="1em" height="1em" viewBox="0 0 24 24" fill="none" xmlns="http://www.w3.org/2000/svg">
<path fill-rule="evenodd" clip-rule="evenodd" d="M5 4.5C5 4.22386 5.22386 4 5.5 4H13.5C13.7761 4 14 4.22386 14 4.5V8H18.5C18.7761 8 19 8.22386 19 8.5V19H20.5C20.7761 19 21 19.2239 21 19.5C21 19.7761 20.7761 20 20.5 20H18.5H13.5H5.5H3.5C3.22386 20 3 19.7761 3 19.5C3 19.2239 3.22386 19 3.5 19H5V4.5ZM6 19H13V8.5V5H6V19ZM14 19H18V9H14V19ZM15 13.5C15 13.2239 15.2239 13 15.5 13H16.5C16.7761 13 17 13.2239 17 13.5V14.5C17 14.7761 16.7761 15 16.5 15H15.5C15.2239 15 15 14.7761 15 14.5V13.5ZM10.5 12C10.2239 12 10 12.2239 10 12.5V13.5C10 13.7761 10.2239 14 10.5 14H11.5C11.7761 14 12 13.7761 12 13.5V12.5C12 12.2239 11.7761 12 11.5 12H10.5ZM7 12.5C7 12.2239 7.22386 12 7.5 12H8.5C8.77614 12 9 12.2239 9 12.5V13.5C9 13.7761 8.77614 14 8.5 14H7.5C7.22386 14 7 13.7761 7 13.5V12.5ZM15.5 10C15.2239 10 15 10.2239 15 10.5V11.5C15 11.7761 15.2239 12 15.5 12H16.5C16.7761 12 17 11.7761 17 11.5V10.5C17 10.2239 16.7761 10 16.5 10H15.5ZM10 9.5C10 9.22386 10.2239 9 10.5 9H11.5C11.7761 9 12 9.22386 12 9.5V10.5C12 10.7761 11.7761 11 11.5 11H10.5C10.2239 11 10 10.7761 10 10.5V9.5ZM7.5 9C7.22386 9 7 9.22386 7 9.5V10.5C7 10.7761 7.22386 11 7.5 11H8.5C8.77614 11 9 10.7761 9 10.5V9.5C9 9.22386 8.77614 9 8.5 9H7.5ZM10 6.5C10 6.22386 10.2239 6 10.5 6H11.5C11.7761 6 12 6.22386 12 6.5V7.5C12 7.77614 11.7761 8 11.5 8H10.5C10.2239 8 10 7.77614 10 7.5V6.5ZM7.5 6C7.22386 6 7 6.22386 7 6.5V7.5C7 7.77614 7.22386 8 7.5 8H8.5C8.77614 8 9 7.77614 9 7.5V6.5C9 6.22386 8.77614 6 8.5 6H7.5Z" fill="currentColor"></path>
</svg>