<svg width="1em" height="1em" viewBox="0 0 24 24" fill="none" xmlns="http://www.w3.org/2000/svg">
<path d="M12 3C8.14772 3 5 6.14772 5 10C5 12.0145 5.94955 13.2497 6.7112 14.2271C7.48204 15.2164 8 15.8872 8 17C8 17.5523 8.44772 18 9 18H15C15.5523 18 16 17.5523 16 17C16 15.8872 16.518 15.2164 17.2888 14.2271C18.0504 13.2497 19 12.0145 19 10C19 6.14772 15.8523 3 12 3Z" fill="currentColor"></path>
<path d="M10 19C9.44772 19 9 19.4477 9 20C9 20.5523 9.44772 21 10 21H14C14.5523 21 15 20.5523 15 20C15 19.4477 14.5523 19 14 19H10Z" fill="currentColor"></path>
<path d="M22 10C22 10.5523 21.5523 11 21 11C20.4477 11 20 10.5523 20 10C20 9.44772 20.4477 9 21 9C21.5523 9 22 9.44772 22 10Z" fill="currentColor"></path>
<path d="M3 11C3.55228 11 4 10.5523 4 10C4 9.44772 3.55228 9 3 9C2.44772 9 2 9.44772 2 10C2 10.5523 2.44772 11 3 11Z" fill="currentColor"></path>
<path d="M5 6C5 6.55228 4.55228 7 4 7C3.44772 7 3 6.55228 3 6C3 5.44772 3.44772 5 4 5C4.55228 5 5 5.44772 5 6Z" fill="currentColor"></path>
<path d="M20 7C20.5523 7 21 6.55228 21 6C21 5.44772 20.5523 5 20 5C19.4477 5 19 5.44772 19 6C19 6.55228 19.4477 7 20 7Z" fill="currentColor"></path>
<path d="M5 14C5 14.5523 4.55228 15 4 15C3.44772 15 3 14.5523 3 14C3 13.4477 3.44772 13 4 13C4.55228 13 5 13.4477 5 14Z" fill="currentColor"></path>
<path d="M20 15C20.5523 15 21 14.5523 21 14C21 13.4477 20.5523 13 20 13C19.4477 13 19 13.4477 19 14C19 14.5523 19.4477 15 20 15Z" fill="currentColor"></path>
</svg>