<svg width="1em" height="1em" viewBox="0 0 24 24" fill="none" xmlns="http://www.w3.org/2000/svg">
<path fill-rule="evenodd" clip-rule="evenodd" d="M7.42145 3.92145C7.70284 3.64006 8.08638 3.5 8.5 3.5H15.5C15.9136 3.5 16.2972 3.64006 16.5786 3.92145C16.8599 4.20284 17 4.58638 17 5V6.5H21C21.2761 6.5 21.5 6.72386 21.5 7V20C21.5 20.2761 21.2761 20.5 21 20.5H3C2.72386 20.5 2.5 20.2761 2.5 20V7C2.5 6.72386 2.72386 6.5 3 6.5H7V5C7 4.58638 7.14006 4.20284 7.42145 3.92145ZM8 6.5H16V5C16 4.81362 15.9401 4.69716 15.8714 4.62855C15.8028 4.55994 15.6864 4.5 15.5 4.5H8.5C8.31362 4.5 8.19716 4.55994 8.12855 4.62855C8.05994 4.69716 8 4.81362 8 5V6.5ZM3.5 13.1197V19.5H20.5V13.1197C19.7616 13.9611 18.6829 14.5 17.5 14.5H14.5V15C14.5 15.2761 14.2761 15.5 14 15.5H10C9.72386 15.5 9.5 15.2761 9.5 15V14.5H6.5C5.31714 14.5 4.23836 13.9611 3.5 13.1197ZM20.5 10.5C20.5 12.1239 19.1239 13.5 17.5 13.5H14.5V13C14.5 12.7239 14.2761 12.5 14 12.5H10C9.72386 12.5 9.5 12.7239 9.5 13V13.5H6.5C4.87614 13.5 3.5 12.1239 3.5 10.5V7.5H20.5V10.5ZM10.5 13.5H13.5V14.5H10.5V13.5Z" fill="currentColor"></path>
</svg>