<svg width="1em" height="1em" viewBox="0 0 24 24" fill="none" xmlns="http://www.w3.org/2000/svg">
<path fill-rule="evenodd" clip-rule="evenodd" d="M9.5 3C8.14772 3 7 4.14772 7 5.5V6H4C3.4 6 3 6.4 3 7V9C3 10.6477 4.35228 12 6 12H9C9 11.4 9.4 11 10 11H14C14.6 11 15 11.4 15 12H18C19.6477 12 21 10.6477 21 9V7C21 6.4 20.6 6 20 6H17V5.5C17 4.14772 15.8523 3 14.5 3H9.5ZM15 6V5.5C15 5.25228 14.7477 5 14.5 5H9.5C9.25229 5 9 5.25228 9 5.5V6H15Z" fill="currentColor"></path>
<path d="M3 12.9947V20C3 20.6 3.4 21 4 21H20C20.6 21 21 20.6 21 20V12.9947C20.1632 13.6254 19.1236 14 18 14H15C15 14.6 14.6 15 14 15H10C9.4 15 9 14.6 9 14H6C4.87636 14 3.83683 13.6254 3 12.9947Z" fill="currentColor"></path>
</svg>