<svg width="1em" height="1em" viewBox="0 0 24 24" fill="none" xmlns="http://www.w3.org/2000/svg">
<path fill-rule="evenodd" clip-rule="evenodd" d="M16 2C16.5523 2 17 2.44772 17 3H19C19.5272 3 20.0443 3.18011 20.4321 3.56789C20.8199 3.95567 21 4.47275 21 5V19C21 19.5272 20.8199 20.0443 20.4321 20.4321C20.0443 20.8199 19.5272 21 19 21H5C4.47275 21 3.95567 20.8199 3.56789 20.4321C3.18011 20.0443 3 19.5272 3 19V5C3 4.47275 3.18011 3.95567 3.56789 3.56789C3.95567 3.18011 4.47275 3 5 3H7C7 2.44772 7.44772 2 8 2C8.55228 2 9 2.44772 9 3H15C15 2.44772 15.4477 2 16 2ZM7 5C7 5.55228 7.44772 6 8 6C8.55228 6 9 5.55228 9 5H15C15 5.55228 15.4477 6 16 6C16.5523 6 17 5.55228 17 5H19V7H5V5H7ZM19 9H16V11H19V9ZM14 9V11H10V9H14ZM14 13H10V15H14V13ZM14 17H10V19H14V17ZM8 15V13H5V15H8ZM5 17H8V19H5V17ZM16 17H19V19H16V17ZM19 15H16V13H19V15ZM8 9V11H5V9H8Z" fill="currentColor"></path>
</svg>