<svg width="1em" height="1em" viewBox="0 0 24 24" fill="none" xmlns="http://www.w3.org/2000/svg">
<path fill-rule="evenodd" clip-rule="evenodd" d="M7 13C7 10.2386 9.23858 8 12 8C14.7614 8 17 10.2386 17 13C17 15.7614 14.7614 18 12 18C9.23858 18 7 15.7614 7 13ZM12 9C9.79086 9 8 10.7909 8 13C8 15.2091 9.79086 17 12 17C14.2091 17 16 15.2091 16 13C16 10.7909 14.2091 9 12 9Z" fill="currentColor"></path>
<path d="M4.5 8C4.22386 8 4 8.22386 4 8.5C4 8.77614 4.22386 9 4.5 9H6.5C6.77614 9 7 8.77614 7 8.5C7 8.22386 6.77614 8 6.5 8H4.5Z" fill="currentColor"></path>
<path fill-rule="evenodd" clip-rule="evenodd" d="M8.30267 3.59526C8.6209 3.13972 9.09278 3 9.5 3H14.5C14.9995 3 15.4211 3.31399 15.6536 3.54645C15.6626 3.5555 15.6713 3.56489 15.6796 3.5746L17.33 5.5H20.5C20.9136 5.5 21.2972 5.64006 21.5786 5.92145C21.8599 6.20284 22 6.58638 22 7V19C22 19.4136 21.8599 19.7972 21.5786 20.0786C21.2972 20.3599 20.9136 20.5 20.5 20.5H3.5C3.08638 20.5 2.70284 20.3599 2.42145 20.0786C2.14006 19.7972 2 19.4136 2 19V7C2 6.58638 2.14006 6.20284 2.42145 5.92145C2.70284 5.64006 3.08638 5.5 3.5 5.5H6.67003L8.30267 3.59526ZM9.5 4C9.31527 4 9.19779 4.05471 9.11602 4.17735C9.10487 4.19408 9.09272 4.21013 9.07963 4.2254L7.27963 6.3254C7.18464 6.43622 7.04596 6.5 6.9 6.5H3.5C3.31362 6.5 3.19716 6.55994 3.12855 6.62855C3.05994 6.69716 3 6.81362 3 7V19C3 19.1864 3.05994 19.3028 3.12855 19.3714C3.19716 19.4401 3.31362 19.5 3.5 19.5H20.5C20.6864 19.5 20.8028 19.4401 20.8714 19.3714C20.9401 19.3028 21 19.1864 21 19V7C21 6.81362 20.9401 6.69716 20.8714 6.62855C20.8028 6.55994 20.6864 6.5 20.5 6.5H17.1C16.954 6.5 16.8154 6.43622 16.7204 6.3254L14.9339 4.24118C14.7701 4.08177 14.598 4 14.5 4H9.5Z" fill="currentColor"></path>
</svg>