<svg width="1em" height="1em" viewBox="0 0 24 24" fill="none" xmlns="http://www.w3.org/2000/svg">
<path d="M12 14.5C13.3807 14.5 14.5 13.3807 14.5 12C14.5 10.6193 13.3807 9.5 12 9.5C10.6193 9.5 9.5 10.6193 9.5 12C9.5 13.3807 10.6193 14.5 12 14.5Z" fill="currentColor"></path>
<path d="M7 13C7.55228 13 8 12.5523 8 12C8 11.4477 7.55228 11 7 11C6.44772 11 6 11.4477 6 12C6 12.5523 6.44772 13 7 13Z" fill="currentColor"></path>
<path d="M18 12C18 12.5523 17.5523 13 17 13C16.4477 13 16 12.5523 16 12C16 11.4477 16.4477 11 17 11C17.5523 11 18 11.4477 18 12Z" fill="currentColor"></path>
<path fill-rule="evenodd" clip-rule="evenodd" d="M5.9 7C5.71061 7 5.53748 7.107 5.45279 7.27639C5.20117 7.77963 4.77963 8.20117 4.27639 8.45279C4.107 8.53748 4 8.71061 4 8.9V15C4 15.1894 4.107 15.3625 4.27639 15.4472C4.77963 15.6988 5.20117 16.1204 5.45279 16.6236C5.53748 16.793 5.71061 16.9 5.9 16.9H18C18.1894 16.9 18.3625 16.793 18.4472 16.6236C18.6988 16.1204 19.1204 15.6988 19.6236 15.4472C19.793 15.3625 19.9 15.1894 19.9 15V8.9C19.9 8.72437 19.8078 8.56161 19.6572 8.47125C19.2319 8.21604 18.8012 7.78442 18.5472 7.27639C18.4625 7.107 18.2894 7 18.1 7H5.9ZM5 9.19323C5.48311 8.89529 5.89529 8.48311 6.19323 8H17.8065C18.0975 8.47391 18.4893 8.87626 18.9 9.16941V14.7068C18.4169 15.0047 18.0047 15.4169 17.7068 15.9H6.19323C5.89529 15.4169 5.48311 15.0047 5 14.7068V9.19323Z" fill="currentColor"></path>
<path fill-rule="evenodd" clip-rule="evenodd" d="M2.42145 5.42145C2.70284 5.14006 3.08638 5 3.5 5H20.5C20.9136 5 21.2972 5.14006 21.5786 5.42145C21.8599 5.70284 22 6.08638 22 6.5V17.5C22 17.9136 21.8599 18.2972 21.5786 18.5786C21.2972 18.8599 20.9136 19 20.5 19H3.5C3.08638 19 2.70284 18.8599 2.42145 18.5786C2.14006 18.2972 2 17.9136 2 17.5V6.5C2 6.08638 2.14006 5.70284 2.42145 5.42145ZM3.12855 6.12855C3.05994 6.19716 3 6.31362 3 6.5V17.5C3 17.6864 3.05994 17.8028 3.12855 17.8714C3.19716 17.9401 3.31362 18 3.5 18H20.5C20.6864 18 20.8028 17.9401 20.8714 17.8714C20.9401 17.8028 21 17.6864 21 17.5V6.5C21 6.31362 20.9401 6.19716 20.8714 6.12855C20.8028 6.05994 20.6864 6 20.5 6H3.5C3.31362 6 3.19716 6.05994 3.12855 6.12855Z" fill="currentColor"></path>
</svg>