<svg width="1em" height="1em" viewBox="0 0 24 24" fill="none" xmlns="http://www.w3.org/2000/svg">
<path d="M16 12C16 14.2091 14.2091 16 12 16C9.79086 16 8 14.2091 8 12C8 9.79086 9.79086 8 12 8C14.2091 8 16 9.79086 16 12Z" fill="currentColor"></path>
<path d="M6 13C6.55228 13 7 12.5523 7 12C7 11.4477 6.55228 11 6 11C5.44772 11 5 11.4477 5 12C5 12.5523 5.44772 13 6 13Z" fill="currentColor"></path>
<path d="M19 12C19 12.5523 18.5523 13 18 13C17.4477 13 17 12.5523 17 12C17 11.4477 17.4477 11 18 11C18.5523 11 19 11.4477 19 12Z" fill="currentColor"></path>
<path fill-rule="evenodd" clip-rule="evenodd" d="M22 17V7C22 6.47275 21.8199 5.95567 21.4321 5.56789C21.0443 5.18011 20.5272 5 20 5H4C3.47275 5 2.95567 5.18011 2.56789 5.56789C2.18011 5.95567 2 6.47275 2 7V17C2 17.5272 2.18011 18.0443 2.56789 18.4321C2.95567 18.8199 3.47275 19 4 19H20C20.5272 19 21.0443 18.8199 21.4321 18.4321C21.8199 18.0443 22 17.5272 22 17ZM4 13.1009V10.8991C5.95325 10.4993 7.49934 8.95325 7.89908 7H16.1009C16.5007 8.95325 18.0468 10.4993 20 10.8991V13.1009C18.0468 13.5007 16.5007 15.0468 16.1009 17H7.89908C7.49934 15.0468 5.95325 13.5007 4 13.1009ZM18.173 17C18.476 16.152 19.152 15.476 20 15.173V17H18.173ZM4 15.173V17H5.82704C5.52403 16.152 4.848 15.476 4 15.173ZM5.82704 7C5.52403 7.848 4.848 8.52403 4 8.82704V7H5.82704ZM20 8.82704V7H18.173C18.476 7.848 19.152 8.52403 20 8.82704Z" fill="currentColor"></path>
</svg>