<svg width="1em" height="1em" viewBox="0 0 24 24" fill="none" xmlns="http://www.w3.org/2000/svg">
<path d="M15.3536 3.64645C15.1583 3.45118 14.8417 3.45118 14.6464 3.64645C14.4512 3.84171 14.4512 4.15829 14.6464 4.35355L17.7929 7.5H5C4.72386 7.5 4.5 7.72386 4.5 8C4.5 8.27614 4.72386 8.5 5 8.5H17.7929L14.6464 11.6464C14.4512 11.8417 14.4512 12.1583 14.6464 12.3536C14.8417 12.5488 15.1583 12.5488 15.3536 12.3536L19.3536 8.35355C19.5488 8.15829 19.5488 7.84171 19.3536 7.64645L15.3536 3.64645Z" fill="currentColor"></path>
<path d="M8.64645 11.6464C8.84171 11.4512 9.15829 11.4512 9.35355 11.6464C9.54882 11.8417 9.54882 12.1583 9.35355 12.3536L6.20711 15.5H19C19.2761 15.5 19.5 15.7239 19.5 16C19.5 16.2761 19.2761 16.5 19 16.5H6.20711L9.35355 19.6464C9.54882 19.8417 9.54882 20.1583 9.35355 20.3536C9.15829 20.5488 8.84171 20.5488 8.64645 20.3536L4.64645 16.3536C4.45118 16.1583 4.45118 15.8417 4.64645 15.6464L8.64645 11.6464Z" fill="currentColor"></path>
</svg>