<svg width="1em" height="1em" viewBox="0 0 24 24" fill="none" xmlns="http://www.w3.org/2000/svg">
<path d="M18.5 3.5C18.5 3.22386 18.7239 3 19 3H20.5C20.7762 3 21 3.22386 21 3.5V5C21 5.27614 20.7762 5.5 20.5 5.5C20.2239 5.5 20 5.27614 20 5V4.47159L13.7906 8.90687C13.6133 9.03353 13.3744 9.03075 13.2 8.9L9.51634 6.13725L3.8201 10.8841C3.60797 11.0609 3.29268 11.0322 3.1159 10.8201C2.93912 10.608 2.96778 10.2927 3.17992 10.1159L9.17992 5.11589C9.35796 4.96753 9.61461 4.96095 9.80001 5.1L13.5072 7.8804L18.9441 3.99691C18.6943 3.96911 18.5 3.75724 18.5 3.5Z" fill="currentColor"></path>
<path fill-rule="evenodd" clip-rule="evenodd" d="M8 18.5C8 18.7761 7.77614 19 7.5 19H4.5C4.22386 19 4 18.7761 4 18.5V12.5C4 12.2239 4.22386 12 4.5 12H7.5C7.77614 12 8 12.2239 8 12.5V18.5ZM7 18V13H5V18H7Z" fill="currentColor"></path>
<path fill-rule="evenodd" clip-rule="evenodd" d="M16.5 8C16.2239 8 16 8.22386 16 8.5V18.5C16 18.7761 16.2239 19 16.5 19H19.5C19.7761 19 20 18.7761 20 18.5V8.5C20 8.22386 19.7761 8 19.5 8H16.5ZM17 18V9H19V18H17Z" fill="currentColor"></path>
<path fill-rule="evenodd" clip-rule="evenodd" d="M10 10.5C10 10.2239 10.2239 10 10.5 10H13.5C13.7761 10 14 10.2239 14 10.5V18.5C14 18.7761 13.7761 19 13.5 19H10.5C10.2239 19 10 18.7761 10 18.5V10.5ZM11 11V18H13V11H11Z" fill="currentColor"></path>
<path d="M3.5 20C3.22386 20 3 20.2239 3 20.5C3 20.7761 3.22386 21 3.5 21H20.5C20.7761 21 21 20.7761 21 20.5C21 20.2239 20.7761 20 20.5 20H3.5Z" fill="currentColor"></path>
</svg>