<svg width="1em" height="1em" viewBox="0 0 24 24" fill="none" xmlns="http://www.w3.org/2000/svg">
<path d="M17.9999 3C17.4476 3 16.9999 3.44772 16.9999 4C16.9999 4.29753 17.1298 4.5647 17.336 4.74788L13.9659 7.27549L10.0546 4.66795C9.72511 4.4483 9.29707 4.44375 8.96301 4.65634L3.46301 8.15634C2.99707 8.45285 2.85971 9.07093 3.15622 9.53688C3.45273 10.0028 4.07082 10.1402 4.53676 9.84366L9.48719 6.69339L13.4452 9.33205C13.798 9.56723 14.2607 9.55439 14.5999 9.3L18.9999 6C18.9999 6.55228 19.4476 7 19.9999 7C20.5522 7 20.9999 6.55228 20.9999 6V4C20.9999 3.44772 20.5522 3 19.9999 3H17.9999Z" fill="currentColor"></path>
<path d="M4 19C3.44772 19 3 19.4477 3 20C3 20.5523 3.44772 21 4 21H20C20.5523 21 21 20.5523 21 20C21 19.4477 20.5523 19 20 19H4Z" fill="currentColor"></path>
<path d="M18 8C18.5523 8 19 8.44772 19 9V17C19 17.5523 18.5523 18 18 18C17.4477 18 17 17.5523 17 17V9C17 8.44772 17.4477 8 18 8Z" fill="currentColor"></path>
<path d="M15 12C15 11.4477 14.5523 11 14 11C13.4477 11 13 11.4477 13 12V17C13 17.5523 13.4477 18 14 18C14.5523 18 15 17.5523 15 17V12Z" fill="currentColor"></path>
<path d="M10 9C10.5523 9 11 9.44772 11 10V17C11 17.5523 10.5523 18 10 18C9.44772 18 9 17.5523 9 17V10C9 9.44772 9.44772 9 10 9Z" fill="currentColor"></path>
<path d="M7 12C7 11.4477 6.55228 11 6 11C5.44772 11 5 11.4477 5 12V17C5 17.5523 5.44772 18 6 18C6.55228 18 7 17.5523 7 17V12Z" fill="currentColor"></path>
</svg>