<svg width="1em" height="1em" viewBox="0 0 24 24" fill="none" xmlns="http://www.w3.org/2000/svg">
<path fill-rule="evenodd" clip-rule="evenodd" d="M4 9C4 7.35228 5.35228 6 7 6H7.00528C6.37463 6.83683 6 7.87636 6 9H4ZM6 11H4V18H6V11ZM8 18V11H9V12C9 13.6523 10.3477 15 12 15C13.6523 15 15 13.6523 15 12V11H16V18H8ZM17 20H7H3C2.44772 20 2 19.5523 2 19V9C2 6.24772 4.24772 4 7 4H11H13H17C19.7523 4 22 6.24772 22 9V19C22 19.5523 21.5523 20 21 20H17ZM13 6H11C9.35228 6 8 7.35228 8 9H10H14H16C16 7.35228 14.6477 6 13 6ZM18 9C18 7.87636 17.6254 6.83683 16.9947 6H17C18.6477 6 20 7.35228 20 9H18ZM18 11H20V18H18V11ZM11 11H13V12C13 12.5477 12.5477 13 12 13C11.4523 13 11 12.5477 11 12V11Z" fill="currentColor"></path>
</svg>