<svg width="1em" height="1em" viewBox="0 0 24 24" fill="none" xmlns="http://www.w3.org/2000/svg">
<path fill-rule="evenodd" clip-rule="evenodd" d="M4 8.5C4 6.57614 5.57614 5 7.5 5H8.17874C7.15632 5.82651 6.5 7.08992 6.5 8.5H4ZM6.5 9.5H4V19H6.5V9.5ZM7.5 19V9.5H9.5V10.5C9.5 11.8761 10.6239 13 12 13C13.3761 13 14.5 11.8761 14.5 10.5V9.5H16.5V19H7.5ZM17 20H7H3.5C3.22386 20 3 19.7761 3 19.5V9V8.5C3 6.02386 5.02386 4 7.5 4H11H13H16.5C18.9761 4 21 6.02386 21 8.5V9V19.5C21 19.7761 20.7761 20 20.5 20H17ZM13 5H11C9.07614 5 7.5 6.57614 7.5 8.5H10H14H16.5C16.5 6.57614 14.9239 5 13 5ZM17.5 8.5C17.5 7.08992 16.8437 5.82651 15.8213 5H16.5C18.4239 5 20 6.57614 20 8.5H17.5ZM17.5 9.5H20V19H17.5V9.5ZM10.5 9.5H13.5V10.5C13.5 11.3239 12.8239 12 12 12C11.1761 12 10.5 11.3239 10.5 10.5V9.5Z" fill="currentColor"></path>
</svg>