<svg width="1em" height="1em" viewBox="0 0 24 24" fill="none" xmlns="http://www.w3.org/2000/svg">
<path fill-rule="evenodd" clip-rule="evenodd" d="M18.25 9.75C18.2497 10.2019 18.2003 10.6525 18.1025 11.0938C19.1947 11.2904 20.1832 11.8643 20.8955 12.7153C21.6078 13.5662 21.9987 14.6403 22 15.75C21.9986 17.0093 21.4977 18.2167 20.6072 19.1072C19.7167 19.9977 18.5093 20.4986 17.25 20.5H7.25C5.85813 20.4983 4.52375 19.9447 3.53955 18.9604C2.55535 17.9762 2.00169 16.6419 2 15.25C2.00242 14.1165 2.37071 13.014 3.05006 12.1066C3.72942 11.1992 4.68355 10.5354 5.77051 10.2139C5.75781 10.0606 5.75 9.90625 5.75 9.75C5.75185 8.09297 6.41093 6.50433 7.58263 5.33263C8.75433 4.16093 10.343 3.50185 12 3.5C13.657 3.50185 15.2457 4.16093 16.4174 5.33263C17.5891 6.50433 18.2481 8.09297 18.25 9.75ZM7.25 19.5H17.25C18.2442 19.4987 19.1973 19.1033 19.9003 18.4003C20.6033 17.6973 20.9987 16.7442 21 15.75C20.998 14.7911 20.6279 13.8696 19.966 13.1757C19.3042 12.4818 18.4011 12.0687 17.4434 12.0215C17.3667 12.0175 17.292 11.9959 17.2249 11.9585C17.1579 11.9211 17.1003 11.8688 17.0566 11.8057C17.0133 11.7425 16.985 11.6702 16.974 11.5943C16.9629 11.5184 16.9695 11.4411 16.9932 11.3682C17.1627 10.8455 17.2494 10.2995 17.25 9.75C17.2483 8.35813 16.6946 7.02375 15.7104 6.03955C14.7262 5.05535 13.3919 4.50169 12 4.5C10.6081 4.50169 9.27375 5.05535 8.28955 6.03955C7.30535 7.02375 6.75169 8.35813 6.75 9.75C6.75229 10.0087 6.77351 10.2669 6.81346 10.5225C6.83169 10.6492 6.80063 10.778 6.72669 10.8825C6.65274 10.987 6.54154 11.0591 6.416 11.084C5.45361 11.2781 4.58787 11.7989 3.96535 12.5581C3.34284 13.3172 3.00181 14.2682 3 15.25C3.00118 16.3768 3.44932 17.4571 4.24609 18.2539C5.04287 19.0507 6.12319 19.4988 7.25 19.5ZM12.1909 9.03845C12.2519 9.06356 12.3074 9.10048 12.3541 9.14709L15.3535 12.1465C15.3999 12.1929 15.4368 12.248 15.4619 12.3087C15.487 12.3694 15.5 12.4344 15.5 12.5C15.5 12.5657 15.487 12.6307 15.4619 12.6913C15.4368 12.752 15.3999 12.8071 15.3535 12.8535C15.3071 12.9 15.252 12.9369 15.1914 12.962C15.1307 12.9872 15.0657 13.0001 15 13C14.9343 13.0001 14.8693 12.9872 14.8086 12.962C14.7479 12.9369 14.6928 12.9 14.6465 12.8535L12.5 10.707V15.5C12.5 15.5657 12.4871 15.6307 12.462 15.6914C12.4369 15.7521 12.4001 15.8072 12.3536 15.8536C12.3072 15.9001 12.2521 15.9369 12.1914 15.962C12.1307 15.9871 12.0657 16 12 16C11.9343 16 11.8693 15.9871 11.8086 15.962C11.7479 15.9369 11.6928 15.9001 11.6463 15.8536C11.5999 15.8072 11.5631 15.7521 11.538 15.6914C11.5129 15.6307 11.4999 15.5657 11.5 15.5V10.707L9.35347 12.8535C9.30705 12.8999 9.25194 12.9367 9.19128 12.9619C9.13063 12.987 9.06562 12.9999 8.99997 12.9999C8.93431 12.9999 8.8693 12.987 8.80864 12.9619C8.74799 12.9367 8.69288 12.8999 8.64647 12.8535C8.60003 12.8071 8.5632 12.752 8.53807 12.6913C8.51294 12.6306 8.5 12.5656 8.5 12.5C8.5 12.4343 8.51294 12.3693 8.53807 12.3087C8.5632 12.248 8.60003 12.1929 8.64647 12.1465L11.6459 9.14709C11.6926 9.10048 11.748 9.06356 11.8091 9.03845C11.9313 8.98792 12.0686 8.98792 12.1909 9.03845Z" fill="currentColor"></path>
</svg>