<svg width="1em" height="1em" viewBox="0 0 24 24" fill="none" xmlns="http://www.w3.org/2000/svg">
<path d="M18.457 10.7406C18.4854 10.4961 18.4998 10.2503 18.5 10.0042C18.5011 8.28982 17.8248 6.6444 16.6185 5.42625C15.4121 4.20809 13.7734 3.51585 12.0591 3.50027C10.3447 3.48469 8.69365 4.14702 7.46536 5.34304C6.23706 6.53907 5.53102 8.17193 5.50097 9.88607C4.30651 10.3515 3.3123 11.2198 2.69032 12.3407C2.06835 13.4617 1.85773 14.7647 2.0949 16.0246C2.33208 17.2844 3.00212 18.4216 3.98914 19.2397C4.97615 20.0577 6.21804 20.505 7.49997 20.5042H17C18.1974 20.5069 19.3559 20.0787 20.2638 19.298C21.1717 18.5173 21.7686 17.436 21.9453 16.2517C22.122 15.0673 21.8669 13.8589 21.2265 12.8471C20.586 11.8353 19.603 11.0876 18.457 10.7406ZM15.207 13.2113C15.1141 13.3041 15.0039 13.3778 14.8826 13.4281C14.7613 13.4784 14.6313 13.5042 14.4999 13.5042C14.3686 13.5042 14.2386 13.4784 14.1173 13.4281C13.996 13.3778 13.8857 13.3041 13.7929 13.2113L12.9999 12.4183V15.0042C12.9999 15.2694 12.8946 15.5238 12.707 15.7113C12.5195 15.8989 12.2651 16.0042 11.9999 16.0042C11.7347 16.0042 11.4803 15.8989 11.2928 15.7113C11.1053 15.5238 10.9999 15.2694 10.9999 15.0042V12.4183L10.2069 13.2113C10.0188 13.396 9.76539 13.4989 9.50178 13.4977C9.23816 13.4965 8.98569 13.3913 8.79929 13.2049C8.61289 13.0184 8.50765 12.766 8.50647 12.5023C8.50528 12.2387 8.60825 11.9853 8.79297 11.7972L11.2917 9.29845C11.4797 9.11096 11.7345 9.00568 12 9.00568C12.2655 9.00568 12.5203 9.11096 12.7083 9.29845L15.207 11.7972C15.2998 11.8901 15.3735 12.0003 15.4238 12.1216C15.474 12.2429 15.4999 12.3729 15.4999 12.5042C15.4999 12.6355 15.474 12.7656 15.4238 12.8869C15.3735 13.0082 15.2998 13.1184 15.207 13.2112V13.2113Z" fill="currentColor"></path>
</svg>