<svg width="1em" height="1em" viewBox="0 0 24 24" fill="none" xmlns="http://www.w3.org/2000/svg">
<path fill-rule="evenodd" clip-rule="evenodd" d="M16.9535 7.04645C17.0831 7.17603 17.1314 7.3661 17.0794 7.54182L14.9824 14.6319C14.9603 14.7131 14.9173 14.7898 14.8536 14.8536C14.79 14.9171 14.7137 14.9599 14.6328 14.9821L7.54179 17.0795C7.36607 17.1314 7.176 17.0831 7.04642 16.9536C6.91685 16.824 6.86854 16.6339 6.92051 16.4582L9.0182 9.36599C9.03807 9.29431 9.0742 9.22618 9.1266 9.16746C9.13885 9.1537 9.15185 9.14063 9.16554 9.12831C9.225 9.07472 9.29421 9.03792 9.36708 9.0179L16.4582 6.92054C16.6339 6.86857 16.824 6.91688 16.9535 7.04645ZM15.8596 8.14041L14.259 13.5519L10.4481 9.74099L15.8596 8.14041ZM8.14038 15.8596L9.74097 10.4481L13.5519 14.259L8.14038 15.8596Z" fill="currentColor"></path>
<path fill-rule="evenodd" clip-rule="evenodd" d="M22 12C22 17.5228 17.5228 22 12 22C6.47715 22 2 17.5228 2 12C2 6.47715 6.47715 2 12 2C17.5228 2 22 6.47715 22 12ZM12.5 3.01365V4.5C12.5 4.77614 12.2761 5 12 5C11.7239 5 11.5 4.77614 11.5 4.5V3.01365C6.92752 3.26403 3.26403 6.92752 3.01365 11.5H4.5C4.77614 11.5 5 11.7239 5 12C5 12.2761 4.77614 12.5 4.5 12.5H3.01365C3.26403 17.0725 6.92752 20.736 11.5 20.9863V19.5C11.5 19.2239 11.7239 19 12 19C12.2761 19 12.5 19.2239 12.5 19.5V20.9863C17.0725 20.736 20.736 17.0725 20.9863 12.5H19.5C19.2239 12.5 19 12.2761 19 12C19 11.7239 19.2239 11.5 19.5 11.5H20.9863C20.736 6.92752 17.0725 3.26403 12.5 3.01365Z" fill="currentColor"></path>
</svg>