<svg width="1em" height="1em" viewBox="0 0 24 24" fill="none" xmlns="http://www.w3.org/2000/svg">
<path d="M5.2 15C4.57713 15.2255 4.03539 15.6312 3.64365 16.1653C3.25191 16.6995 3.02787 17.3382 3 18C3 18.1326 2.94732 18.2598 2.85355 18.3536C2.75979 18.4473 2.63261 18.5 2.5 18.5C2.36739 18.5 2.24021 18.4473 2.14645 18.3536C2.05268 18.2598 2 18.1326 2 18C2 16.3 3.17 14.53 5.64 13.82C5.07567 13.3654 4.63117 12.7797 4.3453 12.1138C4.05943 11.4479 3.94088 10.7222 4 10C4 7.86 4.87 6.38 6.38 5.79C6.24829 6.22438 6.15461 6.66939 6.1 7.12C5.71929 7.49194 5.42378 7.94204 5.23388 8.43926C5.04397 8.93647 4.96417 9.46896 5 10C5 11.12 5.3 12.88 7 13.36C6.31378 13.8038 5.70559 14.3579 5.2 15ZM19 20.5C19 20.6326 18.9473 20.7598 18.8536 20.8536C18.7598 20.9473 18.6326 21 18.5 21H5.5C5.36739 21 5.24021 20.9473 5.14645 20.8536C5.05268 20.7598 5 20.6326 5 20.5C5 17.69 6.28 14.72 9.67 13.8C8.3 12.87 7.5 11.06 7.5 8.59C7.5 5.09 9.18 3 12 3C14.82 3 16.5 5.09 16.5 8.59C16.5 11.06 15.7 12.87 14.33 13.8C17.72 14.72 19 17.69 19 20.5ZM12 13.5C15.25 13.5 15.5 9.74 15.5 8.59C15.5 6.88 15 4 12 4C9 4 8.5 6.88 8.5 8.59C8.5 9.74 8.75 13.5 12 13.5ZM18 20C17.89 18.23 17 14.5 12 14.5C7 14.5 6.13 18.23 6 20H18ZM18.4 13.81C18.9543 13.3511 19.3893 12.7649 19.6679 12.1015C19.9465 11.438 20.0604 10.717 20 10C20 7.86 19.13 6.38 17.62 5.79C17.7517 6.22438 17.8454 6.66939 17.9 7.12C18.2807 7.49194 18.5762 7.94204 18.7661 8.43926C18.956 8.93647 19.0358 9.46896 19 10C19 11.12 18.7 12.88 17 13.36C17.6862 13.8038 18.2944 14.3579 18.8 15C19.4229 15.2255 19.9646 15.6312 20.3563 16.1653C20.7481 16.6995 20.9721 17.3382 21 18C21 18.1326 21.0527 18.2598 21.1464 18.3536C21.2402 18.4473 21.3674 18.5 21.5 18.5C21.6326 18.5 21.7598 18.4473 21.8536 18.3536C21.9473 18.2598 22 18.1326 22 18C21.9517 16.9975 21.569 16.04 20.9128 15.2805C20.2566 14.5211 19.3649 14.0033 18.38 13.81H18.4Z" fill="currentColor"></path>
</svg>