<svg width="1em" height="1em" viewBox="0 0 24 24" fill="none" xmlns="http://www.w3.org/2000/svg">
<path d="M4 18C4 18.2652 3.89464 18.5196 3.70711 18.7071C3.51957 18.8946 3.26522 19 3 19C2.73478 19 2.48043 18.8946 2.29289 18.7071C2.10536 18.5196 2 18.2652 2 18C2.03743 17.0371 2.36086 16.1072 2.92901 15.3288C3.49717 14.5505 4.2843 13.9591 5.19 13.63C4.3593 12.6081 3.93549 11.3153 4 10C4 7.61 5 5.94 6.8 5.3C6.24562 6.55929 5.9726 7.92435 6 9.3C6 9.42 6 9.53 6 9.64C6 9.75 6 9.88 6 10C5.99114 10.4842 6.05863 10.9668 6.2 11.43C6.37283 12.3533 6.71164 13.2376 7.2 14.04C6.49657 14.5106 5.88629 15.1073 5.4 15.8C4.99802 16.0164 4.65826 16.3323 4.41316 16.7175C4.16805 17.1026 4.02581 17.5442 4 18ZM18.81 13.63C19.6407 12.6081 20.0645 11.3153 20 10C20 7.61 19 5.94 17.2 5.3C17.7544 6.55929 18.0274 7.92435 18 9.3C18 9.42 18 9.53 18 9.64C18 9.75 18 9.85 18 9.97C18.0089 10.4542 17.9414 10.9368 17.8 11.4C17.6415 12.3165 17.3197 13.1972 16.85 14C17.5534 14.4706 18.1637 15.0673 18.65 15.76C19.0483 15.9862 19.3816 16.3111 19.618 16.7034C19.8545 17.0957 19.986 17.5422 20 18C20 18.2652 20.1054 18.5196 20.2929 18.7071C20.4804 18.8946 20.7348 19 21 19C21.2652 19 21.5196 18.8946 21.7071 18.7071C21.8946 18.5196 22 18.2652 22 18C21.9626 17.0371 21.6391 16.1072 21.071 15.3288C20.5028 14.5505 19.7157 13.9591 18.81 13.63ZM19 20C19.0022 18.8063 18.6587 17.6376 18.011 16.6349C17.3633 15.6323 16.4391 14.8387 15.35 14.35C16.5297 12.9616 17.1217 11.1679 17 9.35C17 5.37 15.13 3 12 3C8.87 3 7 5.37 7 9.33C6.87834 11.1479 7.47026 12.9416 8.65 14.33C7.55782 14.8201 6.63148 15.6168 5.98352 16.6233C5.33556 17.6299 4.99389 18.8029 5 20C5 20.2652 5.10536 20.5196 5.29289 20.7071C5.48043 20.8946 5.73478 21 6 21H18C18.2652 21 18.5196 20.8946 18.7071 20.7071C18.8946 20.5196 19 20.2652 19 20ZM12 15.67C15.18 15.67 16.48 17.5 16.87 19H7.13C7.52 17.5 8.82 15.67 12 15.67ZM15 9.33C15 11.33 14.48 13.67 12 13.67C9.52 13.67 9 11.31 9 9.33C9 7.35 9.52 5 12 5C14.48 5 15 7.36 15 9.33Z" fill="currentColor"></path>
</svg>