<svg width="1em" height="1em" viewBox="0 0 24 24" fill="none" xmlns="http://www.w3.org/2000/svg">
<path fill-rule="evenodd" clip-rule="evenodd" d="M14 7.5C12.6193 7.5 11.5 8.61929 11.5 10C11.5 10.8576 11.9318 11.6144 12.5899 12.0647C11.0899 12.6461 10 14.1178 10 15.8C10 16.0761 10.2239 16.3 10.5 16.3H17.5C17.7761 16.3 18 16.0761 18 15.8C18 14.1178 16.9101 12.6461 15.4101 12.0647C16.0682 11.6144 16.5 10.8576 16.5 10C16.5 8.61929 15.3807 7.5 14 7.5ZM12.5 10C12.5 9.17157 13.1716 8.5 14 8.5C14.8284 8.5 15.5 9.17157 15.5 10C15.5 10.8284 14.8284 11.5 14 11.5C13.1716 11.5 12.5 10.8284 12.5 10ZM16.9561 15.3H11.0439C11.2905 13.9034 12.5459 12.8 14 12.8C15.4541 12.8 16.7095 13.9034 16.9561 15.3Z" fill="currentColor"></path>
<path fill-rule="evenodd" clip-rule="evenodd" d="M4 4.5C4 3.12386 5.12386 2 6.5 2H17.5C18.8761 2 20 3.12386 20 4.5V19.5C20 20.8761 18.8761 22 17.5 22H6.5C5.12386 22 4 20.8761 4 19.5V4.5ZM6.5 3C5.67614 3 5 3.67614 5 4.5V19.5C5 20.3239 5.67614 21 6.5 21H8V3H6.5ZM17.5 21H9V3H17.5C18.3239 3 19 3.67614 19 4.5V19.5C19 20.3239 18.3239 21 17.5 21Z" fill="currentColor"></path>
</svg>