<svg width="1em" height="1em" viewBox="0 0 24 24" fill="none" xmlns="http://www.w3.org/2000/svg">
<path fill-rule="evenodd" clip-rule="evenodd" d="M8.12855 4.12855C8.05994 4.19716 8 4.31362 8 4.5V6H15.5C15.9136 6 16.2972 6.14006 16.5786 6.42145C16.8599 6.70284 17 7.08638 17 7.5V17H19.5C19.6864 17 19.8028 16.9401 19.8714 16.8714C19.9401 16.8028 20 16.6864 20 16.5V4.5C20 4.31362 19.9401 4.19716 19.8714 4.12855C19.8028 4.05994 19.6864 4 19.5 4H8.5C8.31362 4 8.19716 4.05994 8.12855 4.12855ZM17 18H19.5C19.9136 18 20.2972 17.8599 20.5786 17.5786C20.8599 17.2972 21 16.9136 21 16.5V4.5C21 4.08638 20.8599 3.70284 20.5786 3.42145C20.2972 3.14006 19.9136 3 19.5 3H8.5C8.08638 3 7.70284 3.14006 7.42145 3.42145C7.14006 3.70284 7 4.08638 7 4.5V6H4.5C4.08638 6 3.70284 6.14006 3.42145 6.42145C3.14006 6.70284 3 7.08638 3 7.5V19.5C3 19.9136 3.14006 20.2972 3.42145 20.5786C3.70284 20.8599 4.08638 21 4.5 21H15.5C15.9136 21 16.2972 20.8599 16.5786 20.5786C16.8599 20.2972 17 19.9136 17 19.5V18ZM4 7.5C4 7.31362 4.05994 7.19716 4.12855 7.12855C4.19716 7.05994 4.31362 7 4.5 7H15.5C15.6864 7 15.8028 7.05994 15.8714 7.12855C15.9401 7.19716 16 7.31362 16 7.5V19.5C16 19.6864 15.9401 19.8028 15.8714 19.8714C15.8028 19.9401 15.6864 20 15.5 20H4.5C4.31362 20 4.19716 19.9401 4.12855 19.8714C4.05994 19.8028 4 19.6864 4 19.5V7.5Z" fill="currentColor"></path>
</svg>