<svg width="1em" height="1em" viewBox="0 0 24 24" fill="none" xmlns="http://www.w3.org/2000/svg">
<path fill-rule="evenodd" clip-rule="evenodd" d="M2.58579 4.58579C2.96086 4.21071 3.46957 4 4 4H20C20.5304 4 21.0391 4.21071 21.4142 4.58579C21.7893 4.96086 22 5.46957 22 6V13C22 13.5523 21.5523 14 21 14C20.4477 14 20 13.5523 20 13V12H4V18H13C13.5523 18 14 18.4477 14 19C14 19.5523 13.5523 20 13 20H4C3.46957 20 2.96086 19.7893 2.58579 19.4142C2.21071 19.0391 2 18.5304 2 18V6C2 5.46957 2.21071 4.96086 2.58579 4.58579ZM20 6V8H4V6L20 6Z" fill="currentColor"></path>
<path d="M6.5 14C5.94772 14 5.5 14.4477 5.5 15C5.5 15.5523 5.94772 16 6.5 16H8.5C9.05228 16 9.5 15.5523 9.5 15C9.5 14.4477 9.05228 14 8.5 14H6.5Z" fill="currentColor"></path>
<path d="M18 14C18.5523 14 19 14.4477 19 15V16H20C20.5523 16 21 16.4477 21 17C21 17.5523 20.5523 18 20 18H19V19C19 19.5523 18.5523 20 18 20C17.4477 20 17 19.5523 17 19V18H16C15.4477 18 15 17.5523 15 17C15 16.4477 15.4477 16 16 16H17V15C17 14.4477 17.4477 14 18 14Z" fill="currentColor"></path>
</svg>