<svg width="1em" height="1em" viewBox="0 0 24 24" fill="none" xmlns="http://www.w3.org/2000/svg">
<path d="M4.5 13C4.22386 13 4 13.2239 4 13.5C4 13.7761 4.22386 14 4.5 14H11.5C11.7761 14 12 13.7761 12 13.5C12 13.2239 11.7761 13 11.5 13H4.5Z" fill="currentColor"></path>
<path d="M4 15.5C4 15.2239 4.22386 15 4.5 15H9.5C9.77614 15 10 15.2239 10 15.5C10 15.7761 9.77614 16 9.5 16H4.5C4.22386 16 4 15.7761 4 15.5Z" fill="currentColor"></path>
<path fill-rule="evenodd" clip-rule="evenodd" d="M14 14.5C14 13.4239 14.9239 12.5 16 12.5C16.3925 12.5 16.7136 12.6384 16.9681 12.7864C17.2694 12.6046 17.6225 12.5 18 12.5C19.1046 12.5 20 13.3954 20 14.5C20 15.6046 19.1046 16.5 18 16.5C17.6376 16.5 17.2977 16.4036 17.0046 16.2351C16.9135 16.2922 16.818 16.3403 16.717 16.3792C16.4814 16.4698 16.2417 16.5 16 16.5C14.9239 16.5 14 15.5761 14 14.5ZM17.3536 15.2464C17.3706 15.2635 17.3862 15.2815 17.4003 15.3003C17.5674 15.4257 17.775 15.5 18 15.5C18.5523 15.5 19 15.0523 19 14.5C19 13.9477 18.5523 13.5 18 13.5C17.7749 13.5 17.5672 13.5743 17.4001 13.6998C17.386 13.7187 17.3705 13.7367 17.3536 13.7536C17.1237 13.9834 17 14.2626 17 14.5C17 14.7374 17.1237 15.0166 17.3536 15.2464ZM16 13.5C16.0845 13.5 16.1623 13.5146 16.243 13.5437C16.0881 13.8278 16 14.1536 16 14.5C16 14.8547 16.0923 15.1878 16.2542 15.4766C16.1847 15.4917 16.1023 15.5 16 15.5C15.4761 15.5 15 15.0239 15 14.5C15 13.9761 15.4761 13.5 16 13.5Z" fill="currentColor"></path>
<path fill-rule="evenodd" clip-rule="evenodd" d="M2 17.5C2 17.9136 2.14006 18.2972 2.42145 18.5786C2.70284 18.8599 3.08638 19 3.5 19H20.5C20.9136 19 21.2972 18.8599 21.5786 18.5786C21.8599 18.2972 22 17.9136 22 17.5V6.5C22 6.08638 21.8599 5.70284 21.5786 5.42145C21.2972 5.14006 20.9136 5 20.5 5H3.5C3.08638 5 2.70284 5.14006 2.42145 5.42145C2.14006 5.70284 2 6.08638 2 6.5V17.5ZM3.12855 6.12855C3.05994 6.19716 3 6.31362 3 6.5V7.5H21V6.5C21 6.31362 20.9401 6.19716 20.8714 6.12855C20.8028 6.05994 20.6864 6 20.5 6H3.5C3.31362 6 3.19716 6.05994 3.12855 6.12855ZM20.8714 17.8714C20.9401 17.8028 21 17.6864 21 17.5V11.5H3V17.5C3 17.6864 3.05994 17.8028 3.12855 17.8714C3.19716 17.9401 3.31362 18 3.5 18H20.5C20.6864 18 20.8028 17.9401 20.8714 17.8714Z" fill="currentColor"></path>
</svg>