<svg width="1em" height="1em" viewBox="0 0 24 24" fill="none" xmlns="http://www.w3.org/2000/svg">
<path d="M6.59996 10.7001C6.37904 10.5344 6.06564 10.5791 5.89996 10.8001C5.73427 11.021 5.77904 11.3344 5.99996 11.5001L6.39996 11.8001C6.62087 11.9657 6.93427 11.921 7.09996 11.7C7.26564 11.4791 7.22087 11.1657 6.99996 11L6.59996 10.7001Z" fill="currentColor"></path>
<path d="M9.71434 8.5358C9.97073 8.43325 10.2617 8.55795 10.3643 8.81435L10.5643 9.31435C10.6668 9.57074 10.5421 9.86172 10.2857 9.96428C10.0293 10.0668 9.73836 9.94213 9.6358 9.68574L9.4358 9.18574C9.33324 8.92935 9.45795 8.63836 9.71434 8.5358Z" fill="currentColor"></path>
<path d="M18 11.5001C18.2209 11.3344 18.2656 11.021 18.1 10.8001C17.9343 10.5791 17.6209 10.5344 17.4 10.7L17 11C16.779 11.1657 16.7343 11.4791 16.9 11.7C17.0656 11.921 17.379 11.9657 17.6 11.8001L18 11.5001Z" fill="currentColor"></path>
<path d="M20.1903 14.602C20.2445 14.8728 20.0689 15.1362 19.7981 15.1903L19.2981 15.2903C19.0273 15.3445 18.7639 15.1689 18.7098 14.8981C18.6556 14.6273 18.8312 14.3639 19.102 14.3098L19.602 14.2098C19.8728 14.1556 20.1362 14.3312 20.1903 14.602Z" fill="currentColor"></path>
<path d="M14.5643 9.18574C14.6668 8.92935 14.5421 8.63836 14.2857 8.5358C14.0293 8.43325 13.7384 8.55795 13.6358 8.81435L13.4358 9.31435C13.3332 9.57074 13.4579 9.86172 13.7143 9.96428C13.9707 10.0668 14.2617 9.94213 14.3643 9.68574L14.5643 9.18574Z" fill="currentColor"></path>
<path d="M3.80973 14.602C3.86389 14.3312 4.1273 14.1556 4.39808 14.2098L4.89808 14.3098C5.16886 14.3639 5.34447 14.6273 5.29031 14.8981C5.23616 15.1689 4.97274 15.3445 4.70196 15.2903L4.20196 15.1903C3.93119 15.1362 3.75558 14.8728 3.80973 14.602Z" fill="currentColor"></path>
<path fill-rule="evenodd" clip-rule="evenodd" d="M2.5 17.3H21.5C21.7761 17.3 22 17.0762 22 16.8C22 11.2205 17.4727 6.80005 12 6.80005C6.52386 6.80005 2 11.3239 2 16.8C2 17.0762 2.22386 17.3 2.5 17.3ZM3.01406 16.3H9.04015C9.20747 15.2721 9.88402 14.4317 10.8094 14.0393L10.118 11.533C10.0445 11.2668 10.2008 10.9915 10.467 10.918C10.7332 10.8446 11.0085 11.0009 11.082 11.2671L11.7828 13.8075C11.8545 13.8026 11.9269 13.8 12 13.8C13.5055 13.8 14.7268 14.868 14.9599 16.3H20.9865C20.7267 11.5179 16.7625 7.80005 12 7.80005C7.24383 7.80005 3.27863 11.6033 3.01406 16.3ZM12 14.8C12.9505 14.8 13.7239 15.4268 13.9398 16.3H10.0602C10.2761 15.4268 11.0495 14.8 12 14.8Z" fill="currentColor"></path>
</svg>