<svg width="1em" height="1em" viewBox="0 0 24 24" fill="none" xmlns="http://www.w3.org/2000/svg">
<path d="M2 16.5C2 11 6.5 6.5 12 6.5C17.5 6.5 22 11 22 16.6C22 17.2 21.6 17.6 21 17.6H17C16.4 17.6 16 17.2 16 16.6C16 16 16.4 15.6 17 15.6H19.9C19.7 14 19 12.6 18 11.4L17.7 11.7C17.5 11.9 17.2 12 17 12C16.8 12 16.5 11.9 16.3 11.7C15.9 11.3 15.9 10.7 16.3 10.3L16.6 10C15.6 9.3 14.3 8.8 13 8.6V9C13 9.6 12.6 10 12 10C11.4 10 11 9.6 11 9V8.6C9.7 8.8 8.4 9.3 7.4 10L7.7 10.3C8.1 10.7 8.1 11.3 7.7 11.7C7.5 11.9 7.3 12 7 12C6.7 12 6.4 11.9 6.3 11.6L6 11.3C5 12.5 4.3 13.9 4.1 15.5H7C7.6 15.5 8 15.9 8 16.5C8 17.1 7.6 17.5 7 17.5H3C2.4 17.5 2 17.1 2 16.5Z" fill="currentColor"></path>
<path d="M10 16C10 15.8172 10.0249 15.6399 10.0714 15.4714L8.3 13.7C7.9 13.3 7.9 12.7 8.3 12.3C8.7 11.9 9.3 11.9 9.7 12.3L11.4714 14.0714C11.6399 14.0249 11.8172 14 12 14C13.1 14 14 14.9 14 16C14 17.1 13.1 18 12 18C10.9 18 10 17.1 10 16Z" fill="currentColor"></path>
</svg>