<svg width="1em" height="1em" viewBox="0 0 24 24" fill="none" xmlns="http://www.w3.org/2000/svg">
<path d="M11 7.5C11 7.22386 10.7761 7 10.5 7C10.2239 7 10 7.22386 10 7.5V10H7.5C7.22386 10 7 10.2239 7 10.5C7 10.7761 7.22386 11 7.5 11H10V13.5C10 13.7761 10.2239 14 10.5 14C10.7761 14 11 13.7761 11 13.5V11H13.5C13.7761 11 14 10.7761 14 10.5C14 10.2239 13.7761 10 13.5 10H11V7.5Z" fill="currentColor"></path>
<path fill-rule="evenodd" clip-rule="evenodd" d="M10.5 3C6.35786 3 3 6.35786 3 10.5C3 14.6421 6.35786 18 10.5 18C12.3911 18 14.1188 17.3001 15.438 16.1451L20.1465 20.8535C20.3417 21.0488 20.6583 21.0488 20.8536 20.8535C21.0488 20.6583 21.0488 20.3417 20.8536 20.1464L16.1451 15.438C17.3001 14.1188 18 12.3911 18 10.5C18 6.35786 14.6421 3 10.5 3ZM4 10.5C4 6.91015 6.91015 4 10.5 4C14.0899 4 17 6.91015 17 10.5C17 14.0899 14.0899 17 10.5 17C6.91015 17 4 14.0899 4 10.5Z" fill="currentColor"></path>
</svg>