<svg width="1em" height="1em" viewBox="0 0 24 24" fill="none" xmlns="http://www.w3.org/2000/svg">
<path d="M15.2071 8.79289C14.8166 8.40237 14.1834 8.40237 13.7929 8.79289L8.79289 13.7929C8.40237 14.1834 8.40237 14.8166 8.79289 15.2071C9.18342 15.5976 9.81658 15.5976 10.2071 15.2071L15.2071 10.2071C15.5976 9.81658 15.5976 9.18342 15.2071 8.79289Z" fill="currentColor"></path>
<path d="M9.5 11C10.3284 11 11 10.3284 11 9.5C11 8.67157 10.3284 8 9.5 8C8.67157 8 8 8.67157 8 9.5C8 10.3284 8.67157 11 9.5 11Z" fill="currentColor"></path>
<path d="M16 14.5C16 15.3284 15.3284 16 14.5 16C13.6716 16 13 15.3284 13 14.5C13 13.6716 13.6716 13 14.5 13C15.3284 13 16 13.6716 16 14.5Z" fill="currentColor"></path>
<path fill-rule="evenodd" clip-rule="evenodd" d="M12.8269 2.43769C12.6407 2.16389 12.3311 2 12 2C11.6689 2 11.3593 2.16389 11.1731 2.43769L9.9507 4.2353L7.92111 3.29299C7.62744 3.15664 7.28593 3.17092 7.00466 3.3313C6.72339 3.49168 6.53718 3.77832 6.50496 4.1005L6.28638 6.28638L4.1005 6.50496C3.77832 6.53718 3.49168 6.72339 3.3313 7.00466C3.17092 7.28593 3.15664 7.62744 3.29299 7.92111L4.2353 9.9507L2.43769 11.1731C2.16389 11.3593 2 11.6689 2 12C2 12.3311 2.16389 12.6407 2.43769 12.8269L4.2353 14.0493L3.29299 16.0789C3.15664 16.3726 3.17092 16.7141 3.3313 16.9953C3.49168 17.2766 3.77832 17.4628 4.1005 17.495L6.28638 17.7136L6.50496 19.8995C6.53718 20.2217 6.72339 20.5083 7.00466 20.6687C7.28593 20.8291 7.62744 20.8434 7.92111 20.707L9.9507 19.7647L11.1731 21.5623C11.3593 21.8361 11.6689 22 12 22C12.3311 22 12.6407 21.8361 12.8269 21.5623L14.0493 19.7647L16.0789 20.707C16.3726 20.8434 16.7141 20.8291 16.9953 20.6687C17.2766 20.5083 17.4628 20.2217 17.495 19.8995L17.7136 17.7136L19.8995 17.495C20.2217 17.4628 20.5083 17.2766 20.6687 16.9953C20.8291 16.7141 20.8434 16.3726 20.707 16.0789L19.7647 14.0493L21.5623 12.8269C21.8361 12.6407 22 12.3311 22 12C22 11.6689 21.8361 11.3593 21.5623 11.1731L19.7647 9.9507L20.707 7.92111C20.8434 7.62744 20.8291 7.28593 20.6687 7.00466C20.5083 6.72339 20.2217 6.53718 19.8995 6.50496L17.7136 6.28638L17.495 4.1005C17.4628 3.77832 17.2766 3.49168 16.9953 3.3313C16.7141 3.17092 16.3726 3.15664 16.0789 3.29299L14.0493 4.2353L12.8269 2.43769ZM11.1269 6.06231L12 4.77838L12.8731 6.06231C13.1485 6.46737 13.6768 6.61329 14.1211 6.40701L15.645 5.69951L15.805 7.2995C15.8523 7.77309 16.2269 8.14768 16.7005 8.19504L18.3005 8.35504L17.593 9.87889C17.3867 10.3232 17.5326 10.8515 17.9377 11.1269L19.2216 12L17.9377 12.8731C17.5326 13.1485 17.3867 13.6768 17.593 14.1211L18.3005 15.645L16.7005 15.805C16.2269 15.8523 15.8523 16.2269 15.805 16.7005L15.645 18.3005L14.1211 17.593C13.6768 17.3867 13.1485 17.5326 12.8731 17.9377L12 19.2216L11.1269 17.9377C10.8515 17.5326 10.3232 17.3867 9.87889 17.593L8.35504 18.3005L8.19504 16.7005C8.14768 16.2269 7.77309 15.8523 7.2995 15.805L5.69951 15.645L6.40701 14.1211C6.61329 13.6768 6.46737 13.1485 6.06231 12.8731L4.77838 12L6.06231 11.1269C6.46737 10.8515 6.61329 10.3232 6.40701 9.87889L5.69951 8.35504L7.2995 8.19504C7.77309 8.14768 8.14768 7.77309 8.19504 7.2995L8.35504 5.69951L9.87889 6.40701C10.3232 6.61329 10.8515 6.46737 11.1269 6.06231Z" fill="currentColor"></path>
</svg>