<svg width="1em" height="1em" viewBox="0 0 24 24" fill="none" xmlns="http://www.w3.org/2000/svg">
<path d="M7 10C8.65685 10 10 8.65685 10 7C10 5.34315 8.65685 4 7 4C5.34315 4 4 5.34315 4 7C4 8.65685 5.34315 10 7 10Z" fill="currentColor"></path>
<path d="M18.4142 8.41421L8.41421 18.4142C7.63317 19.1953 6.36684 19.1953 5.58579 18.4142C4.80474 17.6332 4.80474 16.3668 5.58579 15.5858L15.5858 5.58579C16.3668 4.80474 17.6332 4.80474 18.4142 5.58579C19.1953 6.36684 19.1953 7.63317 18.4142 8.41421Z" fill="currentColor"></path>
<path d="M20 17C20 18.6569 18.6569 20 17 20C15.3431 20 14 18.6569 14 17C14 15.3431 15.3431 14 17 14C18.6569 14 20 15.3431 20 17Z" fill="currentColor"></path>
</svg>