<svg width="1em" height="1em" viewBox="0 0 24 24" fill="none" xmlns="http://www.w3.org/2000/svg">
<path d="M15.3536 9.35355C15.5488 9.15829 15.5488 8.84171 15.3536 8.64645C15.1583 8.45118 14.8417 8.45118 14.6464 8.64645L8.64645 14.6464C8.45118 14.8417 8.45118 15.1583 8.64645 15.3536C8.84171 15.5488 9.15829 15.5488 9.35355 15.3536L15.3536 9.35355Z" fill="currentColor"></path>
<path fill-rule="evenodd" clip-rule="evenodd" d="M7.5 9.5C7.5 8.39543 8.39543 7.5 9.5 7.5C10.6046 7.5 11.5 8.39543 11.5 9.5C11.5 10.6046 10.6046 11.5 9.5 11.5C8.39543 11.5 7.5 10.6046 7.5 9.5ZM9.5 8.5C8.94772 8.5 8.5 8.94772 8.5 9.5C8.5 10.0523 8.94772 10.5 9.5 10.5C10.0523 10.5 10.5 10.0523 10.5 9.5C10.5 8.94772 10.0523 8.5 9.5 8.5Z" fill="currentColor"></path>
<path fill-rule="evenodd" clip-rule="evenodd" d="M14.5 12.5C13.3954 12.5 12.5 13.3954 12.5 14.5C12.5 15.6046 13.3954 16.5 14.5 16.5C15.6046 16.5 16.5 15.6046 16.5 14.5C16.5 13.3954 15.6046 12.5 14.5 12.5ZM13.5 14.5C13.5 13.9477 13.9477 13.5 14.5 13.5C15.0523 13.5 15.5 13.9477 15.5 14.5C15.5 15.0523 15.0523 15.5 14.5 15.5C13.9477 15.5 13.5 15.0523 13.5 14.5Z" fill="currentColor"></path>
<path fill-rule="evenodd" clip-rule="evenodd" d="M12.4111 2.21539C12.3177 2.0805 12.1641 2 12 2C11.8359 2 11.6823 2.0805 11.5889 2.21539L10.0224 4.47812L7.3988 3.34122C7.24933 3.27645 7.07767 3.28856 6.93877 3.37367C6.79987 3.45878 6.71114 3.60622 6.70097 3.76881L6.52849 6.52849L3.76881 6.70097C3.60622 6.71114 3.45878 6.79987 3.37367 6.93877C3.28856 7.07767 3.27645 7.24933 3.34122 7.3988L4.47812 10.0224L2.21539 11.5889C2.0805 11.6823 2 11.8359 2 12C2 12.1641 2.0805 12.3177 2.21539 12.4111L4.47812 13.9776L3.34122 16.6012C3.27645 16.7507 3.28856 16.9223 3.37367 17.0612C3.45878 17.2001 3.60622 17.2889 3.76881 17.299L6.52849 17.4715L6.70097 20.2312C6.71114 20.3938 6.79987 20.5412 6.93877 20.6263C7.07767 20.7114 7.24933 20.7236 7.3988 20.6588L10.0224 19.5219L11.5889 21.7846C11.6823 21.9195 11.8359 22 12 22C12.1641 22 12.3177 21.9195 12.4111 21.7846L13.9776 19.5219L16.6012 20.6588C16.7507 20.7236 16.9223 20.7114 17.0612 20.6263C17.2001 20.5412 17.2889 20.3938 17.299 20.2312L17.4715 17.4715L20.2312 17.299C20.3938 17.2889 20.5412 17.2001 20.6263 17.0612C20.7114 16.9223 20.7236 16.7507 20.6588 16.6012L19.5219 13.9776L21.7846 12.4111C21.9195 12.3177 22 12.1641 22 12C22 11.8359 21.9195 11.6823 21.7846 11.5889L19.5219 10.0224L20.6588 7.3988C20.7236 7.24933 20.7114 7.07767 20.6263 6.93877C20.5412 6.79987 20.3938 6.71114 20.2312 6.70097L17.4715 6.52849L17.299 3.76881C17.2889 3.60622 17.2001 3.45878 17.0612 3.37367C16.9223 3.28856 16.7507 3.27645 16.6012 3.34122L13.9776 4.47812L12.4111 2.21539ZM10.6111 5.3846L12 3.37841L13.3889 5.3846C13.5247 5.58068 13.78 5.6536 13.9988 5.55878L16.3454 4.54192L16.501 7.03119C16.5167 7.28277 16.7172 7.4833 16.9688 7.49903L19.4581 7.65461L18.4412 10.0012C18.3464 10.22 18.4193 10.4753 18.6154 10.6111L20.6216 12L18.6154 13.3889C18.4193 13.5247 18.3464 13.78 18.4412 13.9988L19.4581 16.3454L16.9688 16.501C16.7172 16.5167 16.5167 16.7172 16.501 16.9688L16.3454 19.4581L13.9988 18.4412C13.78 18.3464 13.5247 18.4193 13.3889 18.6154L12 20.6216L10.6111 18.6154C10.4753 18.4193 10.22 18.3464 10.0012 18.4412L7.65461 19.4581L7.49903 16.9688C7.4833 16.7172 7.28277 16.5167 7.03119 16.501L4.54192 16.3454L5.55878 13.9988C5.6536 13.78 5.58068 13.5247 5.3846 13.3889L3.37841 12L5.3846 10.6111C5.58068 10.4753 5.6536 10.22 5.55878 10.0012L4.54192 7.65461L7.03119 7.49903C7.28277 7.4833 7.4833 7.28277 7.49903 7.03119L7.65461 4.54192L10.0012 5.55878C10.22 5.6536 10.4753 5.58068 10.6111 5.3846Z" fill="currentColor"></path>
</svg>