<svg width="1em" height="1em" viewBox="0 0 24 24" fill="none" xmlns="http://www.w3.org/2000/svg">
<path d="M12.5 4.5C12.5 4.22386 12.2761 4 12 4C11.7239 4 11.5 4.22386 11.5 4.5V18.1596L5.87785 11.6725C5.697 11.4639 5.38122 11.4413 5.17254 11.6222C4.96386 11.803 4.94131 12.1188 5.12216 12.3275L11.6196 19.8245C11.7113 19.9319 11.8477 20 12 20C12.1208 20 12.2316 19.9572 12.318 19.8858C12.3396 19.8681 12.3596 19.8485 12.3779 19.8275" fill="currentColor"></path>
<path d="M12.379 19.8262L18.8779 12.3275C19.0587 12.1188 19.0362 11.803 18.8275 11.6222C18.6188 11.4413 18.303 11.4639 18.1222 11.6725L12.5 18.1596V4.5" fill="currentColor"></path>
</svg>