<svg width="1em" height="1em" viewBox="0 0 24 24" fill="none" xmlns="http://www.w3.org/2000/svg">
<path fill-rule="evenodd" clip-rule="evenodd" d="M7 5C7 3.89543 7.89543 3 9 3H15C16.1046 3 17 3.89543 17 5V6H19C20.1046 6 21 6.89543 21 8V19C21 20.1046 20.1046 21 19 21H5C3.89543 21 3 20.1046 3 19V8C3 6.89543 3.89543 6 5 6H7V5ZM15 5V6H9V5H15ZM5 8H8H16H19V19H5V8ZM12.4785 12.0314C12.4785 12.0314 12.0067 10.6207 14.1516 10.6207C14.219 10.6207 15.4636 9.82625 15.9499 9.50848C15.9612 9.49717 15.9795 9.49717 15.9909 9.50848C16.0022 9.51978 16.0022 9.5381 15.9909 9.5494C15.6418 9.89125 14.8137 10.6905 14.3538 11.0468C14.3137 11.0731 14.1767 11.4279 14.0067 11.8683C13.8505 12.2726 13.6665 12.7492 13.5041 13.1099C13.2152 13.7478 12.765 14.1234 11.595 14.7613C11.1572 15.0005 10.7989 15.5986 10.4415 16.1952C10.1405 16.6976 9.84007 17.199 9.4934 17.484C9.4839 17.4918 9.47032 17.492 9.46058 17.4846C9.45084 17.4771 9.44749 17.4639 9.45248 17.4527L11.1376 13.6539C10.9619 13.6323 10.4949 13.2158 9.97006 12.691C9.96043 12.6838 9.97006 12.6717 9.98209 12.6717L12.3341 13.4421L12.1728 13.1725C12.1611 13.1505 12.1412 13.134 12.1174 13.1267L9.58969 12.2986C9.57508 12.2938 9.56185 12.2856 9.55118 12.2745L9.31044 12.0097L12.0019 12.8788L11.8574 12.5947C11.8479 12.5797 11.8334 12.5687 11.8165 12.5634L9.01193 11.6438C8.98329 11.6345 8.95757 11.6179 8.9373 11.5957L8.71823 11.3549L11.6721 12.3179L11.5059 12.0386C11.4973 12.0224 11.4826 12.0103 11.465 12.0049L8.43176 11.0131L8.3812 10.9938C8.36228 10.9887 8.34544 10.9777 8.33306 10.9625C8.16213 10.7747 8.05621 10.6544 8.00325 10.5918C7.99915 10.5862 7.99891 10.5786 8.00263 10.5728C8.00636 10.5669 8.01329 10.564 8.0201 10.5653C8.14545 10.6065 8.4525 10.7079 8.85047 10.8392C10.1034 11.2528 12.2574 11.9638 12.4785 12.0314Z" fill="currentColor"></path>
</svg>