<svg width="1em" height="1em" viewBox="0 0 24 24" fill="none" xmlns="http://www.w3.org/2000/svg">
<path fill-rule="evenodd" clip-rule="evenodd" d="M7 5C7 3.89543 7.89543 3 9 3H15C16.1046 3 17 3.89543 17 5V6H19C20.1046 6 21 6.89543 21 8V19C21 20.1046 20.1046 21 19 21H5C3.89543 21 3 20.1046 3 19V8C3 6.89543 3.89543 6 5 6H7V5ZM15 5V6H9V5H15ZM5 8H8H16H19V19H5V8ZM8 9.79L8.33512 10.3302H12.9373L12.6023 9.79H8ZM10.9447 11.3127H8.89204L8.55688 10.7725H12.0113L12.011 10.7732H13.3686C13.9924 10.7732 14.4624 10.8927 14.7784 11.1319C15.0944 11.3711 15.2525 11.7215 15.2526 12.1831C15.2526 12.4118 15.211 12.6759 15.1278 12.9753C14.9905 13.4578 14.8054 13.8405 14.5725 14.1232C14.3396 14.4059 14.0329 14.6117 13.6523 14.7408C13.2718 14.8697 12.7842 14.9321 12.1895 14.9279L10.4926 14.9217C10.4053 14.9217 10.3377 14.9071 10.2899 14.878C10.2682 14.8667 10.2501 14.8497 10.2374 14.8288C10.2248 14.8079 10.2181 14.7839 10.2181 14.7595C10.2188 14.7315 10.2252 14.7039 10.2368 14.6784C10.2457 14.6465 10.2642 14.6181 10.2899 14.5973C10.3128 14.5807 10.3471 14.5579 10.3928 14.5286C10.4526 14.4965 10.5065 14.4543 10.552 14.4039C10.5914 14.3582 10.6257 14.2854 10.6548 14.1855L11.3178 11.849C11.3196 11.8406 11.3218 11.8318 11.3245 11.8226C11.3791 11.63 11.3719 11.3127 10.9447 11.3127ZM13.693 11.9148C13.693 11.6944 13.6473 11.5426 13.5558 11.4594C13.4643 11.3761 13.3333 11.3346 13.1628 11.3347H13.0255L12.1833 14.3664H12.333C12.5243 14.3664 12.6854 14.3259 12.8165 14.2448C12.9476 14.1638 13.0693 14.0141 13.1815 13.7956C13.2938 13.5773 13.4102 13.2581 13.5308 12.8381C13.6388 12.4472 13.6929 12.1395 13.693 11.9148ZM10.9114 15.6427C11.886 15.3411 12.4463 15.9289 12.4463 15.9289C12.4463 15.9289 12.3028 16.7756 11.0152 17.0856C9.30911 17.4965 8.93563 16.6722 8.93563 16.6722L8.93588 16.6722C8.90839 16.628 8.89251 16.5759 8.89251 16.52C8.89251 16.3607 9.02163 16.2316 9.18091 16.2316C9.34019 16.2316 9.46931 16.3607 9.46931 16.52C9.46931 16.5553 9.46297 16.5891 9.45137 16.6204C9.70055 16.5391 9.86412 16.3799 10.041 16.2078C10.2542 16.0003 10.4866 15.7741 10.9114 15.6427ZM12.4466 15.9289C12.4466 15.9289 13.0069 15.3411 13.9815 15.6427C14.4063 15.7741 14.6388 16.0003 14.8519 16.2078C15.0287 16.3798 15.1922 16.5389 15.4411 16.6202C15.4295 16.589 15.4232 16.5553 15.4232 16.52C15.4232 16.3607 15.5523 16.2316 15.7116 16.2316C15.8709 16.2316 16 16.3607 16 16.52C16 16.5759 15.9841 16.6281 15.9566 16.6722L15.9573 16.6722C15.9573 16.6722 15.5838 17.4965 13.8777 17.0856C12.5902 16.7756 12.4466 15.9289 12.4466 15.9289Z" fill="currentColor"></path>
</svg>