<svg width="1em" height="1em" viewBox="0 0 24 24" fill="none" xmlns="http://www.w3.org/2000/svg">
<path fill-rule="evenodd" clip-rule="evenodd" d="M8.5 4.5C8.5 4.31362 8.55994 4.19716 8.62855 4.12855C8.69716 4.05994 8.81362 4 9 4H15C15.1864 4 15.3028 4.05994 15.3714 4.12855C15.4401 4.19716 15.5 4.31362 15.5 4.5V6H8.5V4.5ZM7.5 6V4.5C7.5 4.08638 7.64006 3.70284 7.92145 3.42145C8.20284 3.14006 8.58638 3 9 3H15C15.4136 3 15.7972 3.14006 16.0786 3.42145C16.3599 3.70284 16.5 4.08638 16.5 4.5V6H19.5C19.9136 6 20.2972 6.14006 20.5786 6.42145C20.8599 6.70284 21 7.08638 21 7.5V19.5C21 19.9136 20.8599 20.2972 20.5786 20.5786C20.2972 20.8599 19.9136 21 19.5 21H4.5C4.08638 21 3.70284 20.8599 3.42145 20.5786C3.14006 20.2972 3 19.9136 3 19.5V7.5C3 7.08638 3.14006 6.70284 3.42145 6.42145C3.70284 6.14006 4.08638 6 4.5 6H7.5ZM8 7H4.5C4.31362 7 4.19716 7.05994 4.12855 7.12855C4.05994 7.19716 4 7.31362 4 7.5V19.5C4 19.6864 4.05994 19.8028 4.12855 19.8714C4.19716 19.9401 4.31362 20 4.5 20H19.5C19.6864 20 19.8028 19.9401 19.8714 19.8714C19.9401 19.8028 20 19.6864 20 19.5V7.5C20 7.31362 19.9401 7.19716 19.8714 7.12855C19.8028 7.05994 19.6864 7 19.5 7H16H8Z" fill="currentColor"></path>
<path fill-rule="evenodd" clip-rule="evenodd" d="M8.33512 10.3302L8 9.79004H12.6023L12.9373 10.3302H8.33512ZM8.89204 11.3127H10.9447C11.3719 11.3127 11.3791 11.63 11.3245 11.8226C11.3218 11.8319 11.3196 11.8407 11.3178 11.849L10.6548 14.1856C10.6257 14.2855 10.5914 14.3583 10.552 14.404C10.5065 14.4544 10.4526 14.4966 10.3928 14.5287C10.3471 14.5579 10.3128 14.5808 10.2899 14.5973C10.2642 14.6182 10.2457 14.6465 10.2368 14.6784C10.2252 14.7039 10.2188 14.7315 10.2181 14.7595C10.2181 14.7839 10.2248 14.8079 10.2374 14.8288C10.2501 14.8497 10.2682 14.8668 10.2899 14.878C10.3377 14.9071 10.4053 14.9217 10.4926 14.9217L12.1895 14.928C12.7842 14.9321 13.2718 14.8698 13.6523 14.7408C14.0329 14.6118 14.3396 14.4059 14.5725 14.1232C14.8054 13.8405 14.9905 13.4579 15.1278 12.9754C15.211 12.6759 15.2526 12.4118 15.2526 12.1831C15.2525 11.7215 15.0944 11.3711 14.7784 11.132C14.4624 10.8928 13.9924 10.7732 13.3686 10.7733H12.011L12.0113 10.7725H8.55688L8.89204 11.3127ZM13.5558 11.4594C13.6473 11.5427 13.693 11.6945 13.693 11.9148C13.6929 12.1395 13.6388 12.4473 13.5308 12.8381C13.4102 13.2582 13.2938 13.5774 13.1815 13.7957C13.0693 14.0141 12.9476 14.1638 12.8165 14.2449C12.6854 14.3259 12.5243 14.3665 12.3331 14.3665H12.1833L13.0255 11.3347H13.1628C13.3333 11.3346 13.4643 11.3762 13.5558 11.4594ZM12.4463 15.929C12.4463 15.929 11.886 15.3412 10.9114 15.6427C10.4866 15.7741 10.2542 16.0004 10.041 16.2078L10.041 16.2078C9.86412 16.38 9.70055 16.5392 9.45137 16.6204C9.46297 16.5892 9.46931 16.5554 9.46931 16.5201C9.46931 16.3608 9.34019 16.2317 9.18091 16.2317C9.02163 16.2317 8.89251 16.3608 8.89251 16.5201C8.89251 16.5759 8.90839 16.6281 8.93588 16.6722L8.93563 16.6722C8.93563 16.6722 9.30911 17.4965 11.0152 17.0857C12.3028 16.7756 12.4463 15.929 12.4463 15.929ZM13.9815 15.6427C13.0069 15.3412 12.4466 15.929 12.4466 15.929C12.4466 15.929 12.5902 16.7756 13.8777 17.0857C15.5838 17.4965 15.9573 16.6722 15.9573 16.6722L15.9566 16.6723C15.9841 16.6281 16 16.5759 16 16.5201C16 16.3608 15.8709 16.2317 15.7116 16.2317C15.5523 16.2317 15.4232 16.3608 15.4232 16.5201C15.4232 16.5553 15.4295 16.5891 15.4411 16.6203C15.1922 16.539 15.0287 16.3799 14.8519 16.2078C14.6388 16.0004 14.4063 15.7741 13.9815 15.6427Z" fill="currentColor"></path>
</svg>