<svg width="1em" height="1em" viewBox="0 0 24 24" fill="none" xmlns="http://www.w3.org/2000/svg">
<path fill-rule="evenodd" clip-rule="evenodd" d="M15.7071 4.29289C15.3166 3.90237 14.6834 3.90237 14.2929 4.29289L5.29289 13.2929C5.10536 13.4804 5 13.7348 5 14V18C5 18.5523 5.44772 19 6 19H10C10.2652 19 10.5196 18.8946 10.7071 18.7071L19.7071 9.70711C20.0976 9.31658 20.0976 8.68342 19.7071 8.29289L15.7071 4.29289ZM7 17V14.4142L12.5 8.91421L15.0858 11.5L9.58579 17H7ZM16.5 10.0858L17.5858 9L15 6.41421L13.9142 7.5L16.5 10.0858Z" fill="currentColor"></path>
</svg>