<svg width="1em" height="1em" viewBox="0 0 24 24" fill="none" xmlns="http://www.w3.org/2000/svg">
<path d="M19.7999 4.19995C18.2999 2.69995 15.8999 2.69995 14.3999 4.19995L4.2999 14.3C4.1999 14.4 4.0999 14.6 3.9999 14.8L2.9999 19.7999C2.8999 20.0999 2.9999 20.5 3.2999 20.7C3.4999 20.9 3.6999 21 3.9999 21C4.0999 21 4.0999 21 4.1999 21L9.1999 20C9.3999 20 9.5999 19.9 9.6999 19.7L19.7999 9.59995C21.2999 8.09995 21.2999 5.69995 19.7999 4.19995ZM14.5999 7.99995L6.9999 15.6L6.3999 15L13.9999 7.39995L14.5999 7.99995ZM8.3999 17L15.9999 9.39995L16.5999 9.99995L8.9999 17.6L8.3999 17ZM5.5999 17L6.9999 18.4L5.2999 18.7L5.5999 17ZM18.3999 8.19995L17.9999 8.59995L15.3999 5.99995L15.7999 5.59995C16.4999 4.89995 17.6999 4.89995 18.3999 5.59995C19.0999 6.29995 19.0999 7.49995 18.3999 8.19995Z" fill="currentColor"></path>
</svg>