<svg width="1em" height="1em" viewBox="0 0 24 24" fill="none" xmlns="http://www.w3.org/2000/svg">
<path fill-rule="evenodd" clip-rule="evenodd" d="M15.3536 4.64645C15.1583 4.45118 14.8417 4.45118 14.6464 4.64645L5.64645 13.6464C5.55268 13.7402 5.5 13.8674 5.5 14V18C5.5 18.2761 5.72386 18.5 6 18.5H10C10.1326 18.5 10.2598 18.4473 10.3536 18.3536L19.3536 9.35355C19.5488 9.15829 19.5488 8.84171 19.3536 8.64645L15.3536 4.64645ZM6.5 17.5V14.2071L12.5317 8.17545C12.5559 8.2404 12.5942 8.30132 12.6464 8.35355L15.6464 11.3536C15.6987 11.4058 15.7596 11.4441 15.8246 11.4683L9.79289 17.5H6.5ZM16.4683 10.8246L18.2929 9L15 5.70711L13.1754 7.53166C13.2404 7.55595 13.3013 7.59421 13.3536 7.64645L16.3536 10.6464C16.4058 10.6987 16.4441 10.7596 16.4683 10.8246Z" fill="currentColor"></path>
</svg>