<svg width="1em" height="1em" viewBox="0 0 24 24" fill="none" xmlns="http://www.w3.org/2000/svg">
<path fill-rule="evenodd" clip-rule="evenodd" d="M4 5C3.44772 5 3 5.44772 3 6V18C3 18.5523 3.44772 19 4 19H20C20.5523 19 21 18.5523 21 18V6.01587C21.0008 5.9656 20.9978 5.91502 20.9909 5.86455C20.9553 5.60138 20.8173 5.37072 20.6183 5.21399C20.4509 5.08218 20.2405 5.00265 20.0115 5.00007C20.0077 5.00002 20.0039 5 20.0001 5M17.0001 7H7.00006L12.0001 10.75L17.0001 7ZM5 7.99995L11.4001 12.8C11.7556 13.0667 12.2445 13.0667 12.6001 12.8L19 8.00005V17H5V7.99995Z" fill="currentColor"></path>
<path d="M20.0001 5H4H20.0001Z" fill="currentColor"></path>
</svg>