<svg width="1em" height="1em" viewBox="0 0 24 24" fill="none" xmlns="http://www.w3.org/2000/svg">
<path fill-rule="evenodd" clip-rule="evenodd" d="M4 5.5C3.72386 5.5 3.5 5.72386 3.5 6V18C3.5 18.2761 3.72386 18.5 4 18.5H20C20.2761 18.5 20.5 18.2761 20.5 18V6.00796C20.5004 5.9824 20.4989 5.95669 20.4953 5.93103C20.4772 5.79984 20.4082 5.6849 20.3089 5.60678C20.2238 5.5399 20.1166 5.50001 20 5.5M18.5 6.5H5.50003L12 11.375L18.5 6.5ZM4.5 6.99998L11.7 12.4C11.8778 12.5333 12.1223 12.5333 12.3 12.4L19.5 7.00002V17.5H4.5V6.99998Z" fill="currentColor"></path>
</svg>