<svg width="1em" height="1em" viewBox="0 0 24 24" fill="none" xmlns="http://www.w3.org/2000/svg">
<path fill-rule="evenodd" clip-rule="evenodd" d="M3 8.51765C3 5.47881 5.2613 3 8.26667 3C10.0192 3 11.2199 3.98365 12 5.04923C12.7801 3.98365 13.9808 3 15.7333 3C18.7387 3 21 5.47881 21 8.51765C21 11.4346 19.1251 14.4241 17.2648 16.6325C16.3126 17.7629 15.3168 18.7445 14.466 19.479C14.0408 19.8461 13.6441 20.1582 13.3003 20.399C12.9793 20.6239 12.6358 20.8361 12.3328 20.943C12.1175 21.019 11.8825 21.019 11.6672 20.943C11.3642 20.8361 11.0207 20.6239 10.6997 20.399C10.3559 20.1582 9.95923 19.8461 9.53401 19.479C8.68321 18.7445 7.68736 17.7629 6.73518 16.6325C4.87494 14.4241 3 11.4346 3 8.51765ZM8.26667 5C6.47204 5 5 6.47413 5 8.51765C5 10.6831 6.4584 13.1995 8.26482 15.344C9.14597 16.3901 10.0668 17.2967 10.841 17.9651C11.2283 18.2995 11.5712 18.5676 11.8472 18.7609C11.9018 18.7992 11.9527 18.8338 12 18.8649C12.0473 18.8338 12.0982 18.7992 12.1528 18.7609C12.4288 18.5676 12.7717 18.2995 13.159 17.9651C13.9332 17.2967 14.854 16.3901 15.7352 15.344C17.5416 13.1995 19 10.6831 19 8.51765C19 6.47413 17.528 5 15.7333 5C14.3602 5 13.4396 6.21445 12.9269 7.48108C12.7741 7.85872 12.4074 8.10588 12 8.10588C11.5926 8.10588 11.2259 7.85872 11.0731 7.48108C10.5604 6.21445 9.63976 5 8.26667 5Z" fill="currentColor"></path>
</svg>