<svg width="1em" height="1em" viewBox="0 0 24 24" fill="none" xmlns="http://www.w3.org/2000/svg">
<path fill-rule="evenodd" clip-rule="evenodd" d="M8 8C8 7.44772 8.44772 7 9 7C9.55228 7 10 7.44772 10 8C10 8.55228 9.55228 9 9 9C8.44772 9 8 8.55228 8 8ZM6.17071 9H5C4.44772 9 4 8.55228 4 8C4 7.44772 4.44772 7 5 7H6.17071C6.58254 5.83481 7.69378 5 9 5C10.3062 5 11.4175 5.83481 11.8293 7H19C19.5523 7 20 7.44772 20 8C20 8.55228 19.5523 9 19 9H11.8293C11.4175 10.1652 10.3062 11 9 11C7.69378 11 6.58254 10.1652 6.17071 9ZM14 16C14 15.4477 14.4477 15 15 15C15.5523 15 16 15.4477 16 16C16 16.5523 15.5523 17 15 17C14.4477 17 14 16.5523 14 16ZM12.1707 17H5C4.44772 17 4 16.5523 4 16C4 15.4477 4.44772 15 5 15H12.1707C12.5825 13.8348 13.6938 13 15 13C16.3062 13 17.4175 13.8348 17.8293 15H19C19.5523 15 20 15.4477 20 16C20 16.5523 19.5523 17 19 17H17.8293C17.4175 18.1652 16.3062 19 15 19C13.6938 19 12.5825 18.1652 12.1707 17Z" fill="currentColor"></path>
</svg>