<svg width="1em" height="1em" viewBox="0 0 24 24" fill="none" xmlns="http://www.w3.org/2000/svg">
<path d="M17 9C17 10.1046 16.1046 11 15 11C13.8954 11 13 10.1046 13 9C13 7.89543 13.8954 7 15 7C16.1046 7 17 7.89543 17 9Z" fill="currentColor"></path>
<path fill-rule="evenodd" clip-rule="evenodd" d="M2 4.5C2 4.22386 2.22386 4 2.5 4H21.5C21.7761 4 22 4.22386 22 4.5V19.5C22 19.7761 21.7761 20 21.5 20H2.5C2.22386 20 2 19.7761 2 19.5V4.5ZM3 5V13.5216L7.09118 7.71211C7.18483 7.57913 7.33731 7.50001 7.49996 7.5C7.66261 7.49999 7.8151 7.5791 7.90876 7.71208L14.0835 16.4787L17.5973 11.7037C17.6912 11.576 17.8401 11.5005 17.9986 11.5C18.1571 11.4995 18.3064 11.5743 18.401 11.7014L21 15.1914V5H3ZM3 19V15.2584L7.50002 8.86834L14.6362 19H3ZM21 19H15.8594L14.6907 17.3408L18.0024 12.8404L21 16.8657V19Z" fill="currentColor"></path>
</svg>