<svg width="1em" height="1em" viewBox="0 0 24 24" fill="none" xmlns="http://www.w3.org/2000/svg">
<path d="M17 9C17 10.1046 16.1046 11 15 11C13.8954 11 13 10.1046 13 9C13 7.89543 13.8954 7 15 7C16.1046 7 17 7.89543 17 9Z" fill="currentColor"></path>
<path fill-rule="evenodd" clip-rule="evenodd" d="M3 4C2.44772 4 2 4.44772 2 5V19C2 19.5523 2.44772 20 3 20H15.2882C15.2966 20.0001 15.3051 20.0001 15.3136 20H21C21.5523 20 22 19.5523 22 19V5C22 4.44772 21.5523 4 21 4H3ZM20 6V13L18.8 11.4C18.6102 11.1469 18.3118 10.9986 17.9954 11C17.6791 11.0015 17.382 11.1525 17.1945 11.4073L14.1122 15.5961L8.31576 7.42157C8.12784 7.15656 7.8229 6.99936 7.49803 7C7.17316 7.00065 6.86885 7.15907 6.68199 7.42482L4 11.2392V6H20ZM18.0076 13.6769L15.3308 17.3146L15.8168 18H20V16.3334L18.0076 13.6769ZM4 14.7164V18H13.365L7.50347 9.73369L4 14.7164Z" fill="currentColor"></path>
</svg>