<svg width="1em" height="1em" viewBox="0 0 24 24" fill="none" xmlns="http://www.w3.org/2000/svg">
<path d="M13 5H18V4.9C18 3.9 17.2 3 16.1 3C15.7 3 15.3 3.1 14.9 3.4L13 5Z" fill="currentColor"></path>
<path d="M11 11H4C3.4 11 3 10.6 3 10V8C3 7.4 3.4 7 4 7H11V11Z" fill="currentColor"></path>
<path d="M4 13H11V21H5C4.4 21 4 20.6 4 20V13Z" fill="currentColor"></path>
<path d="M20 7H13V11H20C20.6 11 21 10.6 21 10V8C21 7.4 20.6 7 20 7Z" fill="currentColor"></path>
<path d="M19 21H13V13H20V20C20 20.6 19.6 21 19 21Z" fill="currentColor"></path>
<path d="M6 5H11L9 3.4C8.7 3.1 8.3 3 7.9 3C6.8 3 6 3.8 6 4.9V5Z" fill="currentColor"></path>
</svg>