<svg width="1em" height="1em" viewBox="0 0 24 24" fill="none" xmlns="http://www.w3.org/2000/svg">
<path fill-rule="evenodd" clip-rule="evenodd" d="M12.5 5.5H17.5V4.768C17.5 3.791 16.709 3 15.732 3C15.264 3 14.813 3.187 14.482 3.518L12.5 5.5ZM3.5 6.5H11.5V11H3.5C3.224 11 3 10.776 3 10.5V7C3 6.724 3.224 6.5 3.5 6.5ZM20.5 6.5H12.5V11H20.5C20.776 11 21 10.776 21 10.5V7C21 6.724 20.776 6.5 20.5 6.5ZM4 12H11.5V21H4.5C4.224 21 4 20.776 4 20.5V12ZM12.5 12H20V20.5C20 20.776 19.776 21 19.5 21H12.5V12ZM6.5 5.5H11.5L9.518 3.518C9.187 3.187 8.736 3 8.268 3C7.291 3 6.5 3.791 6.5 4.768V5.5Z" fill="currentColor"></path>
</svg>