<svg width="1em" height="1em" viewBox="0 0 24 24" fill="none" xmlns="http://www.w3.org/2000/svg">
<path fill-rule="evenodd" clip-rule="evenodd" d="M6.5 6V5.5C6.5 4.12386 7.62386 3 9 3C9.83466 3 10.6247 3.36162 11.0322 4.14689L12 5.59861L12.9678 4.14689C13.3753 3.36162 14.1653 3 15 3C16.3761 3 17.5 4.12386 17.5 5.5V6H20.5C20.7761 6 21 6.22386 21 6.5V11.5C21 11.7761 20.7761 12 20.5 12H20V20.5C20 20.7761 19.7761 21 19.5 21H4.5C4.22386 21 4 20.7761 4 20.5V12H3.5C3.22386 12 3 11.7761 3 11.5V6.5C3 6.22386 3.22386 6 3.5 6H6.5ZM7.5 5.5C7.5 4.67614 8.17614 4 9 4C9.55496 4 9.95565 4.22933 10.1528 4.62361C10.1621 4.64215 10.1725 4.6601 10.184 4.67735L11.0657 6H7.5V5.5ZM12.5 20H19V12H12.5V20ZM11.5 12V20H5V12H11.5ZM12.5 11H20V7H12.5V11ZM11.5 7V11H4V7H11.5ZM16.5 6H12.9343L13.816 4.67735C13.8275 4.6601 13.8379 4.64215 13.8472 4.62361C14.0444 4.22933 14.445 4 15 4C15.8239 4 16.5 4.67614 16.5 5.5V6Z" fill="currentColor"></path>
</svg>