<svg width="1em" height="1em" viewBox="0 0 24 24" fill="none" xmlns="http://www.w3.org/2000/svg">
<path fill-rule="evenodd" clip-rule="evenodd" d="M12.5 5.99106V3.04636C13.5881 3.2485 14.6308 4.10707 15.4564 5.533C15.4633 5.54495 15.4702 5.55692 15.4771 5.56894C14.5424 5.80422 13.5353 5.95412 12.5 5.99106ZM11.5 5.99106V3.04636C10.4119 3.2485 9.36916 4.10707 8.54363 5.533C8.53671 5.54495 8.52981 5.55693 8.52293 5.56895C9.45755 5.80423 10.4647 5.95413 11.5 5.99106ZM8.06518 6.48322C9.14058 6.77108 10.3049 6.95182 11.5 6.99165V11.5H7.00772C7.06628 9.60722 7.45512 7.87967 8.06518 6.48322ZM7.53877 5.28123C7.18551 5.16292 6.84666 5.03235 6.52514 4.89133C7.17076 4.40731 7.88579 3.99688 8.64564 3.68333C8.28999 4.08045 7.96604 4.5348 7.6782 5.03197C7.63087 5.11373 7.58438 5.19683 7.53877 5.28123ZM16.5263 4.21929C16.1357 3.99158 15.7264 3.79245 15.3013 3.62474C15.6778 4.03554 16.0197 4.51017 16.3218 5.03197C16.3691 5.11372 16.4156 5.19682 16.4612 5.28122C16.8227 5.16017 17.169 5.02629 17.4971 4.88152C17.1891 4.63881 16.8646 4.4177 16.5263 4.21929ZM15.9348 6.48321C16.5449 7.87966 16.9337 9.60722 16.9923 11.5H12.5V6.99165C13.6951 6.95182 14.8594 6.77107 15.9348 6.48321ZM16.897 6.18925C17.4023 6.01493 17.8811 5.81664 18.3263 5.59857C19.8665 7.12082 20.8601 9.1949 20.9863 11.5H17.9927C17.9354 9.53244 17.5412 7.70505 16.897 6.18925ZM16.9773 3.32472C19.9788 5.05051 22 8.28922 22 12C22 17.5228 17.5228 22 12 22C10.9821 22 9.99969 21.8479 9.07431 21.5652C8.35292 21.3454 7.66043 21.0448 7.01196 20.6691C4.01636 18.9417 2 15.7063 2 12C2 6.47716 6.47713 2.00001 12 2C13.0231 2 14.0104 2.15365 14.9399 2.43915C15.6522 2.65735 16.3362 2.9544 16.9773 3.32472ZM7.10295 6.18927C6.45885 7.70507 6.06463 9.53245 6.00727 11.5H3.01365C3.13988 9.19491 4.1335 7.12083 5.67371 5.59859C6.1189 5.81666 6.5977 6.01494 7.10295 6.18927ZM7.00772 12.5H11.5V17.0083C10.3049 17.0482 9.14058 17.2289 8.06518 17.5168C7.45512 16.1203 7.06628 14.3928 7.00772 12.5ZM8.52293 18.4311C9.45755 18.1958 10.4647 18.0459 11.5 18.0089V20.9536C10.4119 20.7515 9.36916 19.8929 8.54363 18.467L8.52293 18.4311ZM6.00727 12.5C6.06463 14.4676 6.45885 16.2949 7.10295 17.8107C6.5977 17.9851 6.1189 18.1833 5.67371 18.4014C4.1335 16.8792 3.13988 14.8051 3.01365 12.5H6.00727ZM6.50282 19.1185C6.80828 19.3592 7.12997 19.5786 7.46528 19.7758C7.85841 20.0055 8.27054 20.2063 8.69873 20.3753C8.32218 19.9645 7.98029 19.4898 7.6782 18.968C7.63087 18.8863 7.58438 18.8032 7.53877 18.7188C7.17733 18.8398 6.83097 18.9737 6.50282 19.1185ZM16.897 17.8107C17.4023 17.9851 17.8811 18.1834 18.3263 18.4014C19.8665 16.8792 20.8601 14.8051 20.9863 12.5H17.9927C17.9354 14.4676 17.5412 16.2949 16.897 17.8107ZM15.3544 20.3166C16.1142 20.0031 16.8292 19.5927 17.4748 19.1087C17.1533 18.9677 16.8145 18.8371 16.4612 18.7188C16.4156 18.8032 16.3691 18.8863 16.3218 18.968C16.034 19.4652 15.71 19.9195 15.3544 20.3166ZM15.4564 18.467L15.4771 18.4311C14.5424 18.1958 13.5353 18.0459 12.5 18.0089V20.9536C13.5881 20.7515 14.6308 19.8929 15.4564 18.467ZM12.5 17.0084C13.6951 17.0482 14.8594 17.2289 15.9348 17.5168C16.5449 16.1203 16.9337 14.3928 16.9923 12.5H12.5V17.0084Z" fill="currentColor"></path>
</svg>