<svg width="1em" height="1em" viewBox="0 0 24 24" fill="none" xmlns="http://www.w3.org/2000/svg">
<path fill-rule="evenodd" clip-rule="evenodd" d="M11.991 10.362H20.415C20.541 10.929 20.64 11.46 20.64 12.207C20.64 17.346 17.193 21 12 21C7.032 21 3 16.968 3 12C3 7.032 7.032 3 12 3C14.43 3 16.464 3.891 18.021 5.349L15.465 7.833C14.817 7.221 13.683 6.501 12 6.501C9.021 6.501 6.591 8.976 6.591 12.009C6.591 15.042 9.021 17.517 12 17.517C15.447 17.517 16.716 15.132 16.95 13.719H11.991V10.362Z" fill="currentColor"></path>
</svg>