<svg width="1em" height="1em" viewBox="0 0 24 24" fill="none" xmlns="http://www.w3.org/2000/svg">
<path fill-rule="evenodd" clip-rule="evenodd" d="M5.76607 10.0656L14.1966 8.0625C15.4259 7.76921 16.6739 8.53675 16.9672 9.76607L18.9703 18.1966C19.1201 18.8393 18.9891 19.4883 18.6458 20H5.76607L4.0625 12.8363C3.76921 11.6069 4.53675 10.3589 5.76607 10.0656Z" fill="#F47421"></path>
<path fill-rule="evenodd" clip-rule="evenodd" d="M9.54798 13.3667C9.77886 13.3667 9.96607 13.5539 9.96607 13.7848C9.96607 14.0157 9.77886 14.2029 9.54798 14.2029C9.31709 14.2029 9.12988 14.0157 9.12988 13.7848C9.12988 13.5539 9.31709 13.3667 9.54798 13.3667Z" fill="#FFE800"></path>
<path d="M5.74707 13.5103V17.1108H6.56454V15.607H7.90618V17.1108H8.71741V13.5103H7.90618V14.8956H6.56454V13.5103H5.74707Z" fill="white"></path>
<path d="M15.75 16.0687C15.7624 16.0126 15.7749 15.8878 15.7749 15.7505C15.7749 15.1015 15.4567 14.4463 14.608 14.4463C13.6969 14.4463 13.2913 15.1764 13.2913 15.8378C13.2913 16.6553 13.7968 17.167 14.6829 17.167C15.0386 17.167 15.3631 17.1108 15.6314 17.0048L15.5253 16.4556C15.3069 16.5243 15.0823 16.5617 14.8015 16.5617C14.4208 16.5617 14.0901 16.3995 14.0651 16.0625H15.75V16.0687ZM14.0651 15.5134C14.0838 15.2949 14.2274 14.9829 14.5643 14.9829C14.9387 14.9829 15.0261 15.3137 15.0261 15.5134H14.0651Z" fill="white"></path>
<path d="M16.0368 17.1108H16.848V15.7879C16.848 15.7255 16.8543 15.6569 16.8668 15.607C16.9229 15.3573 17.1226 15.1951 17.4221 15.1951C17.5157 15.1951 17.5844 15.2076 17.6405 15.2138V14.4525C17.5844 14.44 17.5469 14.44 17.4721 14.44C17.2225 14.44 16.898 14.6023 16.7669 14.9767H16.7482L16.7232 14.4962H16.0243C16.0368 14.7208 16.0431 14.9705 16.0431 15.3573V17.1108H16.0368Z" fill="white"></path>
<path fill-rule="evenodd" clip-rule="evenodd" d="M11.2631 16.5055H11.6688C12.0806 16.5055 12.2616 16.2434 12.2616 15.9689C12.2616 15.6943 12.2429 15.0765 11.7374 15.0765C11.1571 15.0765 11.2507 15.8441 11.2507 16.2434C11.2507 16.3308 11.2569 16.4182 11.2631 16.5055ZM9.129 14.4962H9.96519V15.9689C9.96519 16.2434 10.115 16.5055 10.4519 16.5055C10.4519 15.8441 10.4519 15.1576 10.427 14.4962H11.1259C11.1383 14.621 11.1571 14.752 11.1695 14.8768C11.5003 14.2154 12.5361 14.3651 12.8856 14.9205C13.2475 15.4946 13.3723 17.142 11.6688 17.142H11.2756C11.2819 17.479 11.2819 17.8097 11.2819 18.1467H10.4457C10.4457 17.8285 10.4457 17.4915 10.4519 17.142C9.54709 17.1358 9.13524 16.5679 9.13524 15.9689V14.4962H9.129Z" fill="white"></path>
<path fill-rule="evenodd" clip-rule="evenodd" d="M22 4.25012H2C1.0335 4.25012 0.25 5.03362 0.25 6.00012V18.0001C0.25 18.9666 1.0335 19.7501 2 19.7501H22C22.9665 19.7501 23.75 18.9666 23.75 18.0001V6.00012C23.75 5.03362 22.9665 4.25012 22 4.25012ZM2 4.00012C0.895431 4.00012 0 4.89555 0 6.00012V18.0001C0 19.1047 0.89543 20.0001 2 20.0001H22C23.1046 20.0001 24 19.1047 24 18.0001V6.00012C24 4.89555 23.1046 4.00012 22 4.00012H2Z" fill="#E8E8E8"></path>
</svg>