<svg width="1em" height="1em" viewBox="0 0 24 24" fill="none" xmlns="http://www.w3.org/2000/svg">
<path d="M0 17.4473V17.4232C0 17.4099 0.0159895 17.3239 0.0355316 17.232C0.0550738 17.1401 0.085456 16.9939 0.103047 16.9072C0.120637 16.8204 0.150713 16.673 0.169882 16.5795C0.18905 16.4861 0.220898 16.3305 0.240655 16.2337C0.260412 16.137 0.291362 15.9841 0.309433 15.894C0.327503 15.8039 0.357672 15.6565 0.376476 15.5664C0.395279 15.4763 0.427337 15.3207 0.447717 15.2206C0.468095 15.1205 0.499073 14.9676 0.516556 14.8809C0.53404 14.7941 0.561825 14.6603 0.578299 14.5836C0.594774 14.5068 0.615777 14.4031 0.624972 14.3531C0.634168 14.303 0.663923 14.1556 0.691094 14.0255C0.718267 13.8953 0.748265 13.7479 0.757757 13.6978C0.767249 13.6478 0.797381 13.5004 0.824717 13.3702C0.852053 13.2401 0.882084 13.0927 0.891451 13.0426C0.900819 12.9926 0.931016 12.8452 0.958556 12.715C0.986097 12.5849 1.01582 12.4402 1.02461 12.3935C1.0334 12.3468 1.05747 12.2267 1.07811 12.1266C1.09874 12.0265 1.13779 11.8381 1.16487 11.708C1.19196 11.5778 1.23829 11.3512 1.26782 11.2044C1.29736 11.0576 1.33266 10.8829 1.34626 10.8161C1.35987 10.7494 1.38447 10.6293 1.40093 10.5492C1.41739 10.4691 1.44729 10.3244 1.46736 10.2277C1.48743 10.1309 1.5201 9.97257 1.53994 9.87581C1.55979 9.77904 1.59037 9.62889 1.6079 9.54214C1.62543 9.45538 1.65535 9.31069 1.67439 9.2206C1.69343 9.13051 1.72618 8.97217 1.74717 8.86873C1.76815 8.76529 1.80331 8.60695 1.82529 8.51686C1.84728 8.42677 1.87836 8.31756 1.89436 8.27419C1.91036 8.23081 1.95454 8.13678 1.99253 8.06523L2.06161 7.93514L2.12441 7.85289C2.15896 7.80766 2.22062 7.73618 2.26145 7.69405C2.30228 7.65192 2.37118 7.58853 2.41456 7.55317C2.45794 7.51782 2.52073 7.47011 2.5541 7.44715C2.58746 7.42419 2.65298 7.384 2.6997 7.35783C2.74641 7.33166 2.81193 7.29739 2.8453 7.28168C2.87867 7.26596 2.94692 7.23728 2.99697 7.21794C3.04702 7.1986 3.14257 7.16619 3.2093 7.14591C3.27604 7.12563 3.4013 7.09506 3.48767 7.07798C3.57404 7.0609 3.71054 7.03808 3.79101 7.02728L3.93731 7.00764L24 7V7.02411C24 7.03738 23.9839 7.12341 23.9642 7.2153C23.9446 7.30719 23.9117 7.46428 23.8912 7.56438C23.8707 7.66448 23.8408 7.80917 23.8247 7.88592C23.8086 7.96266 23.7782 8.11008 23.7571 8.21352C23.736 8.31696 23.7035 8.4753 23.6849 8.56539C23.6663 8.65548 23.6362 8.8029 23.618 8.89299C23.5998 8.98309 23.5695 9.13051 23.5507 9.2206C23.5319 9.31069 23.5027 9.45265 23.4859 9.53607C23.469 9.61949 23.4385 9.76964 23.4181 9.86974C23.3977 9.96984 23.3649 10.1282 23.3452 10.2216C23.3256 10.315 23.2956 10.4597 23.2787 10.5431C23.2617 10.6266 23.2312 10.7767 23.2109 10.8768C23.1905 10.9769 23.1578 11.1353 23.1382 11.2287C23.1185 11.3221 23.0892 11.4641 23.073 11.5442C23.0569 11.6242 23.0265 11.7744 23.0055 11.8778C22.9845 11.9813 22.9539 12.1314 22.9375 12.2115C22.9211 12.2916 22.8918 12.4335 22.8724 12.527C22.8529 12.6204 22.8197 12.7815 22.7986 12.8849C22.7774 12.9883 22.7472 13.1358 22.7313 13.2125C22.7155 13.2893 22.6858 13.4339 22.6654 13.534C22.645 13.6341 22.6125 13.7925 22.5932 13.8859C22.5739 13.9793 22.5437 14.1268 22.526 14.2135C22.5084 14.3003 22.4776 14.4504 22.4577 14.5472C22.4379 14.644 22.4054 14.8023 22.3856 14.8991C22.3658 14.9958 22.3361 15.1405 22.3196 15.2206C22.3032 15.3007 22.2731 15.4481 22.2527 15.5482C22.2324 15.6483 22.1993 15.806 22.1792 15.8987L22.1427 16.0673L22.0992 16.1839C22.0752 16.248 22.0392 16.3332 22.0192 16.3733C21.9991 16.4133 21.9583 16.484 21.9285 16.5303C21.8986 16.5766 21.857 16.6359 21.836 16.6621C21.815 16.6883 21.7517 16.756 21.6954 16.8125L21.5931 16.9152L21.4947 16.9852C21.4405 17.0237 21.3822 17.0628 21.365 17.0722C21.3479 17.0815 21.2826 17.1148 21.22 17.1462C21.1574 17.1775 21.0689 17.2174 21.0235 17.2348C20.978 17.2523 20.8879 17.2819 20.8233 17.3007C20.7586 17.3195 20.6894 17.3381 20.6694 17.3419C20.6493 17.3457 20.5798 17.3601 20.5149 17.3739C20.45 17.3876 20.319 17.4081 20.2237 17.4195L20.0506 17.4401L0 17.4473ZM6.71934 14.8505L6.72671 14.8313C6.73076 14.8208 6.73407 14.796 6.73407 14.7762C6.73407 14.7564 6.74267 14.6845 6.75318 14.6164C6.76369 14.5483 6.78836 14.3916 6.808 14.2681C6.82763 14.1447 6.85704 13.959 6.87334 13.8556C6.88964 13.7521 6.90953 13.6197 6.91755 13.5613C6.92556 13.503 6.93534 13.4552 6.93928 13.4552C6.94323 13.4552 6.96009 13.481 6.97676 13.5125L7.00708 13.5699L7.1416 13.7054L7.3072 13.7717L7.50455 13.7973L7.75506 13.7819L8.02629 13.7117L8.09909 13.6785C8.13913 13.6602 8.21011 13.6204 8.25682 13.5899L8.34176 13.5346L8.42095 13.4555C8.46451 13.4119 8.52593 13.3421 8.55745 13.3003C8.58897 13.2586 8.61476 13.2213 8.61476 13.2176C8.61476 13.2139 8.63025 13.188 8.64918 13.1601C8.6681 13.1322 8.70684 13.0548 8.73526 12.988C8.76367 12.9213 8.80809 12.8012 8.83395 12.7211L8.88097 12.5755L8.90528 12.4494C8.91865 12.38 8.93585 12.2654 8.9435 12.1946L8.95741 12.0659L8.94134 11.8475L8.8907 11.6291L8.80873 11.4656L8.6504 11.2977L8.46309 11.2009L8.25682 11.1515L8.05056 11.1364L7.82078 11.1628L7.63324 11.2107L7.55178 11.2484C7.50697 11.2691 7.44178 11.3043 7.4069 11.3266C7.37203 11.349 7.33605 11.3746 7.32695 11.3837C7.31786 11.3928 7.29608 11.4095 7.27856 11.421L7.24671 11.4418L7.26898 11.3353C7.28123 11.2766 7.29147 11.2219 7.29174 11.2135L7.29221 11.1984H6.84732L6.80831 11.4441C6.78686 11.5792 6.75298 11.788 6.73304 11.9082C6.71309 12.0283 6.68301 12.2085 6.6662 12.3086C6.64938 12.4087 6.61938 12.5861 6.59954 12.7029C6.57969 12.8197 6.54689 13.0053 6.52665 13.1154C6.5064 13.2256 6.47674 13.3866 6.46074 13.4734C6.44474 13.5601 6.41461 13.7239 6.3938 13.8374C6.37299 13.9508 6.33955 14.131 6.31948 14.2378C6.29942 14.3446 6.26676 14.5138 6.24692 14.6139C6.22707 14.714 6.20785 14.8082 6.2042 14.8232L6.19757 14.8505H6.71934ZM7.48028 13.4538L7.34785 13.4304L7.21335 13.369L7.11938 13.2792L7.09226 13.2186C7.07734 13.1852 7.05818 13.1285 7.04968 13.0926L7.03423 13.0273L7.04661 12.8182L7.07788 12.6544C7.09507 12.5643 7.12594 12.395 7.14648 12.2782C7.16702 12.1614 7.19812 11.9903 7.21559 11.898L7.24735 11.7301L7.31691 11.6722C7.35517 11.6403 7.41576 11.5977 7.45157 11.5774L7.51668 11.5404L7.68655 11.4878L7.90495 11.475L8.08279 11.5129L8.20829 11.5707L8.31353 11.6765L8.34192 11.7325C8.35753 11.7634 8.37946 11.8237 8.39065 11.8666L8.411 11.9446L8.39853 12.4056L8.36737 12.5419C8.35023 12.6168 8.31761 12.7315 8.29487 12.7967L8.25353 12.9152L8.2029 13.0112C8.17506 13.064 8.13212 13.1353 8.10748 13.1697C8.08285 13.2041 8.04358 13.2486 8.02022 13.2687C7.99687 13.2887 7.95775 13.3201 7.9333 13.3383L7.88884 13.3715L7.68289 13.4416L7.48028 13.4538ZM10.1011 13.7812L10.2346 13.7828L10.368 13.7706C10.4415 13.7639 10.5616 13.75 10.635 13.7396C10.7084 13.7293 10.8352 13.7061 10.9168 13.6882L11.0651 13.6555L11.0725 13.6009C11.0766 13.5708 11.0932 13.4813 11.1095 13.4019L11.1392 13.2576L11.1261 13.2446L11.0807 13.2665C11.0558 13.2785 10.9781 13.3072 10.9081 13.3303L10.7808 13.3723L10.5136 13.424L10.089 13.4248L10.0162 13.4016C9.97614 13.3888 9.91725 13.3654 9.88531 13.3496L9.82724 13.3209L9.73138 13.2343L9.6566 13.1035L9.60971 12.9396L9.60937 12.6362L9.651 12.3655L10.0162 12.3484L11.3661 12.3571L11.3864 12.2706C11.3976 12.2231 11.4148 12.1248 11.4245 12.0522L11.4422 11.9203L11.443 11.6983L11.4045 11.5326L11.3728 11.4777C11.3553 11.4475 11.3245 11.4038 11.3043 11.3805C11.2842 11.3572 11.2482 11.3244 11.2243 11.3076C11.2005 11.2907 11.1537 11.2625 11.1203 11.2447L11.0597 11.2125L10.8477 11.1614L10.5864 11.1364L10.3438 11.1522L10.0526 11.2081L9.96158 11.2445C9.91153 11.2645 9.83508 11.301 9.79171 11.3256C9.74833 11.3502 9.68827 11.3902 9.65824 11.4145C9.62821 11.4389 9.57622 11.4862 9.5427 11.5197C9.50918 11.5532 9.4596 11.6133 9.43252 11.6534C9.40544 11.6934 9.36392 11.7644 9.34026 11.8111C9.3166 11.8578 9.28578 11.9233 9.27176 11.9567C9.25773 11.9901 9.23226 12.0583 9.21514 12.1084C9.19802 12.1584 9.17111 12.254 9.15534 12.3207C9.13957 12.3874 9.11796 12.4973 9.10732 12.5648L9.08797 12.6876L9.08833 13.0487L9.10677 13.1276C9.11691 13.171 9.1363 13.2365 9.14987 13.2732C9.16343 13.3099 9.1885 13.3645 9.20559 13.3945C9.22267 13.4245 9.25917 13.4729 9.28668 13.502C9.31419 13.531 9.364 13.5751 9.39737 13.6C9.43074 13.6248 9.49014 13.6597 9.52937 13.6776L9.60071 13.7101L9.70017 13.7341C9.75488 13.7473 9.83744 13.763 9.88364 13.7689C9.92984 13.7749 10.0277 13.7804 10.1011 13.7812ZM10.3297 12.072C9.99375 12.072 9.71891 12.0696 9.71891 12.0666C9.71891 12.0637 9.73324 12.0214 9.75076 11.9726C9.76827 11.9238 9.79904 11.8512 9.81912 11.8112L9.85564 11.7386L10.0162 11.5789L10.095 11.5412C10.1384 11.5205 10.1958 11.4979 10.2224 11.491C10.2491 11.4842 10.3256 11.4751 10.3923 11.4708L10.5136 11.463L10.7 11.487L10.8354 11.549L10.8726 11.589C10.893 11.6111 10.9174 11.6435 10.9267 11.6611L10.9436 11.6932L10.966 11.8354L10.9404 12.072H10.3297ZM13.9596 13.7813L14.0932 13.7828L14.2448 13.7648C14.3281 13.7549 14.4391 13.7386 14.4914 13.7284C14.5437 13.7183 14.6283 13.6982 14.6795 13.6837C14.7306 13.6693 14.7769 13.6537 14.7823 13.649C14.7877 13.6444 14.8022 13.5893 14.8145 13.5266C14.8267 13.464 14.8422 13.38 14.8488 13.3399C14.8554 13.2999 14.8588 13.265 14.8564 13.2623C14.8539 13.2597 14.845 13.2631 14.8365 13.2699C14.828 13.2766 14.7685 13.3017 14.7042 13.3255L14.5874 13.3689L14.2546 13.4334L13.9717 13.4237L13.811 13.368L13.6868 13.2594L13.6044 13.1094L13.5652 12.9087L13.5655 12.6483L13.6131 12.3328L13.6384 12.2479C13.6522 12.2012 13.6679 12.1466 13.6732 12.1266C13.6785 12.1065 13.7008 12.0492 13.7227 11.9992C13.7446 11.9491 13.7836 11.8718 13.8094 11.8273L13.8564 11.7464L13.9718 11.6268L14.0939 11.551L14.1724 11.5269C14.2155 11.5136 14.2918 11.4963 14.3418 11.4885L14.4328 11.4744L14.6998 11.4878L15.0153 11.5509L15.0794 11.5748C15.1147 11.588 15.147 11.5988 15.147 11.5988C15.147 11.5988 15.1573 11.5537 15.1658 11.4987C15.1743 11.4436 15.1893 11.353 15.1993 11.2974C15.2092 11.2417 15.2149 11.1938 15.212 11.1909C15.2091 11.1879 15.1617 11.1804 15.1066 11.1741C15.0516 11.1679 14.9021 11.1567 14.7743 11.1494L14.542 11.136L14.2144 11.1612L13.9718 11.2122L13.8936 11.2434C13.8507 11.2606 13.7877 11.2916 13.7537 11.3123C13.7198 11.3331 13.6766 11.3609 13.6577 11.3743C13.6388 11.3876 13.5815 11.4397 13.5304 11.49L13.4375 11.5815L13.3856 11.6575C13.3571 11.6993 13.3077 11.7864 13.2759 11.8511L13.2181 11.9688L13.1738 12.0962C13.1494 12.1663 13.1154 12.281 13.0982 12.351L13.0669 12.4784L13.0442 12.709L13.0444 13.0123L13.0673 13.1888L13.14 13.3703L13.224 13.5015L13.3575 13.6329L13.4987 13.7075L13.5915 13.7333C13.6425 13.7475 13.7162 13.7637 13.7553 13.7694C13.7943 13.7752 13.8862 13.7805 13.9596 13.7813ZM16.1193 13.7721L16.3256 13.7193L16.3923 13.6878C16.429 13.6704 16.4891 13.6362 16.5258 13.6117C16.5625 13.5872 16.6193 13.5405 16.652 13.5081C16.6848 13.4757 16.7333 13.4203 16.7599 13.3851C16.7865 13.3499 16.8099 13.3227 16.8118 13.3246C16.8138 13.3266 16.8077 13.3827 16.7982 13.4493C16.7888 13.5159 16.781 13.6046 16.7808 13.6463L16.7806 13.7221H17.226L17.2396 13.3763L17.2714 13.1518C17.2888 13.0284 17.3171 12.8455 17.3341 12.7454C17.3511 12.6453 17.3807 12.476 17.3998 12.3692C17.419 12.2625 17.4493 12.0959 17.4672 11.9992L17.4998 11.8232L17.502 11.5193L17.4333 11.3788L17.3401 11.2894L17.1871 11.2118L16.959 11.1611L16.6451 11.1372L16.4429 11.1497C16.3317 11.1566 16.1751 11.1702 16.0951 11.1799L15.9495 11.1976L15.751 11.1983L15.7366 11.2681C15.7286 11.3065 15.7065 11.3977 15.6875 11.4707C15.6685 11.5438 15.6547 11.6053 15.6568 11.6075C15.659 11.6096 15.7121 11.5976 15.7748 11.5807C15.8375 11.5638 15.9707 11.536 16.0708 11.519L16.2528 11.488L16.5804 11.4745L16.7914 11.5115L16.9323 11.581L17.0111 11.6986L17.01 11.8839L16.9682 12.0873L16.0951 12.0904L15.9522 12.1296C15.8736 12.1511 15.7866 12.1797 15.7588 12.1932C15.731 12.2066 15.7032 12.2176 15.6971 12.2176C15.6909 12.2176 15.6441 12.2435 15.5932 12.2752L15.5005 12.3328L15.4275 12.4056C15.3874 12.4457 15.3361 12.5057 15.3136 12.5391C15.2911 12.5725 15.2545 12.6422 15.2322 12.694L15.1919 12.7882L15.1548 13.0002V13.2225L15.1902 13.4076L15.2231 13.468C15.2411 13.5012 15.2743 13.5498 15.2968 13.5761L15.3376 13.6238L15.4827 13.7119L15.5658 13.7355C15.6115 13.7484 15.681 13.764 15.7203 13.7702L15.7918 13.7815L16.1193 13.7721ZM16.0101 13.4426L15.9458 13.4262C15.9105 13.4172 15.8568 13.3971 15.8266 13.3816L15.7717 13.3533L15.7417 13.3177C15.7252 13.2981 15.7 13.2596 15.6857 13.2321L15.6597 13.1822L15.6495 12.9489L15.6701 12.8781C15.6814 12.8392 15.7079 12.7717 15.729 12.7281L15.7674 12.6488L15.9145 12.5027L16.0708 12.4275L16.2649 12.3814H16.8716L16.91 12.3972L16.8938 12.4924C16.8849 12.5448 16.8637 12.6395 16.8467 12.7029C16.8297 12.7663 16.7997 12.8595 16.78 12.91C16.7603 12.9605 16.7442 13.0052 16.7442 13.0092C16.7442 13.0133 16.7242 13.0501 16.6999 13.091L16.6556 13.1654L16.5828 13.2375C16.5428 13.2771 16.5056 13.3096 16.5003 13.3096C16.4949 13.3096 16.4703 13.3232 16.4457 13.3399L16.401 13.3703L16.2042 13.4325L16.0101 13.4426ZM20.0566 13.7812L20.1719 13.7826L20.2811 13.7649C20.3412 13.7551 20.4176 13.7394 20.451 13.73C20.4843 13.7205 20.5444 13.696 20.5844 13.6755L20.6572 13.6382L20.7825 13.528L20.8484 13.44C20.8847 13.3916 20.9176 13.3439 20.9214 13.3338L20.9285 13.3156L20.9224 13.3763C20.919 13.4097 20.9114 13.4643 20.9056 13.4976C20.8997 13.531 20.8913 13.5952 20.8869 13.6402L20.8789 13.7221H21.3549V13.5583L21.3912 13.2489C21.4111 13.0787 21.4406 12.8521 21.4567 12.7454C21.4728 12.6386 21.4977 12.4857 21.5119 12.4056C21.5262 12.3256 21.5515 12.1809 21.5681 12.0841C21.5847 11.9873 21.6148 11.8181 21.6348 11.708C21.6549 11.5978 21.6871 11.4231 21.7063 11.3197C21.7255 11.2163 21.7553 11.0552 21.7726 10.9618C21.7898 10.8683 21.8208 10.7045 21.8413 10.5977C21.8619 10.491 21.8919 10.3408 21.908 10.2641C21.9241 10.1873 21.9373 10.1204 21.9373 10.1154V10.1063H21.4179L21.4103 10.1822C21.406 10.2239 21.3862 10.3618 21.3661 10.4885C21.346 10.6153 21.3133 10.8174 21.2933 10.9375C21.2734 11.0576 21.2542 11.1741 21.2507 11.1963L21.2442 11.2368L21.2237 11.2281C21.2124 11.2233 21.1513 11.2063 21.0879 11.1904L20.9727 11.1615L20.6572 11.1369L20.3903 11.1618L20.1476 11.2231L19.9171 11.3356L19.7472 11.4613L19.6738 11.54C19.6335 11.5832 19.5752 11.6548 19.5443 11.6989L19.4882 11.7793L19.4222 11.9165C19.3859 11.992 19.3418 12.092 19.3241 12.1387C19.3064 12.1854 19.2753 12.289 19.2548 12.3688L19.2177 12.514L19.1811 12.891L19.2086 13.1943L19.2248 13.2489C19.2338 13.2789 19.2526 13.3324 19.2667 13.3678L19.2923 13.4321L19.3857 13.5586L19.4924 13.6459L19.5652 13.6821C19.6052 13.702 19.6724 13.7277 19.7145 13.7392C19.7565 13.7507 19.8248 13.7645 19.8661 13.7699C19.9075 13.7753 19.9932 13.7804 20.0566 13.7812ZM20.1719 13.4418L20.1101 13.4306C20.076 13.4245 20.0216 13.4081 19.9891 13.3942L19.93 13.3688L19.8306 13.2873L19.7566 13.1458L19.723 12.988L19.7258 12.6726L19.7649 12.3935L19.7953 12.2964C19.812 12.243 19.8258 12.1927 19.8259 12.1845C19.826 12.1763 19.8425 12.1326 19.8626 12.0874C19.8827 12.0422 19.9162 11.9725 19.9371 11.9324C19.958 11.8924 19.9972 11.83 20.024 11.7937C20.0509 11.7575 20.0988 11.7029 20.1304 11.6724C20.162 11.6419 20.2124 11.6019 20.2422 11.5835L20.2966 11.5501L20.4874 11.4841L20.8878 11.484L21.003 11.5159C21.0664 11.5335 21.1337 11.5539 21.1526 11.5613L21.1869 11.5746L21.1802 11.6079C21.1765 11.6262 21.1621 11.7067 21.1482 11.7868C21.1343 11.8669 21.1068 12.0198 21.0872 12.1266C21.0675 12.2333 21.0374 12.3944 21.0201 12.4845C21.0029 12.5746 20.9779 12.6893 20.9647 12.7393C20.9514 12.7894 20.9326 12.8587 20.923 12.8934C20.9134 12.928 20.8905 12.9881 20.8721 13.0268C20.8538 13.0656 20.8216 13.1218 20.8007 13.1518C20.7798 13.1819 20.7444 13.2235 20.7221 13.2443C20.6998 13.2651 20.6515 13.3021 20.6148 13.3265L20.548 13.3708L20.3551 13.432L20.1719 13.4418ZM2.70085 13.7221L2.722 13.5917C2.73363 13.5199 2.75635 13.3821 2.77249 13.2853C2.78863 13.1885 2.81866 13.0084 2.83923 12.8849C2.8598 12.7614 2.89064 12.5785 2.90776 12.4784C2.92487 12.3783 2.95207 12.2231 2.9682 12.1334C2.98432 12.0437 3.00058 11.9672 3.00432 11.9635L3.01112 11.9567H4.59656L4.61416 11.9743L4.60042 12.0444C4.59285 12.0829 4.57049 12.2018 4.55072 12.3086C4.53095 12.4153 4.49771 12.5955 4.47685 12.709C4.456 12.8224 4.42585 12.9835 4.40985 13.0669C4.39384 13.1503 4.36146 13.325 4.33789 13.4552C4.31431 13.5853 4.29508 13.6986 4.29514 13.7069L4.29526 13.7221H4.88731L4.9004 13.6463C4.90761 13.6046 4.9192 13.5295 4.92616 13.4794C4.93313 13.4294 4.94991 13.3229 4.96346 13.2428C4.97702 13.1628 5.00409 13.0044 5.02364 12.891C5.04318 12.7775 5.07589 12.5837 5.09633 12.4602C5.11676 12.3368 5.14708 12.1566 5.1637 12.0598C5.18032 11.9631 5.20993 11.7993 5.22951 11.6958C5.24908 11.5924 5.28169 11.4177 5.30196 11.3076C5.32224 11.1974 5.35261 11.0309 5.36946 10.9375C5.38631 10.8441 5.41704 10.6748 5.43774 10.5613C5.45844 10.4479 5.48458 10.3155 5.49582 10.2671L5.51627 10.1791H4.91682L4.90867 10.2368C4.90418 10.2685 4.8897 10.3572 4.87649 10.4339C4.86328 10.5107 4.83924 10.6472 4.82308 10.7373C4.80691 10.8274 4.77737 10.9994 4.75743 11.1195C4.73749 11.2396 4.71208 11.3986 4.70097 11.4728L4.68075 11.6078L3.80077 11.6256L3.43224 11.6169C3.22955 11.6121 3.06121 11.606 3.06121 11.606C3.06121 11.606 3.06674 11.5577 3.07655 11.5012C3.08636 11.4448 3.10493 11.3467 3.1178 11.2833C3.13068 11.2199 3.15508 11.0943 3.17204 11.0042C3.18899 10.9141 3.2082 10.8022 3.21472 10.7555C3.22123 10.7088 3.23489 10.631 3.24507 10.5826C3.25525 10.5342 3.27457 10.4323 3.288 10.3561C3.30143 10.2799 3.31574 10.209 3.3198 10.1984L3.32718 10.1791H2.73256L2.71352 10.2853C2.70304 10.3437 2.68908 10.427 2.68248 10.4703C2.67589 10.5137 2.65374 10.653 2.63327 10.7797C2.6128 10.9065 2.58258 11.0949 2.56612 11.1984C2.54965 11.3018 2.51967 11.4902 2.49949 11.617C2.47931 11.7438 2.44601 11.9403 2.42549 12.0538C2.40497 12.1672 2.37526 12.3283 2.35948 12.4117C2.34369 12.4951 2.3136 12.6535 2.29261 12.7636C2.27163 12.8737 2.24101 13.0293 2.22458 13.1094C2.20815 13.1895 2.18998 13.2823 2.18421 13.3156C2.17844 13.349 2.15966 13.4452 2.14248 13.5295C2.12529 13.6138 2.11123 13.6916 2.11123 13.7024V13.7221H2.70085ZM5.93067 13.7221L5.93803 13.7029C5.94208 13.6924 5.9454 13.6647 5.9454 13.6414C5.9454 13.6181 5.96181 13.4971 5.98187 13.3724C6.00193 13.2478 6.03507 13.0448 6.05552 12.9213C6.07597 12.7978 6.10617 12.6177 6.12263 12.5209C6.13909 12.4241 6.16836 12.2631 6.18768 12.163C6.207 12.0629 6.23666 11.9073 6.25359 11.8172C6.27051 11.7271 6.3038 11.5557 6.32756 11.4363C6.35132 11.3169 6.37372 11.2144 6.37735 11.2085L6.38393 11.1979L5.85608 11.2044L5.8341 11.3622C5.82201 11.4489 5.79558 11.6209 5.77536 11.7444C5.75515 11.8678 5.72457 12.0562 5.70741 12.163C5.69026 12.2697 5.66033 12.4417 5.64092 12.5452C5.62151 12.6486 5.59176 12.8069 5.57481 12.897C5.55786 12.9871 5.52745 13.1455 5.50723 13.2489C5.48701 13.3523 5.45988 13.4888 5.44694 13.5522C5.434 13.6156 5.4201 13.6798 5.41605 13.6948L5.4087 13.7221H5.93067ZM12.0328 13.7221L12.0405 13.6125C12.0448 13.5522 12.0595 13.4307 12.0731 13.3425C12.0868 13.2543 12.1147 13.0784 12.1352 12.9516C12.1557 12.8248 12.1938 12.6138 12.2198 12.4826C12.2459 12.3515 12.2753 12.2211 12.2853 12.193C12.2952 12.1648 12.3033 12.1342 12.3033 12.1251C12.3033 12.1159 12.3228 12.0661 12.3466 12.0144C12.3704 11.9626 12.4148 11.8834 12.4452 11.8383L12.5005 11.7563L12.6486 11.6192L12.8311 11.532L13.1102 11.5335L13.1788 11.554C13.2165 11.5653 13.2507 11.5745 13.2546 11.5745C13.2586 11.5745 13.2619 11.5616 13.2619 11.5458C13.2619 11.5301 13.2755 11.4501 13.2922 11.3682C13.3089 11.2863 13.3225 11.2158 13.3225 11.2116C13.3225 11.2074 13.283 11.1919 13.2346 11.1772C13.1862 11.1625 13.1193 11.147 13.0859 11.1429L13.0253 11.1354L12.9464 11.1494C12.903 11.1571 12.8385 11.174 12.8031 11.187C12.7676 11.2001 12.7091 11.2296 12.673 11.2527C12.6369 11.2758 12.5807 11.3208 12.5482 11.3527C12.5157 11.3846 12.461 11.4489 12.4266 11.4956C12.3923 11.5423 12.3564 11.5915 12.3468 11.6048L12.3295 11.6291L12.34 11.5805C12.3458 11.5539 12.362 11.4665 12.3759 11.3864C12.3899 11.3063 12.4042 11.2313 12.4077 11.2196L12.4142 11.1983H11.9515V11.2276C11.9515 11.2437 11.9378 11.3406 11.9211 11.443C11.9044 11.5453 11.8769 11.7164 11.86 11.8232C11.843 11.93 11.8129 12.1156 11.7931 12.2358C11.7733 12.3559 11.7432 12.5279 11.7263 12.618C11.7093 12.7081 11.6792 12.8664 11.6594 12.9698C11.6395 13.0733 11.6066 13.2425 11.5861 13.346C11.5657 13.4494 11.5413 13.5716 11.5318 13.6174C11.5224 13.6633 11.5147 13.7056 11.5147 13.7115V13.7221L12.0328 13.7221ZM18.1881 13.7221V13.56L18.2186 13.359C18.2354 13.2484 18.2631 13.0733 18.2801 12.9698C18.2972 12.8664 18.3185 12.7354 18.3274 12.6786C18.3363 12.6219 18.36 12.4991 18.38 12.4056C18.4 12.3122 18.425 12.2112 18.4355 12.1812C18.446 12.1511 18.4547 12.1196 18.4548 12.1111C18.4549 12.1027 18.4775 12.0482 18.505 11.99L18.555 11.8843L18.6869 11.709L18.7591 11.6547C18.7988 11.6249 18.8627 11.5853 18.901 11.5667L18.9707 11.5329L19.274 11.535L19.3934 11.5734L19.4135 11.5609L19.4141 11.5222C19.4143 11.5009 19.4273 11.4217 19.4429 11.3461L19.4713 11.2088L19.4394 11.1963C19.4218 11.1894 19.3802 11.1752 19.3468 11.1647L19.2861 11.1456L19.0677 11.1462L18.8898 11.2088L18.7561 11.2894L18.5824 11.4714L18.5357 11.542C18.51 11.5808 18.4874 11.6108 18.4855 11.6087C18.4835 11.6066 18.4975 11.5257 18.5165 11.4289C18.5355 11.3321 18.5513 11.2407 18.5516 11.2257L18.5521 11.1984H18.1031V11.2061C18.1031 11.2103 18.0919 11.2881 18.0783 11.379C18.0646 11.4698 18.0371 11.6452 18.0172 11.7686C17.9974 11.8921 17.9647 12.0914 17.9447 12.2115C17.9247 12.3316 17.8946 12.5036 17.8777 12.5937C17.8609 12.6838 17.831 12.8421 17.8113 12.9456C17.7915 13.049 17.7591 13.2155 17.7392 13.3156C17.7193 13.4157 17.693 13.5482 17.6807 13.6099L17.6583 13.7221L18.1881 13.7221ZM6.25655 10.7615L6.37367 10.7216L6.47732 10.6165L6.53192 10.4764L6.53387 10.2701L6.48534 10.1896L6.40084 10.1373L6.2184 10.1373L6.0942 10.1929L6.0221 10.2701L5.96548 10.4036L5.95478 10.6115L6.00749 10.7148L6.1092 10.761L6.25655 10.7615Z" fill="#B3131B"></path>
</svg>