<svg width="1em" height="1em" viewBox="0 0 24 24" fill="none" xmlns="http://www.w3.org/2000/svg">
<path d="M10 7C9.72386 7 9.5 7.22386 9.5 7.5C9.5 7.77614 9.72386 8 10 8H17C17.2761 8 17.5 7.77614 17.5 7.5C17.5 7.22386 17.2761 7 17 7H10Z" fill="currentColor"></path>
<path d="M9.5 10.5C9.5 10.2239 9.72386 10 10 10H17C17.2761 10 17.5 10.2239 17.5 10.5C17.5 10.7761 17.2761 11 17 11H10C9.72386 11 9.5 10.7761 9.5 10.5Z" fill="currentColor"></path>
<path d="M10 13C9.72386 13 9.5 13.2239 9.5 13.5C9.5 13.7761 9.72386 14 10 14H17C17.2761 14 17.5 13.7761 17.5 13.5C17.5 13.2239 17.2761 13 17 13H10Z" fill="currentColor"></path>
<path fill-rule="evenodd" clip-rule="evenodd" d="M6 3C4.92386 3 4 3.92386 4 5V20.5C4 20.7761 4.22386 21 4.5 21H15.5C15.7761 21 16 20.7761 16 20.5V19H19.5C19.7761 19 20 18.7761 20 18.5V5C20 3.92386 19.0761 3 18 3H6ZM19 5V18H8V5C8 4.64 7.89661 4.29703 7.71871 4H18C18.5239 4 19 4.47614 19 5ZM5 5C5 4.47614 5.47614 4 6 4C6.52386 4 7 4.47614 7 5V18.5C7 18.7761 7.22386 19 7.5 19H15V20H5V5Z" fill="currentColor"></path>
</svg>