<svg width="1em" height="1em" viewBox="0 0 24 24" fill="none" xmlns="http://www.w3.org/2000/svg">
<path fill-rule="evenodd" clip-rule="evenodd" d="M12.6172 3.21315L13.4742 3.88437C14.0129 4.306 14.7719 4.89943 15.6527 5.58655C17.4146 6.96108 19.6625 8.70945 21.6098 10.2074C21.9492 10.4684 22.0847 10.9166 21.9468 11.322C21.8089 11.7274 21.4282 12 21.0001 12H19.5001V20C19.5001 20.5523 19.0523 21 18.5001 21H14.5001C13.9478 21 13.5001 20.5523 13.5001 20V16H10.5001V20C10.5001 20.5523 10.0523 21 9.50006 21H5.50006C4.94778 21 4.50006 20.5523 4.50006 20V12H3.00006C2.57286 12 2.19283 11.7286 2.05419 11.3245C1.91554 10.9205 2.0489 10.4729 2.38612 10.2106L11.3861 3.21065C11.7484 2.92886 12.256 2.92989 12.6172 3.21315ZM5.83891 10.0589C6.22442 10.1977 6.50006 10.5667 6.50006 11V19H8.50006V15C8.50006 14.4477 8.94778 14 9.50006 14H14.5001C15.0523 14 15.5001 14.4477 15.5001 15V19H17.5001V11C17.5001 10.5707 17.7706 10.2045 18.1505 10.0628C16.0953 8.47034 14.045 6.8715 11.9979 5.26856L5.83891 10.0589Z" fill="currentColor"></path>
</svg>