<svg width="1em" height="1em" viewBox="0 0 24 24" fill="none" xmlns="http://www.w3.org/2000/svg">
<path d="M18.4998 21.0001H14.4998C14.2198 21.0001 13.9998 20.7801 13.9998 20.5001V16.0001H9.9998V20.5001C9.9998 20.7801 9.7798 21.0001 9.4998 21.0001H5.4998C5.2198 21.0001 4.9998 20.7801 4.9998 20.5001V12.0001H3.4998C3.2898 12.0001 3.1098 11.8801 3.0398 11.6801C2.9598 11.4901 3.0098 11.2701 3.1598 11.1301L11.6598 3.1301C11.8398 2.9601 12.1298 2.9501 12.3198 3.1101C12.3698 3.1501 17.2198 7.1501 20.8698 11.1601C20.9998 11.3101 21.0398 11.5201 20.9598 11.7001C20.8798 11.8801 20.6998 12.0001 20.4998 12.0001H18.9998V20.5001C18.9998 20.7801 18.7798 21.0001 18.4998 21.0001ZM14.9998 20.0001H17.9998V11.5001C17.9998 11.2201 18.2198 11.0001 18.4998 11.0001H19.3498C16.4498 7.9501 13.0798 5.0601 12.0198 4.1701L4.7598 11.0001H5.4998C5.7798 11.0001 5.9998 11.2201 5.9998 11.5001V20.0001H8.9998V15.5001C8.9998 15.2201 9.2198 15.0001 9.4998 15.0001H14.4998C14.7798 15.0001 14.9998 15.2201 14.9998 15.5001V20.0001Z" fill="currentColor"></path>
</svg>