<svg width="1em" height="1em" viewBox="0 0 24 24" fill="none" xmlns="http://www.w3.org/2000/svg">
<path d="M17.08 13.73H18.62C18.66 13.73 18.77 13.72 18.81 13.72C19.1 13.66 19.35 13.4 19.35 13.03C19.35 12.68 19.1 12.41 18.81 12.34C18.77 12.33 18.68 12.33 18.62 12.33H17.08V13.73Z" fill="url(#paint0_linear)"></path>
<path d="M18.44 4C16.97 4 15.77 5.19 15.77 6.67V9.44H19.54C19.63 9.44 19.73 9.44 19.8 9.45C20.65 9.49 21.28 9.93 21.28 10.7C21.28 11.3 20.85 11.81 20.06 11.92V11.95C20.93 12.01 21.59 12.49 21.59 13.24C21.59 14.05 20.86 14.58 19.89 14.58H15.75V20H19.67C21.14 20 22.34 18.81 22.34 17.33V4H18.44Z" fill="url(#paint1_linear)"></path>
<path d="M19.16 10.88C19.16 10.53 18.91 10.29 18.62 10.25C18.59 10.25 18.52 10.24 18.47 10.24H17.08V11.53H18.47C18.51 11.53 18.6 11.53 18.62 11.52C18.91 11.47 19.16 11.23 19.16 10.88Z" fill="url(#paint2_linear)"></path>
<path d="M3.68 4C2.22 4 1.01 5.19 1.01 6.67V13.26C1.76 13.63 2.54 13.86 3.31 13.86C4.23 13.86 4.73 13.3 4.73 12.54V9.43H7.02V12.53C7.02 13.73 6.27 14.72 3.73 14.72C2.2 14.71 1 14.37 1 14.37V19.99H4.92C6.39 19.99 7.59 18.8 7.59 17.32V4H3.68Z" fill="url(#paint3_linear)"></path>
<path d="M11.0596 4C9.59965 4 8.38965 5.19 8.38965 6.67V10.16C9.05965 9.59 10.2396 9.22 12.1296 9.31C13.1396 9.35 14.2296 9.63 14.2296 9.63V10.76C13.6896 10.48 13.0396 10.23 12.2096 10.17C10.7696 10.07 9.90965 10.77 9.90965 12C9.90965 13.25 10.7796 13.95 12.2096 13.83C13.0496 13.77 13.6896 13.51 14.2296 13.24V14.37C14.2296 14.37 13.1596 14.65 12.1296 14.69C10.2396 14.78 9.05965 14.41 8.38965 13.84V20H12.3096C13.7796 20 14.9796 18.81 14.9796 17.33V4H11.0596Z" fill="url(#paint4_linear)"></path>
<path d="M3.31 13.8601C2.54 13.8601 1.76 13.6301 1.01 13.2601L1 14.3701C1 14.3701 2.2 14.7101 3.73 14.7201C6.27 14.7201 7.02 13.7301 7.02 12.5301V9.43005H4.73V12.5401C4.73 13.3001 4.23 13.8601 3.31 13.8601Z" fill="white"></path>
<path d="M12.1296 9.31009C10.2396 9.22009 9.05965 9.59009 8.38965 10.1601V13.8401C9.05965 14.4101 10.2396 14.7801 12.1296 14.6901C13.1596 14.6501 14.2296 14.3701 14.2296 14.3701V13.2401C13.6896 13.5101 13.0496 13.7701 12.2096 13.8301C10.7796 13.9501 9.90965 13.2501 9.90965 12.0001C9.90965 10.7701 10.7696 10.0701 12.2096 10.1701C13.0396 10.2301 13.6896 10.4801 14.2296 10.7601V9.63009C14.2296 9.63009 13.1396 9.35009 12.1296 9.31009Z" fill="white"></path>
<path d="M20.0695 11.9499V11.9199C20.8595 11.8199 21.2895 11.2999 21.2895 10.6999C21.2895 9.93994 20.6595 9.49994 19.8095 9.44994C19.7395 9.43994 19.6295 9.43994 19.5495 9.43994H15.7795L15.7695 14.5799H19.9095C20.8795 14.5799 21.6095 14.0499 21.6095 13.2499C21.5995 12.4899 20.9395 12.0099 20.0695 11.9499ZM17.0795 10.2299H18.4695C18.5095 10.2299 18.5895 10.2399 18.6195 10.2399C18.9095 10.2799 19.1595 10.5199 19.1595 10.8699C19.1595 11.2199 18.9095 11.4599 18.6195 11.4999C18.6095 11.5099 18.5195 11.5099 18.4695 11.5099H17.0795V10.2299ZM18.8095 13.7099C18.7695 13.7099 18.6595 13.7199 18.6195 13.7199H17.0795V12.3199H18.6195C18.6795 12.3199 18.7695 12.3199 18.8095 12.3299C19.0995 12.3999 19.3495 12.6699 19.3495 13.0199C19.3495 13.3899 19.0995 13.6499 18.8095 13.7099Z" fill="white"></path>
<defs>
<linearGradient id="paint0_linear" x1="15.77" y1="10.8803" x2="22.3625" y2="10.8803" gradientUnits="userSpaceOnUse">
<stop stop-color="#007940"></stop>
<stop offset="0.2285" stop-color="#00873F"></stop>
<stop offset="0.7433" stop-color="#40A737"></stop>
<stop offset="1" stop-color="#5CB531"></stop>
</linearGradient>
<linearGradient id="paint1_linear" x1="15.77" y1="10.8803" x2="22.3625" y2="10.8803" gradientUnits="userSpaceOnUse">
<stop stop-color="#007940"></stop>
<stop offset="0.2285" stop-color="#00873F"></stop>
<stop offset="0.7433" stop-color="#40A737"></stop>
<stop offset="1" stop-color="#5CB531"></stop>
</linearGradient>
<linearGradient id="paint2_linear" x1="15.77" y1="10.8803" x2="22.3625" y2="10.8803" gradientUnits="userSpaceOnUse">
<stop stop-color="#007940"></stop>
<stop offset="0.2285" stop-color="#00873F"></stop>
<stop offset="0.7433" stop-color="#40A737"></stop>
<stop offset="1" stop-color="#5CB531"></stop>
</linearGradient>
<linearGradient id="paint3_linear" x1="1.0116" y1="11.9951" x2="7.7059" y2="11.9951" gradientUnits="userSpaceOnUse">
<stop stop-color="#1F286F"></stop>
<stop offset="0.4751" stop-color="#004E94"></stop>
<stop offset="0.8261" stop-color="#0066B1"></stop>
<stop offset="1" stop-color="#006FBC"></stop>
</linearGradient>
<linearGradient id="paint4_linear" x1="8.35525" y1="12.0098" x2="14.857" y2="12.0098" gradientUnits="userSpaceOnUse">
<stop stop-color="#6C2C2F"></stop>
<stop offset="0.1735" stop-color="#882730"></stop>
<stop offset="0.5731" stop-color="#BE1833"></stop>
<stop offset="0.8585" stop-color="#DC0436"></stop>
<stop offset="1" stop-color="#E60039"></stop>
</linearGradient>
</defs>
</svg>