<svg width="1em" height="1em" viewBox="0 0 24 24" fill="none" xmlns="http://www.w3.org/2000/svg">
<path d="M17.3804 4.80192C12.0175 4.80192 13.1972 8.32899 13.1972 8.32899C12.469 8.10629 3.35033 5.09083 2.05025 4.66349C2.03323 4.66014 2.0159 4.66757 2.00659 4.68221C1.99727 4.69684 1.99788 4.71569 2.00812 4.72969C2.14054 4.88618 2.40537 5.18713 2.83271 5.6566C2.86368 5.69462 2.90577 5.72198 2.95309 5.73485L3.07948 5.783L10.6633 8.26278C10.7071 8.27633 10.7439 8.3066 10.7656 8.34705L11.1809 9.04524L3.79573 6.63768L4.34345 7.23957C4.39414 7.29522 4.45844 7.33671 4.53004 7.35995L11.542 9.65917C11.5844 9.67228 11.6206 9.70001 11.6444 9.73741L12.0055 10.4476L5.27638 8.27482L5.87827 8.9369C5.90496 8.96454 5.93803 8.98521 5.97457 8.99709L12.2944 11.0676C12.3539 11.0859 12.4037 11.127 12.4328 11.1819L12.8361 11.8561L6.95565 9.93002C6.92556 9.93002 6.90148 9.96011 6.92556 9.97817C8.23767 11.2903 9.40534 12.3316 9.84472 12.3857L5.63149 21.8835C5.61902 21.9115 5.62741 21.9444 5.65176 21.9631C5.67611 21.9817 5.71006 21.9812 5.73381 21.9618C7.62977 20.4029 8.97198 16.2559 10.9883 15.1544C13.9135 13.5594 15.039 12.6205 15.7613 11.0255C16.61 9.14154 17.6934 5.99366 17.886 5.86726C19.0356 4.97647 21.1061 2.9782 21.9788 2.12351C22.0071 2.09526 22.0071 2.04945 21.9788 2.02119C21.9506 1.99294 21.9047 1.99294 21.8765 2.02119C20.6607 2.81569 17.5489 4.80192 17.3804 4.80192Z" fill="#F16622"></path>
</svg>