<svg width="1em" height="1em" viewBox="0 0 24 24" fill="none" xmlns="http://www.w3.org/2000/svg">
<path fill-rule="evenodd" clip-rule="evenodd" d="M6 11C6 7.7 8.7 5 12 5C15.3 5 18 7.7 18 11C18 14.3 15.3 17 12 17C8.7 17 6 14.3 6 11ZM14.4686 8.26274C14.5657 8.23431 14.6828 8.2 14.8 8.2C14.6 8 14.4 7.8 14.2 7.7C14.2 7.8 14.225 7.9 14.25 8C14.275 8.1 14.3 8.2 14.3 8.3C14.3414 8.3 14.4 8.28284 14.4686 8.26274ZM12.3 8.4C12.2 8 12.1 7.7 12 7.4C11.9 7.7 11.8 8.1 11.8 8.4H12.3ZM8.2 10C8.1 10.3 8 10.6 8 11C8 11.4 8.1 11.7 8.2 12C8.45 11.95 8.675 11.9 8.9 11.85C9.125 11.8 9.35 11.75 9.6 11.7V10.3C9.10001 10.2 8.59999 10.1 8.2 10ZM9.53137 13.7373C9.43432 13.7657 9.31716 13.8 9.2 13.8C9.4 14 9.6 14.2 9.8 14.3C9.8 14.2 9.775 14.1 9.75 14C9.725 13.9 9.7 13.8 9.7 13.7C9.65858 13.7 9.6 13.7172 9.53137 13.7373ZM9.36863 8.23726C9.46569 8.26569 9.58284 8.3 9.7 8.3C9.75 8.2 9.775 8.1 9.8 8C9.825 7.9 9.85 7.8 9.9 7.7C9.6 7.8 9.4 8 9.2 8.2C9.24142 8.2 9.3 8.21716 9.36863 8.23726ZM11.7 13.6C11.8 14 11.9 14.3 12 14.6C12.1 14.3 12.2 13.9 12.2 13.6H11.7ZM12.5 11.5V10.5H11.5V11.5H12.5ZM14.15 14.1C14.125 14.2 14.1 14.3 14.1 14.4C14.4 14.2 14.6 14 14.7 13.9C14.6586 13.9 14.6 13.8828 14.5314 13.8627C14.4343 13.8343 14.3172 13.8 14.2 13.8C14.2 13.9 14.175 14 14.15 14.1ZM14.4 11.7C14.9 11.8 15.4 11.9 15.8 12C15.9 11.7 16 11.3 16 11C16 10.7 15.9 10.3 15.8 10C15.55 10.05 15.325 10.1 15.1 10.15C14.875 10.2 14.65 10.25 14.4 10.3L14.4 11.7Z" fill="currentColor"></path>
<path fill-rule="evenodd" clip-rule="evenodd" d="M5 2H19C20.7 2 22 3.3 22 5V17C22 18.7 20.7 20 19 20H5.8L3.6 21.8C3.4 21.9 3.2 22 3 22C2.9 22 2.7 22 2.6 21.9C2.2 21.7 2 21.4 2 21V5C2 3.3 3.3 2 5 2ZM19 18C19.6 18 20 17.6 20 17V5C20 4.4 19.6 4 19 4H5C4.4 4 4 4.4 4 5V18.9L4.9 18.2C5.1 18.1 5.3 18 5.5 18H19Z" fill="currentColor"></path>
</svg>