<svg width="1em" height="1em" viewBox="0 0 24 24" fill="none" xmlns="http://www.w3.org/2000/svg">
<path fill-rule="evenodd" clip-rule="evenodd" d="M12.9 5.1C13.1 5.1 13.3 5.1 13.6 5.2C16.1 5.9 18 8.2 17.8 11C17.8 13.8 16 16.1 13.4 16.8C13.2348 16.8 13.1 16.8303 12.9788 16.8575C12.8798 16.8798 12.7899 16.9 12.7 16.9H11.1C10.8 16.9 10.6 16.9 10.4 16.8C7.9 16.1 6 13.8 6 11C6 8.2 7.9 5.9 10.6 5.2C10.7652 5.2 10.9 5.16969 11.0212 5.14245C11.1202 5.1202 11.2101 5.1 11.3 5.1H12.9ZM14.0924 6.5462C14.432 7.11346 14.616 7.77211 14.8 8.6C15.3 8.5 15.7 8.3 16.1 8.1C16 7.9 15.8 7.7 15.7 7.6L15.4 7.3C15.35 7.25 15.275 7.2 15.2 7.15C15.125 7.1 15.05 7.05 15 7C14.9382 6.9382 14.8764 6.91459 14.791 6.88197C14.7382 6.8618 14.6764 6.8382 14.6 6.8L14.0924 6.5462ZM13.7 8.8C13.4 7.1 12.7 6 12 6C11.3 6 10.6 7.1 10.3 8.8C10.5386 8.8 10.8 8.82277 11.0733 8.84659C11.3727 8.87267 11.6863 8.9 12 8.9C12.6 8.9 13.2 8.9 13.7 8.8ZM8.6 7.3L8.3 7.6C8.25 7.7 8.2 7.775 8.15 7.85C8.1 7.925 8.05 8 8 8.1C8.3 8.3 8.8 8.5 9.3 8.6C9.48992 7.74536 9.67984 7.07107 10.041 6.49149C10.0193 6.5 10 6.5 10 6.5C9.7 6.6 9.5 6.7 9.30001 6.8C9.25001 6.85 9.2 6.875 9.15 6.9C9.1 6.925 9.05 6.95 9 7C8.9 7.1 8.8 7.2 8.6 7.3ZM7 11C7 11.7 7.2 12.4 7.4 13C7.9 12.8 8.5 12.6 9.1 12.4C9 12 9 11.5 9 11C9 10.7361 9.02786 10.4721 9.05418 10.2229C9.07771 10 9.1 9.78885 9.1 9.6C8.4 9.5 7.9 9.3 7.4 9C7.2 9.6 7 10.3 7 11ZM9.9076 15.4538C9.56795 14.8865 9.38398 14.2279 9.2 13.4C8.7 13.5 8.3 13.7 7.9 13.9C8 14.1 8.2 14.3 8.3 14.4L8.6 14.7C8.65 14.75 8.725 14.8 8.8 14.85C8.875 14.9 8.95 14.95 9 15C9.0618 15.0618 9.12361 15.0854 9.20902 15.118C9.2618 15.1382 9.32361 15.1618 9.4 15.2L9.9076 15.4538ZM10.3 13.2C10.6 14.9 11.3 16 12 16C12.7 16 13.4 14.9 13.7 13.2C13.4614 13.2 13.2 13.1772 12.9267 13.1534C12.6273 13.1273 12.3137 13.1 12 13.1C11.4 13.1 10.8 13.1 10.3 13.2ZM10.9764 12.1529C11.3 12.127 11.6365 12.1 12 12.1C12.7 12.1 13.3 12.1 13.9 12.2C14 11.8 14 11.4 14 11C14 10.8 13.975 10.6 13.95 10.4C13.925 10.2 13.9 10 13.9 9.8C13.6116 9.8 13.3231 9.82311 13.0236 9.84711C12.7 9.87304 12.3635 9.9 12 9.9C11.3 9.9 10.7 9.9 10.1 9.8C10 10.2 10 10.6 10 11C10 11.2 10.025 11.4 10.05 11.6C10.075 11.8 10.1 12 10.1 12.2C10.3884 12.2 10.6769 12.1769 10.9764 12.1529ZM15.4 14.7L15.7 14.4C15.8 14.2 15.9 14.1 16.1 13.9C15.8 13.7 15.3 13.5 14.8 13.4C14.6091 14.2592 14.327 14.9361 14.0408 15.5177C14.0685 15.5 14.1 15.5 14.1 15.5L14.7 15.2C14.75 15.15 14.8 15.125 14.85 15.1C14.9 15.075 14.95 15.05 15 15C15.2 14.9 15.3 14.8 15.4 14.7ZM16.6 13C16.8 12.4 17 11.7 17 11C17 10.3 16.8 9.6 16.6 9C16.1 9.2 15.5 9.4 14.9 9.6C15 10 15 10.5 15 11C15 11.2639 14.9721 11.5279 14.9458 11.7771C14.9223 12 14.9 12.2111 14.9 12.4C15.6 12.5 16.1 12.7 16.6 13Z" fill="currentColor"></path>
<path fill-rule="evenodd" clip-rule="evenodd" d="M4.5 2H19.5C20.9 2 22 3.1 22 4.5V17.5C22 18.9 20.9 20 19.5 20H5.2L2.8 21.9C2.7 22 2.6 22 2.5 22H2.3C2.1 21.9 2 21.7 2 21.5V4.5C2 3.1 3.1 2 4.5 2ZM19.5 19C20.3 19 21 18.3 21 17.5V4.5C21 3.7 20.3 3 19.5 3H4.5C3.7 3 3 3.7 3 4.5V20.5L4.7 19.1C4.8 19 4.9 19 5 19H19.5Z" fill="currentColor"></path>
</svg>