<svg width="1em" height="1em" viewBox="0 0 24 24" fill="none" xmlns="http://www.w3.org/2000/svg">
<path d="M20 11.0001H6.66L12.66 5.75008C13.08 5.39008 13.12 4.75008 12.75 4.34008C12.39 3.92008 11.75 3.88008 11.34 4.25008L3.34 11.2501C3.33 11.2501 3.33 11.2701 3.32 11.2701C3.25 11.3401 3.2 11.4201 3.15 11.5101C3.13 11.5401 3.1 11.5701 3.09 11.6001C3.03 11.7201 3 11.8601 3 12.0001C3 12.1401 3.03 12.2801 3.09 12.4001C3.1 12.4401 3.13 12.4601 3.15 12.4901C3.2 12.5801 3.25 12.6601 3.32 12.7201C3.33 12.7301 3.33 12.7401 3.34 12.7501L11.34 19.7501C11.53 19.9201 11.77 20.0001 12 20.0001C12.28 20.0001 12.56 19.8801 12.75 19.6601C13.11 19.2401 13.07 18.6101 12.66 18.2501L6.66 13.0001H20C20.55 13.0001 21 12.5501 21 12.0001C21 11.4501 20.55 11.0001 20 11.0001Z" fill="currentColor"></path>
</svg>