<svg width="1em" height="1em" viewBox="0 0 20 20" fill="none" xmlns="http://www.w3.org/2000/svg">
<path d="M12 10C12 11.1046 11.1046 12 10 12C8.89543 12 8 11.1046 8 10C8 8.89543 8.89543 8 10 8C11.1046 8 12 8.89543 12 10Z" fill="currentColor"></path>
<path fill-rule="evenodd" clip-rule="evenodd" d="M10 0C10.5523 0 11 0.447715 11 1V1.45751C14.9505 1.91496 18.085 5.04952 18.5425 9H19C19.5523 9 20 9.44771 20 10C20 10.5523 19.5523 11 19 11H18.5425C18.085 14.9505 14.9505 18.085 11 18.5425V19C11 19.5523 10.5523 20 10 20C9.44771 20 9 19.5523 9 19V18.5425C5.04954 18.085 1.91501 14.9505 1.45754 11H1C0.447715 11 0 10.5523 0 10C0 9.44771 0.447715 9 1 9H1.45754C1.915 5.04954 5.04954 1.91499 9 1.45751V1C9 0.447715 9.44771 0 10 0ZM11 16.5247V16C11 15.4477 10.5523 15 10 15C9.44771 15 9 15.4477 9 16V16.5247C6.15558 16.0924 3.90763 13.8444 3.47529 11H4C4.55228 11 5 10.5523 5 10C5 9.44771 4.55228 9 4 9H3.47529C3.90762 6.15557 6.15557 3.90761 9 3.47527V4C9 4.55228 9.44771 5 10 5C10.5523 5 11 4.55228 11 4V3.47526C13.8445 3.90758 16.0924 6.15555 16.5248 9H16C15.4477 9 15 9.44771 15 10C15 10.5523 15.4477 11 16 11H16.5248C16.0924 13.8444 13.8444 16.0924 11 16.5247Z" fill="currentColor"></path>
</svg>