<svg width="1em" height="1em" viewBox="0 0 24 24" fill="none" xmlns="http://www.w3.org/2000/svg">
<path fill-rule="evenodd" clip-rule="evenodd" d="M12.5 18.9846C16.6854 18.7265 20 15.2504 20 11C20 6.58172 16.4183 3 12 3C7.58172 3 4 6.58172 4 11C4 15.2504 7.31464 18.7265 11.5 18.9846V20.5C11.5 20.7761 11.7239 21 12 21C12.2761 21 12.5 20.7761 12.5 20.5V18.9846ZM12 14C13.6569 14 15 12.6569 15 11C15 9.34315 13.6569 8 12 8C10.3431 8 9 9.34315 9 11C9 12.6569 10.3431 14 12 14Z" fill="currentColor"></path>
</svg>