<svg width="1em" height="1em" viewBox="0 0 24 24" fill="none" xmlns="http://www.w3.org/2000/svg">
<path fill-rule="evenodd" clip-rule="evenodd" d="M13 18.9418C17.2232 18.4469 20.5 14.8561 20.5 10.5C20.5 5.80558 16.6944 2 12 2C7.30558 2 3.5 5.80558 3.5 10.5C3.5 14.8561 6.77683 18.4469 11 18.9418V21C11 21.5523 11.4477 22 12 22C12.5523 22 13 21.5523 13 21V18.9418ZM12 13.5C13.6569 13.5 15 12.1569 15 10.5C15 8.84315 13.6569 7.5 12 7.5C10.3431 7.5 9 8.84315 9 10.5C9 12.1569 10.3431 13.5 12 13.5Z" fill="currentColor"></path>
</svg>