<svg width="1em" height="1em" viewBox="0 0 24 24" fill="none" xmlns="http://www.w3.org/2000/svg">
<path d="M15.96 12.19C16.01 12.07 16.01 11.93 15.96 11.81C15.93 11.75 15.9 11.69 15.85 11.65L11.85 7.65C11.65 7.45 11.34 7.45 11.14 7.65C10.94 7.85 10.94 8.16 11.14 8.36L14.29 11.51H4.5C4.22 11.5 4 11.72 4 12C4 12.28 4.22 12.5 4.5 12.5H14.29L11.14 15.65C10.94 15.85 10.94 16.16 11.14 16.36C11.24 16.46 11.37 16.51 11.49 16.51C11.61 16.51 11.75 16.46 11.84 16.36L15.84 12.36C15.9 12.31 15.94 12.25 15.96 12.19Z" fill="currentColor"></path>
<path d="M19.5 20H15.5C15.22 20 15 19.78 15 19.5C15 19.22 15.22 19 15.5 19H19V5H15.5C15.22 5 15 4.78 15 4.5C15 4.22 15.22 4 15.5 4H19.5C19.78 4 20 4.22 20 4.5V19.5C20 19.78 19.78 20 19.5 20Z" fill="currentColor"></path>
</svg>