<svg width="1em" height="1em" viewBox="0 0 24 24" fill="none" xmlns="http://www.w3.org/2000/svg">
<path d="M15.92 12.38C16.02 12.14 16.02 11.86 15.92 11.62C15.87 11.5 15.8 11.39 15.7 11.29L11.7 7.29C11.31 6.9 10.68 6.9 10.29 7.29C9.9 7.68 9.9 8.31 10.29 8.7L12.59 11H5C4.45 11 4 11.45 4 12C4 12.55 4.45 13 5 13H12.59L10.3 15.29C9.91 15.68 9.91 16.31 10.3 16.7C10.49 16.9 10.74 17 11 17C11.26 17 11.51 16.9 11.71 16.71L15.71 12.71C15.8 12.62 15.87 12.5 15.92 12.38Z" fill="currentColor"></path>
<path d="M19 20H15C14.45 20 14 19.55 14 19C14 18.45 14.45 18 15 18H18V6H15C14.45 6 14 5.55 14 5C14 4.45 14.45 4 15 4H19C19.55 4 20 4.45 20 5V19C20 19.55 19.55 20 19 20Z" fill="currentColor"></path>
</svg>