<svg width="1em" height="1em" viewBox="0 0 24 24" fill="none" xmlns="http://www.w3.org/2000/svg">
<rect y="4.00012" width="24" height="16" rx="2" fill="black"></rect>
<path fill-rule="evenodd" clip-rule="evenodd" d="M19.3243 16.4338H19.0291V17.137C18.9307 17.0116 18.7921 16.9399 18.6087 16.9399C18.2286 16.9399 17.9379 17.2355 17.9379 17.643C17.9379 18.0506 18.2331 18.3461 18.6087 18.3461C18.8055 18.3461 18.9442 18.2745 19.0291 18.1491V18.3193H19.3243V16.4338ZM10.6346 16.9668H11.1086V17.24H10.6301V17.8446C10.6301 17.9834 10.6882 18.0685 10.8269 18.0685C10.8939 18.0685 10.9923 18.0551 11.0773 17.9968L11.1623 18.2476C11.0684 18.3059 10.9253 18.3462 10.8 18.3462C10.4646 18.3462 10.3394 18.1625 10.3394 17.8535V17.2355H10.071V16.9668H10.3394V16.5592H10.6346V16.9668ZM6.75259 17.4729V18.3148H6.43506V17.5714C6.43506 17.3475 6.33666 17.2221 6.13988 17.2221C5.95652 17.2221 5.81788 17.334 5.81788 17.5714V18.3148H5.5227V17.5714C5.5227 17.3475 5.42431 17.2221 5.22753 17.2221C5.03075 17.2221 4.90552 17.334 4.90552 17.5714V18.3148H4.61035V16.9668H4.90105V17.137C5.01286 16.9802 5.15597 16.9399 5.29461 16.9399C5.50481 16.9399 5.64346 17.025 5.74185 17.1773C5.87154 16.9981 6.05044 16.9399 6.22038 16.9399C6.55581 16.9399 6.75259 17.1504 6.75259 17.4729ZM13.6041 16.9399C13.4342 16.9399 13.3224 17.025 13.2553 17.137V16.9668H12.9601V18.3148H13.2553V17.5579C13.2553 17.334 13.3537 17.2086 13.5371 17.2086C13.5952 17.2086 13.6623 17.2221 13.7204 17.2355L13.8054 16.9534C13.7473 16.9399 13.6623 16.9399 13.6041 16.9399ZM9.2884 16.9399C9.4986 16.9399 9.69538 16.9802 9.83403 17.0788L9.7088 17.3251C9.62383 17.2848 9.45835 17.2131 9.2884 17.2131C9.13635 17.2131 9.03796 17.2669 9.03796 17.3654C9.03796 17.4505 9.13635 17.4773 9.26157 17.4908L9.40021 17.5042C9.67749 17.549 9.86086 17.6744 9.86086 17.9118C9.86086 18.1626 9.63724 18.3462 9.24368 18.3462C9.03348 18.3462 8.82328 18.288 8.67123 18.176L8.80987 17.9521C8.90826 18.0192 9.06032 18.0909 9.2571 18.0909C9.45388 18.0909 9.56569 18.0192 9.56569 17.9207C9.56569 17.8535 9.48071 17.8088 9.32865 17.7819L9.19001 17.7684C8.89931 17.7237 8.72937 17.5983 8.72937 17.3743C8.72937 17.1101 8.95298 16.9399 9.2884 16.9399ZM17.6561 16.9399C17.4862 16.9399 17.3744 17.025 17.3073 17.137V16.9668H17.0121V18.3148H17.3073V17.5579C17.3073 17.334 17.4057 17.2086 17.589 17.2086C17.6472 17.2086 17.7143 17.2221 17.7724 17.2355L17.8574 16.9534C17.7948 16.9399 17.7098 16.9399 17.6561 16.9399ZM14.6149 18.3417C14.181 18.3417 13.8993 18.0461 13.8993 17.6386C13.8993 17.2355 14.181 16.9399 14.6149 16.9444C14.8116 16.9444 14.9548 16.9847 15.0934 17.0967L14.9548 17.334C14.8429 17.2489 14.7311 17.2086 14.6059 17.2086C14.3689 17.2221 14.1989 17.3922 14.1989 17.643C14.1989 17.9073 14.3689 18.0775 14.6059 18.0775C14.7311 18.0775 14.8429 18.0371 14.9548 17.9521L15.0934 18.1894C14.9503 18.3014 14.8116 18.3417 14.6149 18.3417ZM16.6185 16.9668H16.3234V17.137C16.225 17.0116 16.0863 16.9399 15.903 16.9399C15.5228 16.9399 15.2321 17.2355 15.2321 17.643C15.2321 18.0506 15.5273 18.3462 15.903 18.3462C16.0998 18.3462 16.2384 18.2745 16.3234 18.1491V18.3193H16.6185V16.9668ZM15.9477 17.2041C15.6928 17.2041 15.5407 17.4011 15.5407 17.6385C15.5407 17.8803 15.6928 18.0595 15.9477 18.0729C16.1847 18.0729 16.3547 17.8759 16.3547 17.6385C16.3547 17.3877 16.1847 17.2041 15.9477 17.2041ZM12.0209 16.9399C11.6274 16.9399 11.3501 17.2221 11.3501 17.643C11.3501 18.064 11.6318 18.3462 12.0388 18.3462C12.2356 18.3462 12.4324 18.288 12.5844 18.1626L12.4458 17.9521C12.334 18.0372 12.1954 18.0909 12.0522 18.0909C11.8689 18.0909 11.69 18.0058 11.6453 17.7684H12.6381V17.6565C12.6515 17.2176 12.4011 16.9399 12.0209 16.9399ZM12.3564 17.5132C12.3296 17.3027 12.2044 17.1907 12.021 17.1907C11.8108 17.1907 11.6856 17.3341 11.6543 17.5132H12.3564ZM18.649 17.2041C18.394 17.2041 18.242 17.4011 18.242 17.6385C18.242 17.8803 18.3985 18.0595 18.649 18.0729C18.886 18.0729 19.0559 17.8759 19.0559 17.6385C19.0559 17.3877 18.886 17.2041 18.649 17.2041ZM8.40732 16.9668H8.11215V17.137C8.01376 17.0116 7.87511 16.9399 7.69175 16.9399C7.31161 16.9399 7.02091 17.2355 7.02091 17.643C7.02091 18.0506 7.31608 18.3462 7.69175 18.3462C7.88853 18.3462 8.02717 18.2745 8.11215 18.1491V18.3193H8.40732V16.9668ZM7.72308 17.2041C7.46816 17.2041 7.3161 17.4011 7.3161 17.6385C7.3161 17.8803 7.46816 18.0595 7.72308 18.0729C7.96011 18.0729 8.13006 17.8759 8.13006 17.6385C8.13006 17.3877 7.96011 17.2041 7.72308 17.2041Z" fill="white"></path>
<rect x="9.74023" y="6.73792" width="4.41417" height="7.94034" fill="#FF5F00"></rect>
<path d="M10.0172 10.7103C10.0172 9.09805 10.773 7.66493 11.9358 6.73788C11.0816 6.06611 10.0038 5.65857 8.82309 5.65857C6.03684 5.65857 3.77832 7.91573 3.77832 10.7103C3.77832 13.5004 6.03237 15.762 8.82309 15.762C9.99931 15.762 11.0771 15.3545 11.9358 14.6827C10.773 13.7691 10.0172 12.3226 10.0172 10.7103Z" fill="#EB001B"></path>
<path d="M20.1067 10.7103C20.1067 13.5004 17.8527 15.762 15.062 15.762C13.8857 15.762 12.8079 15.3545 11.9492 14.6827C13.1254 13.7557 13.8678 12.327 13.8678 10.7103C13.8678 9.09805 13.112 7.66493 11.9492 6.73788C12.8034 6.06611 13.8813 5.65857 15.062 5.65857C17.8527 5.65857 20.1067 7.92916 20.1067 10.7103Z" fill="#F79E1B"></path>
</svg>