<svg width="1em" height="1em" viewBox="0 0 24 24" fill="none" xmlns="http://www.w3.org/2000/svg">
<path d="M11.5415 6.80078C11.7158 6.39988 12.2844 6.39988 12.4586 6.80078L15.278 13.287L18.6912 10.6069C19.0089 10.3574 19.4623 10.5689 19.498 10.9494L19.499 11.0334L19.007 18.396L19.9472 20.2764C20.1007 20.5833 19.9065 20.9402 19.5833 20.9933L19.5 21H4.5C4.12831 21 3.88656 20.6088 4.05278 20.2764L4.992 18.396L4.50121 11.0334C4.47434 10.6303 4.9048 10.3752 5.23903 10.5604L5.30898 10.6069L8.72099 13.287L11.5415 6.80078ZM18.19 19H5.80901L5.30901 20H18.69L18.19 19ZM12 8.254L9.38065 14.2804C9.25008 14.5808 8.87078 14.6766 8.61322 14.4743L5.573 12.086L5.967 18H18.032L18.426 12.086L15.387 14.4743C15.1528 14.6582 14.8181 14.5958 14.661 14.3572L14.6196 14.2804L12 8.254ZM4 8C4.55214 8 5 8.44786 5 9C5 9.55214 4.55214 10 4 10C3.44786 10 3 9.55214 3 9C3 8.44786 3.44786 8 4 8ZM20 8C20.5521 8 21 8.44786 21 9C21 9.55214 20.5521 10 20 10C19.4479 10 19 9.55214 19 9C19 8.44786 19.4479 8 20 8ZM12 4C12.5521 4 13 4.44786 13 5C13 5.55214 12.5521 6 12 6C11.4479 6 11 5.55214 11 5C11 4.44786 11.4479 4 12 4Z" fill="currentColor"></path>
</svg>