<svg width="1em" height="1em" viewBox="0 0 24 24" fill="none" xmlns="http://www.w3.org/2000/svg">
<path fill-rule="evenodd" clip-rule="evenodd" d="M5.80442 3.27317C5.80083 3.2802 5.79742 3.28732 5.79417 3.29452L3.04993 9.28195C3.01794 9.34785 3 9.42183 3 9.50001C3 9.61708 3.04024 9.72476 3.10764 9.80996L11.601 20.8014C11.6128 20.817 11.6254 20.8318 11.6389 20.8458C11.679 20.8877 11.726 20.9222 11.7779 20.948C11.8263 20.972 11.8789 20.9883 11.9338 20.9956C11.9556 20.9985 11.9777 21 12 21C12.0945 21 12.1844 20.9735 12.2613 20.9263C12.3143 20.8938 12.3611 20.8516 12.3989 20.8015L20.8926 9.80968C20.9541 9.73179 20.993 9.63516 20.9991 9.52975C20.9997 9.51991 21 9.50999 21 9.50001C21 9.49138 20.9998 9.4828 20.9994 9.47428C20.9959 9.40566 20.9786 9.3407 20.9502 9.28212L18.2056 3.2939C18.2038 3.28995 18.2019 3.28604 18.2 3.28214C18.1455 3.16956 18.0492 3.07773 17.9246 3.03146C17.9005 3.02249 17.8757 3.01534 17.8503 3.01014C17.8129 3.00245 17.7756 2.99918 17.7388 3H6.26123C6.22419 2.99918 6.18658 3.0025 6.14902 3.01028C6.1242 3.0154 6.09995 3.02237 6.07643 3.03108C5.97871 3.06714 5.89827 3.13123 5.84168 3.21139C5.8279 3.2309 5.81543 3.25152 5.80442 3.27317ZM11.0657 4L8.17943 8.32947L6.91666 4H11.0657ZM12.9343 4H17.0833L15.8206 8.32948L12.9343 4ZM17.8544 4.9278L16.6667 9.00001H19.7208L17.8544 4.9278ZM19.4818 10H16.3502L13.5666 17.6549L19.4818 10ZM10.4334 17.6549L7.64979 10H4.51826L10.4334 17.6549ZM4.27918 9.00001H7.33333L6.14561 4.92781L4.27918 9.00001ZM8.71385 10L12 19.0369L15.2862 10H8.71385ZM15.0657 9L12 4.40139L8.93426 9H15.0657Z" fill="currentColor"></path>
</svg>