<svg width="1em" height="1em" viewBox="0 0 24 24" fill="none" xmlns="http://www.w3.org/2000/svg">
<path d="M6 7.5C6 7.22386 6.22386 7 6.5 7H17.5C17.7761 7 18 7.22386 18 7.5C18 7.77614 17.7761 8 17.5 8H6.5C6.22386 8 6 7.77614 6 7.5Z" fill="currentColor"></path>
<path d="M6 12C6 11.7239 6.22386 11.5 6.5 11.5H15.5C15.7761 11.5 16 11.7239 16 12C16 12.2761 15.7761 12.5 15.5 12.5H6.5C6.22386 12.5 6 12.2761 6 12Z" fill="currentColor"></path>
<path d="M6.5 16C6.22386 16 6 16.2239 6 16.5C6 16.7761 6.22386 17 6.5 17H17.5C17.7761 17 18 16.7761 18 16.5C18 16.2239 17.7761 16 17.5 16H6.5Z" fill="currentColor"></path>
</svg>