<svg width="1em" height="1em" viewBox="0 0 24 24" fill="none" xmlns="http://www.w3.org/2000/svg">
<path d="M5 6C5 5.44772 5.44772 5 6 5H18C18.5523 5 19 5.44772 19 6C19 6.55228 18.5523 7 18 7H6C5.44772 7 5 6.55228 5 6Z" fill="currentColor"></path>
<path d="M5 12C5 11.4477 5.44772 11 6 11H14C14.5523 11 15 11.4477 15 12C15 12.5523 14.5523 13 14 13H6C5.44772 13 5 12.5523 5 12Z" fill="currentColor"></path>
<path d="M6 17C5.44772 17 5 17.4477 5 18C5 18.5523 5.44772 19 6 19H18C18.5523 19 19 18.5523 19 18C19 17.4477 18.5523 17 18 17H6Z" fill="currentColor"></path>
</svg>