<svg width="1em" height="1em" viewBox="0 0 24 24" fill="none" xmlns="http://www.w3.org/2000/svg">
<path fill-rule="evenodd" clip-rule="evenodd" d="M5 3C4.44772 3 4 3.44772 4 4V17C4 17.4 4.2384 17.7616 4.60608 17.9191L11.6061 20.9191C11.8576 21.027 12.1424 21.027 12.3939 20.9191L19.3939 17.9191C19.7616 17.7616 20 17.4 20 17V4C20 3.44772 19.5523 3 19 3H5ZM6 16.3406V5H18V16.3406L12 18.912L6 16.3406ZM14.2784 15.0102L12 13.635L9.7216 15.0102C9.41867 15.193 9.04498 14.9214 9.12537 14.5768L9.73 11.985L7.71656 10.2408C7.44912 10.0091 7.59208 9.56977 7.94465 9.53986L10.595 9.315L11.6317 6.86895C11.7695 6.54374 12.2305 6.54374 12.3683 6.86895L13.405 9.315L16.0553 9.53986C16.4079 9.56977 16.5509 10.0091 16.2834 10.2408L14.4525 11.8269C14.3403 11.9241 14.2911 12.0755 14.3249 12.2201L14.8746 14.5768C14.955 14.9214 14.5813 15.193 14.2784 15.0102Z" fill="currentColor"></path>
</svg>