<svg width="1em" height="1em" viewBox="0 0 24 24" fill="none" xmlns="http://www.w3.org/2000/svg">
<path d="M12 9C12.5523 9 13 8.55228 13 8C13 7.44772 12.5523 7 12 7C11.4477 7 11 7.44772 11 8C11 8.55228 11.4477 9 12 9Z" fill="currentColor"></path>
<path d="M13 11.5C13 10.9477 12.5523 10.5 12 10.5C11.4477 10.5 11 10.9477 11 11.5V16C11 16.5523 11.4477 17 12 17C12.5523 17 13 16.5523 13 16V11.5Z" fill="currentColor"></path>
<path fill-rule="evenodd" clip-rule="evenodd" d="M2.50003 12C2.50003 6.74772 6.74774 2.5 12 2.5C17.2523 2.5 21.5 6.74772 21.5 12C21.5 17.2523 17.2523 21.5 12 21.5C10.366 21.5 8.74886 21.039 7.38414 20.2892L3.80911 21.451C3.45146 21.5673 3.05884 21.473 2.79292 21.2071C2.527 20.9412 2.43276 20.5486 2.54899 20.1909L3.7104 16.6173C2.96339 15.2718 2.50003 13.7292 2.50003 12ZM12 4.5C7.85231 4.5 4.50003 7.85228 4.50003 12C4.50003 13.4939 4.93701 14.8146 5.65169 15.9759C5.80536 16.2256 5.84169 16.5302 5.75106 16.8091L5.05778 18.9422L7.19094 18.249C7.46981 18.1583 7.7744 18.1947 8.02412 18.3484C9.17988 19.0596 10.6002 19.5 12 19.5C16.1477 19.5 19.5 16.1477 19.5 12C19.5 7.85228 16.1477 4.5 12 4.5Z" fill="currentColor"></path>
</svg>