<svg width="1em" height="1em" viewBox="0 0 24 24" fill="none" xmlns="http://www.w3.org/2000/svg">
<path fill-rule="evenodd" clip-rule="evenodd" d="M4.5 3C4.22386 3 4 3.22386 4 3.5V17.5C4 17.7045 4.12448 17.8883 4.3143 17.9642L11.8143 20.9642C11.9335 21.0119 12.0665 21.0119 12.1857 20.9642L19.6857 17.9642C19.8755 17.8883 20 17.7045 20 17.5V3.5C20 3.22386 19.7761 3 19.5 3H4.5ZM5 17.1615V4H19V17.1615L12 19.9615L5 17.1615ZM14.2784 15.0102L12 13.635L9.7216 15.0102C9.41867 15.193 9.04498 14.9214 9.12537 14.5768L9.73 11.985L7.71656 10.2408C7.44912 10.0091 7.59208 9.56977 7.94465 9.53986L10.595 9.315L11.6317 6.86895C11.7695 6.54374 12.2305 6.54374 12.3683 6.86895L13.405 9.315L16.0553 9.53986C16.4079 9.56977 16.5509 10.0091 16.2834 10.2408L14.4525 11.8269C14.3403 11.9241 14.2911 12.0755 14.3249 12.2201L14.8746 14.5768C14.955 14.9214 14.5813 15.193 14.2784 15.0102Z" fill="currentColor"></path>
</svg>