<svg width="1em" height="1em" viewBox="0 0 24 24" fill="none" xmlns="http://www.w3.org/2000/svg">
<rect x="2" y="2" width="20" height="20" rx="2" fill="#C91680"></rect>
<path fill-rule="evenodd" clip-rule="evenodd" d="M4.27247 15.8615C4.27461 14.3405 4.28317 13.5047 4.29602 13.4422C4.35381 13.1923 4.38378 13.0846 4.42017 13.0027C4.44158 12.9531 4.46513 12.8971 4.47155 12.8756C4.5058 12.7829 4.66634 12.5309 4.78836 12.3844C5.12015 11.9815 5.60179 11.6713 6.08129 11.5506C6.12838 11.5399 6.21614 11.5162 6.27394 11.5011C6.40666 11.4688 7.07667 11.4558 7.20725 11.4838C7.25862 11.4946 7.35067 11.514 7.40846 11.5269C7.64393 11.5786 7.94362 11.7036 8.21547 11.8609L8.31608 11.919L8.41883 11.8544C8.87478 11.5765 9.30076 11.4623 9.85946 11.4688C10.3497 11.4752 10.5894 11.5291 10.9833 11.7187C11.5826 12.0074 12.075 12.561 12.2527 13.1406C12.3554 13.4831 12.3533 13.4185 12.3533 15.8658V18.171L11.3429 18.1774L10.3304 18.1818V15.98C10.3304 14.5689 10.3218 13.7481 10.309 13.6986C10.2747 13.5779 10.1998 13.4809 10.0949 13.4206C10.0136 13.3754 9.97077 13.3668 9.82735 13.3668C9.67322 13.3668 9.64539 13.3732 9.54907 13.4336C9.48057 13.4745 9.42277 13.5327 9.38852 13.5951L9.33501 13.6899L9.3243 18.1818L8.31179 18.1774L7.30142 18.171L7.29072 15.9197C7.28002 13.7071 7.28002 13.6662 7.23721 13.593C7.21366 13.552 7.14516 13.4852 7.08736 13.4443C6.99746 13.3775 6.96321 13.3668 6.83905 13.3603C6.71918 13.3517 6.67423 13.3603 6.58004 13.4034C6.46445 13.4572 6.35313 13.5736 6.3146 13.6791C6.3039 13.7093 6.29106 14.7326 6.28463 15.952L6.27393 18.171L5.27213 18.1775L4.27246 18.1818L4.27247 15.8615Z" fill="white"></path>
<path fill-rule="evenodd" clip-rule="evenodd" d="M16.7116 16.2557C16.9768 16.2083 17.3325 16.0208 17.5007 15.8418C17.9944 15.318 18.0547 14.5593 17.6516 13.9708C17.3886 13.5893 16.9358 13.35 16.4637 13.35C16.1317 13.3479 15.8363 13.4449 15.5798 13.6389C15.431 13.7488 15.3922 13.7897 15.2801 13.9385C15.0344 14.2618 14.9373 14.6757 15.015 15.0723C15.112 15.5552 15.3664 15.8936 15.8062 16.1199C16.0756 16.26 16.4141 16.3096 16.7116 16.2557ZM16.3767 18.1785C16.3702 18.172 16.2883 18.1634 16.1934 18.1548C16.0986 18.1483 15.9541 18.1332 15.87 18.1203C15.206 18.019 14.473 17.6245 14.0203 17.1244C13.7185 16.7903 13.5978 16.6157 13.4382 16.2881C13.2507 15.8979 13.214 15.7772 13.1321 15.3181C13.048 14.8589 13.1321 14.0592 13.3046 13.6302C13.5029 13.1388 13.7487 12.768 14.1065 12.4167C14.3739 12.1537 14.5938 11.992 14.8913 11.8411C15.275 11.6471 15.4022 11.6019 15.8161 11.5178C16.1956 11.4423 16.851 11.4553 17.2282 11.5437C17.5257 11.6148 17.5904 11.6385 17.9267 11.7959C18.3493 11.9963 18.6791 12.2528 19.0025 12.6344C19.2202 12.8909 19.3798 13.1258 19.4725 13.3349C19.4919 13.3759 19.5242 13.4492 19.5479 13.4988C19.7463 13.9385 19.8498 14.5916 19.8002 15.1025C19.7204 15.9281 19.4013 16.6071 18.8257 17.1826C18.4334 17.5728 18.041 17.8207 17.5451 17.9888C17.2067 18.1031 17.0709 18.1289 16.5599 18.1742C16.4651 18.1807 16.3831 18.185 16.3767 18.1785Z" fill="white"></path>
<path fill-rule="evenodd" clip-rule="evenodd" d="M4.27271 8.27153C4.27271 6.39477 4.27705 5.97508 4.30526 5.80075C4.33347 5.60704 4.37254 5.465 4.42245 5.35523C4.43547 5.33155 4.46368 5.26914 4.48755 5.21533C4.73277 4.67296 5.30134 4.17795 5.91981 3.96703C6.34298 3.82067 6.87683 3.77978 7.33471 3.85511C7.61248 3.90246 8.01829 4.05957 8.27436 4.22099C8.36117 4.27265 8.36334 4.2748 8.42844 4.23606C8.66932 4.09616 8.96879 3.96057 9.13372 3.91968C9.46357 3.83574 9.5851 3.82067 9.95835 3.82713C10.3294 3.83143 10.3859 3.84004 10.707 3.92829C11.4384 4.1306 12.1436 4.79134 12.3563 5.4736C12.4648 5.82657 12.4605 5.69098 12.4691 8.1919L12.4778 10.5314H10.4141V8.3318C10.4141 6.92207 10.4054 6.10207 10.3924 6.05256C10.3338 5.84164 10.1558 5.72111 9.9041 5.72111C9.70228 5.72111 9.56339 5.78999 9.47008 5.93634L9.40497 6.03965L9.39412 10.5314H7.33253V8.29306C7.33253 6.09777 7.33253 6.05042 7.28913 5.96863C7.23705 5.86747 7.07212 5.73833 6.9723 5.71896C6.93107 5.71251 6.83992 5.71035 6.77048 5.71466C6.60555 5.72542 6.45798 5.82658 6.37769 5.97939L6.32344 6.08485L6.30174 10.5206L5.2883 10.5271L4.2727 10.5314L4.27271 8.27153Z" fill="white"></path>
<path fill-rule="evenodd" clip-rule="evenodd" d="M16.7033 8.59685C16.8733 8.56672 17.1401 8.45483 17.3058 8.34079C17.5984 8.14069 17.8351 7.74693 17.8911 7.37038C17.975 6.80879 17.7146 6.23214 17.2391 5.92875C16.9938 5.77168 16.7442 5.69852 16.4451 5.69852C16.2794 5.69852 16.0019 5.74586 15.9244 5.78674C15.9029 5.7975 15.8362 5.83193 15.7738 5.86205C15.408 6.04279 15.1132 6.42149 15.0229 6.82386C14.8572 7.56619 15.2617 8.29132 15.9825 8.54307C16.1869 8.61407 16.4774 8.63558 16.7033 8.59685ZM16.1757 10.499C15.6291 10.4366 15.2031 10.3075 14.805 10.0837C14.3768 9.84489 13.8992 9.39519 13.6302 8.97991C13.5398 8.8422 13.4021 8.56894 13.3074 8.34946C13.1052 7.87179 13.0428 7.1273 13.1547 6.54634C13.2364 6.12246 13.2666 6.02994 13.4473 5.65985C13.6151 5.31557 13.7959 5.07028 14.1057 4.76259C14.4005 4.46996 14.5813 4.34301 14.9815 4.14505C15.2827 3.99659 15.4161 3.9514 15.7948 3.87609C16.0745 3.82015 16.1326 3.81369 16.4877 3.82015C16.8599 3.8266 17.0665 3.85242 17.3978 3.93634C17.6431 3.99874 18.1574 4.25264 18.3919 4.42477C19.2182 5.0337 19.6829 5.85134 19.7862 6.88632C19.8378 7.39196 19.7432 7.96216 19.5129 8.51514C19.2246 9.21229 18.5038 9.93311 17.8045 10.2257C17.6259 10.2989 17.3914 10.3785 17.2515 10.4108C17.1977 10.4237 17.131 10.4388 17.1009 10.4474C17.0148 10.4667 16.4962 10.5227 16.4123 10.5205C16.3715 10.5184 16.2639 10.5098 16.1757 10.499Z" fill="white"></path>
<path d="M4.41443 19.1764V20.1164H4.67262V19.5709C4.67262 19.5248 4.67928 19.4879 4.69262 19.46C4.70595 19.4309 4.72171 19.4091 4.73989 19.3945C4.75928 19.3788 4.77868 19.3685 4.79807 19.3636C4.81868 19.3576 4.83504 19.3545 4.84716 19.3545C4.88837 19.3545 4.91928 19.3618 4.93989 19.3764C4.96171 19.3897 4.97686 19.4079 4.98534 19.4309C4.99504 19.4539 5.0005 19.4794 5.00171 19.5073C5.00292 19.5339 5.00353 19.5612 5.00353 19.5891V20.1164H5.26171V19.5927C5.26171 19.5636 5.26353 19.5351 5.26716 19.5073C5.27201 19.4782 5.2805 19.4527 5.29262 19.4309C5.30595 19.4079 5.32353 19.3897 5.34534 19.3764C5.36837 19.3618 5.39807 19.3545 5.43443 19.3545C5.4708 19.3545 5.49928 19.3606 5.51989 19.3727C5.54171 19.3848 5.55807 19.4012 5.56898 19.4218C5.57989 19.4424 5.58656 19.4667 5.58898 19.4945C5.5914 19.5224 5.59262 19.5521 5.59262 19.5836V20.1164H5.8508V19.4873C5.8508 19.4267 5.84231 19.3751 5.82534 19.3327C5.80837 19.2891 5.78474 19.2539 5.75443 19.2273C5.72413 19.2006 5.68777 19.1812 5.64534 19.1691C5.60292 19.157 5.55686 19.1509 5.50716 19.1509C5.44171 19.1509 5.38474 19.1667 5.33625 19.1982C5.28898 19.2297 5.2514 19.2661 5.22353 19.3073C5.19807 19.2491 5.1605 19.2085 5.1108 19.1855C5.06231 19.1624 5.00837 19.1509 4.94898 19.1509C4.88716 19.1509 4.83201 19.1642 4.78353 19.1909C4.73625 19.2176 4.69565 19.2551 4.66171 19.3036H4.65807V19.1764H4.41443Z" fill="white"></path>
<path d="M6.57489 19.6473C6.57489 19.6097 6.57853 19.5727 6.5858 19.5364C6.59307 19.5 6.60519 19.4679 6.62216 19.44C6.64034 19.4121 6.66398 19.3897 6.69307 19.3727C6.72216 19.3545 6.75853 19.3455 6.80216 19.3455C6.8458 19.3455 6.88216 19.3545 6.91125 19.3727C6.94156 19.3897 6.96519 19.4121 6.98216 19.44C7.00034 19.4679 7.01307 19.5 7.02034 19.5364C7.02762 19.5727 7.03125 19.6097 7.03125 19.6473C7.03125 19.6848 7.02762 19.7218 7.02034 19.7582C7.01307 19.7933 7.00034 19.8255 6.98216 19.8545C6.96519 19.8824 6.94156 19.9048 6.91125 19.9218C6.88216 19.9388 6.8458 19.9473 6.80216 19.9473C6.75853 19.9473 6.72216 19.9388 6.69307 19.9218C6.66398 19.9048 6.64034 19.8824 6.62216 19.8545C6.60519 19.8255 6.59307 19.7933 6.5858 19.7582C6.57853 19.7218 6.57489 19.6848 6.57489 19.6473ZM6.31671 19.6473C6.31671 19.7224 6.32822 19.7903 6.35125 19.8509C6.37428 19.9115 6.40701 19.9636 6.44943 20.0073C6.49186 20.0497 6.54277 20.0824 6.60216 20.1055C6.66156 20.1285 6.72822 20.14 6.80216 20.14C6.8761 20.14 6.94277 20.1285 7.00216 20.1055C7.06277 20.0824 7.11428 20.0497 7.15671 20.0073C7.19913 19.9636 7.23186 19.9115 7.25489 19.8509C7.27792 19.7903 7.28943 19.7224 7.28943 19.6473C7.28943 19.5721 7.27792 19.5042 7.25489 19.4436C7.23186 19.3818 7.19913 19.3297 7.15671 19.2873C7.11428 19.2436 7.06277 19.2103 7.00216 19.1873C6.94277 19.163 6.8761 19.1509 6.80216 19.1509C6.72822 19.1509 6.66156 19.163 6.60216 19.1873C6.54277 19.2103 6.49186 19.2436 6.44943 19.2873C6.40701 19.3297 6.37428 19.3818 6.35125 19.4436C6.32822 19.5042 6.31671 19.5721 6.31671 19.6473Z" fill="white"></path>
<path d="M8.4373 19.6473C8.4373 19.6861 8.43306 19.7236 8.42458 19.76C8.41609 19.7964 8.40276 19.8285 8.38458 19.8564C8.36639 19.8842 8.34336 19.9067 8.31549 19.9236C8.28882 19.9394 8.25609 19.9473 8.2173 19.9473C8.17973 19.9473 8.147 19.9394 8.11912 19.9236C8.09124 19.9067 8.06821 19.8842 8.05003 19.8564C8.03185 19.8285 8.01852 19.7964 8.01003 19.76C8.00155 19.7236 7.9973 19.6861 7.9973 19.6473C7.9973 19.6073 8.00155 19.5691 8.01003 19.5327C8.01852 19.4964 8.03185 19.4642 8.05003 19.4364C8.06821 19.4085 8.09124 19.3867 8.11912 19.3709C8.147 19.3539 8.17973 19.3455 8.2173 19.3455C8.25609 19.3455 8.28882 19.3539 8.31549 19.3709C8.34336 19.3867 8.36639 19.4085 8.38458 19.4364C8.40276 19.4642 8.41609 19.4964 8.42458 19.5327C8.43306 19.5691 8.4373 19.6073 8.4373 19.6473ZM7.74821 18.8182V20.1164H7.99367V19.9964H7.9973C8.02518 20.0485 8.06639 20.0855 8.12094 20.1073C8.17549 20.1291 8.2373 20.14 8.30639 20.14C8.35367 20.14 8.40033 20.1303 8.44639 20.1109C8.49246 20.0915 8.53367 20.0618 8.57003 20.0218C8.60761 19.9818 8.63791 19.9309 8.66094 19.8691C8.68397 19.8061 8.69549 19.7315 8.69549 19.6455C8.69549 19.5594 8.68397 19.4855 8.66094 19.4236C8.63791 19.3606 8.60761 19.3091 8.57003 19.2691C8.53367 19.2291 8.49246 19.1994 8.44639 19.18C8.40033 19.1606 8.35367 19.1509 8.30639 19.1509C8.24821 19.1509 8.19185 19.1624 8.1373 19.1855C8.08397 19.2073 8.04155 19.2424 8.01003 19.2909H8.00639V18.8182H7.74821Z" fill="white"></path>
<path d="M9.41608 19.0309V18.8182H9.1579V19.0309H9.41608ZM9.1579 19.1764V20.1164H9.41608V19.1764H9.1579Z" fill="white"></path>
<path d="M9.91756 18.8182V20.1164H10.1757V18.8182H9.91756Z" fill="white"></path>
<path d="M11.3027 19.5455H10.8827C10.8839 19.5273 10.8875 19.5067 10.8936 19.4836C10.9009 19.4606 10.9124 19.4388 10.9281 19.4182C10.9451 19.3976 10.9669 19.3806 10.9936 19.3673C11.0215 19.3527 11.056 19.3455 11.0972 19.3455C11.1602 19.3455 11.2069 19.3624 11.2372 19.3964C11.2687 19.4303 11.2906 19.48 11.3027 19.5455ZM10.8827 19.7091H11.5609C11.5657 19.6364 11.5596 19.5667 11.5427 19.5C11.5257 19.4333 11.4978 19.3739 11.459 19.3218C11.4215 19.2697 11.373 19.2285 11.3136 19.1982C11.2542 19.1667 11.1845 19.1509 11.1045 19.1509C11.033 19.1509 10.9675 19.1636 10.9081 19.1891C10.8499 19.2145 10.7996 19.2497 10.7572 19.2945C10.7148 19.3382 10.6821 19.3903 10.659 19.4509C10.636 19.5115 10.6245 19.577 10.6245 19.6473C10.6245 19.72 10.6354 19.7867 10.6572 19.8473C10.6802 19.9079 10.7124 19.96 10.7536 20.0036C10.7948 20.0473 10.8451 20.0812 10.9045 20.1055C10.9639 20.1285 11.0306 20.14 11.1045 20.14C11.2112 20.14 11.3021 20.1158 11.3772 20.0673C11.4524 20.0188 11.5081 19.9382 11.5445 19.8255H11.3172C11.3087 19.8545 11.2857 19.8824 11.2481 19.9091C11.2106 19.9345 11.1657 19.9473 11.1136 19.9473C11.0409 19.9473 10.9851 19.9285 10.9463 19.8909C10.9075 19.8533 10.8863 19.7927 10.8827 19.7091Z" fill="white"></path>
<path d="M12.8091 19.1764V20.1164H13.0673V19.5709C13.0673 19.5248 13.074 19.4879 13.0873 19.46C13.1006 19.4309 13.1164 19.4091 13.1346 19.3945C13.154 19.3788 13.1734 19.3685 13.1927 19.3636C13.2134 19.3576 13.2297 19.3545 13.2418 19.3545C13.283 19.3545 13.314 19.3618 13.3346 19.3764C13.3564 19.3897 13.3715 19.4079 13.38 19.4309C13.3897 19.4539 13.3952 19.4794 13.3964 19.5073C13.3976 19.5339 13.3982 19.5612 13.3982 19.5891V20.1164H13.6564V19.5927C13.6564 19.5636 13.6582 19.5351 13.6618 19.5073C13.6667 19.4782 13.6752 19.4527 13.6873 19.4309C13.7006 19.4079 13.7182 19.3897 13.74 19.3764C13.763 19.3618 13.7927 19.3545 13.8291 19.3545C13.8655 19.3545 13.894 19.3606 13.9146 19.3727C13.9364 19.3848 13.9527 19.4012 13.9637 19.4218C13.9746 19.4424 13.9812 19.4667 13.9837 19.4945C13.9861 19.5224 13.9873 19.5521 13.9873 19.5836V20.1164H14.2455V19.4873C14.2455 19.4267 14.237 19.3751 14.22 19.3327C14.203 19.2891 14.1794 19.2539 14.1491 19.2273C14.1188 19.2006 14.0824 19.1812 14.04 19.1691C13.9976 19.157 13.9515 19.1509 13.9018 19.1509C13.8364 19.1509 13.7794 19.1667 13.7309 19.1982C13.6837 19.2297 13.6461 19.2661 13.6182 19.3073C13.5927 19.2491 13.5552 19.2085 13.5055 19.1855C13.457 19.1624 13.403 19.1509 13.3437 19.1509C13.2818 19.1509 13.2267 19.1642 13.1782 19.1909C13.1309 19.2176 13.0903 19.2551 13.0564 19.3036H13.0527V19.1764H12.8091Z" fill="white"></path>
<path d="M14.9696 19.6473C14.9696 19.6097 14.9732 19.5727 14.9805 19.5364C14.9877 19.5 14.9999 19.4679 15.0168 19.44C15.035 19.4121 15.0587 19.3897 15.0877 19.3727C15.1168 19.3545 15.1532 19.3455 15.1968 19.3455C15.2405 19.3455 15.2768 19.3545 15.3059 19.3727C15.3362 19.3897 15.3599 19.4121 15.3768 19.44C15.395 19.4679 15.4077 19.5 15.415 19.5364C15.4223 19.5727 15.4259 19.6097 15.4259 19.6473C15.4259 19.6848 15.4223 19.7218 15.415 19.7582C15.4077 19.7933 15.395 19.8255 15.3768 19.8545C15.3599 19.8824 15.3362 19.9048 15.3059 19.9218C15.2768 19.9388 15.2405 19.9473 15.1968 19.9473C15.1532 19.9473 15.1168 19.9388 15.0877 19.9218C15.0587 19.9048 15.035 19.8824 15.0168 19.8545C14.9999 19.8255 14.9877 19.7933 14.9805 19.7582C14.9732 19.7218 14.9696 19.6848 14.9696 19.6473ZM14.7114 19.6473C14.7114 19.7224 14.7229 19.7903 14.7459 19.8509C14.769 19.9115 14.8017 19.9636 14.8441 20.0073C14.8865 20.0497 14.9374 20.0824 14.9968 20.1055C15.0562 20.1285 15.1229 20.14 15.1968 20.14C15.2708 20.14 15.3374 20.1285 15.3968 20.1055C15.4574 20.0824 15.509 20.0497 15.5514 20.0073C15.5938 19.9636 15.6265 19.9115 15.6496 19.8509C15.6726 19.7903 15.6841 19.7224 15.6841 19.6473C15.6841 19.5721 15.6726 19.5042 15.6496 19.4436C15.6265 19.3818 15.5938 19.3297 15.5514 19.2873C15.509 19.2436 15.4574 19.2103 15.3968 19.1873C15.3374 19.163 15.2708 19.1509 15.1968 19.1509C15.1229 19.1509 15.0562 19.163 14.9968 19.1873C14.9374 19.2103 14.8865 19.2436 14.8441 19.2873C14.8017 19.3297 14.769 19.3818 14.7459 19.4436C14.7229 19.5042 14.7114 19.5721 14.7114 19.6473Z" fill="white"></path>
<path d="M16.1429 19.1764V20.1164H16.4011V19.6236C16.4011 19.5279 16.4168 19.4594 16.4483 19.4182C16.4799 19.3758 16.5308 19.3545 16.6011 19.3545C16.6629 19.3545 16.7059 19.3739 16.7302 19.4127C16.7544 19.4503 16.7665 19.5079 16.7665 19.5855V20.1164H17.0247V19.5382C17.0247 19.48 17.0193 19.4273 17.0083 19.38C16.9986 19.3315 16.9811 19.2909 16.9556 19.2582C16.9302 19.2242 16.895 19.1982 16.8502 19.18C16.8065 19.1606 16.7502 19.1509 16.6811 19.1509C16.6265 19.1509 16.5732 19.1636 16.5211 19.1891C16.4689 19.2133 16.4265 19.2527 16.3938 19.3073H16.3883V19.1764H16.1429Z" fill="white"></path>
<path d="M18.1443 19.5455H17.7243C17.7255 19.5273 17.7291 19.5067 17.7352 19.4836C17.7425 19.4606 17.754 19.4388 17.7697 19.4182C17.7867 19.3976 17.8085 19.3806 17.8352 19.3673C17.8631 19.3527 17.8976 19.3455 17.9388 19.3455C18.0019 19.3455 18.0485 19.3624 18.0788 19.3964C18.1104 19.4303 18.1322 19.48 18.1443 19.5455ZM17.7243 19.7091H18.4025C18.4073 19.6364 18.4013 19.5667 18.3843 19.5C18.3673 19.4333 18.3394 19.3739 18.3007 19.3218C18.2631 19.2697 18.2146 19.2285 18.1552 19.1982C18.0958 19.1667 18.0261 19.1509 17.9461 19.1509C17.8746 19.1509 17.8091 19.1636 17.7497 19.1891C17.6916 19.2145 17.6413 19.2497 17.5988 19.2945C17.5564 19.3382 17.5237 19.3903 17.5007 19.4509C17.4776 19.5115 17.4661 19.577 17.4661 19.6473C17.4661 19.72 17.477 19.7867 17.4988 19.8473C17.5219 19.9079 17.554 19.96 17.5952 20.0036C17.6364 20.0473 17.6867 20.0812 17.7461 20.1055C17.8055 20.1285 17.8722 20.14 17.9461 20.14C18.0528 20.14 18.1437 20.1158 18.2188 20.0673C18.294 20.0188 18.3497 19.9382 18.3861 19.8255H18.1588C18.1504 19.8545 18.1273 19.8824 18.0897 19.9091C18.0522 19.9345 18.0073 19.9473 17.9552 19.9473C17.8825 19.9473 17.8267 19.9285 17.7879 19.8909C17.7491 19.8533 17.7279 19.7927 17.7243 19.7091Z" fill="white"></path>
<path d="M19.3101 20.2327L19.7029 19.1764H19.4356L19.2301 19.82H19.2265L19.0138 19.1764H18.7392L19.0683 20.0582C19.0756 20.0764 19.0792 20.0958 19.0792 20.1164C19.0792 20.1442 19.0708 20.1697 19.0538 20.1927C19.038 20.2158 19.0132 20.2291 18.9792 20.2327C18.9538 20.2339 18.9283 20.2333 18.9029 20.2309C18.8774 20.2285 18.8526 20.2261 18.8283 20.2236V20.4364C18.855 20.4388 18.8811 20.4406 18.9065 20.4418C18.9332 20.4442 18.9598 20.4455 18.9865 20.4455C19.075 20.4455 19.1441 20.4291 19.1938 20.3964C19.2435 20.3636 19.2823 20.3091 19.3101 20.2327Z" fill="white"></path>
</svg>