<svg width="1em" height="1em" viewBox="0 0 24 24" fill="none" xmlns="http://www.w3.org/2000/svg">
<path fill-rule="evenodd" clip-rule="evenodd" d="M20.3536 3.64646C20.4922 3.7851 20.537 3.99199 20.4682 4.17558L14.4682 20.1756C14.3913 20.3805 14.1901 20.5117 13.9716 20.4992C13.753 20.4868 13.568 20.3336 13.5149 20.1213L11.5877 12.4123L3.87874 10.4851C3.66639 10.432 3.51326 10.247 3.50082 10.0284C3.48837 9.80992 3.6195 9.6087 3.82444 9.53185L19.8244 3.53185C20.008 3.463 20.2149 3.50782 20.3536 3.64646ZM5.67903 9.90438L12.1213 11.5149C12.3004 11.5597 12.4403 11.6996 12.4851 11.8787L14.0956 18.321L19.1456 4.85441L5.67903 9.90438Z" fill="currentColor"></path>
</svg>