<svg width="1em" height="1em" viewBox="0 0 24 24" fill="none" xmlns="http://www.w3.org/2000/svg">
<path d="M9.5 7C9.22386 7 9 7.22386 9 7.5C9 7.77614 9.22386 8 9.5 8H17.5C17.7761 8 18 7.77614 18 7.5C18 7.22386 17.7761 7 17.5 7H9.5Z" fill="currentColor"></path>
<path d="M9 10.5C9 10.2239 9.22386 10 9.5 10H17.5C17.7761 10 18 10.2239 18 10.5C18 10.7761 17.7761 11 17.5 11H9.5C9.22386 11 9 10.7761 9 10.5Z" fill="currentColor"></path>
<path d="M9.5 13C9.22386 13 9 13.2239 9 13.5C9 13.7761 9.22386 14 9.5 14H17.5C17.7761 14 18 13.7761 18 13.5C18 13.2239 17.7761 13 17.5 13H9.5Z" fill="currentColor"></path>
<path fill-rule="evenodd" clip-rule="evenodd" d="M6.5 4C6.22386 4 6 4.22386 6 4.5V6H3.5C3.22386 6 3 6.22386 3 6.5V19.5C3 19.7761 3.22386 20 3.5 20H20.5C20.7761 20 21 19.7761 21 19.5V4.5C21 4.22386 20.7761 4 20.5 4H6.5ZM6 14.5V7H4V19H20V5H7V14.5C7 14.7761 6.77614 15 6.5 15C6.22386 15 6 14.7761 6 14.5Z" fill="currentColor"></path>
</svg>