<svg width="1em" height="1em" viewBox="0 0 24 24" fill="none" xmlns="http://www.w3.org/2000/svg">
<path fill-rule="evenodd" clip-rule="evenodd" d="M12 7C12.2761 7 12.5 7.18655 12.5 7.41667V8H14.5C14.7761 8 15 8.22386 15 8.5C15 8.77614 14.7761 9 14.5 9H12.5V11.5H13.25C13.8467 11.5 14.419 11.7371 14.841 12.159C15.2629 12.581 15.5 13.1533 15.5 13.75C15.5 14.3467 15.2629 14.919 14.841 15.341C14.419 15.7629 13.8467 16 13.25 16H12.5V16.5833C12.5 16.8135 12.2761 17 12 17C11.7239 17 11.5 16.8135 11.5 16.5833V16H9C8.72386 16 8.5 15.7761 8.5 15.5C8.5 15.2239 8.72386 15 9 15H11.5V12.5H10.75C10.1533 12.5 9.58097 12.2629 9.15901 11.841C8.73705 11.419 8.5 10.8467 8.5 10.25C8.5 9.65326 8.73705 9.08097 9.15901 8.65901C9.58097 8.23705 10.1533 8 10.75 8H11.5V7.41667C11.5 7.18655 11.7239 7 12 7ZM11.5 9H10.75C10.4185 9 10.1005 9.1317 9.86612 9.36612C9.6317 9.60054 9.5 9.91848 9.5 10.25C9.5 10.5815 9.6317 10.8995 9.86612 11.1339C10.1005 11.3683 10.4185 11.5 10.75 11.5H11.5V9ZM12.5 12.5V15H13.25C13.5815 15 13.8995 14.8683 14.1339 14.6339C14.3683 14.3995 14.5 14.0815 14.5 13.75C14.5 13.4185 14.3683 13.1005 14.1339 12.8661C13.8995 12.6317 13.5815 12.5 13.25 12.5H12.5Z" fill="currentColor"></path>
<path fill-rule="evenodd" clip-rule="evenodd" d="M16.5 2C16.9136 2 17.2972 2.14006 17.5786 2.42145C17.8599 2.70284 18 3.08638 18 3.5V20.5C18 20.9136 17.8599 21.2972 17.5786 21.5786C17.2972 21.8599 16.9136 22 16.5 22H7.5C7.08638 22 6.70284 21.8599 6.42145 21.5786C6.14006 21.2972 6 20.9136 6 20.5V3.5C6 3.08638 6.14006 2.70284 6.42145 2.42145C6.70284 2.14006 7.08638 2 7.5 2H16.5ZM7 3.5C7 3.31362 7.05994 3.19716 7.12855 3.12855C7.19716 3.05994 7.31362 3 7.5 3H9V3.5C9 3.77614 9.22386 4 9.5 4H14.5C14.7761 4 15 3.77614 15 3.5V3H16.5C16.6864 3 16.8028 3.05994 16.8714 3.12855C16.9401 3.19716 17 3.31362 17 3.5V20.5C17 20.6864 16.9401 20.8028 16.8714 20.8714C16.8028 20.9401 16.6864 21 16.5 21H7.5C7.31362 21 7.19716 20.9401 7.12855 20.8714C7.05994 20.8028 7 20.6864 7 20.5V3.5Z" fill="currentColor"></path>
</svg>