<svg width="1em" height="1em" viewBox="0 0 24 24" fill="none" xmlns="http://www.w3.org/2000/svg">
<path fill-rule="evenodd" clip-rule="evenodd" d="M13 8V7.83333C13 7.3731 12.5523 7 12 7C11.4477 7 11 7.3731 11 7.83333V8C9.61929 8 8.5 9.11929 8.5 10.5C8.5 11.8807 9.61929 13 11 13L11 14H9.5C8.94772 14 8.5 14.4477 8.5 15C8.5 15.5523 8.94772 16 9.5 16H11V16.1667C11 16.6269 11.4477 17 12 17C12.5523 17 13 16.6269 13 16.1667L13 16C14.3807 16 15.5 14.8807 15.5 13.5C15.5 12.1193 14.3807 11 13 11V10H14.5C15.0523 10 15.5 9.55228 15.5 9C15.5 8.44772 15.0523 8 14.5 8H13ZM11 10C10.7239 10 10.5 10.2239 10.5 10.5C10.5 10.7761 10.7239 11 11 11V10ZM13 13V14C13.2761 14 13.5 13.7761 13.5 13.5C13.5 13.2239 13.2761 13 13 13Z" fill="currentColor"></path>
<path fill-rule="evenodd" clip-rule="evenodd" d="M8 2C6.34772 2 5 3.34772 5 5V19C5 20.6523 6.34772 22 8 22H16C17.6523 22 19 20.6523 19 19V5C19 3.34772 17.6523 2 16 2H8ZM7 5C7 4.45228 7.45228 4 8 4H9C9 4.41362 9.14006 4.79716 9.42145 5.07855C9.70284 5.35994 10.0864 5.5 10.5 5.5H13.5C13.9136 5.5 14.2972 5.35994 14.5786 5.07855C14.8599 4.79716 15 4.41362 15 4H16C16.5477 4 17 4.45228 17 5V19C17 19.5477 16.5477 20 16 20H8C7.45228 20 7 19.5477 7 19V5Z" fill="currentColor"></path>
</svg>