<svg width="1em" height="1em" viewBox="0 0 24 24" fill="none" xmlns="http://www.w3.org/2000/svg">
<path d="M12.5 2.5C12.5 2.22386 12.2761 2 12 2C11.7239 2 11.5 2.22386 11.5 2.5V9C11.5 9.27614 11.7239 9.5 12 9.5C12.2761 9.5 12.5 9.27614 12.5 9V2.5Z" fill="currentColor"></path>
<path d="M8.23016 4.94388C8.47531 4.81676 8.57099 4.51499 8.44388 4.26984C8.31676 4.02469 8.01499 3.92901 7.76984 4.05612C4.90298 5.54265 3 8.61449 3 12C3 16.9761 7.02386 21 12 21C16.9761 21 21 16.9761 21 12C21 8.61449 19.097 5.54265 16.2302 4.05612C15.985 3.92901 15.6832 4.02469 15.5561 4.26984C15.429 4.51499 15.5247 4.81676 15.7698 4.94388C18.303 6.25735 20 8.98551 20 12C20 16.4239 16.4239 20 12 20C7.57614 20 4 16.4239 4 12C4 8.98551 5.69702 6.25735 8.23016 4.94388Z" fill="currentColor"></path>
</svg>