<svg width="1em" height="1em" viewBox="0 0 24 24" fill="none" xmlns="http://www.w3.org/2000/svg">
<path d="M13 3C13 2.44772 12.5523 2 12 2C11.4477 2 11 2.44772 11 3V9C11 9.55228 11.4477 10 12 10C12.5523 10 13 9.55228 13 9V3Z" fill="currentColor"></path>
<path d="M8.60387 5.86378C9.08092 5.5855 9.24206 4.97318 8.96378 4.49613C8.6855 4.01908 8.07318 3.85794 7.59613 4.13622C4.91885 5.69797 3 8.61098 3 12C3 16.9523 7.04772 21 12 21C16.9523 21 21 16.9523 21 12C21 8.61098 19.0812 5.69797 16.4039 4.13622C15.9268 3.85794 15.3145 4.01908 15.0362 4.49613C14.7579 4.97318 14.9191 5.5855 15.3961 5.86378C17.5188 7.10203 19 9.38902 19 12C19 15.8477 15.8477 19 12 19C8.15228 19 5 15.8477 5 12C5 9.38902 6.48115 7.10203 8.60387 5.86378Z" fill="currentColor"></path>
</svg>