<svg width="1em" height="1em" viewBox="0 0 24 24" fill="none" xmlns="http://www.w3.org/2000/svg">
<path d="M8.5 11.5C8.22386 11.5 8 11.7239 8 12C8 12.2761 8.22386 12.5 8.5 12.5H15.5C15.7761 12.5 16 12.2761 16 12C16 11.7239 15.7761 11.5 15.5 11.5H8.5Z" fill="currentColor"></path>
<path d="M8 16C8 15.7239 8.22386 15.5 8.5 15.5H15.5C15.7761 15.5 16 15.7239 16 16C16 16.2761 15.7761 16.5 15.5 16.5H8.5C8.22386 16.5 8 16.2761 8 16Z" fill="currentColor"></path>
<path d="M8.5 7.5C8.22386 7.5 8 7.72386 8 8C8 8.27614 8.22386 8.5 8.5 8.5H15.5C15.7761 8.5 16 8.27614 16 8C16 7.72386 15.7761 7.5 15.5 7.5H8.5Z" fill="currentColor"></path>
<path fill-rule="evenodd" clip-rule="evenodd" d="M8 2.5C8 2.22386 8.22386 2 8.5 2H15.5C15.7761 2 16 2.22386 16 2.5V3H16.5C17.8761 3 19 4.12386 19 5.5V18.5C19 19.8761 17.8761 21 16.5 21H7.5C6.12386 21 5 19.8761 5 18.5V5.5C5 4.12386 6.12386 3 7.5 3H8V2.5ZM16 4.5V4H16.5C17.3239 4 18 4.67614 18 5.5V18.5C18 19.3239 17.3239 20 16.5 20H7.5C6.67614 20 6 19.3239 6 18.5V5.5C6 4.67614 6.67614 4 7.5 4H8V4.5C8 4.77614 8.22386 5 8.5 5H15.5C15.7761 5 16 4.77614 16 4.5ZM9 3V4H15V3H9Z" fill="currentColor"></path>
</svg>