<svg width="1em" height="1em" viewBox="0 0 24 24" fill="none" xmlns="http://www.w3.org/2000/svg">
<path d="M21.4 5.60002L12.4 2.10002C12.1 2.00002 11.9 2.00002 11.6 2.10002L2.6 5.60002C2.3 5.70002 2 6.10002 2 6.50002V17.5C2 17.9 2.3 18.3 2.6 18.4L11.6 21.9C11.8 22 11.9 22 12 22C12.1 22 12.2 22 12.4 21.9L21.4 18.4C21.8 18.3 22 17.9 22 17.5V6.50002C22 6.10002 21.7 5.70002 21.4 5.60002ZM12 4.10002L18.2 6.50002L12 8.90002L10.3 8.30002L12.4 7.50002C12.9 7.30002 13.2 6.70002 13 6.20002C12.8 5.70002 12.2 5.40002 11.7 5.60002L7.5 7.20002L5.8 6.50002L12 4.10002ZM4 8.00002L6.5 9.00002V13C6.5 13.6 6.9 14 7.5 14C8.1 14 8.5 13.6 8.5 13V9.70002L11 10.7V19.6L4 16.9V8.00002ZM13 19.5V10.7L20 8.00002V16.9L13 19.5Z" fill="currentColor"></path>
</svg>