<svg width="1em" height="1em" viewBox="0 0 24 24" fill="none" xmlns="http://www.w3.org/2000/svg">
<path d="M21.7 5.5L12.2 2C12.1 2 12 2 11.9 2L2.3 5.5C2.1 5.6 2 5.8 2 6V18C2 18.2 2.1 18.4 2.3 18.5L11.8 22C11.9 22 11.9 22 12 22C12.1 22 12.1 22 12.2 22L21.7 18.5C21.9 18.4 22 18.2 22 18V6C22 5.8 21.9 5.6 21.7 5.5ZM12 9L8.7 7.8L16.8 4.8L20.1 6L12 9ZM12 3L15.3 4.2L7.2 7.2L3.9 6L12 3ZM3 6.7L6.8 8.1V13C6.8 13.3 7 13.5 7.3 13.5C7.6 13.5 7.8 13.3 7.8 13V8.5L11.6 9.9V20.8L3 17.7V6.7ZM12.5 20.8V9.8L21 6.7V17.6L12.5 20.8Z" fill="currentColor"></path>
</svg>