<svg width="1em" height="1em" viewBox="0 0 24 24" fill="none" xmlns="http://www.w3.org/2000/svg">
<path fill-rule="evenodd" clip-rule="evenodd" d="M18.5002 4.00002C17.9239 3.9999 17.3653 4.19891 16.9188 4.56336C16.4723 4.92782 16.1655 5.43534 16.0502 6.00002H16.0002C15.8676 6.00002 15.7405 6.0527 15.6467 6.14646C15.5529 6.24023 15.5002 6.36741 15.5002 6.50002C15.5002 6.63263 15.5529 6.7598 15.6467 6.85357C15.7405 6.94734 15.8676 7.00002 16.0002 7.00002H16.0602C16.1549 7.46389 16.3794 7.89134 16.7075 8.23264C17.0356 8.57393 17.4539 8.81504 17.9137 8.92791C18.3735 9.04078 18.8559 9.02078 19.3047 8.87022C19.7536 8.71967 20.1505 8.44475 20.4492 8.07745C20.748 7.71016 20.9363 7.26559 20.9922 6.79547C21.0482 6.32535 20.9695 5.84901 20.7653 5.42186C20.5611 4.99471 20.2399 4.63431 19.8389 4.3826C19.4379 4.1309 18.9737 3.99822 18.5002 4.00002ZM18.5002 8.00002C18.2036 8.00002 17.9136 7.91204 17.6669 7.74722C17.4202 7.5824 17.228 7.34813 17.1144 7.07404C17.0009 6.79995 16.9712 6.49835 17.0291 6.20738C17.0869 5.91641 17.2298 5.64914 17.4396 5.43936C17.6494 5.22958 17.9166 5.08672 18.2076 5.02884C18.4986 4.97096 18.8002 5.00067 19.0743 5.1142C19.3484 5.22773 19.5826 5.41999 19.7474 5.66666C19.9123 5.91334 20.0002 6.20335 20.0002 6.50002C20.0002 6.89784 19.8422 7.27937 19.5609 7.56068C19.2796 7.84198 18.8981 8.00002 18.5002 8.00002Z" fill="currentColor"></path>
<path d="M10.2202 16.11C10.0074 16.274 9.77973 16.418 9.54024 16.54C9.48106 16.5688 9.42815 16.609 9.38454 16.6583C9.34094 16.7076 9.30749 16.765 9.28612 16.8272C9.26475 16.8895 9.25588 16.9553 9.26002 17.021C9.26416 17.0867 9.28123 17.1509 9.31024 17.21C9.35239 17.2934 9.41665 17.3636 9.49601 17.413C9.57537 17.4624 9.66677 17.489 9.76024 17.49C9.83292 17.5038 9.90755 17.5038 9.98024 17.49C10.2821 17.3409 10.5671 17.1599 10.8302 16.95C10.8867 16.9117 10.9348 16.8622 10.9714 16.8046C11.0081 16.747 11.0326 16.6826 11.0433 16.6152C11.0541 16.5478 11.051 16.4789 11.0342 16.4127C11.0173 16.3466 10.9871 16.2846 10.9454 16.2306C10.9037 16.1765 10.8513 16.1316 10.7916 16.0986C10.7319 16.0655 10.666 16.0451 10.5981 16.0385C10.5301 16.0319 10.4616 16.0392 10.3966 16.0601C10.3316 16.081 10.2716 16.115 10.2202 16.16V16.11Z" fill="currentColor"></path>
<path d="M11.805 13.7704C11.8694 13.7572 11.9358 13.757 12.0002 13.77C12.1194 13.7919 12.2262 13.8571 12.3001 13.9532C12.374 14.0492 12.4097 14.1692 12.4002 14.29C12.3433 14.6372 12.2355 14.9742 12.0802 15.29C12.041 15.3757 11.9774 15.4479 11.8974 15.4977C11.8174 15.5475 11.7245 15.5727 11.6302 15.57C11.5614 15.5882 11.4891 15.5882 11.4202 15.57C11.3015 15.5136 11.2098 15.4127 11.1649 15.2892C11.12 15.1657 11.1255 15.0295 11.1802 14.91C11.2886 14.6735 11.3692 14.4251 11.4202 14.17C11.431 14.1052 11.4548 14.0431 11.49 13.9876C11.5252 13.9322 11.5713 13.8843 11.6254 13.847C11.6795 13.8097 11.7406 13.7836 11.805 13.7704Z" fill="currentColor"></path>
<path d="M14.0002 6.56002C13.6966 6.70354 13.4084 6.87778 13.1402 7.08002C13.0563 7.14298 12.9943 7.23077 12.963 7.33094C12.9317 7.4311 12.9327 7.53858 12.9659 7.63813C12.9991 7.73769 13.0628 7.82428 13.1479 7.88564C13.233 7.947 13.3353 7.98002 13.4402 7.98002C13.5518 7.98222 13.661 7.94702 13.7502 7.88002C13.9655 7.71709 14.1967 7.57638 14.4402 7.46002C14.5562 7.39807 14.6443 7.29454 14.687 7.17024C14.7296 7.04594 14.7237 6.91009 14.6702 6.79002C14.6101 6.67235 14.5067 6.58262 14.3817 6.53972C14.2567 6.49681 14.12 6.50409 14.0002 6.56002Z" fill="currentColor"></path>
<path d="M12.3613 8.36976C12.427 8.3739 12.4912 8.39097 12.5503 8.41998C12.6091 8.44777 12.6618 8.48701 12.7053 8.53539C12.7488 8.58377 12.7822 8.64032 12.8036 8.70176C12.825 8.7632 12.834 8.82828 12.83 8.89322C12.826 8.95816 12.8091 9.02164 12.7803 9.07998C12.6719 9.31652 12.5914 9.56485 12.5403 9.81998C12.5211 9.93563 12.4612 10.0406 12.3713 10.1158C12.2814 10.191 12.1675 10.2315 12.0503 10.23H11.9603C11.8305 10.2057 11.7157 10.1311 11.6408 10.0224C11.5658 9.91375 11.5369 9.77988 11.5603 9.64998C11.6204 9.3035 11.7281 8.96699 11.8803 8.64998C11.9091 8.5908 11.9493 8.53789 11.9986 8.49429C12.0479 8.45068 12.1053 8.41723 12.1675 8.39586C12.2298 8.3745 12.2956 8.36563 12.3613 8.36976Z" fill="currentColor"></path>
<path d="M12.0002 11C11.8676 11 11.7405 11.0527 11.6467 11.1464C11.5529 11.2402 11.5002 11.3674 11.5002 11.5V12.41C11.5002 12.5426 11.5529 12.6698 11.6467 12.7636C11.7405 12.8573 11.8676 12.91 12.0002 12.91C12.1329 12.91 12.26 12.8573 12.3538 12.7636C12.4476 12.6698 12.5002 12.5426 12.5002 12.41V11.5C12.5002 11.3674 12.4476 11.2402 12.3538 11.1464C12.26 11.0527 12.1329 11 12.0002 11Z" fill="currentColor"></path>
<path fill-rule="evenodd" clip-rule="evenodd" d="M7.03248 15.4864C7.53148 15.8536 7.87636 16.393 8.00027 17C8.13403 16.9889 8.26679 17.0309 8.36975 17.117C8.47271 17.2032 8.53757 17.3264 8.55027 17.46C8.56141 17.5911 8.52042 17.7213 8.43618 17.8224C8.35194 17.9235 8.23124 17.9873 8.10027 18H8.00027C7.87636 18.607 7.53148 19.1464 7.03248 19.5136C6.53348 19.8808 5.91591 20.0496 5.29951 19.9873C4.68311 19.9251 4.11178 19.6362 3.6963 19.1766C3.28082 18.717 3.05078 18.1195 3.05078 17.5C3.05078 16.8805 3.28082 16.283 3.6963 15.8234C4.11178 15.3639 4.68311 15.0749 5.29951 15.0127C5.91591 14.9504 6.53348 15.1192 7.03248 15.4864ZM4.66692 18.7472C4.91359 18.912 5.2036 19 5.50027 19C5.8981 19 6.27963 18.842 6.56093 18.5607C6.84224 18.2794 7.00027 17.8978 7.00027 17.5C7.00027 17.2033 6.9123 16.9133 6.74748 16.6667C6.58265 16.42 6.34839 16.2277 6.0743 16.1142C5.80021 16.0007 5.49861 15.9709 5.20764 16.0288C4.91666 16.0867 4.64939 16.2296 4.43961 16.4393C4.22983 16.6491 4.08697 16.9164 4.02909 17.2074C3.97122 17.4983 4.00092 17.7999 4.11445 18.074C4.22798 18.3481 4.42024 18.5824 4.66692 18.7472Z" fill="currentColor"></path>
</svg>