<svg width="1em" height="1em" viewBox="0 0 24 24" fill="none" xmlns="http://www.w3.org/2000/svg">
<path fill-rule="evenodd" clip-rule="evenodd" d="M14.4601 14.195L14.0854 14.1944L14.44 13.3734L13.5273 11.2042L13.9532 11.2049L14.6278 12.9822L15.303 11.2067L15.6819 11.2073L14.4601 14.195Z" fill="#DB0011"></path>
<mask id="mask0" style="mask-type:alpha" maskUnits="userSpaceOnUse" x="20" y="11" width="2" height="3">
<path d="M20.0264 11.176H21.9723V13.4342H20.0264V11.176Z" fill="white"></path>
</mask>
<g mask="url(#mask0)">
<path fill-rule="evenodd" clip-rule="evenodd" d="M21.0368 11.4341C20.6408 11.4336 20.4444 11.7601 20.4099 12.1215L21.6022 12.1231C21.607 11.7661 21.4286 11.4347 21.0368 11.4341ZM20.4011 12.371L20.401 12.414C20.4004 12.8141 20.6129 13.1798 21.0472 13.1804C21.3537 13.1809 21.5542 12.9919 21.6014 12.6866L21.9591 12.6871C21.8733 13.1988 21.5067 13.4349 21.0171 13.4342C20.3486 13.4333 20.0255 12.9812 20.0264 12.3359C20.0272 11.6865 20.3516 11.1752 21.05 11.176C21.7695 11.1771 21.9732 11.7408 21.9723 12.3731L20.4011 12.371Z" fill="#DB0011"></path>
</g>
<path fill-rule="evenodd" clip-rule="evenodd" d="M12.6443 12.2784C12.3121 12.278 11.767 12.3159 11.7663 12.759C11.766 13.0256 11.9914 13.168 12.2385 13.1684C12.7792 13.1691 12.8352 12.726 12.8358 12.2874C12.7464 12.2786 12.7039 12.2786 12.6443 12.2784ZM12.9111 13.3757C12.894 13.2853 12.8772 13.1605 12.873 13.0702C12.6939 13.3324 12.4553 13.4223 12.1445 13.4219C11.7442 13.4214 11.391 13.2187 11.3916 12.7757C11.3925 12.1262 12.0996 12.0497 12.6232 12.0504C12.6999 12.0505 12.7765 12.0549 12.8361 12.0594L12.8362 11.9303C12.8368 11.5948 12.7178 11.4055 12.3644 11.405C12.1004 11.4046 11.9427 11.5032 11.9167 11.7871L11.5506 11.7866C11.5725 11.3136 11.9517 11.1592 12.3562 11.1598C12.9054 11.1605 13.1735 11.3716 13.1727 11.9395L13.1715 12.7395C13.1711 13.0234 13.2092 13.2771 13.2389 13.3761L12.9111 13.3757Z" fill="#DB0011"></path>
<path fill-rule="evenodd" clip-rule="evenodd" d="M19.0417 13.3841L19.0455 10.584L17.956 13.3825L17.5898 13.3821L16.5034 10.5762L16.4997 13.3806L16.1377 13.38L16.1419 10.2703L16.7807 10.271L17.7905 12.9007L18.7819 10.2739L19.4207 10.2749L19.4165 13.3847L19.0417 13.3841Z" fill="#DB0011"></path>
<path fill-rule="evenodd" clip-rule="evenodd" d="M10.1046 10.5715L9.56813 10.5708L9.56653 11.7279L9.98809 11.7284C10.4182 11.729 10.8355 11.6608 10.8362 11.1275C10.8369 10.6586 10.5007 10.5721 10.1046 10.5715ZM10.6904 11.9617C10.5284 12.0216 10.3326 12.0429 10.1324 12.0426L9.56616 12.0418L9.56435 13.371L9.16406 13.3704L9.16817 10.2605L10.1178 10.2618C10.3818 10.2623 10.6543 10.2669 10.8842 10.4178C11.1351 10.5816 11.2539 10.8656 11.2535 11.1581C11.2529 11.5366 11.044 11.833 10.6904 11.9617Z" fill="#DB0011"></path>
<path fill-rule="evenodd" clip-rule="evenodd" d="M4.95107 9.50965C4.0854 9.50841 3.38018 10.2097 3.37895 11.0731C3.37838 11.4973 3.38351 12.5448 3.38351 12.5553C3.3838 12.6046 3.42339 12.6445 3.47218 12.6446H3.47267C3.48363 12.6446 4.5638 12.6402 4.9468 12.6408C5.81246 12.642 6.51776 11.9407 6.51895 11.0774C6.5201 10.2141 5.81673 9.5108 4.95107 9.50965ZM4.947 12.4614C4.62848 12.461 3.82844 12.4639 3.56076 12.4649C3.55953 12.201 3.55612 11.4239 3.55657 11.0733C3.55764 10.3089 4.18314 9.68792 4.95086 9.68899C5.71858 9.6901 6.34232 10.3128 6.34125 11.0772C6.34022 11.8415 5.7148 12.4625 4.947 12.4614Z" fill="#DB0011"></path>
<path fill-rule="evenodd" clip-rule="evenodd" d="M4.95179 8.80384C3.70613 8.80207 2.6913 9.821 2.68954 11.075C2.6888 11.5608 2.69315 12.5984 2.69512 13.05C2.69488 13.0525 2.69438 13.0548 2.69438 13.0573L2.69151 15.1408C2.69151 15.191 2.7313 15.2316 2.78054 15.2317C2.82974 15.2317 2.86962 15.1911 2.8697 15.141L2.87216 13.3579C3.21122 13.3566 4.46021 13.352 4.94563 13.3527C6.19138 13.3544 7.20628 12.3355 7.20797 11.0813C7.20965 9.82725 6.19754 8.80552 4.95179 8.80384ZM4.94584 13.171C4.46161 13.1703 3.21754 13.1749 2.87389 13.1762C2.87225 12.8339 2.86695 11.6141 2.86769 11.0753C2.86921 9.92146 3.80411 8.98384 4.95159 8.98544C6.0991 8.98704 7.03134 9.92721 7.02982 11.0811C7.02826 12.235 6.09339 13.1725 4.94584 13.171Z" fill="#DB0011"></path>
<mask id="mask1" style="mask-type:alpha" maskUnits="userSpaceOnUse" x="2" y="8" width="6" height="8">
<path d="M2 8.04102H7.94173V15.9375H2V8.04102Z" fill="white"></path>
</mask>
<g mask="url(#mask1)">
<path fill-rule="evenodd" clip-rule="evenodd" d="M4.97495 8.04053C3.3368 8.03827 2.00239 9.36998 2.00009 11.0092C1.99898 11.8372 2.00875 13.8824 2.00884 13.9023L2.00723 15.1323C2.00695 15.3407 2.14514 15.9361 2.763 15.937C3.42432 15.9379 3.57393 15.3661 3.57417 15.1657C3.57438 15.0199 3.58493 14.2461 3.58851 13.9884C4.23504 13.9865 4.69861 13.9858 4.96686 13.9861C6.60502 13.9884 7.93951 12.6566 7.94173 11.0175C7.94399 9.37823 6.61311 8.04279 4.97495 8.04053ZM4.96715 13.8041C4.68925 13.8037 4.20247 13.8046 3.52009 13.8066C3.51163 13.8066 3.50329 13.8078 3.4952 13.8102L3.47454 13.8163C3.43668 13.8275 3.41056 13.8625 3.40999 13.9023C3.40941 13.9467 3.39479 14.9896 3.3945 15.1655C3.3945 15.1714 3.36662 15.7557 2.76325 15.7549C2.21077 15.7541 2.18682 15.1387 2.18682 15.1325L2.18855 13.9021C2.18842 13.8815 2.17865 11.8369 2.1798 11.0094C2.18181 9.47064 3.43561 8.22049 4.97467 8.22258C6.5138 8.2248 7.76415 9.4784 7.7621 11.0172C7.75996 12.5559 6.50612 13.8062 4.96715 13.8041Z" fill="#DB0011"></path>
</g>
<path fill-rule="evenodd" clip-rule="evenodd" d="M4.9725 10.2156C4.50798 10.2149 4.1295 10.6007 4.12893 11.0755C4.12864 11.3058 4.13123 11.8712 4.13123 11.8712C4.13147 11.9091 4.16121 11.9398 4.19792 11.9398H4.19825C4.19825 11.9398 4.76721 11.9376 4.97016 11.9379C5.43468 11.9384 5.81312 11.5527 5.81378 11.0779C5.81439 10.6031 5.43702 10.2162 4.9725 10.2156ZM4.97045 11.7555C4.81981 11.7553 4.45451 11.7566 4.30774 11.7572C4.30704 11.6092 4.30556 11.2455 4.30577 11.0759C4.3063 10.7015 4.60527 10.3975 4.97222 10.398C5.33924 10.3985 5.63739 10.7033 5.63686 11.0777C5.63641 11.4519 5.33739 11.7561 4.97045 11.7555Z" fill="#DB0011"></path>
</svg>