<svg width="1em" height="1em" viewBox="0 0 24 24" fill="none" xmlns="http://www.w3.org/2000/svg">
<path d="M12 2C6.5 2 2 6.5 2 12C2 17.5 6.5 22 12 22C17.5 22 22 17.5 22 12C22 6.5 17.5 2 12 2ZM12.6 14.4C12.2 14.5 11.8 14.5 11.4 14.4C9.9 14.1 9.5 12.4 9.5 11C9.5 9.4 9.9 7.5 12 7.5C14.1 7.5 14.5 9.4 14.5 11C14.5 12.4 14.1 14.1 12.6 14.4ZM11.8 16.5C11.9 16.5 11.9 16.5 12 16.5C12.1 16.5 12.1 16.5 12.2 16.5C12.3 16.5 12.5 16.5 12.6 16.5C13.5 17.5 15 18.3 16.2 18.8C16.2 18.8 16.2 18.8 16.1 18.8C13.6 20.3 10.3 20.3 7.8 18.8C7.8 18.8 7.8 18.8 7.7 18.8C8.9 18.2 10.3 17.5 11.3 16.5C11.5 16.5 11.7 16.5 11.8 16.5ZM17.9 17.4C17 17 15.6 16.4 14.7 15.7C15.9 14.8 16.5 13.2 16.5 11.1C16.5 7.7 14.8 5.6 12 5.6C9.2 5.6 7.5 7.6 7.5 11C7.5 13.1 8.2 14.7 9.3 15.6C8.3 16.3 7 16.9 6.1 17.3C4.8 15.9 4 14.1 4 12C4 7.6 7.6 4 12 4C16.4 4 20 7.6 20 12C20 14.1 19.2 15.9 17.9 17.4Z" fill="currentColor"></path>
</svg>