<svg width="1em" height="1em" viewBox="0 0 24 24" fill="none" xmlns="http://www.w3.org/2000/svg">
<path fill-rule="evenodd" clip-rule="evenodd" d="M14.3781 13.8084C14.8316 13.4967 15.2076 13.0917 15.5091 12.6188C16.2164 11.5093 16.5 10.0535 16.5 8.6C16.5 7.14688 16.2166 5.75714 15.4992 4.71626C14.7625 3.64733 13.6038 3 12 3C10.3962 3 9.2375 3.64733 8.5008 4.71626C7.78345 5.75714 7.5 7.14688 7.5 8.6C7.5 10.0535 7.78361 11.5093 8.49089 12.6188C8.79238 13.0917 9.16835 13.4967 9.62192 13.8084C8.37572 14.1612 7.38789 14.801 6.64871 15.6457C5.49913 16.9596 5 18.7128 5 20.5C5 20.7761 5.22386 21 5.5 21H18.5C18.7761 21 19 20.7761 19 20.5C19 18.7128 18.5009 16.9596 17.3513 15.6457C16.6121 14.801 15.6243 14.1612 14.3781 13.8084ZM8.5 8.6C8.5 7.25312 8.76655 6.09286 9.3242 5.28374C9.8625 4.50267 10.7038 4 12 4C13.2962 4 14.1375 4.50267 14.6758 5.28374C15.2334 6.09286 15.5 7.25312 15.5 8.6C15.5 9.94655 15.2336 11.1907 14.6659 12.0812C14.1157 12.9443 13.271 13.5 12 13.5C10.729 13.5 9.8843 12.9443 9.33411 12.0812C8.76639 11.1907 8.5 9.94655 8.5 8.6ZM12 14.5C9.82056 14.5 8.34183 15.2294 7.40129 16.3043C6.5499 17.2773 6.09937 18.5797 6.01474 20H17.9853C17.9006 18.5797 17.4501 17.2773 16.5987 16.3043C15.6582 15.2294 14.1794 14.5 12 14.5Z" fill="currentColor"></path>
</svg>