<svg width="1em" height="1em" viewBox="0 0 24 24" fill="none" xmlns="http://www.w3.org/2000/svg">
<path fill-rule="evenodd" clip-rule="evenodd" d="M7 9C7 6.25229 9.25229 4 12 4C14.7477 4 17 6.25229 17 9C17 11.278 16.0733 14.1136 14.8651 16.4093C14.2654 17.5486 13.6218 18.5058 13.0356 19.1618C12.7417 19.4907 12.4842 19.7191 12.2761 19.8582C12.1117 19.9682 12.0225 19.993 12 19.9985C11.9775 19.993 11.8883 19.9682 11.7239 19.8582C11.5158 19.7191 11.2583 19.4907 10.9644 19.1618C10.3782 18.5058 9.73458 17.5486 9.13492 16.4093C7.9267 14.1136 7 11.278 7 9ZM12 2C8.14772 2 5 5.14772 5 9C5 11.722 6.0733 14.8864 7.36508 17.3407C8.01542 18.5764 8.7468 19.6817 9.47309 20.4945C9.83546 20.9 10.2185 21.2575 10.612 21.5207C10.9927 21.7753 11.4702 22 12 22C12.5298 22 13.0073 21.7753 13.388 21.5207C13.7815 21.2575 14.1645 20.9 14.5269 20.4945C15.2532 19.6817 15.9846 18.5764 16.6349 17.3407C17.9267 14.8864 19 11.722 19 9C19 5.14772 15.8523 2 12 2ZM11 9C11 8.44772 11.4477 8 12 8C12.5523 8 13 8.44772 13 9C13 9.55228 12.5523 10 12 10C11.4477 10 11 9.55228 11 9ZM12 6C10.3431 6 9 7.34315 9 9C9 10.6569 10.3431 12 12 12C13.6569 12 15 10.6569 15 9C15 7.34315 13.6569 6 12 6Z" fill="currentColor"></path>
</svg>