<svg width="1em" height="1em" viewBox="0 0 24 24" fill="none" xmlns="http://www.w3.org/2000/svg">
<path fill-rule="evenodd" clip-rule="evenodd" d="M12 2C8.40291 2 5.5 5.04528 5.5 8.8C5.5 11.5548 6.5327 14.8082 7.80234 17.3602C8.43897 18.6398 9.14709 19.7675 9.83685 20.5837C10.1812 20.9912 10.5323 21.3345 10.8793 21.5799C11.219 21.8201 11.6021 22 12 22C12.3979 22 12.781 21.8201 13.1207 21.5799C13.4677 21.3345 13.8188 20.9912 14.1631 20.5837C14.8529 19.7675 15.561 18.6398 16.1977 17.3602C17.4673 14.8082 18.5 11.5548 18.5 8.8C18.5 5.04528 15.5971 2 12 2ZM12 6.5C10.6193 6.5 9.5 7.61929 9.5 9C9.5 10.3807 10.6193 11.5 12 11.5C13.3807 11.5 14.5 10.3807 14.5 9C14.5 7.61929 13.3807 6.5 12 6.5Z" fill="currentColor"></path>
</svg>