<svg width="1em" height="1em" viewBox="0 0 24 24" fill="none" xmlns="http://www.w3.org/2000/svg">
<path fill-rule="evenodd" clip-rule="evenodd" d="M6.5 9C6.5 5.97614 8.97614 3.5 12 3.5C15.0239 3.5 17.5 5.97614 17.5 9C17.5 11.389 16.5366 14.3068 15.3075 16.6421C14.6952 17.8056 14.0297 18.7998 13.4084 19.495C13.0974 19.843 12.8085 20.1037 12.5541 20.2738C12.2932 20.4483 12.1101 20.5 12 20.5C11.8899 20.5 11.7068 20.4483 11.4459 20.2738C11.1915 20.1037 10.9026 19.843 10.5916 19.495C9.97035 18.7998 9.30479 17.8056 8.69246 16.6421C7.46335 14.3068 6.5 11.389 6.5 9ZM12 2.5C8.42386 2.5 5.5 5.42386 5.5 9C5.5 11.611 6.53665 14.6932 7.80754 17.1079C8.44521 18.3194 9.15465 19.3877 9.84592 20.1613C10.1912 20.5476 10.5429 20.8729 10.89 21.1051C11.2307 21.333 11.6101 21.5 12 21.5C12.3899 21.5 12.7693 21.333 13.11 21.1051C13.4571 20.8729 13.8088 20.5476 14.1541 20.1613C14.8453 19.3877 15.5548 18.3194 16.1925 17.1079C17.4634 14.6932 18.5 11.611 18.5 9C18.5 5.42386 15.5761 2.5 12 2.5ZM10.5 9C10.5 8.17157 11.1716 7.5 12 7.5C12.8284 7.5 13.5 8.17157 13.5 9C13.5 9.82843 12.8284 10.5 12 10.5C11.1716 10.5 10.5 9.82843 10.5 9ZM12 6.5C10.6193 6.5 9.5 7.61929 9.5 9C9.5 10.3807 10.6193 11.5 12 11.5C13.3807 11.5 14.5 10.3807 14.5 9C14.5 7.61929 13.3807 6.5 12 6.5Z" fill="currentColor"></path>
</svg>