<svg width="1em" height="1em" viewBox="0 0 24 24" fill="none" xmlns="http://www.w3.org/2000/svg">
<path fill-rule="evenodd" clip-rule="evenodd" d="M12 22C17.5228 22 22 17.5228 22 12C22 6.47715 17.5228 2 12 2C6.47715 2 2 6.47715 2 12C2 17.5228 6.47715 22 12 22ZM12 18C15.3137 18 18 15.3137 18 12C18 8.68629 15.3137 6 12 6C8.68629 6 6 8.68629 6 12C6 15.3137 8.68629 18 12 18Z" fill="#19BC9B" fill-opacity="0.25"></path>
<path fill-rule="evenodd" clip-rule="evenodd" d="M12 18C15.3137 18 18 15.3137 18 12C18 8.68629 15.3137 6 12 6C8.68629 6 6 8.68629 6 12C6 15.3137 8.68629 18 12 18ZM15.3045 11.2648C15.5954 10.9699 15.5921 10.495 15.2972 10.2041C15.0023 9.91327 14.5274 9.91656 14.2366 10.2115L11.2872 13.202L10.0589 11.9906C9.76399 11.6997 9.28913 11.703 8.99827 11.9979C8.70741 12.2928 8.71069 12.7677 9.00561 13.0586L10.7679 14.7966C11.0628 15.0875 11.5376 15.0842 11.8285 14.7893L15.3045 11.2648Z" fill="#19BC9B"></path>
</svg>