<svg width="1em" height="1em" viewBox="0 0 24 24" fill="none" xmlns="http://www.w3.org/2000/svg">
<path d="M13.1 3C12.8348 3 12.5804 3.10536 12.3929 3.29289L3.29289 12.3929C2.90237 12.7834 2.90237 13.4166 3.29289 13.8071L10.1929 20.7071C10.5834 21.0976 11.2166 21.0976 11.6071 20.7071L12.7071 19.6071C13.0976 19.2166 13.0976 18.5834 12.7071 18.1929C12.3166 17.8024 11.6834 17.8024 11.2929 18.1929L10.9 18.5858L5.41421 13.1L13.5142 5H19V10.9C19 11.4523 19.4477 11.9 20 11.9C20.5523 11.9 21 11.4523 21 10.9V4C21 3.44772 20.5523 3 20 3H13.1Z" fill="currentColor"></path>
<path d="M15 8C15 8.6 15.4 9 16 9C16.6 9 17 8.6 17 8C17 7.4 16.6 7 16 7C15.4 7 15 7.4 15 8Z" fill="currentColor"></path>
<path d="M17.7998 13.5C18.3521 13.5 18.7998 13.9477 18.7998 14.5V15.8H20C20.5523 15.8 21 16.2478 21 16.8C21 17.3523 20.5523 17.8 20 17.8H18.7998V19C18.7998 19.5523 18.3521 20 17.7998 20C17.2475 20 16.7998 19.5523 16.7998 19V17.8H15.5C14.9477 17.8 14.5 17.3523 14.5 16.8C14.5 16.2478 14.9477 15.8 15.5 15.8H16.7998V14.5C16.7998 13.9477 17.2475 13.5 17.7998 13.5Z" fill="currentColor"></path>
</svg>