<svg width="1em" height="1em" viewBox="0 0 24 24" fill="none" xmlns="http://www.w3.org/2000/svg">
<path fill-rule="evenodd" clip-rule="evenodd" d="M12.3929 3.29289C12.5804 3.10536 12.8348 3 13.1 3H20C20.5523 3 21 3.44772 21 4V10.9C21 11.1652 20.8946 11.4196 20.7071 11.6071L11.6071 20.7071C11.2166 21.0976 10.5834 21.0976 10.1929 20.7071L3.29289 13.8071C3.10536 13.6196 3 13.3652 3 13.1C3 12.8348 3.10536 12.5804 3.29289 12.3929L12.3929 3.29289ZM14 8C14 9.2 14.8 10 16 10C17.2 10 18 9.2 18 8C18 6.8 17.2 6 16 6C14.8 6 14 6.8 14 8Z" fill="currentColor"></path>
</svg>