<svg width="1em" height="1em" viewBox="0 0 24 24" fill="none" xmlns="http://www.w3.org/2000/svg">
<path d="M3 12C3 7.07614 7.07614 3 12 3C12.2761 3 12.5 2.77614 12.5 2.5C12.5 2.22386 12.2761 2 12 2C6.52386 2 2 6.52386 2 12C2 15.2343 3.53465 18.1637 5.95224 20H5.5C5.22386 20 5 20.2239 5 20.5C5 20.7761 5.22386 21 5.5 21H7.5C7.77614 21 8 20.7761 8 20.5V20.4104C8.00013 20.4037 8.00013 20.3971 8 20.3905V18.5C8 18.2239 7.77614 18 7.5 18C7.22386 18 7 18.2239 7 18.5V19.5191C4.57376 17.9019 3 15.1094 3 12Z" fill="currentColor"></path>
<path d="M18.5 4H18.0478C20.4654 5.83633 22 8.76565 22 12C22 17.4761 17.4761 22 12 22C11.7239 22 11.5 21.7761 11.5 21.5C11.5 21.2238 11.7239 21 12 21C16.9239 21 21 16.9238 21 12C21 8.89053 19.4262 6.09808 17 4.4809V5.5C17 5.77614 16.7761 6 16.5 6C16.2239 6 16 5.77614 16 5.5V3.60944C15.9999 3.60284 15.9999 3.59622 16 3.5896V3.5C16 3.22386 16.2239 3 16.5 3H18.5C18.7761 3 19 3.22386 19 3.5C19 3.77614 18.7761 4 18.5 4Z" fill="currentColor"></path>
<path fill-rule="evenodd" clip-rule="evenodd" d="M11.5 8.19995H11C9.71658 8.19995 8.5 9.03942 8.5 10.4C8.5 11.6432 9.69608 12.6 11 12.6H11.5V15H9C8.72386 15 8.5 15.2238 8.5 15.5C8.5 15.7761 8.72386 16 9 16H11.5V16.5C11.5 16.7761 11.7239 17 12 17C12.2761 17 12.5 16.7761 12.5 16.5V16H13C14.3039 16 15.5 15.0432 15.5 13.8C15.5 12.4394 14.2834 11.6 13 11.6H12.5V9.19995H15C15.2761 9.19995 15.5 8.97609 15.5 8.69995C15.5 8.42381 15.2761 8.19995 15 8.19995H12.5V7.5C12.5 7.22386 12.2761 7 12 7C11.7239 7 11.5 7.22386 11.5 7.5V8.19995ZM11 9.19995C10.0834 9.19995 9.5 9.76048 9.5 10.4C9.5 10.9567 10.1039 11.6 11 11.6H11.5V9.19995H11ZM12.5 12.6V15H13C13.8961 15 14.5 14.3567 14.5 13.8C14.5 13.1605 13.9166 12.6 13 12.6H12.5Z" fill="currentColor"></path>
</svg>