<svg width="1em" height="1em" viewBox="0 0 24 24" fill="none" xmlns="http://www.w3.org/2000/svg">
<path d="M19 20H5C4.45 20 4 19.55 4 19V15C4 14.45 4.45 14 5 14C5.55 14 6 14.45 6 15V18H18V15C18 14.45 18.45 14 19 14C19.55 14 20 14.45 20 15V19C20 19.55 19.55 20 19 20Z" fill="currentColor"></path>
<path d="M16.71 9.29C16.32 8.9 15.69 8.9 15.3 9.29L13 11.59V5C13 4.45 12.55 4 12 4C11.45 4 11 4.45 11 5V11.59L8.71 9.29C8.32 8.9 7.69 8.9 7.3 9.29C6.91 9.68 6.91 10.31 7.3 10.7L11.3 14.7C11.39 14.79 11.5 14.87 11.63 14.92C11.74 14.97 11.87 15 12 15C12.13 15 12.26 14.97 12.38 14.92C12.5 14.87 12.61 14.8 12.71 14.7L16.71 10.7C17.1 10.32 17.1 9.68 16.71 9.29Z" fill="currentColor"></path>
</svg>