<svg width="1em" height="1em" viewBox="0 0 24 24" fill="none" xmlns="http://www.w3.org/2000/svg">
<path fill-rule="evenodd" clip-rule="evenodd" d="M12 6.5C12.5523 6.5 13 6.94772 13 7.5V8H15C15.5523 8 16 8.44772 16 9C16 9.55228 15.5523 10 15 10H13V11H13.5C14.8523 11 16 12.1477 16 13.5C16 14.8523 14.8523 16 13.5 16H13V16.5C13 17.0523 12.5523 17.5 12 17.5C11.4477 17.5 11 17.0523 11 16.5V16H9C8.44772 16 8 15.5523 8 15C8 14.4477 8.44772 14 9 14H11V13H10.5C9.14772 13 8 11.8523 8 10.5C8 9.14772 9.14772 8 10.5 8H11V7.5C11 6.94772 11.4477 6.5 12 6.5ZM10.5 10H11V11H10.5C10.2523 11 10 10.7477 10 10.5C10 10.2523 10.2523 10 10.5 10ZM13 14V13H13.5C13.7477 13 14 13.2523 14 13.5C14 13.7477 13.7477 14 13.5 14H13Z" fill="currentColor"></path>
<path fill-rule="evenodd" clip-rule="evenodd" d="M5 2C4.44772 2 4 2.44772 4 3V19.1C4 19.3983 4.13315 19.681 4.36312 19.871L6.66312 21.771C7.02677 22.0714 7.55088 22.0768 7.9207 21.784L9.68662 20.386L11.3631 21.771C11.7328 22.0763 12.2672 22.0763 12.6369 21.771L14.3134 20.386L16.0793 21.784C16.4491 22.0768 16.9732 22.0714 17.3369 21.771L19.6369 19.871C19.8668 19.681 20 19.3983 20 19.1V7C20 6.73478 19.8946 6.48043 19.7071 6.29289L15.7071 2.29289C15.5196 2.10536 15.2652 2 15 2H5ZM6 18.629V4H14.5858L18 7.41421V18.629L16.6866 19.714L14.9207 18.316C14.5509 18.0232 14.0268 18.0286 13.6631 18.329L12 19.7029L10.3369 18.329C9.97323 18.0286 9.44912 18.0232 9.0793 18.316L7.31338 19.714L6 18.629Z" fill="currentColor"></path>
</svg>