<svg width="1em" height="1em" viewBox="0 0 24 24" fill="none" xmlns="http://www.w3.org/2000/svg">
<path d="M8.97954 2.06142C8.72628 1.94659 8.43175 2.06773 8.3217 2.33201C8.21165 2.59629 8.32775 2.90362 8.58102 3.01845L10.0794 3.69787C8.90815 3.96979 7.79966 4.4896 6.83198 5.23185C5.34653 6.37125 4.27484 7.97226 3.78807 9.78914C3.3012 11.6064 3.428 13.5336 4.14786 15.2703C4.86753 17.0066 6.13822 18.4522 7.75832 19.3866C8 19.526 8.30421 19.4345 8.43779 19.1823C8.57138 18.9301 8.48374 18.6127 8.24206 18.4733C6.81011 17.6474 5.6951 16.3746 5.06569 14.8561C4.43645 13.338 4.32621 11.6561 4.75114 10.0701C5.17616 8.4837 6.11411 7.07756 7.42426 6.07261C8.4158 5.31206 9.57791 4.81417 10.8025 4.61714L9.32719 6.3426C9.14335 6.55761 9.16136 6.88742 9.36741 7.07925C9.57346 7.27108 9.88953 7.25229 10.0734 7.03728L12.3734 4.34728C12.3972 4.31947 12.4178 4.28938 12.4351 4.2576C12.4619 4.20842 12.4813 4.15425 12.4916 4.09675C12.5029 4.03421 12.5033 3.96934 12.492 3.90529C12.4813 3.84458 12.4606 3.78755 12.4317 3.73614C12.3932 3.66775 12.3402 3.60908 12.2764 3.56497C12.2494 3.54629 12.2206 3.53026 12.1903 3.51725L8.97954 2.06142Z" fill="currentColor"></path>
<path d="M15.562 4.80867C15.695 4.55614 15.999 4.46392 16.241 4.60269C17.8664 5.53469 19.1423 6.98059 19.8656 8.71904C20.5891 10.4579 20.7176 12.3888 20.2302 14.2094C19.7428 16.0297 18.6684 17.6333 17.1791 18.7733C16.2138 19.5121 15.1089 20.0298 13.9416 20.3013L15.4195 20.9714C15.6728 21.0863 15.7889 21.3936 15.6788 21.6579C15.5688 21.9221 15.2743 22.0433 15.021 21.9285L11.8906 20.5091C11.6667 20.4568 11.4997 20.2479 11.5002 19.9987L11.5003 19.995C11.4991 19.8664 11.5435 19.7404 11.6272 19.6426L13.9272 16.9526C14.111 16.7376 14.4271 16.7188 14.6331 16.9106C14.8392 17.1025 14.8572 17.4323 14.6733 17.6473L13.1854 19.3875C14.4184 19.1942 15.5892 18.6961 16.5876 17.9319C17.9012 16.9264 18.8415 15.518 19.267 13.9286C19.6925 12.3396 19.5808 10.6546 18.9483 9.1346C18.3157 7.61415 17.1961 6.34098 15.7594 5.51719C15.5174 5.37842 15.4291 5.0612 15.562 4.80867Z" fill="currentColor"></path>
</svg>