<svg width="1em" height="1em" viewBox="0 0 24 24" fill="none" xmlns="http://www.w3.org/2000/svg">
<path d="M21.9571 8.96556C22.072 8.7123 21.9508 8.41777 21.6865 8.30772C21.4223 8.19767 21.1149 8.31377 21.0001 8.56704L20.3207 10.0655C20.0488 8.89417 19.5289 7.78568 18.7867 6.81801C17.6473 5.33256 16.0463 4.26086 14.2294 3.77409C12.4122 3.28723 10.485 3.41403 8.74826 4.13388C7.01199 4.85355 5.56639 6.12424 4.63199 7.74434C4.4926 7.98602 4.58404 8.29023 4.83623 8.42382C5.08842 8.5574 5.40586 8.46977 5.54525 8.22808C6.37113 6.79613 7.64399 5.68112 9.1625 5.05171C10.6806 4.42248 12.3624 4.31223 13.9485 4.73716C15.5349 5.16219 16.941 6.10013 17.9459 7.41029C18.7065 8.40183 19.2044 9.56393 19.4014 10.7885L17.676 9.31321C17.4609 9.12937 17.1311 9.14738 16.9393 9.35343C16.7475 9.55948 16.7663 9.87555 16.9813 10.0594L19.6713 12.3594C19.6991 12.3832 19.7292 12.4038 19.761 12.4211C19.8101 12.4479 19.8643 12.4673 19.9218 12.4776C19.9843 12.4889 20.0492 12.4893 20.1133 12.478C20.174 12.4673 20.231 12.4466 20.2824 12.4177C20.3508 12.3793 20.4095 12.3262 20.4536 12.2624C20.4723 12.2355 20.4883 12.2067 20.5013 12.1764L21.9571 8.96556Z" fill="currentColor"></path>
<path d="M19.2099 15.5481C19.4624 15.6811 19.5546 15.9851 19.4159 16.2271C18.4839 17.8524 17.038 19.1283 15.2995 19.8516C13.5606 20.5751 11.6298 20.7036 9.80918 20.2162C7.98889 19.7288 6.38528 18.6544 5.2453 17.1651C4.50643 16.1998 3.98872 15.0949 3.71725 13.9276L3.04713 15.4055C2.93229 15.6588 2.62496 15.7749 2.36068 15.6649C2.0964 15.5548 1.97526 15.2603 2.09009 15.007L3.50946 11.8766C3.56172 11.6527 3.77061 11.4857 4.0199 11.4863L4.02359 11.4863C4.15216 11.4851 4.27813 11.5295 4.37595 11.6132L7.06595 13.9132C7.28097 14.097 7.29976 14.4131 7.10792 14.6191C6.91609 14.8252 6.58628 14.8432 6.37127 14.6594L4.63103 13.1714C4.82431 14.4044 5.32244 15.5752 6.08668 16.5736C7.09215 17.8872 8.5006 18.8275 10.0899 19.2531C11.679 19.6785 13.3639 19.5668 14.884 18.9344C16.4044 18.3018 17.6776 17.1821 18.5014 15.7455C18.6401 15.5035 18.9573 15.4151 19.2099 15.5481Z" fill="currentColor"></path>
</svg>