<svg width="1em" height="1em" viewBox="0 0 24 24" fill="none" xmlns="http://www.w3.org/2000/svg">
<path fill-rule="evenodd" clip-rule="evenodd" d="M10.4323 4.15367C11.9842 3.84498 13.5927 4.0034 15.0545 4.6089C16.5163 5.21439 17.7658 6.23978 18.6448 7.55537C19.0534 8.16686 19.3734 8.82827 19.5989 9.51997L19.8862 9.13594C20.2169 8.69367 20.8436 8.60328 21.2859 8.93406C21.7282 9.26483 21.8186 9.89151 21.4878 10.3338L19.8046 12.5843C19.7782 12.6209 19.7494 12.6557 19.7183 12.6884C19.6512 12.7592 19.5756 12.8184 19.4942 12.8655C19.3469 12.951 19.1757 12.9999 18.993 12.9999C18.9412 12.9999 18.8904 12.996 18.8407 12.9884C18.6707 12.9624 18.5148 12.8936 18.3843 12.7934L16.129 11.1067C15.6868 10.7759 15.5964 10.1492 15.9272 9.70694C16.2579 9.26467 16.8846 9.17428 17.3269 9.50506L17.5105 9.64235C17.3655 9.30301 17.1888 8.97622 16.9819 8.66651C16.3226 7.67981 15.3855 6.91078 14.2892 6.45666C13.1928 6.00253 11.9864 5.88372 10.8225 6.11524C9.65864 6.34676 8.58955 6.91821 7.75045 7.75733C7.35993 8.14786 6.72677 8.14787 6.33624 7.75735C5.94571 7.36683 5.9457 6.73367 6.33622 6.34314C7.45503 5.2243 8.88048 4.46236 10.4323 4.15367ZM4.15947 11.4466C4.33866 11.1774 4.64489 10.9999 4.99256 10.9999C4.9929 10.9999 4.99324 10.9999 4.99358 10.9999C5.20031 10.9997 5.40891 11.0633 5.58797 11.1956L7.86297 12.8756C8.30725 13.2037 8.40144 13.8298 8.07336 14.274C7.74528 14.7183 7.11916 14.8125 6.67489 14.4844L6.4624 14.3275C6.60974 14.6776 6.79068 15.0145 7.00371 15.3334C7.663 16.3201 8.60006 17.0891 9.69642 17.5432C10.7928 17.9973 11.9992 18.1162 13.1631 17.8846C14.3269 17.6531 15.396 17.0817 16.2351 16.2425C16.6256 15.852 17.2588 15.852 17.6493 16.2425C18.0399 16.633 18.0399 17.2662 17.6494 17.6567C16.5306 18.7756 15.1051 19.5375 13.5532 19.8462C12.0014 20.1549 10.3929 19.9965 8.93106 19.391C7.46924 18.7855 6.21982 17.7601 5.34077 16.4445C4.93557 15.8381 4.61745 15.1825 4.39224 14.497L4.11719 14.8693C3.78899 15.3135 3.16284 15.4075 2.71866 15.0793C2.27448 14.7511 2.18046 14.1249 2.50867 13.6807L4.15947 11.4466Z" fill="currentColor"></path>
</svg>