<svg width="1em" height="1em" viewBox="0 0 24 24" fill="none" xmlns="http://www.w3.org/2000/svg">
<path fill-rule="evenodd" clip-rule="evenodd" d="M4.15336 13.5676C3.84467 12.0158 4.00309 10.4072 4.60859 8.94542C5.21409 7.48361 6.23947 6.23417 7.55507 5.35513C8.16655 4.94655 8.82796 4.62652 9.51966 4.401L9.13563 4.11378C8.69336 3.783 8.60297 3.15632 8.93375 2.71405C9.26453 2.27177 9.89121 2.18139 10.3335 2.51217L12.584 4.19531C12.6206 4.22173 12.6554 4.25058 12.6881 4.2816C12.7589 4.34869 12.8181 4.42434 12.8652 4.50571C12.9507 4.65307 12.9996 4.82428 12.9996 5.00692C12.9996 5.0587 12.9957 5.10956 12.9881 5.15921C12.9621 5.32922 12.8933 5.48514 12.7931 5.61562L11.1064 7.8709C10.7756 8.31317 10.1489 8.40356 9.70663 8.07278C9.26436 7.742 9.17397 7.11532 9.50475 6.67305L9.64204 6.48948C9.30271 6.63447 8.97592 6.81113 8.6662 7.01807C7.67951 7.67735 6.91047 8.61442 6.45635 9.71078C6.00223 10.8071 5.88341 12.0135 6.11493 13.1774C6.34645 14.3413 6.91791 15.4104 7.75703 16.2495C8.14756 16.64 8.14757 17.2732 7.75705 17.6637C7.36653 18.0542 6.73336 18.0542 6.34283 17.6637C5.224 16.5449 4.46206 15.1195 4.15336 13.5676ZM11.4463 19.8405C11.1771 19.6613 10.9996 19.355 10.9996 19.0074C10.9996 19.007 10.9996 19.0067 10.9996 19.0064C10.9994 18.7996 11.063 18.591 11.1953 18.412L12.8753 16.137C13.2033 15.6927 13.8295 15.5985 14.2737 15.9266C14.718 16.2547 14.8122 16.8808 14.4841 17.3251L14.3272 17.5375C14.6773 17.3902 15.0142 17.2093 15.3331 16.9962C16.3198 16.3369 17.0888 15.3999 17.5429 14.3035C17.997 13.2072 18.1159 12.0008 17.8843 10.8369C17.6528 9.673 17.0814 8.60391 16.2422 7.76481C15.8517 7.37429 15.8517 6.74113 16.2422 6.3506C16.6327 5.96007 17.2659 5.96006 17.6564 6.35058C18.7753 7.46939 19.5372 8.89484 19.8459 10.4467C20.1546 11.9985 19.9962 13.6071 19.3907 15.0689C18.7852 16.5307 17.7598 17.7801 16.4442 18.6592C15.8378 19.0644 15.1822 19.3825 14.4967 19.6077L14.869 19.8827C15.3132 20.211 15.4072 20.8371 15.079 21.2813C14.7508 21.7255 14.1246 21.8195 13.6804 21.4913L11.4463 19.8405Z" fill="currentColor"></path>
</svg>