<svg width="1em" height="1em" viewBox="0 0 24 24" fill="none" xmlns="http://www.w3.org/2000/svg">
<path fill-rule="evenodd" clip-rule="evenodd" d="M3 4C3 3.44772 3.44772 3 4 3H20C20.5523 3 21 3.44772 21 4V17C21 17.5523 20.5523 18 20 18H12.3333L8.6 20.8C8.29698 21.0273 7.89157 21.0638 7.55279 20.8944C7.214 20.725 7 20.3788 7 20V18H4C3.44772 18 3 17.5523 3 17V4ZM5 5V16H8C8.55228 16 9 16.4477 9 17V18L11.4 16.2C11.5731 16.0702 11.7836 16 12 16H19V5H5ZM7 8C7 7.44772 7.44772 7 8 7H16C16.5523 7 17 7.44772 17 8C17 8.55228 16.5523 9 16 9H8C7.44772 9 7 8.55228 7 8ZM8 11C7.44772 11 7 11.4477 7 12C7 12.5523 7.44772 13 8 13H12C12.5523 13 13 12.5523 13 12C13 11.4477 12.5523 11 12 11H8Z" fill="currentColor"></path>
</svg>