<svg width="1em" height="1em" viewBox="0 0 24 24" fill="none" xmlns="http://www.w3.org/2000/svg">
<path fill-rule="evenodd" clip-rule="evenodd" d="M2 12C2 6.47732 6.47732 2 12 2C17.523 2 22 6.47732 22 12C22 17.5227 17.523 22 12 22C6.47732 22 2 17.523 2 12ZM12 5.62481L13.96 9.59627L18.342 10.2332L15.1708 13.3245L15.9196 17.6892L11.9997 15.6283L8.07973 17.6892L8.82852 13.3245L5.65737 10.2332L3.62729 8.03103L8.95893 9.75332L10.04 9.59627L10.1831 9.30671L3.3146 7.04632C3.41836 6.86473 3.52738 6.68594 3.64202 6.51172L10.4737 8.71848L10.8309 7.99422L4.15839 5.79833C4.30352 5.61464 4.45356 5.4348 4.61131 5.26198L11.1383 7.37093L11.4949 6.64843L5.27316 4.60083C5.59217 4.31057 5.93151 4.04274 6.28627 3.79525L12 5.62481Z" fill="currentColor"></path>
</svg>