<svg width="1em" height="1em" viewBox="0 0 24 24" fill="none" xmlns="http://www.w3.org/2000/svg">
<path fill-rule="evenodd" clip-rule="evenodd" d="M12 5.62481L6.28627 3.79525C6.09646 3.92767 5.91106 4.06591 5.73083 4.21029C5.57421 4.33576 5.42149 4.46587 5.27316 4.60083L11.4949 6.64843L11.1383 7.37093L4.61131 5.26198C4.58669 5.28896 4.56225 5.3161 4.53799 5.34341C4.40684 5.49104 4.28087 5.64331 4.15839 5.79833L10.8309 7.99422L10.4737 8.71848L3.64202 6.51172C3.52738 6.68594 3.41836 6.86473 3.3146 7.04632L10.1831 9.30671L10.04 9.59627L8.95893 9.75332L3.62729 8.03103L5.65737 10.2332L8.82852 13.3245L8.07973 17.6892L11.9997 15.6283L15.9196 17.6892L15.1708 13.3245L18.342 10.2332L13.96 9.59627L12 5.62481ZM15.2882 7.76832L18.6297 8.25403C18.8108 8.28037 18.9847 8.3309 19.1474 8.40253C18.0171 6.16116 15.8635 4.52408 13.3002 4.10513C13.5039 4.27937 13.6725 4.49449 13.7935 4.7397L15.2882 7.76832ZM19.9767 11.3855C19.9067 11.4848 19.827 11.5786 19.738 11.6654L17.3198 14.0226L17.8908 17.3511C17.8938 17.3686 17.8966 17.3862 17.8991 17.4038C19.2038 15.9803 20 14.0831 20 12C20 11.7932 19.9922 11.5883 19.9767 11.3855ZM14.9495 19.4387L11.9997 17.8879L9.05018 19.4386C9.96296 19.8009 10.9582 20 12 20C13.0416 20 14.0368 19.8009 14.9495 19.4387ZM6.10029 17.4032C6.1028 17.3858 6.10555 17.3684 6.10853 17.3511L6.67953 14.0226L4.26133 11.6654C4.23583 11.6405 4.211 11.615 4.18686 11.5888L4.02147 11.4094C4.00724 11.6044 4 11.8014 4 12C4 14.0829 4.79597 15.9798 6.10029 17.4032ZM2.30342 9.54569C2.10527 10.331 2 11.1532 2 12C2 17.523 6.47732 22 12 22C17.523 22 22 17.5227 22 12C22 6.47732 17.523 2 12 2C10.8938 2 9.8296 2.17962 8.83488 2.51129C8.3056 2.68777 7.796 2.9073 7.31024 3.16572C6.98789 3.3372 6.67604 3.52581 6.3759 3.73033C6.34634 3.75047 6.3169 3.77077 6.28756 3.79122C6.28665 3.79186 6.28573 3.7925 6.28481 3.79314C6.09478 3.92572 5.90958 4.06473 5.72951 4.20986C5.57349 4.33561 5.42127 4.4661 5.27316 4.60083C5.27313 4.60086 5.2732 4.6008 5.27316 4.60083C5.18319 4.68267 5.09466 4.76608 5.00773 4.85112C4.87183 4.98406 4.73949 5.12152 4.61131 5.26198C4.61116 5.26214 4.61145 5.26182 4.61131 5.26198C4.58669 5.28896 4.56225 5.3161 4.53799 5.34341C4.40818 5.48883 4.28212 5.63792 4.16087 5.79079C4.15933 5.79273 4.15778 5.79468 4.15624 5.79663C4.08811 5.88266 4.02137 5.96983 3.95605 6.05812C3.94893 6.06773 3.94183 6.07736 3.93475 6.087C3.8346 6.22338 3.73782 6.36238 3.64454 6.5039C3.64309 6.5061 3.64164 6.50831 3.64019 6.51051C3.52801 6.681 3.4209 6.85512 3.31909 7.03266C3.31675 7.03673 3.31442 7.04081 3.31209 7.04489C3.23027 7.18802 3.15189 7.33338 3.07706 7.48084C2.85088 7.92651 2.65712 8.3914 2.49886 8.87241C2.46841 8.96496 2.43928 9.0581 2.41148 9.15182C2.37286 9.28202 2.33682 9.41333 2.30342 9.54569Z" fill="currentColor"></path>
</svg>