<svg width="1em" height="1em" viewBox="0 0 24 24" fill="none" xmlns="http://www.w3.org/2000/svg">
<path d="M12.3275 5.12216C12.1188 4.94131 11.803 4.96386 11.6222 5.17254C11.4413 5.38122 11.4639 5.697 11.6725 5.87785L18.1596 11.5H4.5C4.22386 11.5 4 11.7239 4 12C4 12.2761 4.22386 12.5 4.5 12.5H18.1597L11.6725 18.1222C11.4639 18.303 11.4413 18.6188 11.6222 18.8275C11.803 19.0362 12.1188 19.0587 12.3275 18.8779L19.8275 12.3779C19.8492 12.359 19.8691 12.3385 19.8871 12.3165C19.9539 12.2348 19.9935 12.1335 19.9993 12.0271C19.9998 12.0181 20 12.0091 20 12C20 11.8696 19.9501 11.7508 19.8682 11.6618C19.8547 11.647 19.8403 11.6331 19.825 11.6201L12.3275 5.12216Z" fill="currentColor"></path>
</svg>