<svg width="1em" height="1em" viewBox="0 0 24 24" fill="none" xmlns="http://www.w3.org/2000/svg">
<path fill-rule="evenodd" clip-rule="evenodd" d="M20.7071 3.29292C20.9287 3.51448 21.0245 3.81413 20.9947 4.10327C20.9872 4.17604 20.9717 4.24815 20.9483 4.31818L15.9545 20.2983C15.8271 20.706 15.4549 20.9877 15.0279 20.9996C14.601 21.0116 14.2136 20.751 14.0637 20.3512L11.2233 12.7768L3.64888 9.93636C3.24898 9.78639 2.98846 9.39901 3.00039 8.97209C3.01233 8.54516 3.29408 8.17294 3.70173 8.04555L19.6815 3.05187C19.755 3.02725 19.8307 3.0114 19.9071 3.00432C19.9607 2.99932 20.0143 2.99869 20.0674 3.00229C20.3004 3.01794 20.529 3.11482 20.7071 3.29292ZM16.419 6.16677L7.07737 9.08604L11.7482 10.8376L16.419 6.16677ZM13.1624 12.2518L17.8333 7.58097L14.914 16.9227L13.1624 12.2518Z" fill="currentColor"></path>
</svg>