<svg width="1em" height="1em" viewBox="0 0 24 24" fill="none" xmlns="http://www.w3.org/2000/svg">
<path fill-rule="evenodd" clip-rule="evenodd" d="M12 8C9.79089 8 8.00003 9.79086 8.00003 12C8.00003 14.2091 9.79089 16 12 16C14.2092 16 16 14.2091 16 12C16 9.79086 14.2092 8 12 8ZM10 12C10 10.8954 10.8955 10 12 10C13.1046 10 14 10.8954 14 12C14 13.1046 13.1046 14 12 14C10.8955 14 10 13.1046 10 12Z" fill="currentColor"></path>
<path fill-rule="evenodd" clip-rule="evenodd" d="M14.227 2.25613C12.762 1.91462 11.238 1.91462 9.773 2.25613C9.32031 2.36165 9.00002 2.76519 9.00002 3.23002V4.58022C8.95847 4.59699 8.91706 4.61412 8.87581 4.6316L7.92712 3.68291C7.59792 3.35371 7.08508 3.29524 6.69023 3.54189C5.41512 4.3384 4.3384 5.41512 3.54189 6.69023C3.29524 7.08508 3.35371 7.59792 3.68291 7.92712L4.6316 8.87581C4.61412 8.91706 4.59699 8.95847 4.58022 9.00002H3.23002C2.76519 9.00002 2.36165 9.32031 2.25613 9.773C1.91462 11.238 1.91462 12.762 2.25613 14.227C2.36165 14.6797 2.76519 15 3.23002 15H4.58022C4.59699 15.0416 4.61412 15.083 4.6316 15.1242L3.68291 16.0729C3.35371 16.4021 3.29524 16.915 3.54189 17.3098C4.3384 18.5849 5.41512 19.6616 6.69023 20.4581C7.08508 20.7048 7.59792 20.6463 7.92712 20.3171L8.87581 19.3684C8.91706 19.3859 8.95847 19.403 9.00002 19.4198V20.77C9.00002 21.2348 9.32031 21.6384 9.773 21.7439C11.238 22.0854 12.762 22.0854 14.227 21.7439C14.6797 21.6384 15 21.2348 15 20.77V19.4198C15.0416 19.403 15.083 19.3859 15.1242 19.3684L16.0729 20.3171C16.4021 20.6463 16.915 20.7048 17.3098 20.4581C18.5849 19.6616 19.6616 18.5849 20.4581 17.3098C20.7048 16.915 20.6463 16.4021 20.3171 16.0729L19.3684 15.1242C19.3859 15.083 19.403 15.0416 19.4198 15H20.77C21.2348 15 21.6384 14.6797 21.7439 14.227C22.0854 12.762 22.0854 11.238 21.7439 9.773C21.6384 9.32031 21.2348 9.00002 20.77 9.00002H19.4198C19.403 8.95847 19.3859 8.91706 19.3684 8.87581L20.3171 7.92712C20.6463 7.59792 20.7048 7.08508 20.4581 6.69023C19.6616 5.41512 18.5849 4.3384 17.3098 3.54189C16.915 3.29524 16.4021 3.35371 16.0729 3.68291L15.1242 4.6316C15.083 4.61412 15.0416 4.59699 15 4.58022V3.23002C15 2.76519 14.6797 2.36165 14.227 2.25613ZM11 5.29002V4.06428C11.6639 3.97857 12.3361 3.97857 13 4.06428V5.29002C13 5.73378 13.2925 6.12447 13.7183 6.2495C14.1117 6.36504 14.4917 6.52218 14.8518 6.71826C15.2412 6.93027 15.7236 6.86061 16.0371 6.54712L16.8963 5.688C17.4264 6.09788 17.9022 6.57366 18.312 7.10378L17.4529 7.96291C17.1394 8.2764 17.0698 8.75887 17.2818 9.14823C17.4779 9.50835 17.635 9.88834 17.7505 10.2818C17.8756 10.7076 18.2662 11 18.71 11H19.9358C20.0215 11.6639 20.0215 12.3361 19.9358 13H18.71C18.2662 13 17.8756 13.2925 17.7505 13.7183C17.635 14.1117 17.4779 14.4917 17.2818 14.8518C17.0698 15.2412 17.1394 15.7236 17.4529 16.0371L18.312 16.8963C17.9022 17.4264 17.4264 17.9022 16.8963 18.312L16.0371 17.4529C15.7236 17.1394 15.2412 17.0698 14.8518 17.2818C14.4917 17.4779 14.1117 17.635 13.7183 17.7505C13.2925 17.8756 13 18.2662 13 18.71V19.9358C12.3361 20.0215 11.6639 20.0215 11 19.9358V18.71C11 18.2662 10.7076 17.8756 10.2818 17.7505C9.88834 17.635 9.50835 17.4779 9.14823 17.2818C8.75887 17.0698 8.2764 17.1394 7.96291 17.4529L7.10378 18.312C6.57366 17.9022 6.09788 17.4264 5.688 16.8963L6.54712 16.0371C6.86061 15.7236 6.93027 15.2412 6.71826 14.8518C6.52218 14.4917 6.36504 14.1117 6.2495 13.7183C6.12447 13.2925 5.73378 13 5.29002 13H4.06428C3.97857 12.3361 3.97857 11.6639 4.06428 11H5.29002C5.73378 11 6.12447 10.7076 6.2495 10.2818C6.36504 9.88834 6.52218 9.50835 6.71826 9.14823C6.93027 8.75887 6.86061 8.2764 6.54712 7.96291L5.688 7.10378C6.09788 6.57366 6.57366 6.09788 7.10378 5.688L7.96291 6.54712C8.2764 6.86061 8.75887 6.93027 9.14823 6.71826C9.50835 6.52218 9.88834 6.36504 10.2818 6.2495C10.7076 6.12447 11 5.73378 11 5.29002Z" fill="currentColor"></path>
</svg>