<svg width="1em" height="1em" viewBox="0 0 24 24" fill="none" xmlns="http://www.w3.org/2000/svg">
<path fill-rule="evenodd" clip-rule="evenodd" d="M14 6C14 3.8 15.8 2 18 2C20.2 2 22 3.8 22 6C22 8.2 20.2 10 18 10C16.7974 10 15.7144 9.46217 14.9795 8.61516C14.9381 8.6445 14.894 8.67106 14.8472 8.69445L10.0472 11.0944C10.0018 11.1171 9.95558 11.136 9.90877 11.1513C9.96851 11.425 10 11.709 10 12C10 12.291 9.96851 12.575 9.90876 12.8487C9.95558 12.864 10.0018 12.8829 10.0472 12.9056L14.8472 15.3056C14.894 15.329 14.9381 15.3555 14.9795 15.3849C15.7144 14.5378 16.7974 14 18 14C20.2 14 22 15.8 22 18C22 20.2 20.2 22 18 22C15.8 22 14 20.2 14 18C14 17.709 14.0315 17.425 14.0912 17.1513C14.0444 17.136 13.9982 17.1171 13.9528 17.0945L9.15279 14.6945C9.10601 14.6711 9.06187 14.6445 9.02049 14.6152C8.28562 15.4622 7.20257 16 6 16C3.8 16 2 14.2 2 12C2 9.8 3.8 8 6 8C7.20258 8 8.28564 8.53784 9.02052 9.38487C9.06189 9.35553 9.10602 9.32898 9.15279 9.3056L13.9528 6.9056C13.9982 6.88291 14.0444 6.86401 14.0912 6.84875C14.0315 6.57499 14 6.29099 14 6ZM20 6C20 4.9 19.1 4 18 4C16.9 4 16 4.9 16 6C16 7.1 16.9 8 18 8C19.1 8 20 7.1 20 6ZM18 16C19.1 16 20 16.9 20 18C20 19.1 19.1 20 18 20C16.9 20 16 19.1 16 18C16 16.9 16.9 16 18 16ZM8 12C8 10.9 7.1 10 6 10C4.9 10 4 10.9 4 12C4 13.1 4.9 14 6 14C7.1 14 8 13.1 8 12Z" fill="currentColor"></path>
</svg>