<svg width="1em" height="1em" viewBox="0 0 24 24" fill="none" xmlns="http://www.w3.org/2000/svg">
<path d="M16.4 7.9C16.3 8 16.1 8 16 8C15.9 8 15.7 8 15.6 7.9L12.5 4.8V14.6C12.5 14.9 12.3 15.1 12 15.1C11.7 15.1 11.5 14.9 11.5 14.6V4.7L8.4 7.8C8.2 8 7.9 8 7.7 7.8C7.5 7.6 7.5 7.3 7.7 7.1L11.7 3.1C11.7 3.1 11.8 3 11.9 3C11.9 3 12.1 3 12.2 3C12.3 3 12.3 3.1 12.4 3.1L16.4 7.1C16.5 7.3 16.5 7.7 16.4 7.9ZM21 20.5V11C21 10.7 20.8 10.5 20.5 10.5C20.2 10.5 20 10.7 20 11V20H4V11C4 10.7 3.8 10.5 3.5 10.5C3.2 10.5 3 10.7 3 11V20.5C3 20.8 3.2 21 3.5 21H20.5C20.8 21 21 20.8 21 20.5Z" fill="currentColor"></path>
</svg>