<svg width="1em" height="1em" viewBox="0 0 24 24" fill="none" xmlns="http://www.w3.org/2000/svg">
<path d="M16.7 8.675C16.5 8.875 16.3 8.975 16 8.975C15.7 8.975 15.5 8.875 15.3 8.675L13 6.375V13.975C13 14.575 12.6 14.975 12 14.975C11.4 14.975 11 14.575 11 13.975V6.375L8.7 8.675C8.3 9.075 7.7 9.075 7.3 8.675C6.9 8.275 6.9 7.675 7.3 7.275L11.3 3.275C11.4 3.175 11.5 3.075 11.6 3.075C11.9 2.975 12.1 2.975 12.4 3.075C12.5 3.175 12.6 3.175 12.7 3.275L16.7 7.275C17.1 7.675 17.1 8.275 16.7 8.675ZM21 19.975V10.975C21 10.375 20.6 9.975 20 9.975C19.4 9.975 19 10.375 19 10.975V18.975H5V10.975C5 10.375 4.6 9.975 4 9.975C3.4 9.975 3 10.375 3 10.975V19.975C3 20.575 3.4 20.975 4 20.975H20C20.6 20.975 21 20.575 21 19.975Z" fill="currentColor"></path>
</svg>