<svg width="1em" height="1em" viewBox="0 0 24 24" fill="none" xmlns="http://www.w3.org/2000/svg">
<path fill-rule="evenodd" clip-rule="evenodd" d="M12.2929 4.29289C12.6834 3.90237 13.3166 3.90237 13.7071 4.29289L17.7071 8.29289C18.0976 8.68342 18.0976 9.31658 17.7071 9.70711L8.70711 18.7071C8.51957 18.8946 8.26522 19 8 19H4C3.44772 19 3 18.5523 3 18V14C3 13.7348 3.10536 13.4804 3.29289 13.2929L12.2929 4.29289ZM5 14.4142V17H7.58579L15.5858 9L13 6.41421L5 14.4142ZM11 19C11 18.4477 11.4477 18 12 18H20C20.5523 18 21 18.4477 21 19C21 19.5523 20.5523 20 20 20H12C11.4477 20 11 19.5523 11 19ZM16 15C15.4477 15 15 15.4477 15 16C15 16.5523 15.4477 17 16 17H20C20.5523 17 21 16.5523 21 16C21 15.4477 20.5523 15 20 15H16Z" fill="currentColor"></path>
</svg>