<svg width="1em" height="1em" viewBox="0 0 24 24" fill="none" xmlns="http://www.w3.org/2000/svg">
<path fill-rule="evenodd" clip-rule="evenodd" d="M12.4719 4.11833C12.797 4.29235 13 4.63121 13 5V19C13 19.3688 12.797 19.7077 12.4719 19.8817C12.1467 20.0557 11.7522 20.0366 11.4453 19.8321L5.69722 16H3C2.44772 16 2 15.5523 2 15V9C2 8.44772 2.44772 8 3 8H5.69722L11.4453 4.16795C11.7522 3.96338 12.1467 3.94431 12.4719 4.11833ZM11 6.86852L6.5547 9.83205C6.39043 9.94156 6.19742 10 6 10H4V14H6C6.19742 14 6.39043 14.0584 6.5547 14.168L11 17.1315V6.86852Z" fill="currentColor"></path>
<path fill-rule="evenodd" clip-rule="evenodd" d="M17.7147 4.87178C18.1168 4.49326 18.7497 4.51244 19.1282 4.91461C20.8838 6.77991 22 9.2188 22 12C22 14.7812 20.8838 17.22 19.1282 19.0853C18.7497 19.4875 18.1168 19.5067 17.7147 19.1282C17.3125 18.7497 17.2933 18.1168 17.6718 17.7146C19.1163 16.1799 20 14.2188 20 12C20 9.78116 19.1163 7.82004 17.6718 6.28534C17.2933 5.88317 17.3125 5.2503 17.7147 4.87178Z" fill="currentColor"></path>
<path fill-rule="evenodd" clip-rule="evenodd" d="M14.7929 7.79289C15.1834 7.40237 15.8166 7.40237 16.2071 7.79289C17.2657 8.85144 18 10.2964 18 12C18 13.593 17.2741 15.1402 16.2071 16.2071C15.8166 16.5976 15.1834 16.5976 14.7929 16.2071C14.4024 15.8166 14.4024 15.1834 14.7929 14.7929C15.5259 14.0598 16 13.007 16 12C16 10.9036 15.5343 9.94856 14.7929 9.20711C14.4024 8.81658 14.4024 8.18342 14.7929 7.79289Z" fill="currentColor"></path>
</svg>