<svg width="1em" height="1em" viewBox="0 0 24 24" fill="none" xmlns="http://www.w3.org/2000/svg">
<path fill-rule="evenodd" clip-rule="evenodd" d="M17.7464 5.74642C17.9417 5.55116 18.2583 5.55116 18.4535 5.74642C20.048 7.34094 21 9.56843 21 12C21 14.4315 20.048 16.659 18.4535 18.2535C18.2583 18.4488 17.9417 18.4488 17.7464 18.2535C17.5512 18.0583 17.5512 17.7417 17.7464 17.5464C19.1519 16.1409 20 14.1684 20 12C20 9.83153 19.1519 7.85902 17.7464 6.45353C17.5512 6.25827 17.5512 5.94168 17.7464 5.74642Z" fill="currentColor"></path>
<path fill-rule="evenodd" clip-rule="evenodd" d="M12.7236 4.05279C12.893 4.13749 13 4.31062 13 4.5V19.5C13 19.6894 12.893 19.8625 12.7236 19.9472C12.5542 20.0319 12.3515 20.0136 12.2 19.9L6.33333 15.5H3.5C3.22386 15.5 3 15.2761 3 15V9C3 8.72386 3.22386 8.5 3.5 8.5H6.33333L12.2 4.1C12.3515 3.98637 12.5542 3.96809 12.7236 4.05279ZM12 5.5L6.8 9.4C6.71345 9.46491 6.60819 9.5 6.5 9.5H4V14.5H6.5C6.60819 14.5 6.71345 14.5351 6.8 14.6L12 18.5V5.5Z" fill="currentColor"></path>
<path fill-rule="evenodd" clip-rule="evenodd" d="M14.9465 8.64645C15.1418 8.45118 15.4583 8.45118 15.6536 8.64645C16.5535 9.54634 17.0001 10.6763 17.0001 12C17.0001 13.3496 16.4351 14.4621 15.6763 15.3293C15.4945 15.5371 15.1786 15.5581 14.9708 15.3763C14.763 15.1944 14.7419 14.8786 14.9238 14.6707C15.565 13.9379 16.0001 13.0504 16.0001 12C16.0001 10.9237 15.6466 10.0537 14.9465 9.35355C14.7512 9.15829 14.7512 8.84171 14.9465 8.64645Z" fill="currentColor"></path>
</svg>