<svg width="1em" height="1em" viewBox="0 0 24 24" fill="none" xmlns="http://www.w3.org/2000/svg">
<path d="M11.1045 3.55504C11.4722 2.81499 12.528 2.81499 12.8957 3.55504L15.0134 7.81743C15.159 8.1105 15.4388 8.31377 15.7625 8.36169L20.4708 9.05868C21.2882 9.17969 21.6144 10.1837 21.0242 10.7621L17.6249 14.0934C17.3912 14.3224 17.2843 14.6514 17.3388 14.974L18.1308 19.6672C18.2683 20.482 17.4142 21.1026 16.6818 20.72L12.4631 18.5164C12.173 18.3649 11.8272 18.3649 11.5371 18.5164L7.31843 20.72C6.58596 21.1026 5.73188 20.482 5.8694 19.6672L6.66144 14.974C6.7159 14.6514 6.60903 14.3224 6.37531 14.0934L2.97596 10.7621C2.38575 10.1837 2.71199 9.17969 3.52945 9.05868L8.23765 8.36169C8.56137 8.31377 8.84115 8.1105 8.98676 7.81743L11.1045 3.55504Z" fill="currentColor"></path>
</svg>