<svg width="1em" height="1em" viewBox="0 0 24 24" fill="none" xmlns="http://www.w3.org/2000/svg">
<path fill-rule="evenodd" clip-rule="evenodd" d="M11.8999 4.34543L9.99438 8.24724C9.79989 8.63621 9.34412 9.16009 8.58728 9.19784L4.16446 9.84283L7.3967 12.9827L7.40702 12.9929C7.90573 13.4916 7.90196 14.0712 7.90012 14.3547C7.90001 14.3708 7.89991 14.3859 7.89991 14.4C7.89991 14.4551 7.89536 14.5101 7.88631 14.5644L7.15738 18.9379L11.0196 16.8229C11.072 16.7942 11.127 16.7702 11.1837 16.7513C11.4008 16.6789 11.7077 16.6086 12.0228 16.6436C12.1803 16.6611 12.4392 16.7158 12.6775 16.9087C12.7294 16.9507 12.7765 16.9962 12.8189 17.0446L16.5446 18.9507L15.824 14.6273C15.7412 14.3308 15.733 14.0134 15.8387 13.6963C15.9464 13.3733 16.1426 13.1431 16.2928 12.9929L16.3031 12.9827L19.5484 9.83015L15.2125 9.19784C14.4557 9.16009 14 8.63619 13.8055 8.24722L13.8013 8.23886L11.8999 4.34543ZM10.3055 3.05279C10.974 1.71574 12.8258 1.71574 13.4943 3.05279L13.4985 3.06115L15.5311 7.22313L20.2413 7.91005C20.2418 7.91012 20.2423 7.91019 20.2428 7.91026C20.9895 8.0175 21.5355 8.53006 21.7147 9.18689C21.8882 9.82325 21.6995 10.5147 21.207 11.0071L21.1967 11.0173L17.7999 14.317L18.5863 19.0356L18.5899 19.0586C18.6934 19.7833 18.3807 20.459 17.8271 20.8378C17.2754 21.2153 16.5355 21.26 15.9022 20.8686L11.7112 18.7244L7.78023 20.8771C7.7693 20.8831 7.75827 20.8889 7.74713 20.8944C7.08679 21.2246 6.37569 21.1069 5.87273 20.7628C5.37614 20.423 4.98804 19.7885 5.11352 19.0356L5.89973 14.3184C5.89972 14.3178 5.89972 14.3173 5.89971 14.3168L2.50313 11.0173C2.47319 10.9882 2.44511 10.9573 2.41904 10.9247C2.00601 10.4084 1.89765 9.73401 2.08449 9.1468C2.2807 8.53014 2.80403 8.01844 3.55691 7.91028C3.55744 7.9102 3.55796 7.91013 3.55849 7.91005L8.26876 7.22314L10.3055 3.05279Z" fill="currentColor"></path>
</svg>