<svg width="1em" height="1em" viewBox="0 0 24 24" fill="none" xmlns="http://www.w3.org/2000/svg">
<path fill-rule="evenodd" clip-rule="evenodd" d="M11.6464 2.14645C11.8417 1.95118 12.1583 1.95118 12.3536 2.14645L15.2071 5H18.5C18.7761 5 19 5.22386 19 5.5V8.79289L21.8536 11.6464C22.0488 11.8417 22.0488 12.1583 21.8536 12.3536L19 15.2071V18.5C19 18.7761 18.7761 19 18.5 19H15.2071L12.3536 21.8536C12.1583 22.0488 11.8417 22.0488 11.6464 21.8536L8.79289 19H5.5C5.22386 19 5 18.7761 5 18.5V15.2071L2.14645 12.3536C1.95118 12.1583 1.95118 11.8417 2.14645 11.6464L5 8.79289V5.5C5 5.22386 5.22386 5 5.5 5H8.79289L11.6464 2.14645ZM12 3.20711L9.35355 5.85355C9.25978 5.94732 9.13261 6 9 6H6V9C6 9.13261 5.94732 9.25978 5.85355 9.35355L3.20711 12L5.85355 14.6464C5.94732 14.7402 6 14.8674 6 15V18H9C9.13261 18 9.25978 18.0527 9.35355 18.1464L12 20.7929L14.6464 18.1464C14.7402 18.0527 14.8674 18 15 18H18V15C18 14.8674 18.0527 14.7402 18.1464 14.6464L20.7929 12L18.1464 9.35355C18.0527 9.25978 18 9.13261 18 9V6H15C14.8674 6 14.7402 5.94732 14.6464 5.85355L12 3.20711ZM12.4989 10.4706C12.4989 10.4706 12.0073 9.00096 14.2418 9.00096C14.3121 9.00096 15.6086 8.17337 16.1152 7.84233C16.127 7.83055 16.1461 7.83055 16.1578 7.84233C16.1696 7.8541 16.1696 7.87319 16.1578 7.88496C15.7942 8.24108 14.9315 9.07369 14.4525 9.44486C14.4107 9.47231 14.268 9.8419 14.0908 10.3006C13.9282 10.7219 13.7365 11.2183 13.5672 11.5941C13.2663 12.2587 12.7973 12.6499 11.5785 13.3145C11.1224 13.5636 10.7491 14.1867 10.3768 14.8082C10.0632 15.3317 9.75024 15.854 9.3891 16.1509C9.3792 16.159 9.36506 16.1592 9.35491 16.1514C9.34476 16.1437 9.34127 16.13 9.34647 16.1183L11.102 12.1609C10.9189 12.1383 10.4324 11.7044 9.88566 11.1577C9.87563 11.1502 9.88566 11.1377 9.8982 11.1377L12.3484 11.9402L12.1804 11.6593C12.1682 11.6364 12.1475 11.6193 12.1227 11.6117L9.48941 10.749C9.47419 10.744 9.46041 10.7354 9.44929 10.7239L9.1985 10.448L12.0023 11.3533L11.8518 11.0574C11.8419 11.0418 11.8268 11.0303 11.8092 11.0248L8.88753 10.0668C8.85769 10.0571 8.8309 10.0398 8.80978 10.0167L8.58156 9.76586L11.6587 10.769L11.4857 10.4781C11.4766 10.4612 11.4613 10.4486 11.443 10.443L8.28313 9.40975L8.23046 9.38968C8.21075 9.38432 8.19321 9.37292 8.18031 9.35708C8.00225 9.16147 7.8919 9.03607 7.83673 8.97087C7.83246 8.96503 7.83221 8.95718 7.83609 8.95108C7.83997 8.94498 7.84719 8.94189 7.85428 8.94328C7.98486 8.9862 8.30475 9.09179 8.71934 9.22864C10.0246 9.65948 12.2686 10.4002 12.4989 10.4706Z" fill="currentColor"></path>
</svg>