<svg width="1em" height="1em" viewBox="0 0 24 24" fill="none" xmlns="http://www.w3.org/2000/svg">
<path fill-rule="evenodd" clip-rule="evenodd" d="M11.2929 2.29289C11.6834 1.90237 12.3166 1.90237 12.7071 2.29289L15.4142 5H18C18.5523 5 19 5.44772 19 6V8.58579L21.7071 11.2929C22.0976 11.6834 22.0976 12.3166 21.7071 12.7071L19 15.4142V18C19 18.5523 18.5523 19 18 19H15.4142L12.7071 21.7071C12.3166 22.0976 11.6834 22.0976 11.2929 21.7071L8.58579 19H6C5.44772 19 5 18.5523 5 18V15.4142L2.29289 12.7071C1.90237 12.3166 1.90237 11.6834 2.29289 11.2929L5 8.58579V6C5 5.44772 5.44772 5 6 5H8.58579L11.2929 2.29289ZM12 4.41421L9.70711 6.70711C9.51957 6.89464 9.26522 7 9 7H7V9C7 9.26522 6.89464 9.51957 6.70711 9.70711L4.41421 12L6.70711 14.2929C6.89464 14.4804 7 14.7348 7 15V17H9C9.26522 17 9.51957 17.1054 9.70711 17.2929L12 19.5858L14.2929 17.2929C14.4804 17.1054 14.7348 17 15 17H17V15C17 14.7348 17.1054 14.4804 17.2929 14.2929L19.5858 12L17.2929 9.70711C17.1054 9.51957 17 9.26522 17 9V7H15C14.7348 7 14.4804 6.89464 14.2929 6.70711L12 4.41421Z" fill="currentColor"></path>
<path fill-rule="evenodd" clip-rule="evenodd" d="M8.33512 8.83023L8 8.29004H12.6023L12.9373 8.83023H8.33512ZM8.89204 9.81274H10.9447C11.3719 9.81274 11.3791 10.13 11.3245 10.3226C11.3218 10.3319 11.3196 10.3407 11.3178 10.349L10.6548 12.6856C10.6257 12.7855 10.5914 12.8583 10.552 12.904C10.5065 12.9544 10.4526 12.9966 10.3928 13.0287C10.3471 13.0579 10.3128 13.0808 10.2899 13.0973C10.2642 13.1182 10.2457 13.1465 10.2368 13.1784C10.2252 13.2039 10.2188 13.2315 10.2181 13.2595C10.2181 13.2839 10.2248 13.3079 10.2374 13.3288C10.2501 13.3497 10.2682 13.3668 10.2899 13.378C10.3377 13.4071 10.4053 13.4217 10.4926 13.4217L12.1895 13.428C12.7842 13.4321 13.2718 13.3698 13.6523 13.2408C14.0329 13.1118 14.3396 12.9059 14.5725 12.6232C14.8054 12.3405 14.9905 11.9579 15.1278 11.4754C15.211 11.1759 15.2526 10.9118 15.2526 10.6831C15.2525 10.2215 15.0944 9.87115 14.7784 9.63196C14.4624 9.39278 13.9924 9.27321 13.3686 9.27325H12.011L12.0113 9.27255H8.55688L8.89204 9.81274ZM13.5558 9.95942C13.6473 10.0427 13.693 10.1945 13.693 10.4148C13.6929 10.6395 13.6388 10.9473 13.5308 11.3381C13.4102 11.7582 13.2938 12.0774 13.1815 12.2957C13.0693 12.5141 12.9476 12.6638 12.8165 12.7449C12.6854 12.8259 12.5243 12.8665 12.3331 12.8665H12.1833L13.0255 9.8347H13.1628C13.3333 9.8346 13.4643 9.87617 13.5558 9.95942ZM12.4463 14.429C12.4463 14.429 11.886 13.8412 10.9114 14.1427C10.4866 14.2741 10.2542 14.5004 10.041 14.7078L10.041 14.7078C9.86412 14.88 9.70055 15.0392 9.45137 15.1204C9.46297 15.0892 9.46931 15.0554 9.46931 15.0201C9.46931 14.8608 9.34019 14.7317 9.18091 14.7317C9.02163 14.7317 8.89251 14.8608 8.89251 15.0201C8.89251 15.0759 8.90839 15.1281 8.93588 15.1722L8.93563 15.1722C8.93563 15.1722 9.30911 15.9965 11.0152 15.5857C12.3028 15.2756 12.4463 14.429 12.4463 14.429ZM13.9815 14.1427C13.0069 13.8412 12.4466 14.429 12.4466 14.429C12.4466 14.429 12.5902 15.2756 13.8777 15.5857C15.5838 15.9965 15.9573 15.1722 15.9573 15.1722L15.9566 15.1723C15.9841 15.1281 16 15.0759 16 15.0201C16 14.8608 15.8709 14.7317 15.7116 14.7317C15.5523 14.7317 15.4232 14.8608 15.4232 15.0201C15.4232 15.0553 15.4295 15.0891 15.4411 15.1203C15.1922 15.039 15.0287 14.8799 14.8519 14.7078C14.6388 14.5004 14.4063 14.2741 13.9815 14.1427Z" fill="currentColor"></path>
</svg>