<svg width="1em" height="1em" viewBox="0 0 24 24" fill="none" xmlns="http://www.w3.org/2000/svg">
<path fill-rule="evenodd" clip-rule="evenodd" d="M12 1.97827C6.49742 1.97827 2 6.44445 2 12C2 17.5556 6.49742 22.0218 12 22.0218C17.5026 22.0218 22 17.5556 22 12C22 6.44445 17.5026 1.97827 12 1.97827ZM3 12C3 7.06216 7.00917 3.02175 12 3.02175C14.3028 3.02175 16.3965 3.8819 17.9839 5.29348L5.292 17.9854C3.86516 16.394 3 14.2938 3 12ZM6.01612 18.7066C7.60352 20.1181 9.69727 20.9783 12 20.9783C16.9908 20.9783 21 16.9379 21 12C21 9.70621 20.1349 7.60607 18.708 6.01465L6.01612 18.7066Z" fill="currentColor"></path>
</svg>