<svg width="1em" height="1em" viewBox="0 0 24 24" fill="none" xmlns="http://www.w3.org/2000/svg">
<path fill-rule="evenodd" clip-rule="evenodd" d="M5 3.5C5 3.22386 5.22386 3 5.5 3H18.5C18.7761 3 19 3.22386 19 3.5V9.5C19 9.77614 18.7761 10 18.5 10C18.2239 10 18 9.77614 18 9.5V4H6V20H12C12.2761 20 12.5 20.2239 12.5 20.5C12.5 20.7761 12.2761 21 12 21H5.5C5.22386 21 5 20.7761 5 20.5V3.5Z" fill="currentColor"></path>
<path fill-rule="evenodd" clip-rule="evenodd" d="M7.5 7C7.5 6.72386 7.72386 6.5 8 6.5H16C16.2761 6.5 16.5 6.72386 16.5 7C16.5 7.27614 16.2761 7.5 16 7.5H8C7.72386 7.5 7.5 7.27614 7.5 7Z" fill="currentColor"></path>
<path fill-rule="evenodd" clip-rule="evenodd" d="M7.5 10C7.5 9.72386 7.72386 9.5 8 9.5H13.3C13.5761 9.5 13.8 9.72386 13.8 10C13.8 10.2761 13.5761 10.5 13.3 10.5H8C7.72386 10.5 7.5 10.2761 7.5 10Z" fill="currentColor"></path>
<path fill-rule="evenodd" clip-rule="evenodd" d="M17 11.5C17 11.2239 16.7761 11 16.5 11C16.2239 11 16 11.2239 16 11.5V12.5H15.5C14.3954 12.5 13.5 13.3954 13.5 14.5C13.5 15.6046 14.3954 16.5 15.5 16.5H16V18.5H14C13.7239 18.5 13.5 18.7239 13.5 19C13.5 19.2761 13.7239 19.5 14 19.5H16V20.5C16 20.7761 16.2239 21 16.5 21C16.7761 21 17 20.7761 17 20.5V19.5H17.5C18.6046 19.5 19.5 18.6046 19.5 17.5C19.5 16.3954 18.6046 15.5 17.5 15.5H17V13.5H19C19.2761 13.5 19.5 13.2761 19.5 13C19.5 12.7239 19.2761 12.5 19 12.5H17V11.5ZM16 13.5H15.5C14.9477 13.5 14.5 13.9477 14.5 14.5C14.5 15.0523 14.9477 15.5 15.5 15.5H16V13.5ZM17 16.5V18.5H17.5C18.0523 18.5 18.5 18.0523 18.5 17.5C18.5 16.9477 18.0523 16.5 17.5 16.5H17Z" fill="currentColor"></path>
</svg>