<svg width="1em" height="1em" viewBox="0 0 24 24" fill="none" xmlns="http://www.w3.org/2000/svg">
<path fill-rule="evenodd" clip-rule="evenodd" d="M5.48957 3.00612C5.52624 3.00204 5.5631 3 5.6 3H8.1C9.39097 3 10.5281 3.9624 10.6923 5.27597C10.7799 5.97705 10.9536 6.58646 11.2191 7.20608C11.2301 7.23156 11.2399 7.25748 11.2487 7.28377C11.5595 8.21632 11.3943 9.21987 10.6071 10.0071L10.157 10.4572C11.0241 11.8051 12.1949 12.9759 13.5428 13.843L13.9929 13.3929C14.646 12.7398 15.7375 12.4251 16.7162 12.7513C16.7425 12.7601 16.7684 12.7699 16.7939 12.7809C17.3958 13.0388 18.1049 13.2185 18.734 13.309C20.0425 13.4777 21 14.6123 21 15.9V18.3C21 19.7523 19.8523 20.9 18.4 20.9H18.2C18.1602 20.9 18.1204 20.8976 18.0809 20.8929C15.442 20.5762 12.9937 19.7286 10.7555 18.2389C8.73757 16.9621 6.9379 15.1624 5.66111 13.1444C4.16808 10.901 3.32383 8.35289 3.00772 5.82403C3.00258 5.78289 3 5.74146 3 5.7C3 4.36615 4.10766 3.15966 5.48957 3.00612ZM5.6671 5C5.29422 5.06391 5.03065 5.40236 5.0025 5.65615C5.29353 7.89621 6.0447 10.1143 7.33205 12.0453C7.33661 12.0521 7.34109 12.059 7.34549 12.066C8.4661 13.8403 10.0597 15.4339 11.834 16.5545C11.841 16.5589 11.8479 16.5634 11.8547 16.5679C13.7975 17.8632 15.9264 18.6118 18.2606 18.9H18.3994C18.7471 18.9 19 18.6477 19 18.3V15.9C19 15.591 18.7624 15.3281 18.476 15.2923L18.4586 15.2899C17.7057 15.1824 16.839 14.9694 16.0563 14.6404C15.8376 14.582 15.548 14.6662 15.4071 14.8071L14.4071 15.8071C14.0925 16.1217 13.6079 16.1906 13.2181 15.9762C11.0519 14.7848 9.21517 12.9481 8.02378 10.7819C7.80938 10.3921 7.8783 9.90749 8.19289 9.59289L9.19289 8.59289C9.39689 8.3889 9.4373 8.19991 9.36171 7.94895C9.03776 7.18314 8.81793 6.40569 8.70772 5.52403C8.67192 5.2376 8.40903 5 8.1 5H5.6671Z" fill="currentColor"></path>
</svg>