<svg width="1em" height="1em" viewBox="0 0 24 24" fill="none" xmlns="http://www.w3.org/2000/svg">
<path fill-rule="evenodd" clip-rule="evenodd" d="M10.2676 6H6.28079L7.97015 12.7575C8.04484 13.0562 7.97772 13.3727 7.78821 13.6154C7.59871 13.8581 7.30794 14 7.00001 14H3.00001C2.69207 14 2.40131 13.8581 2.2118 13.6154C2.0223 13.3727 1.95518 13.0562 2.02987 12.7575L4.02469 4.77815C4.05467 4.64582 4.11088 4.52345 4.18758 4.4168C4.22691 4.36204 4.27154 4.31163 4.32063 4.2662C4.49899 4.10099 4.7377 4 5 4H10.2676C10.6134 3.4022 11.2597 3 12 3C12.7403 3 13.3866 3.4022 13.7324 4H19C19.2532 4 19.4845 4.09413 19.6607 4.24932C19.7234 4.30446 19.7792 4.3675 19.8267 4.43719C19.896 4.53872 19.947 4.65368 19.9751 4.77735L21.9702 12.7575C22.0448 13.0562 21.9777 13.3727 21.7882 13.6154C21.5987 13.8581 21.3079 14 21 14H17C16.6921 14 16.4013 13.8581 16.2118 13.6154C16.0223 13.3727 15.9552 13.0562 16.0299 12.7575L17.7192 6H13.7324C13.5568 6.30363 13.3036 6.5568 13 6.73244V19H16C16.5523 19 17 19.4477 17 20C17 20.5523 16.5523 21 16 21H8C7.44772 21 7 20.5523 7 20C7 19.4477 7.44772 19 8 19H11V6.73244C10.6964 6.5568 10.4432 6.30363 10.2676 6ZM5.71923 12L5.00001 9.12311L4.28079 12H5.71923ZM18.2808 12H19.7192L19 9.12311L18.2808 12Z" fill="currentColor"></path>
<path d="M3 15C2.44772 15 2 15.4477 2 16C2 16.5523 2.44772 17 3 17H7C7.55228 17 8 16.5523 8 16C8 15.4477 7.55228 15 7 15H3Z" fill="currentColor"></path>
<path d="M17 15C16.4477 15 16 15.4477 16 16C16 16.5523 16.4477 17 17 17H21C21.5523 17 22 16.5523 22 16C22 15.4477 21.5523 15 21 15H17Z" fill="currentColor"></path>
</svg>