<svg width="1em" height="1em" viewBox="0 0 24 24" fill="none" xmlns="http://www.w3.org/2000/svg">
<path d="M16.3186 14.2303V13.9124C16.7457 13.8896 17.1738 13.8909 17.6008 13.9162V16.9706L17.8904 16.9775V17.3036C17.4857 17.3247 17.0832 17.3195 16.6769 17.3061V16.9044C16.6574 16.9206 16.6444 16.9302 16.6326 16.9412C16.3944 17.1585 16.1211 17.3074 15.8021 17.3665C15.6321 17.395 15.459 17.3998 15.2877 17.3808C15.1292 17.3666 14.9739 17.3274 14.8275 17.2648C14.5154 17.131 14.3151 16.8978 14.2132 16.578C14.1685 16.4388 14.1451 16.2936 14.1437 16.1475C14.1407 15.715 14.1437 15.2826 14.1401 14.8501C14.1401 14.6701 14.1311 14.4902 14.1258 14.31C14.125 14.2998 14.1237 14.2897 14.1217 14.2797C14.0091 14.2479 13.8923 14.2451 13.7764 14.2319V13.9096C14.2088 13.8951 14.636 13.8885 15.0677 13.9127V13.9717C15.0677 14.746 15.0677 15.5203 15.0677 16.2947C15.0669 16.4602 15.1314 16.6193 15.2471 16.7376C15.3864 16.8868 15.5633 16.9327 15.7606 16.9145C15.9925 16.8934 16.179 16.7821 16.3337 16.6145C16.5458 16.3843 16.6458 16.0909 16.673 15.7829C16.7162 15.2938 16.6862 14.805 16.6673 14.3157C16.6673 14.2882 16.6563 14.2731 16.626 14.2696C16.54 14.2597 16.4543 14.247 16.3686 14.2358C16.3529 14.2339 16.3387 14.2325 16.3186 14.2303Z" fill="#049072"></path>
<path d="M9.14181 17.3885C8.52446 17.3868 7.89199 17.1426 7.50927 16.659C7.35858 16.4661 7.25054 16.2433 7.19229 16.0055C7.13403 15.7677 7.12689 15.5203 7.17133 15.2795C7.26941 14.7671 7.63373 14.2665 8.11453 14.0509C8.5838 13.8404 9.11681 13.7541 9.62564 13.8552C10.0626 13.9434 10.4578 14.1742 10.7494 14.5113C11.1433 14.9762 11.2477 15.6199 11.045 16.1917C11.0247 16.2485 11.0015 16.3043 10.9755 16.3587C10.9192 16.4768 10.8487 16.5875 10.7656 16.6884C10.3859 17.1478 9.7795 17.3799 9.18467 17.3885C9.17038 17.3885 9.1561 17.3885 9.14181 17.3885ZM10.1117 15.6301C10.1126 15.4483 10.099 15.2668 10.071 15.0872C10.0473 14.9259 9.99738 14.7695 9.92319 14.6243C9.81686 14.4226 9.65943 14.2833 9.43744 14.2212C9.28334 14.1807 9.12252 14.1727 8.96515 14.1976C8.71788 14.2311 8.51814 14.3795 8.39477 14.5935C8.23158 14.8762 8.18954 15.2182 8.18322 15.5389C8.18136 15.74 8.19718 15.9409 8.23048 16.1392C8.25229 16.2991 8.30234 16.4539 8.37829 16.5964C8.46511 16.7522 8.58133 16.878 8.75002 16.9456C8.95298 17.0301 9.17755 17.0479 9.39128 16.9964C9.58361 16.9545 9.75288 16.8412 9.86494 16.6793C9.93711 16.5741 9.99056 16.4572 10.0229 16.3337C10.0816 16.1038 10.1114 15.8674 10.1117 15.6301Z" fill="#049072"></path>
<path d="M20.7244 13.9747L20.7708 13.8412H21.128C21.125 14.15 21.1362 14.4566 21.1195 14.7671C21.0371 14.7709 20.9601 14.7858 20.8818 14.7671C20.8448 14.7568 20.812 14.7351 20.7881 14.705C20.6957 14.6007 20.5951 14.504 20.4873 14.4157C20.2996 14.2648 20.0716 14.1727 19.8317 14.1508C19.676 14.1305 19.5176 14.1447 19.368 14.1923C19.2681 14.2235 19.18 14.2842 19.1155 14.3665C19.0025 14.5127 19.0278 14.6923 19.1751 14.8039C19.269 14.8721 19.3759 14.9203 19.4891 14.9457C19.7221 15.0039 19.9562 15.0583 20.1903 15.1105C20.4354 15.1655 20.678 15.2281 20.9046 15.3374C21.0396 15.3975 21.1611 15.4841 21.2618 15.5921C21.374 15.7193 21.4408 15.8801 21.4519 16.0493C21.4756 16.2637 21.4329 16.4803 21.3297 16.6697C21.2296 16.8456 21.0844 16.9916 20.909 17.0925C20.6099 17.2669 20.2698 17.3587 19.9235 17.3585C19.5663 17.3618 19.2501 17.2612 18.919 17.1406C18.8522 17.1162 18.7728 17.0697 18.702 17.1032C18.6311 17.1368 18.6195 17.2288 18.5959 17.2978C18.4838 17.313 18.3705 17.3186 18.2574 17.3145C18.2489 16.9362 18.2538 16.5612 18.2527 16.1845C18.2625 16.1816 18.2725 16.1795 18.2827 16.1784C18.3588 16.1784 18.4352 16.1812 18.5113 16.1815C18.5229 16.1806 18.5346 16.1831 18.545 16.1884C18.5553 16.1938 18.564 16.202 18.5701 16.212C18.6834 16.3769 18.8158 16.5277 18.9646 16.6614C19.0586 16.7418 19.1648 16.8067 19.2792 16.8538C19.491 16.9531 19.7249 16.9958 19.9581 16.9777C20.1625 16.9601 20.351 16.8925 20.5007 16.7436C20.5657 16.6849 20.6101 16.6069 20.6274 16.5211C20.6394 16.4608 20.6361 16.3985 20.6179 16.3398C20.5996 16.2811 20.567 16.2279 20.523 16.185C20.4635 16.1289 20.394 16.0846 20.318 16.0543C20.1458 15.9773 19.9636 15.9314 19.7812 15.8872C19.5441 15.8295 19.3059 15.7773 19.0701 15.7125C18.8878 15.6652 18.7152 15.586 18.5605 15.4787C18.3745 15.3473 18.2582 15.1712 18.2308 14.9454C18.2113 14.8113 18.2232 14.6744 18.2657 14.5457C18.3081 14.417 18.3799 14.2998 18.4753 14.2036C18.6706 13.9967 18.9174 13.8832 19.1918 13.8239C19.4041 13.7781 19.6217 13.7626 19.8383 13.7777C20.0658 13.7922 20.289 13.8466 20.4977 13.9384C20.5691 13.9691 20.647 13.9816 20.7244 13.9747Z" fill="#049072"></path>
<path d="M3.35255 13.2854V12.9478C3.37014 12.9464 3.38525 12.9442 3.40063 12.9442C3.574 12.9442 3.74764 12.9464 3.921 12.9464C4.23806 12.9464 4.55484 12.9434 4.87163 12.9445C4.96999 12.9445 5.06835 12.9541 5.1667 12.9599C5.17917 12.9613 5.19148 12.9638 5.20352 12.9673V13.2841H5.11313C5.01706 13.2821 4.92116 13.2929 4.82794 13.3162C4.81454 13.3183 4.80215 13.3246 4.79257 13.3341C4.78298 13.3437 4.7767 13.3561 4.77464 13.3695C4.75475 13.4512 4.74424 13.5349 4.74332 13.619C4.74442 14.642 4.74524 15.6648 4.74579 16.6876C4.74554 16.7374 4.74986 16.7872 4.75871 16.8362C4.79415 17.0206 5.05296 17.0104 5.1983 17.0082C5.54668 17.0033 5.94012 16.9596 6.23327 16.759C6.48741 16.5854 6.58302 16.3321 6.67094 16.051C6.67479 16.0387 6.67836 16.0263 6.68166 16.0153C6.78494 16.0037 6.88933 16.0065 6.99185 16.0236C6.96767 16.4483 6.94349 16.8728 6.91876 17.3036C6.8564 17.308 6.79678 17.3151 6.73688 17.3154C6.47258 17.3154 6.20827 17.3154 5.94396 17.3154H3.35448C3.34843 17.2022 3.34788 17.0918 3.34926 16.9766C3.36904 16.975 3.38552 16.9733 3.40201 16.9725C3.47674 16.9698 3.55202 16.9725 3.62593 16.9635C3.74242 16.9489 3.78363 16.922 3.80066 16.7766C3.80272 16.7504 3.80327 16.7241 3.80231 16.6978C3.80231 15.6565 3.80231 14.6152 3.80231 13.5739C3.80246 13.5228 3.79943 13.4717 3.79325 13.4209C3.7917 13.3935 3.78091 13.3675 3.76264 13.3471C3.74437 13.3267 3.7197 13.3131 3.69269 13.3085C3.63083 13.297 3.56836 13.289 3.50559 13.2846C3.45558 13.2824 3.40558 13.2854 3.35255 13.2854Z" fill="#049072"></path>
<path d="M11.6308 14.239H11.0684V13.9038C11.0994 13.9016 11.1255 13.8988 11.1508 13.8983C11.2705 13.8977 11.3897 13.8838 11.5063 13.8568C11.5881 13.8385 11.6646 13.802 11.7304 13.7501C11.7961 13.6982 11.8493 13.6321 11.886 13.5568C11.9566 13.4084 12.0092 13.2522 12.0426 13.0913C12.0594 13.0199 12.075 12.9479 12.0915 12.8762C12.094 12.865 12.0986 12.8542 12.103 12.8408C12.2584 12.8274 12.4145 12.8253 12.5701 12.8345V13.8961C12.883 13.9032 13.1886 13.8878 13.4921 13.9109V14.2406H12.5753C12.5753 14.2681 12.572 14.2895 12.572 14.3115C12.572 14.9832 12.5715 15.6549 12.5704 16.3268C12.5704 16.4641 12.5704 16.6001 12.5761 16.7364C12.5808 16.8576 12.6338 16.9526 12.7495 17.0004C12.8839 17.0554 13.0119 17.0425 13.1262 16.9477C13.2201 16.8699 13.2704 16.7653 13.3056 16.6521C13.3202 16.6043 13.3317 16.5556 13.3446 16.5075C13.3485 16.4938 13.3523 16.4801 13.357 16.4644H13.7946C13.7878 16.5089 13.782 16.5523 13.7743 16.5955C13.7169 16.9153 13.5696 17.1708 13.2614 17.3046C12.8855 17.4694 12.3852 17.4584 12.0234 17.262C11.8242 17.154 11.7135 16.9804 11.6662 16.7631C11.6431 16.6525 11.6322 16.5397 11.6335 16.4268C11.6335 15.7181 11.6335 15.0095 11.6335 14.3011C11.6332 14.2818 11.6319 14.2637 11.6308 14.239Z" fill="#049072"></path>
<path d="M3.52567 11.4771H5.96652C5.9874 11.4771 5.99124 11.4914 5.96377 11.5021C5.69094 11.6224 5.29503 12.0005 5.29503 12.0005C5.02166 12.2477 4.80571 12.4049 4.34551 12.4049H2.01236C1.9967 12.4049 1.9967 12.3909 2.00797 12.3846C2.26568 12.2527 2.6473 11.8694 2.6473 11.8694C2.80363 11.7046 3.12481 11.4771 3.52567 11.4771Z" fill="#00539E"></path>
<path d="M19.5425 11.4771H21.9834C22.0043 11.4771 22.0081 11.4913 21.9807 11.5021C21.7078 11.6224 21.3119 12.0004 21.3119 12.0004C21.0372 12.2477 20.8226 12.4049 20.3621 12.4049H18.0292C18.0136 12.4049 18.0136 12.3909 18.0248 12.3845C18.2825 12.2527 18.6639 11.8694 18.6639 11.8694C18.8208 11.7045 19.142 11.4771 19.5425 11.4771Z" fill="#00539E"></path>
<path d="M7.53071 11.4771H9.97238C9.99353 11.4771 9.99738 11.4914 9.96963 11.5021C9.69681 11.6224 9.3009 12.0005 9.3009 12.0005C9.02753 12.2477 8.81185 12.4049 8.35138 12.4049H6.01604C6.00038 12.4049 6.00038 12.3909 6.01165 12.3846C6.26963 12.2527 6.65098 11.8694 6.65098 11.8694C6.80731 11.7046 7.13014 11.4771 7.53071 11.4771Z" fill="#00539E"></path>
<path d="M11.5343 11.4771H13.9752C13.9961 11.4771 13.9999 11.4914 13.9722 11.5021C13.6996 11.6224 13.3037 12.0005 13.3037 12.0005C13.0303 12.2477 12.8144 12.4049 12.3536 12.4049H10.021C10.0051 12.4049 10.0051 12.3909 10.0164 12.3846C10.2744 12.2527 10.6557 11.8694 10.6557 11.8694C10.8123 11.7046 11.1338 11.4771 11.5343 11.4771Z" fill="#00539E"></path>
<path d="M15.5383 11.4771H17.9791C18 11.4771 18.0039 11.4914 17.9764 11.5021C17.7036 11.6224 17.3077 12.0005 17.3077 12.0005C17.0329 12.2477 16.8183 12.4049 16.3576 12.4049H14.025C14.0094 12.4049 14.0094 12.3909 14.0206 12.3846C14.2783 12.2527 14.6597 11.8694 14.6597 11.8694C14.8163 11.7046 15.1377 11.4771 15.5383 11.4771Z" fill="#00539E"></path>
<path d="M16.2003 7.00906C14.6647 7.00906 13.6473 7.7561 13.6473 8.893C13.6473 9.93704 14.5782 10.6316 15.9742 10.6316C16.4264 10.6316 16.8317 10.5744 17.3037 10.4604V9.58124C16.9701 9.93841 16.5726 10.0758 16.1473 10.0758C15.323 10.0758 14.7579 9.55679 14.7579 8.80948C14.7579 8.07233 15.3428 7.53767 16.1591 7.53767C16.6044 7.53767 16.9619 7.69813 17.249 7.98139V7.1022C16.9501 7.03983 16.5778 7.00879 16.1989 7.00879" fill="#E1251B"></path>
<path d="M4.65083 7.61846C5.22066 7.62341 5.9023 7.72836 6.18941 7.95311V7.1198H2.13965V7.95311C2.42731 7.72781 3.02983 7.6388 3.68702 7.63385V9.9082C3.68702 10.2379 3.65762 10.3357 3.51888 10.5085H4.81898C4.67281 10.3357 4.65083 10.239 4.65083 9.9082V7.61846Z" fill="#E1251B"></path>
<path d="M8.85688 8.43639C8.62197 8.51276 8.2082 8.53447 7.98153 8.53447H7.64414V7.63495H8.10215C8.51015 7.63495 9.21899 7.72177 9.4855 7.94706V7.1198H6.53774C6.67346 7.29289 6.70066 7.3896 6.70066 7.72012V9.9082C6.70066 10.2379 6.67319 10.3407 6.54461 10.5085H9.68688V9.68264C9.25608 9.99255 8.43541 9.99475 8.10215 9.9898H7.64414V9.0433H7.97988C8.2071 9.0433 8.6184 9.06885 8.85688 9.14056V8.43639Z" fill="#E1251B"></path>
<path d="M13.228 7.23353C12.7656 7.086 12.1496 7 11.6801 7C10.8284 7 9.9989 7.25551 9.9989 8.1108C9.9989 9.59196 12.5571 8.80921 12.5571 9.7156C12.5571 10.0109 12.1049 10.1318 11.7386 10.1318C11.0806 10.1318 10.6229 10.0318 10.0481 9.68372V10.4269C10.4767 10.5695 11.0647 10.6401 11.6966 10.6401C12.5799 10.6401 13.4061 10.4099 13.4061 9.53426C13.4061 7.98771 10.8476 8.68255 10.8476 7.92397C10.8476 7.619 11.2581 7.51185 11.6169 7.51185C12.2213 7.51185 12.8714 7.69428 13.2289 8.0292L13.228 7.23353Z" fill="#E1251B"></path>
<path d="M21.861 8.79437C21.861 7.72533 21.0272 7.00852 19.782 7.00852C18.4586 7.00852 17.5222 7.77644 17.5222 8.86113C17.5222 9.92523 18.3619 10.6311 19.6131 10.6311C20.9426 10.6311 21.861 9.88429 21.861 8.79437ZM18.5385 8.81635C18.5385 8.10201 18.9872 7.52202 19.6925 7.52202C20.3856 7.52202 20.8464 8.10174 20.8464 8.81635C20.8464 9.53097 20.3865 10.1107 19.6925 10.1107C18.9883 10.1107 18.5385 9.53124 18.5385 8.81635Z" fill="#E1251B"></path>
</svg>