<svg width="1em" height="1em" viewBox="0 0 24 24" fill="none" xmlns="http://www.w3.org/2000/svg">
<path fill-rule="evenodd" clip-rule="evenodd" d="M22 12C22 17.5228 17.5228 22 12 22C6.47715 22 2 17.5228 2 12C2 6.47715 6.47715 2 12 2C17.5228 2 22 6.47715 22 12Z" fill="currentColor"></path>
<path d="M16.7459 9.86598C17.1138 9.45401 17.078 8.82185 16.666 8.45402C16.254 8.08619 15.6219 8.12198 15.2541 8.53395L13.1065 10.9393L10.9588 13.3446L8.70711 11.0929C8.31658 10.7023 7.68342 10.7023 7.29289 11.0929C6.90237 11.4834 6.90237 12.1165 7.29289 12.5071L10.2929 15.5071C10.4874 15.7015 10.7534 15.8073 11.0283 15.7996C11.3032 15.7918 11.5628 15.6711 11.7459 15.466L16.7459 9.86598Z" fill="white"></path>
</svg>