<svg width="1em" height="1em" viewBox="0 0 24 24" fill="none" xmlns="http://www.w3.org/2000/svg">
<path d="M12.5956 12.1305L16.2988 12.0594C16.4344 12.0583 16.5579 12.1138 16.6475 12.2035C16.7374 12.2931 16.7935 12.4171 16.7947 12.5528C16.7959 12.6884 16.7419 12.8133 16.6537 12.9047C16.5656 12.9959 16.4432 13.0536 16.3077 13.0548L14.9229 13.1169L12.0966 13.1419C11.9608 13.1432 11.8338 13.0892 11.7403 13.0012C11.6468 12.9129 11.587 12.7907 11.5858 12.6549L11.573 6.20574C11.5717 6.07001 11.6273 5.94668 11.717 5.85693C11.8066 5.76708 11.9307 5.71097 12.0663 5.70973C12.2019 5.70854 12.3269 5.76244 12.4182 5.85066C12.5095 5.93878 12.5672 6.06116 12.5684 6.1968L12.5956 12.1305Z" fill="currentColor"></path>
<path fill-rule="evenodd" clip-rule="evenodd" d="M11.9995 3.04147C16.9472 3.04147 20.9581 7.05246 20.9581 12C20.9581 16.9476 16.9472 20.9585 11.9995 20.9585C7.05189 20.9585 3.04102 16.9476 3.04102 12C3.04102 7.05246 7.05189 3.04147 11.9995 3.04147ZM11.9995 19.9631C7.60157 19.9631 4.03641 16.398 4.03641 12C4.03641 7.60203 7.60157 4.03686 11.9995 4.03686C16.3975 4.03686 19.9627 7.60203 19.9627 12C19.9627 16.398 16.3975 19.9631 11.9995 19.9631Z" fill="currentColor"></path>
</svg>