<svg width="1em" height="1em" viewBox="0 0 24 24" fill="none" xmlns="http://www.w3.org/2000/svg">
<path fill-rule="evenodd" clip-rule="evenodd" d="M10 4C9.58638 4 9.20284 4.14006 8.92145 4.42145C8.64006 4.70284 8.5 5.08638 8.5 5.5V6.5H6.5C5.12386 6.5 4 7.62386 4 9V12V19.5C4 19.7761 4.22386 20 4.5 20H19.5C19.7761 20 20 19.7761 20 19.5V12V9C20 7.62386 18.8761 6.5 17.5 6.5H15.5V5.5C15.5 5.08638 15.3599 4.70284 15.0786 4.42145C14.7972 4.14006 14.4136 4 14 4H10ZM14.5 6.5V5.5C14.5 5.31362 14.4401 5.19716 14.3714 5.12855C14.3028 5.05994 14.1864 5 14 5H10C9.81362 5 9.69716 5.05994 9.62855 5.12855C9.55994 5.19716 9.5 5.31362 9.5 5.5V6.5H14.5ZM9 7.5H15H17.5C18.3239 7.5 19 8.17614 19 9V11.5H17.5V11C17.5 10.7239 17.2761 10.5 17 10.5H16C15.7239 10.5 15.5 10.7239 15.5 11V11.5H8.5V11C8.5 10.7239 8.27614 10.5 8 10.5H7C6.72386 10.5 6.5 10.7239 6.5 11V11.5H5V9C5 8.17614 5.67614 7.5 6.5 7.5H9ZM5 12.5H6.5V13C6.5 13.2761 6.72386 13.5 7 13.5H8C8.27614 13.5 8.5 13.2761 8.5 13V12.5H15.5V13C15.5 13.2761 15.7239 13.5 16 13.5H17C17.2761 13.5 17.5 13.2761 17.5 13V12.5H19V19H5V12.5Z" fill="currentColor"></path>
</svg>