<svg width="1em" height="1em" viewBox="0 0 24 24" fill="none" xmlns="http://www.w3.org/2000/svg">
<path fill-rule="evenodd" clip-rule="evenodd" d="M10 3C9.47275 3 8.95567 3.18011 8.56789 3.56789C8.18011 3.95567 8 4.47275 8 5V6H6C4.34772 6 3 7.34772 3 9V20C3 20.5523 3.44772 21 4 21H20C20.5523 21 21 20.5523 21 20V9C21 7.34772 19.6523 6 18 6H16V5C16 4.47275 15.8199 3.95567 15.4321 3.56789C15.0443 3.18011 14.5272 3 14 3H10ZM14 6V5H10V6H14ZM9 8H15H18C18.5477 8 19 8.45228 19 9V11H18C18 10.4477 17.5523 10 17 10H16.5C15.9477 10 15.5 10.4477 15.5 11H8.5C8.5 10.4477 8.05228 10 7.5 10H7C6.44772 10 6 10.4477 6 11H5V9C5 8.45228 5.45228 8 6 8H9ZM5 13H6C6 13.5523 6.44772 14 7 14H7.5C8.05228 14 8.5 13.5523 8.5 13H15.5C15.5 13.5523 15.9477 14 16.5 14H17C17.5523 14 18 13.5523 18 13H19V19H5V13Z" fill="currentColor"></path>
</svg>