<svg width="1em" height="1em" viewBox="0 0 18 19" fill="none" xmlns="http://www.w3.org/2000/svg">
<path d="M9.99976 5C9.99976 4.44772 9.55204 4 8.99976 4C8.44747 4 7.99976 4.44772 7.99976 5V9C7.99976 9.55228 8.44747 10 8.99976 10H12.9998C13.552 10 13.9998 9.55228 13.9998 9C13.9998 8.44772 13.552 8 12.9998 8H9.99976V5Z" fill="currentColor"></path>
<path fill-rule="evenodd" clip-rule="evenodd" d="M0.499756 9C0.499756 7.87812 0.717102 6.807 1.11198 5.82645L1.01365 5.72812C-0.231904 4.60944 -0.155693 2.68763 0.847174 1.5415C0.861787 1.5248 0.876952 1.50859 0.892644 1.4929C2.06042 0.325123 3.94273 0.30281 5.13781 1.42596C6.29659 0.833924 7.60918 0.5 8.99976 0.5C10.3903 0.5 11.7029 0.833924 12.8617 1.42596C14.0568 0.302809 15.9391 0.325122 17.1069 1.4929C17.1226 1.50859 17.1377 1.5248 17.1523 1.5415C18.189 2.72627 18.1898 4.52419 17.0069 5.70711L16.8875 5.82645C17.2824 6.807 17.4998 7.87812 17.4998 9C17.4998 11.637 16.2989 13.9936 14.4143 15.5526L15.7998 17.4C16.1311 17.8418 16.0416 18.4686 15.5998 18.8C15.1579 19.1314 14.5311 19.0418 14.1998 18.6L12.7298 16.64C11.6037 17.1908 10.3378 17.5 8.99976 17.5C7.66169 17.5 6.39584 17.1908 5.26974 16.64L3.79975 18.6C3.46838 19.0418 2.84158 19.1314 2.39975 18.8C1.95793 18.4686 1.86838 17.8418 2.19975 17.4L3.58526 15.5526C1.70059 13.9936 0.499756 11.637 0.499756 9ZM8.99976 2.5C5.4099 2.5 2.49976 5.41015 2.49976 9C2.49976 12.5899 5.4099 15.5 8.99976 15.5C12.5896 15.5 15.4998 12.5899 15.4998 9C15.4998 5.41015 12.5896 2.5 8.99976 2.5ZM3.35488 2.64493C2.93735 3.01607 2.55664 3.42774 2.21892 3.87376C2.19818 3.90023 2.17759 3.92684 2.15716 3.95359C2.03098 3.63719 2.06384 3.20876 2.33074 2.88396C2.61243 2.61936 3.00588 2.53969 3.35488 2.64493ZM15.7806 3.87371C15.4428 3.42771 15.0621 3.01606 14.6446 2.64493C14.9937 2.53966 15.3872 2.6194 15.6689 2.88413C15.9207 3.18955 15.9819 3.58858 15.8327 3.94091C15.8154 3.91841 15.798 3.89601 15.7806 3.87371Z" fill="currentColor"></path>
</svg>