<svg width="1em" height="1em" viewBox="0 0 24 24" fill="none" xmlns="http://www.w3.org/2000/svg">
<path d="M4.70059 4.5H10.686C11.5181 4.5 12.0437 5.18613 11.8539 6.01825L9.06556 17.9891C8.87578 18.8212 8.02906 19.5073 7.19694 19.5073H1.21154C0.379425 19.5073 -0.146123 18.8212 0.0436583 17.9891L2.83198 6.01825C3.02176 5.18613 3.86848 4.5 4.70059 4.5Z" fill="#E31937"></path>
<path d="M10.1894 4.5H17.0799C17.912 4.5 17.5324 5.18613 17.3427 6.01825L14.5543 17.9891C14.3646 18.8212 14.423 19.5073 13.5762 19.5073H6.68572C5.85361 19.5073 5.32806 18.8212 5.53244 17.9891L8.32076 6.01825C8.52514 5.18613 9.35726 4.5 10.1894 4.5Z" fill="#00447C"></path>
<path d="M16.8021 4.5H22.7875C23.6196 4.5 24.1452 5.18613 23.9408 6.01825L21.1525 17.9891C20.9627 18.8212 20.116 19.5073 19.2839 19.5073H13.2985C12.4663 19.5073 11.9408 18.8212 12.1306 17.9891L14.9189 6.01825C15.1233 5.18613 15.97 4.5 16.8021 4.5Z" fill="#007B85"></path>
<path fill-rule="evenodd" clip-rule="evenodd" d="M16.4957 8.32478H16.2475C15.5906 8.33938 15.3424 8.32478 15.2256 8.31018C15.211 8.35398 15.1964 8.44157 15.1964 8.44157L14.9628 9.52186C14.9628 9.52186 14.4081 11.8138 14.3789 11.9306H15.284C15.3132 11.8284 15.4446 11.1861 15.4446 11.1861C15.4446 11.1861 15.5614 10.7189 15.5614 10.7043C15.5614 10.7043 15.5906 10.6605 15.6344 10.6314H15.6928C16.1891 10.6314 16.7439 10.6313 17.1672 10.3102C17.4592 10.0912 17.6636 9.77004 17.7512 9.37587C17.7804 9.27368 17.795 9.17149 17.795 9.05471C17.795 8.90872 17.7658 8.74814 17.6782 8.64595C17.4446 8.32478 16.992 8.32478 16.4957 8.32478ZM16.8169 9.44887C16.7585 9.68244 16.6125 9.88682 16.4081 9.98901C16.2475 10.0766 16.0431 10.0766 15.8388 10.0766H15.7074L15.722 10.0182L15.9701 8.93792L15.9847 8.87952V8.83573L16.0869 8.85033C16.0869 8.85033 16.5979 8.89412 16.6125 8.89412C16.7877 8.98171 16.8753 9.18609 16.8169 9.44887Z" fill="white"></path>
<path d="M4.96297 10.354C4.96297 10.354 5.37173 8.42702 5.40093 8.32483C5.44575 8.33603 5.56798 8.33864 5.90627 8.34585C6.0087 8.34803 6.13094 8.35063 6.27684 8.35403C6.26224 8.36862 6.26224 8.36862 6.26224 8.38322C6.18925 8.6168 5.73669 10.427 5.73669 10.427L5.6929 10.6168L5.68137 10.6544C5.56805 11.024 5.44397 11.4288 4.99217 11.6971C4.72939 11.8577 4.33523 11.9453 3.91187 11.9453C3.59071 11.9453 3.00676 11.8869 2.80239 11.5365C2.72939 11.4197 2.7002 11.2883 2.7002 11.1277L2.77319 10.5876L2.80239 10.427L3.25494 8.45622C3.25494 8.45622 3.28414 8.33943 3.28414 8.32483C3.29874 8.33943 3.44472 8.35403 4.29144 8.33943V8.36862C4.21844 8.6022 3.78049 10.354 3.78049 10.354L3.6929 10.8796V10.9672C3.70749 11.2299 3.86808 11.3613 4.14545 11.3613C4.30603 11.3613 4.45202 11.3029 4.58341 11.2007C4.80238 11.0256 4.87538 10.7482 4.96297 10.354Z" fill="white"></path>
<path fill-rule="evenodd" clip-rule="evenodd" d="M17.0509 15.7555L17.7808 13.3322V13.3468H18.0582L18.1179 13.1439L18.1308 13.3759C18.1308 13.5365 18.2621 13.6971 18.6125 13.6679H19.0213L19.1673 13.2007H19.0067C18.9045 13.2007 18.8753 13.1715 18.8753 13.1277L18.8607 12.8503H18.1016L18.1017 12.8522C17.8356 12.8572 17.1338 12.8735 16.9925 12.9088C16.8173 12.9526 16.6276 13.084 16.6276 13.084L16.7005 12.8358H15.9852L15.8392 13.3322L15.0947 15.7847H14.9487L14.8027 16.2519H16.2188L16.175 16.4125H16.8757L16.9195 16.2519H17.0723L17.0215 16.4271H17.547C17.8244 16.4271 17.985 16.2957 18.1018 16.1351L18.4813 15.6241L18.5689 16.1497C18.5829 16.2471 18.6499 16.2915 18.694 16.3207L18.7003 16.3249C18.7235 16.3307 18.7467 16.3434 18.7709 16.3566C18.8074 16.3767 18.8461 16.3979 18.8901 16.3979H19.3281L19.4886 15.8869H19.3864C19.3281 15.8869 19.2259 15.8723 19.2113 15.8577C19.2015 15.848 19.1983 15.8318 19.1929 15.8047C19.1902 15.7912 19.1869 15.775 19.1821 15.7555L19.0945 15.23H18.7587L18.9047 15.0548H19.7222L19.8536 14.646H19.0945L19.2113 14.2665H19.9704L20.1164 13.7993H17.8536L17.7222 14.2665H18.5397L18.4229 14.646H17.6054L17.4886 15.0548H18.204L17.62 15.8431C17.5762 15.9015 17.547 15.9161 17.5032 15.9307C17.4905 15.935 17.4777 15.9405 17.4646 15.9461C17.4327 15.9598 17.3986 15.9745 17.3573 15.9745H17.1909L17.2553 15.7555H17.0509ZM16.3794 15.7555H15.81L15.9706 15.2154H16.54L16.3794 15.7555ZM16.0728 14.9088L16.2626 14.2665H16.8319L16.7005 14.719C16.7005 14.719 16.5254 14.7336 16.4086 14.7628C16.2918 14.792 16.0728 14.9088 16.0728 14.9088ZM16.3502 13.9453L16.54 13.3322V13.3176H17.0947L16.9633 13.7701C16.9633 13.7701 16.7881 13.7847 16.6713 13.8139C16.5546 13.8431 16.3502 13.9453 16.3502 13.9453Z" fill="white"></path>
<path d="M12.2186 13.916H10.3062L10.1602 14.354H10.5982L10.4814 14.7481H10.0434L9.89746 15.2299H10.3354L10.0872 16.062C10.0536 16.1516 10.0802 16.1896 10.1075 16.2289C10.1159 16.2408 10.1242 16.2528 10.131 16.2664C10.1385 16.2738 10.1455 16.2813 10.1524 16.2886C10.186 16.3242 10.2164 16.3565 10.277 16.3686C10.303 16.3729 10.3251 16.3772 10.3453 16.3812C10.3931 16.3905 10.4301 16.3978 10.4814 16.3978H11.3573L11.5179 15.8722L11.1237 15.9306C11.0507 15.9306 10.8318 15.9306 10.861 15.8576L11.0507 15.2299H11.8245L11.9704 14.7627H11.1967L11.3135 14.3686H12.0726L12.2186 13.916Z" fill="white"></path>
<path d="M11.591 13.0985H12.3793L12.2333 13.5803H11.1677L11.0509 13.6825C11.0246 13.7087 11.0036 13.714 10.9783 13.7203C10.9615 13.7245 10.9428 13.7292 10.9195 13.7409C10.8611 13.7701 10.7297 13.8284 10.5691 13.8284H10.2188L10.3501 13.3759H10.4523C10.5399 13.3759 10.5983 13.3613 10.6275 13.3467C10.6567 13.3175 10.7005 13.2737 10.7443 13.2007L10.9487 12.8503H11.7224L11.591 13.0985Z" fill="white"></path>
<path fill-rule="evenodd" clip-rule="evenodd" d="M13.3722 12.8503H12.7007L11.7664 15.9306C11.7586 15.9619 11.7508 15.9911 11.7435 16.0182C11.7237 16.0923 11.708 16.1507 11.708 16.1934C11.708 16.2425 11.7596 16.2916 11.802 16.332L11.8112 16.3407L11.8248 16.354C11.8832 16.3978 11.9708 16.3978 12.0438 16.3978C12.1314 16.4124 12.2482 16.4124 12.4087 16.4124H12.9197L13.0803 15.8868L12.6277 15.9306C12.5693 15.9306 12.5401 15.916 12.5255 15.8868C12.5121 15.86 12.5234 15.8208 12.548 15.7352L12.5547 15.7117L12.8467 14.7482H13.8978C14.0584 14.7336 14.1606 14.7336 14.2336 14.7336C14.3065 14.719 14.3941 14.6898 14.4817 14.646C14.5693 14.6022 14.6131 14.5438 14.6569 14.4854C14.7007 14.427 14.7737 14.281 14.8321 14.0766L15.1971 12.8503H14.1168C14.1168 12.8503 13.781 12.8941 13.635 12.9525C13.4744 13.0109 13.27 13.1861 13.27 13.1861L13.3722 12.8503ZM13.6788 13.6241C13.3138 13.6971 13.0949 13.8868 13.0949 13.8868L13.2409 13.3467H14.3503L14.2773 13.6095C14.2773 13.6095 13.7664 13.6095 13.6788 13.6241ZM13.0219 14.0912H14.1168L14.0438 14.3102C14.0406 14.3102 14.0373 14.3095 14.033 14.3085C14.0178 14.3052 13.9889 14.2988 13.8978 14.3102H12.9489L13.0219 14.0912Z" fill="white"></path>
<path d="M14.6568 14.8212L14.6539 14.8358H14.1312L14.0728 15.0401C14.0582 15.0839 14.0436 15.0985 14.029 15.1131C13.9998 15.1277 13.9706 15.1277 13.9122 15.1277H13.7517L13.7663 14.865H13.1239L13.0947 16.1642C13.0947 16.2518 13.0947 16.3102 13.1677 16.354C13.2407 16.4124 13.4597 16.4124 13.7371 16.4124H14.1458L14.2918 15.9307L13.9414 15.9453H13.8247C13.8101 15.9453 13.7955 15.9307 13.7809 15.9161L13.7786 15.9139L13.7753 15.911C13.7628 15.9 13.7517 15.8903 13.7517 15.8139V15.4781L14.1166 15.4635C14.3175 15.4635 14.4056 15.393 14.4778 15.3351L14.4816 15.3321C14.5446 15.2817 14.5641 15.2204 14.5871 15.1482C14.5907 15.1368 14.5944 15.1251 14.5984 15.1131L14.6539 14.8358H14.6568V14.8212Z" fill="white"></path>
<path d="M7.89741 11.9307C7.59084 11.9307 7.48865 11.9307 7.13829 11.9453L7.12369 11.9161C7.15289 11.7847 7.18208 11.6533 7.21128 11.5073L7.25508 11.3175L7.27065 11.2437C7.32566 10.9833 7.38646 10.6954 7.38646 10.6022C7.38646 10.5957 7.38682 10.588 7.38721 10.5795C7.39042 10.5103 7.3963 10.3832 7.24048 10.3832C7.16748 10.3832 7.09449 10.4124 7.0069 10.4562C6.97771 10.5535 6.92907 10.7805 6.88691 10.9772L6.88664 10.9785C6.86567 11.0763 6.84624 11.167 6.83172 11.2299C6.78041 11.4694 6.75915 11.5836 6.74155 11.6782C6.7291 11.7451 6.71847 11.8022 6.70033 11.8869L6.67113 11.9161C6.36456 11.9161 6.24778 11.9161 5.89741 11.9307L5.88281 11.9015C5.91201 11.7774 5.9412 11.6569 5.9704 11.5365C5.99958 11.4162 6.02882 11.2955 6.058 11.1715C6.20398 10.5146 6.24778 10.2664 6.29157 9.93065L6.32077 9.91605C6.67113 9.87226 6.75872 9.85766 7.12369 9.78467L7.15289 9.81387L7.09449 10.0182C7.12368 9.99636 7.15651 9.97812 7.18934 9.95988C7.22219 9.94163 7.25508 9.92335 7.28427 9.90146C7.45946 9.81386 7.66383 9.78467 7.76602 9.78467C7.92661 9.78467 8.11639 9.82846 8.18938 10.0182C8.26237 10.1934 8.21858 10.3978 8.11639 10.8066L8.07259 11.0109C7.9704 11.4635 7.95581 11.5511 7.91201 11.8723L7.89741 11.9307Z" fill="white"></path>
<path d="M8.71535 11.9307H9.12411L9.10951 11.8869L9.12411 11.8723C9.14037 11.7829 9.14757 11.7296 9.15328 11.6874C9.15782 11.654 9.16144 11.6272 9.1679 11.5949C9.18457 11.5533 9.19648 11.4973 9.21721 11.4C9.23279 11.3268 9.25337 11.2301 9.28469 11.0986C9.29713 11.0426 9.31222 10.984 9.3277 10.9238C9.34854 10.8428 9.37014 10.7589 9.38688 10.6752C9.39932 10.6192 9.41442 10.5606 9.4299 10.5004C9.45074 10.4194 9.47232 10.3356 9.48907 10.2519V10.2227C9.3968 10.2369 9.32179 10.251 9.25564 10.2636C9.18573 10.2768 9.12572 10.2881 9.06571 10.2956C8.94892 10.3102 8.83214 10.3248 8.65695 10.354L8.62776 10.3832C8.61316 10.5292 8.59856 10.646 8.56936 10.7774C8.55477 10.9234 8.52557 11.084 8.46717 11.3175C8.42338 11.5073 8.40878 11.5657 8.37958 11.6241C8.37424 11.6455 8.36694 11.6669 8.35768 11.694C8.34165 11.7409 8.31976 11.805 8.29199 11.9161L8.32119 11.9453C8.49637 11.9307 8.59856 11.9307 8.71535 11.9307Z" fill="white"></path>
<path fill-rule="evenodd" clip-rule="evenodd" d="M11.8244 10.8941C11.9266 10.427 11.8536 10.208 11.7514 10.0766C11.5908 9.87224 11.3135 9.81384 11.0361 9.81384C10.8609 9.81384 10.4522 9.82844 10.131 10.1204C9.88282 10.3394 9.78063 10.6314 9.70764 10.9087C9.64924 11.1861 9.56165 11.6971 10.0434 11.8868C10.1894 11.9452 10.3938 11.9598 10.5252 11.9598C10.8755 11.9598 11.2259 11.8722 11.4887 11.5803C11.693 11.3759 11.7952 11.0255 11.8244 10.8941ZM11.0361 10.8503C11.0215 10.9233 10.9485 11.2153 10.8609 11.3467C10.8025 11.4343 10.7149 11.4927 10.6419 11.4927C10.6127 11.4927 10.4668 11.4927 10.4668 11.2737C10.4668 11.1569 10.4814 11.0547 10.5106 10.9379C10.5836 10.5876 10.6857 10.2956 10.9193 10.2956C11.1091 10.281 11.1237 10.5 11.0361 10.8503Z" fill="white"></path>
<path fill-rule="evenodd" clip-rule="evenodd" d="M18.3798 11.9744C18.7156 11.9598 18.8178 11.9598 19.1828 11.9598L19.212 11.9452C19.2703 11.6387 19.3288 11.332 19.4601 10.7335C19.4966 10.5875 19.5295 10.4452 19.5623 10.3028C19.5952 10.1605 19.628 10.0182 19.6645 9.87221L19.6499 9.84302C19.4674 9.87221 19.3507 9.89046 19.2339 9.90871C19.1171 9.92696 19.0003 9.94521 18.8178 9.9744L18.7886 10.0036C18.7849 10.0371 18.7811 10.0695 18.7773 10.1013C18.7216 10.005 18.6393 9.92273 18.5107 9.87223C18.3501 9.81384 17.9706 9.88683 17.6494 10.1788C17.4158 10.3832 17.3136 10.6752 17.2552 10.9525C17.1968 11.2299 17.1093 11.7408 17.5764 11.9306C17.7224 11.989 17.8538 12.0182 17.9998 12.0036C18.1412 11.9948 18.2733 11.9244 18.396 11.8228L18.3652 11.9452L18.3798 11.9744ZM18.628 10.9087C18.642 10.8469 18.6546 10.79 18.666 10.7371C18.6889 10.4799 18.6119 10.3271 18.4523 10.3394C18.2187 10.3394 18.1311 10.6314 18.0436 10.9817C18.0144 11.0985 17.9998 11.2153 17.9998 11.3175C17.9998 11.5365 18.1457 11.5365 18.1749 11.5365C18.2625 11.5365 18.4085 11.4781 18.4669 11.3905C18.4981 11.3438 18.5274 11.2768 18.5528 11.2065C18.5779 11.108 18.603 11.0089 18.628 10.9087Z" fill="white"></path>
<path d="M13.1237 11.9453C13.4741 11.9307 13.5762 11.9307 13.8828 11.9307L13.9266 11.8723C13.9704 11.5511 13.985 11.4635 14.0872 11.0109L14.131 10.8066C14.2332 10.3978 14.277 10.1934 14.204 10.0182C14.131 9.82846 13.9412 9.78467 13.7806 9.78467C13.6784 9.78467 13.4741 9.81386 13.2989 9.90146C13.2697 9.92335 13.2368 9.9416 13.204 9.95985C13.1711 9.9781 13.1383 9.99635 13.1091 10.0182L13.1675 9.81387L13.1383 9.78467C12.7587 9.85766 12.6711 9.87226 12.3208 9.91605L12.2916 9.93065C12.2478 10.2664 12.204 10.5146 12.058 11.1715C12.0288 11.2956 11.9996 11.4161 11.9704 11.5365C11.9412 11.657 11.912 11.7774 11.8828 11.9015L11.8974 11.9307C12.2478 11.9161 12.3646 11.9161 12.6711 11.9161L12.7003 11.8869C12.7185 11.8022 12.7291 11.7451 12.7415 11.6782C12.7592 11.5836 12.7804 11.4694 12.8317 11.2299C12.8463 11.1667 12.8657 11.0761 12.8868 10.9778C12.929 10.781 12.9777 10.5535 13.0069 10.4562C13.0945 10.4124 13.1675 10.3832 13.2405 10.3832C13.3963 10.3832 13.3904 10.5103 13.3872 10.5794C13.3868 10.588 13.3865 10.5957 13.3865 10.6022C13.3865 10.7044 13.3281 11.0401 13.2551 11.3175L13.2113 11.5073C13.1675 11.6533 13.1383 11.7847 13.1091 11.9161L13.1237 11.9453Z" fill="white"></path>
<path d="M22.1314 9.79932L22.1606 9.82851C22.1606 9.82851 20.6715 12.3979 20.4671 12.8212L20.4379 12.8504L20.146 13.3468C20.0584 13.5219 19.8832 13.6533 19.6058 13.6533L19.1387 13.6387L19.2701 13.1862H19.3577C19.4014 13.1862 19.4452 13.1862 19.4598 13.1716C19.489 13.157 19.5036 13.1424 19.5182 13.1132L19.6934 12.8358H19.7274C19.8418 12.6621 19.9132 12.5348 19.9902 12.3975C20.0597 12.2736 20.1338 12.1416 20.2482 11.9599C20.2233 11.7028 20.2031 11.5446 20.185 11.4024C20.1712 11.2943 20.1586 11.1954 20.146 11.0694C20.1168 10.8942 20.0876 10.719 20.073 10.5438C20.0594 10.4304 20.0514 10.3578 20.0455 10.3047C20.0326 10.187 20.0302 10.1646 20 10.0037V9.9599L20.0292 9.9307C20.2755 9.90115 20.3556 9.88489 20.5027 9.85501C20.5737 9.84061 20.6601 9.82305 20.7883 9.79932L20.8175 9.82851L20.8759 10.8358V10.8942C20.9664 10.6939 21.0168 10.6051 21.0664 10.5177C21.1289 10.4077 21.1901 10.2999 21.3284 9.9745V9.9599L21.3576 9.9307C21.6934 9.88691 21.7664 9.87231 22.1314 9.79932Z" fill="white"></path>
<path d="M9.44463 10.0766C9.64901 9.94524 9.66361 9.74086 9.50303 9.65327C9.32784 9.55108 9.03587 9.58028 8.83149 9.72626C8.62711 9.85765 8.61251 10.0474 8.7731 10.1496C8.94828 10.2518 9.25485 10.2226 9.44463 10.0766Z" fill="white"></path>
</svg>