<svg width="1em" height="1em" viewBox="0 0 24 24" fill="none" xmlns="http://www.w3.org/2000/svg">
<path fill-rule="evenodd" clip-rule="evenodd" d="M12 3C12.2884 3 12.5627 3.12448 12.7526 3.3415L19.7526 11.3415C20.1163 11.7571 20.0742 12.3889 19.6585 12.7526C19.2429 13.1163 18.6111 13.0741 18.2474 12.6585L12 5.51859L5.75259 12.6585C5.38891 13.0741 4.75715 13.1163 4.34151 12.7526C3.92587 12.3889 3.88375 11.7571 4.24744 11.3415L11.2474 3.3415C11.4373 3.12448 11.7117 3 12 3Z" fill="currentColor"></path>
<path fill-rule="evenodd" clip-rule="evenodd" d="M12 3C12.5523 3 13 3.44772 13 4V20C13 20.5523 12.5523 21 12 21C11.4477 21 11 20.5523 11 20V4C11 3.44772 11.4477 3 12 3Z" fill="currentColor"></path>
</svg>