<svg width="1em" height="1em" viewBox="0 0 24 24" fill="none" xmlns="http://www.w3.org/2000/svg">
<path fill-rule="evenodd" clip-rule="evenodd" d="M11.6464 4.14645C11.6944 4.09851 11.7496 4.06234 11.8086 4.03794C11.8676 4.01349 11.9322 4 12 4C12.0678 4 12.1324 4.01349 12.1914 4.03794C12.2504 4.06234 12.3056 4.09851 12.3536 4.14645L17.3536 9.14645C17.5488 9.34171 17.5488 9.65829 17.3536 9.85355C17.1583 10.0488 16.8417 10.0488 16.6464 9.85355L12.5 5.70711V16.5C12.5 16.7761 12.2761 17 12 17C11.7239 17 11.5 16.7761 11.5 16.5V5.70711L7.35355 9.85355C7.15829 10.0488 6.84171 10.0488 6.64645 9.85355C6.45118 9.65829 6.45118 9.34171 6.64645 9.14645L11.6464 4.14645ZM4.5 19C4.22386 19 4 19.2239 4 19.5C4 19.7761 4.22386 20 4.5 20H19.5C19.7761 20 20 19.7761 20 19.5C20 19.2239 19.7761 19 19.5 19H4.5Z" fill="currentColor"></path>
</svg>