<svg width="1em" height="1em" viewBox="0 0 24 24" fill="none" xmlns="http://www.w3.org/2000/svg">
<path fill-rule="evenodd" clip-rule="evenodd" d="M10.5145 15.8575C10.2056 16.0429 9.82081 16.0477 9.5073 15.8702C9.19379 15.6927 9 15.3603 9 15V9C9 8.63973 9.19379 8.30731 9.5073 8.1298C9.82081 7.95229 10.2056 7.95715 10.5145 8.14251L15.5145 11.1425C15.8157 11.3232 16 11.6487 16 12C16 12.3513 15.8157 12.6768 15.5145 12.8575L10.5145 15.8575ZM13.0563 12L11 10.7662V13.2338L13.0563 12Z" fill="currentColor"></path>
<path fill-rule="evenodd" clip-rule="evenodd" d="M5 20C3.34315 20 2 18.6569 2 17V7C2 5.34315 3.34315 4 5 4H19C20.6569 4 22 5.34315 22 7V17C22 18.6569 20.6569 20 19 20H5ZM4 17C4 17.5523 4.44772 18 5 18H19C19.5523 18 20 17.5523 20 17V7C20 6.44771 19.5523 6 19 6H5C4.44772 6 4 6.44771 4 7V17Z" fill="currentColor"></path>
</svg>