<svg width="1em" height="1em" viewBox="0 0 24 24" fill="none" xmlns="http://www.w3.org/2000/svg">
<path fill-rule="evenodd" clip-rule="evenodd" d="M9.75725 16.0287C9.60278 16.1214 9.41041 16.1238 9.25365 16.0351C9.0969 15.9463 9 15.7801 9 15.6V8.39997C9 8.21984 9.0969 8.05363 9.25365 7.96487C9.41041 7.87612 9.60278 7.87855 9.75725 7.97123L15.7572 11.5712C15.9079 11.6616 16 11.8243 16 12C16 12.1756 15.9079 12.3384 15.7572 12.4287L9.75725 16.0287ZM14.5282 12L10 9.28307V14.7169L14.5282 12Z" fill="currentColor"></path>
<path fill-rule="evenodd" clip-rule="evenodd" d="M4.5 20C3.11929 20 2 18.8807 2 17.5V6.5C2 5.11929 3.11929 4 4.5 4H19.5C20.8807 4 22 5.11929 22 6.5V17.5C22 18.8807 20.8807 20 19.5 20H4.5ZM3 17.5C3 18.3284 3.67157 19 4.5 19H19.5C20.3284 19 21 18.3284 21 17.5V6.5C21 5.67157 20.3284 5 19.5 5H4.5C3.67157 5 3 5.67157 3 6.5V17.5Z" fill="currentColor"></path>
</svg>