<svg width="1em" height="1em" viewBox="0 0 24 24" fill="none" xmlns="http://www.w3.org/2000/svg">
<path d="M18.1467 5.14649C18.3417 4.95149 18.6587 4.95149 18.8537 5.14649C19.0487 5.34149 19.0487 5.65849 18.8537 5.85349L5.85374 18.8535C5.75574 18.9515 5.62774 19.0005 5.49974 19.0005C5.37274 19.0005 5.24474 18.9515 5.14674 18.8535C4.95174 18.6585 4.95174 18.3415 5.14674 18.1465L18.1467 5.14649Z" fill="currentColor"></path>
<path d="M9.00024 12C9.00024 12.462 9.11324 12.895 9.30024 13.286L13.2862 9.3C12.8952 9.113 12.4622 9 12.0002 9C10.3432 9 9.00024 10.343 9.00024 12Z" fill="currentColor"></path>
<path d="M12.0004 15C13.6574 15 15.0004 13.657 15.0004 12C15.0004 11.538 14.8874 11.105 14.7004 10.714L10.7144 14.7C11.1054 14.887 11.5384 15 12.0004 15Z" fill="currentColor"></path>
<path d="M7.83225 14.7544C7.30925 13.9634 7.00025 13.0184 7.00025 12.0004C7.00025 9.23837 9.23825 7.00037 12.0002 7.00037C13.0192 7.00037 13.9642 7.30837 14.7542 7.83137L16.2083 6.37737C15.0063 5.85037 13.6102 5.50037 12.0002 5.50037C5.26925 5.50037 2.18125 11.5204 2.05325 11.7764C1.98225 11.9174 1.98225 12.0834 2.05325 12.2234C2.13325 12.3844 3.38625 14.8224 5.97525 16.6114L7.83225 14.7544Z" fill="currentColor"></path>
<path d="M18.0255 7.38843C20.6145 9.17743 21.8675 11.6154 21.9475 11.7764C22.0175 11.9174 22.0175 12.0834 21.9475 12.2234C21.8195 12.4804 18.7315 18.5004 12.0005 18.5004C10.3895 18.5004 8.99448 18.1504 7.79248 17.6224L9.24648 16.1684C10.0365 16.6924 10.9815 17.0004 12.0005 17.0004C14.7615 17.0004 17.0005 14.7614 17.0005 12.0004C17.0005 10.9814 16.6915 10.0364 16.1685 9.24543L18.0255 7.38843Z" fill="currentColor"></path>
</svg>