<svg width="1em" height="1em" viewBox="0 0 24 24" fill="none" xmlns="http://www.w3.org/2000/svg">
<path fill-rule="evenodd" clip-rule="evenodd" d="M9.77711 8.67412C10.4351 8.2346 11.2087 8 12 8C13.0612 8 14.0789 8.42143 14.8293 9.17157C15.5796 9.92172 16.0012 10.9391 16.0012 12C16.0012 12.7911 15.7665 13.5645 15.3268 14.2223C14.8872 14.8801 14.2623 15.3928 13.5312 15.6955C12.8001 15.9983 11.9956 16.0775 11.2194 15.9231C10.4433 15.7688 9.73036 15.3878 9.1708 14.8284C8.61123 14.269 8.23016 13.5563 8.07577 12.7804C7.92139 12.0044 8.00062 11.2002 8.30346 10.4693C8.6063 9.73836 9.11913 9.11365 9.77711 8.67412ZM10.8886 13.6629C11.2176 13.8827 11.6043 14 12 14C12.5306 14 13.0395 13.7893 13.4146 13.4142C13.7898 13.0391 14.0006 12.5304 14.0006 12C14.0006 11.6044 13.8833 11.2178 13.6634 10.8889C13.4436 10.56 13.1312 10.3036 12.7656 10.1522C12.4001 10.0009 11.9978 9.96126 11.6097 10.0384C11.2217 10.1156 10.8652 10.3061 10.5854 10.5858C10.3056 10.8655 10.1151 11.2219 10.0379 11.6098C9.96071 11.9978 10.0003 12.3999 10.1517 12.7654C10.3032 13.1308 10.5596 13.4432 10.8886 13.6629Z" fill="currentColor"></path>
<path fill-rule="evenodd" clip-rule="evenodd" d="M12 5C18.7119 5 21.7828 11.3 21.9028 11.57C21.9668 11.7043 22 11.8512 22 12C22 12.1488 21.9668 12.2957 21.9028 12.43C21.7828 12.7 18.7119 19 12 19C5.2881 19 2.21723 12.7 2.0972 12.43C2.03321 12.2957 2 12.1488 2 12C2 11.8512 2.03321 11.7043 2.0972 11.57C2.21723 11.3 5.2881 5 12 5ZM4.13778 12C4.87799 13.3 7.4187 17 12 17C16.5513 17 19.122 13.28 19.8622 12C19.122 10.7 16.5513 7 12 7C7.44871 7 4.87799 10.72 4.13778 12Z" fill="currentColor"></path>
</svg>