<svg width="1em" height="1em" viewBox="0 0 24 24" fill="none" xmlns="http://www.w3.org/2000/svg">
<path fill-rule="evenodd" clip-rule="evenodd" d="M6 3C5.44772 3 5 3.44772 5 4C5 4.55228 5.44772 5 6 5H7V8C7 10.0107 8.35337 11.2751 9.47 11.973L9.51353 12L9.47 12.027C8.35337 12.7249 7 13.9893 7 16V19H6C5.44772 19 5 19.4477 5 20C5 20.5523 5.44772 21 6 21H18C18.5523 21 19 20.5523 19 20C19 19.4477 18.5523 19 18 19H17V16C17 13.9893 15.6466 12.7249 14.53 12.027L14.4865 12L14.53 11.973C15.6466 11.2751 17 10.0107 17 8V5H18C18.5523 5 19 4.55228 19 4C19 3.44772 18.5523 3 18 3H6ZM15 16V16.5728C14.1268 16.9377 12.7296 17.2342 11 16.6C10.5111 16.3827 9.66812 16.2244 9 16.1252V16C9 15.0107 9.64663 14.2751 10.53 13.723C10.9575 13.4558 11.393 13.2644 11.7261 13.1395C11.8303 13.1004 11.9228 13.0684 12 13.0432C12.0772 13.0684 12.1697 13.1004 12.2739 13.1395C12.607 13.2644 13.0425 13.4558 13.47 13.723C14.3534 14.2751 15 15.0107 15 16ZM9 8V5H15V7.48104C14.3527 7.58251 13.7467 7.76464 13.157 7.94184C11.7865 8.35372 10.5047 8.73892 9.00011 8.02235C9.00004 8.01491 9 8.00746 9 8Z" fill="currentColor"></path>
</svg>