<svg width="1em" height="1em" viewBox="0 0 24 24" fill="none" xmlns="http://www.w3.org/2000/svg">
<path d="M21 10.8V9.5C21 8.2 20.2 7.1 19 6.7V6C19 4.3 17.7 3 16 3H5.8C4.2 3 3 4.2 3 5.8C3 5.9 3 5.9 3 6V18C3 19.7 4.3 21 6 21H18C19.7 21 21 19.7 21 18V16.2C21.6 15.9 22 15.2 22 14.5V12.5C22 11.8 21.6 11.1 21 10.8ZM20 12.5V14.5H17V12.5H20ZM5.8 5H16C16.6 5 17 5.4 17 6V6.5H5.8C5.3 6.5 5 6.2 5 5.8C5 5.4 5.3 5 5.8 5ZM18 19H6C5.4 19 5 18.6 5 18V8.4C5.2 8.5 5.5 8.5 5.8 8.5H18C18.6 8.5 19 8.9 19 9.5V10.5H17C15.9 10.5 15 11.4 15 12.5V14.5C15 15.6 15.9 16.5 17 16.5H19V18C19 18.6 18.6 19 18 19Z" fill="currentColor"></path>
</svg>