<svg width="1em" height="1em" viewBox="0 0 24 24" fill="none" xmlns="http://www.w3.org/2000/svg">
<path d="M12 18C12.5523 18 13 17.5523 13 17C13 16.4477 12.5523 16 12 16C11.4477 16 11 16.4477 11 17C11 17.5523 11.4477 18 12 18Z" fill="currentColor"></path>
<path d="M11 14C11 14.6 11.4 15 12 15C12.6 15 13 14.6 13 14V10C13 9.4 12.6 9 12 9C11.4 9 11 9.4 11 10V14Z" fill="currentColor"></path>
<path fill-rule="evenodd" clip-rule="evenodd" d="M13.2481 4.77701C13.0047 4.23836 12.4914 3.9751 11.9875 3.9751C11.4792 3.9751 10.9591 4.23892 10.6659 4.75203L2.86324 18.7567C2.85485 18.7718 2.84724 18.7873 2.84045 18.8031C2.6319 19.2898 2.65945 19.8291 2.90224 20.2586C3.1512 20.6991 3.61523 21.0001 4.20003 21.0001H19.8C20.3815 21.0001 20.8549 20.7008 21.0933 20.2439C21.3275 19.795 21.3122 19.2405 21.0356 18.7546L21.0341 18.752L13.2481 4.77701ZM11.5353 5.24615L3.75097 19.218C3.66969 19.4242 3.69329 19.6259 3.77281 19.7666C3.84886 19.9011 3.98482 20.0001 4.20003 20.0001H19.8C20.0185 20.0001 20.1451 19.8994 20.2067 19.7813C20.2721 19.6559 20.2879 19.4617 20.1659 19.2482L20.1632 19.2435L12.3632 5.24345C12.3549 5.22839 12.3472 5.2129 12.3405 5.19706C12.2789 5.05332 12.1506 4.9751 11.9875 4.9751C11.8215 4.9751 11.6422 5.06065 11.5353 5.24615Z" fill="currentColor"></path>
</svg>