<svg width="1em" height="1em" viewBox="0 0 24 24" fill="none" xmlns="http://www.w3.org/2000/svg">
<path fill-rule="evenodd" clip-rule="evenodd" d="M18.9886 10.9023C18.7802 14.5811 15.731 17.5 12 17.5C8.13401 17.5 5 14.366 5 10.5C5 6.63401 8.13401 3.5 12 3.5C12.5402 3.5 13.0661 3.5612 13.5712 3.67703C13.7369 3.36183 13.9352 3.06649 14.1617 2.79549C13.4741 2.60296 12.7491 2.5 12 2.5C7.58172 2.5 4 6.08172 4 10.5C4 14.7504 7.31464 18.2265 11.5 18.4846V21C11.5 21.2761 11.7239 21.5 12 21.5C12.2761 21.5 12.5 21.2761 12.5 21V18.4846C16.6577 18.2282 19.9562 14.7962 19.9996 10.5841C19.6787 10.7243 19.3404 10.8317 18.9886 10.9023ZM12 8.5C10.8954 8.5 10 9.39543 10 10.5C10 11.6046 10.8954 12.5 12 12.5C13.1046 12.5 14 11.6046 14 10.5C14 9.39543 13.1046 8.5 12 8.5ZM14.5 6C14.5 5.72386 14.7239 5.5 15 5.5H17.5V3C17.5 2.72386 17.7239 2.5 18 2.5C18.2761 2.5 18.5 2.72386 18.5 3V5.5H21C21.2761 5.5 21.5 5.72386 21.5 6C21.5 6.27614 21.2761 6.5 21 6.5H18.5V9C18.5 9.27614 18.2761 9.5 18 9.5C17.7239 9.5 17.5 9.27614 17.5 9V6.5H15C14.7239 6.5 14.5 6.27614 14.5 6Z" fill="currentColor"></path>
</svg>