<svg width="1em" height="1em" viewBox="0 0 24 24" fill="none" xmlns="http://www.w3.org/2000/svg">
<path fill-rule="evenodd" clip-rule="evenodd" d="M5 15H4C3.44772 15 3 15.4477 3 16C3 16.5523 3.44772 17 4 17H5V21C5 21.5523 5.44772 22 6 22H20C20.5523 22 21 21.5523 21 21V3C21 2.44772 20.5523 2 20 2H6C5.44772 2 5 2.44772 5 3V7H4C3.44772 7 3 7.44772 3 8C3 8.55228 3.44772 9 4 9H5V11H4C3.44772 11 3 11.4477 3 12C3 12.5523 3.44772 13 4 13H5V15ZM12 9V4H7V7H8C8.55228 7 9 7.44772 9 8C9 8.55228 8.55228 9 8 9H7V11H8C8.55228 11 9 11.4477 9 12C9 12.5523 8.55228 13 8 13H7V15H8C8.55228 15 9 15.4477 9 16C9 16.5523 8.55228 17 8 17H7V20H19V4H18V9C18 9.34658 17.8205 9.66844 17.5257 9.85065C17.2309 10.0329 16.8628 10.0494 16.5528 9.89443L15 9.11803L13.4472 9.89443C13.1372 10.0494 12.7691 10.0329 12.4743 9.85065C12.1795 9.66844 12 9.34658 12 9ZM16 4H14V7.38197L14.5528 7.10557C14.8343 6.96481 15.1657 6.96481 15.4472 7.10557L16 7.38197V4Z" fill="currentColor"></path>
</svg>