<svg width="1em" height="1em" viewBox="0 0 16 18" fill="none" xmlns="http://www.w3.org/2000/svg">
<path d="M11.5949 0C11.6749 1.04501 11.3444 2.08006 10.6736 2.88533C10.3524 3.28484 9.9447 3.60626 9.48127 3.82538C9.01783 4.0445 8.51071 4.1556 7.99811 4.15033C7.96541 3.64779 8.03207 3.14374 8.19428 2.66699C8.3565 2.19023 8.61109 1.75012 8.9435 1.37182C9.62336 0.597443 10.57 0.107639 11.5949 0Z" fill="currentColor"></path>
<path d="M13.4643 7.60594C13.1237 8.20601 12.9404 8.88248 12.9316 9.5724C12.9324 10.3485 13.1616 11.1071 13.5907 11.7538C14.0199 12.4004 14.6298 12.9064 15.3446 13.2087C15.0636 14.1217 14.64 14.9844 14.0895 15.765C13.3502 16.8709 12.575 17.9513 11.3447 17.9713C10.7596 17.9848 10.3647 17.8165 9.95309 17.6412C9.5238 17.4583 9.07645 17.2678 8.37644 17.2678C7.63404 17.2678 7.16666 17.4645 6.7159 17.6542C6.32636 17.8181 5.94923 17.9768 5.41773 17.9989C4.24607 18.0423 3.35064 16.8185 2.58447 15.723C1.05313 13.4857 -0.13928 9.41802 1.45931 6.65025C1.82836 5.98708 2.3629 5.43081 3.01085 5.03565C3.65879 4.64049 4.39805 4.41991 5.1566 4.39541C5.82112 4.38174 6.45876 4.63786 7.01781 4.86241C7.44535 5.03414 7.82691 5.1874 8.13936 5.1874C8.41403 5.1874 8.78495 5.04019 9.21723 4.86863C9.89817 4.59837 10.7314 4.26769 11.5804 4.35682C12.2311 4.37717 12.8681 4.54898 13.4408 4.85858C14.0135 5.16818 14.5061 5.60705 14.8795 6.14034C14.2917 6.5017 13.8049 7.00587 13.4643 7.60594Z" fill="currentColor"></path>
</svg>