<svg width="1em" height="1em" viewBox="0 0 24 24" fill="none" xmlns="http://www.w3.org/2000/svg">
<path fill-rule="evenodd" clip-rule="evenodd" d="M5.99978 4C5.56935 4 5.18721 4.27543 5.0511 4.68377L3.05477 10.6728C3.0465 10.6967 3.03911 10.721 3.03264 10.7456C3.00749 10.8409 2.99704 10.9369 3 11.0313V19C3 19.5523 3.44772 20 4 20H20C20.5523 20 21 19.5523 21 19V11.0105C21.0002 10.9869 20.9997 10.9633 20.9982 10.9396C20.9923 10.8399 20.9717 10.7442 20.9387 10.6545L18.9485 4.68377C18.8124 4.27543 18.4302 4 17.9998 4H5.99978ZM18.6124 10L17.279 6H6.72054L5.38721 10H9C9.55228 10 10 10.4477 10 11C10 12.1477 10.8523 13 12 13C13.1477 13 14 12.1477 14 11C14 10.4477 14.4477 10 15 10H18.6124ZM5 18V12H8.11978C8.55019 13.7491 10.0945 15 12 15C13.9055 15 15.4498 13.7491 15.8802 12H19V18H5Z" fill="currentColor"></path>
</svg>