<svg width="1em" height="1em" viewBox="0 0 24 24" fill="none" xmlns="http://www.w3.org/2000/svg">
<path fill-rule="evenodd" clip-rule="evenodd" d="M6.00011 5C5.81072 5 5.63759 5.107 5.5529 5.27639L3.05913 10.2639C3.02683 10.3241 3.0065 10.3917 3.00132 10.4634C3.00045 10.4754 3.00001 10.4873 3 10.4992C3 10.4995 3 10.4997 3 10.5V19.5C3 19.7761 3.22386 20 3.5 20H20.5C20.7761 20 21 19.7761 21 19.5V10.5144C21.0019 10.4494 20.9912 10.3834 20.9666 10.3199C20.9605 10.304 20.9536 10.2886 20.9459 10.2736L18.4473 5.27639C18.3626 5.107 18.1895 5 18.0001 5H6.00011ZM19.6911 10L17.6911 6H6.30913L4.30913 10H9C9.27614 10 9.5 10.2239 9.5 10.5C9.5 11.9239 10.5761 13 12 13C13.4239 13 14.5 11.9239 14.5 10.5C14.5 10.2239 14.7239 10 15 10H19.6911ZM4 19V11H8.53325C8.76593 12.7274 10.1941 14 12 14C13.8059 14 15.2341 12.7274 15.4668 11H20V19H4Z" fill="currentColor"></path>
</svg>