<svg width="1em" height="1em" viewBox="0 0 24 24" fill="none" xmlns="http://www.w3.org/2000/svg">
<path fill-rule="evenodd" clip-rule="evenodd" d="M12 3C9.27614 3 7 5.27614 7 8V15.5C7 15.7761 6.77614 16 6.5 16C6.22386 16 6 15.7761 6 15.5V8C6 4.72386 8.72386 2 12 2C15.2761 2 18 4.72386 18 8V17.8C18 20.1849 16.0673 22 13.8 22C11.4151 22 9.6 20.0673 9.6 17.8V9.5C9.6 8.12386 10.7239 7 12.1 7C13.4761 7 14.6 8.12386 14.6 9.5V15.5C14.6 15.7761 14.3761 16 14.1 16C13.8239 16 13.6 15.7761 13.6 15.5V9.5C13.6 8.67614 12.9239 8 12.1 8C11.2761 8 10.6 8.67614 10.6 9.5V17.8C10.6 19.5327 11.9849 21 13.8 21C15.5327 21 17 19.6151 17 17.8V8C17 5.27614 14.7239 3 12 3Z" fill="currentColor"></path>
</svg>