<svg width="1em" height="1em" viewBox="0 0 24 24" fill="none" xmlns="http://www.w3.org/2000/svg">
<path fill-rule="evenodd" clip-rule="evenodd" d="M10.525 4.22581C10.6538 3.52832 11.2652 3 12 3C12.7355 3 13.3473 3.52929 13.4754 4.22773C15.651 4.9182 17.2094 7.09372 17.2996 9.5785C17.3492 10.5686 17.4978 12.5172 17.8294 14.3353C17.9957 15.2467 18.2049 16.1074 18.4632 16.7923C18.732 17.5051 19.0156 17.9201 19.265 18.076C19.4542 18.1942 19.5422 18.4234 19.4807 18.6378C19.4192 18.8523 19.2231 19 19 19H14.4495C14.2166 20.1383 13.205 21 12 21C10.795 21 9.78341 20.1383 9.55046 19H5.00004C4.7745 19 4.57687 18.849 4.51761 18.6314C4.45835 18.4137 4.55213 18.1834 4.74653 18.069C5.01734 17.9097 5.31009 17.5 5.58075 16.802C5.8421 16.1281 6.04777 15.2795 6.20769 14.3754C6.52583 12.5767 6.64996 10.6349 6.70006 9.58781C6.70531 7.08008 8.33183 4.91207 10.525 4.22581ZM10.5865 19C10.7939 19.5806 11.3512 20 12 20C12.6488 20 13.2061 19.5806 13.4135 19H10.5865ZM14 18H17.9194C17.7691 17.7354 17.6401 17.4436 17.5275 17.1452C17.239 16.3801 17.0169 15.4533 16.8457 14.5147C16.5027 12.6349 16.3512 10.636 16.3007 9.62497L16.3003 9.61785L16.3004 9.61785C16.2082 7.03667 14.2833 5 12 5C9.702 5 7.70004 7.0496 7.70004 9.6C7.70004 9.60793 7.69986 9.61586 7.69948 9.62378C7.64921 10.6794 7.52308 12.68 7.1924 14.5496C7.02732 15.483 6.80798 16.4032 6.51309 17.1636C6.39969 17.456 6.26908 17.7411 6.11655 18H10H14Z" fill="currentColor"></path>
</svg>