<svg width="1em" height="1em" viewBox="0 0 24 24" fill="none" xmlns="http://www.w3.org/2000/svg">
<path d="M9.86211 17.2125C9.52461 17.4375 9.22461 17.7 8.92461 18C7.72461 19.0875 6.52461 20.2125 5.28711 21.3375C5.21211 21.45 5.06211 21.5625 4.91211 21.525L10.5371 1.875C11.3621 3.45 12.1496 4.95 12.9746 6.4125C13.7996 8.025 14.6246 9.6375 15.4871 11.2125C15.7121 11.475 15.6746 11.85 15.4121 12.0375C15.3746 12.0375 15.3746 12.075 15.3371 12.075C13.4996 13.725 11.7371 15.375 9.93711 17.0625C9.86211 17.1 9.82461 17.175 9.86211 17.2125C9.82461 17.2125 9.82461 17.2125 9.86211 17.2125Z" fill="#FE7A09"></path>
<path d="M9.89922 17.1C11.6992 15.45 13.4992 13.7625 15.2992 12.1125C15.5617 11.925 15.6742 11.5875 15.4867 11.2875C15.4867 11.25 15.4492 11.25 15.4492 11.2125C14.5867 9.63755 13.7617 8.02505 12.9367 6.41255C13.2742 5.25005 13.6117 4.08755 13.9867 2.88755C14.0242 2.77505 14.0617 2.66255 14.0992 2.55005C14.2117 2.58755 14.2867 2.66255 14.2867 2.77505C15.8992 5.85005 17.5117 8.96255 19.1242 12.0375C19.2367 12.1875 19.2367 12.4125 19.0867 12.525C19.0867 12.525 19.0492 12.525 19.0492 12.5625C15.5992 15.75 12.1492 18.9 8.73672 22.05C8.66172 22.125 8.58672 22.125 8.51172 22.125C8.62422 21.7125 8.73672 21.3 8.84922 20.8876C9.18672 19.7626 9.48672 18.6376 9.82422 17.5125C9.89922 17.4 9.89922 17.2875 9.86172 17.175C9.93672 17.2125 9.89922 17.1375 9.89922 17.1Z" fill="#028C3C"></path>
</svg>