<svg width="1em" height="1em" viewBox="0 0 24 24" fill="none" xmlns="http://www.w3.org/2000/svg">
<path d="M15.666 8.50438C15.9398 8.54088 16.1321 8.79236 16.0956 9.06608L14.8956 18.0661C14.8591 18.3398 14.6076 18.5321 14.3339 18.4956C14.0602 18.4591 13.8679 18.2076 13.9043 17.9339L15.1043 8.93391C15.1408 8.66019 15.3923 8.46789 15.666 8.50438Z" fill="currentColor"></path>
<path d="M8.89557 8.93391C8.85908 8.66019 8.6076 8.46789 8.33388 8.50438C8.06016 8.54088 7.86785 8.79236 7.90435 9.06608L9.10435 18.0661C9.14084 18.3398 9.39232 18.5321 9.66604 18.4956C9.93976 18.4591 10.1321 18.2076 10.0956 17.9339L8.89557 8.93391Z" fill="currentColor"></path>
<path d="M12.5 9C12.5 8.72386 12.2761 8.5 12 8.5C11.7239 8.5 11.5 8.72386 11.5 9V18C11.5 18.2761 11.7239 18.5 12 18.5C12.2761 18.5 12.5 18.2761 12.5 18V9Z" fill="currentColor"></path>
<path fill-rule="evenodd" clip-rule="evenodd" d="M12 2C13.8059 2 15.2341 3.2726 15.4668 5H20.5C20.7761 5 21 5.22386 21 5.5C21 5.77614 20.7761 6 20.5 6H19.4414L17.4961 21.562C17.4649 21.8122 17.2522 22 17 22H7C6.74784 22 6.53514 21.8122 6.50386 21.562L4.55861 6H3.5C3.22386 6 3 5.77614 3 5.5C3 5.22386 3.22386 5 3.5 5H8.53325C8.76593 3.2726 10.1941 2 12 2ZM9.54592 5C9.76535 3.83161 10.7483 3 12 3C13.2517 3 14.2346 3.83161 14.4541 5H9.54592ZM18.4336 6L16.5586 21H7.44139L5.56639 6H18.4336Z" fill="currentColor"></path>
</svg>