<svg width="1em" height="1em" viewBox="0 0 24 24" fill="none" xmlns="http://www.w3.org/2000/svg">
<path d="M12 7C12.5523 7 13 7.44772 13 8V9H14C14.5523 9 15 9.44772 15 10C15 10.5523 14.5523 11 14 11H13V12C13 12.5523 12.5523 13 12 13C11.4477 13 11 12.5523 11 12V11H10C9.44772 11 9 10.5523 9 10C9 9.44772 9.44772 9 10 9H11V8C11 7.44772 11.4477 7 12 7Z" fill="currentColor"></path>
<path fill-rule="evenodd" clip-rule="evenodd" d="M6 3C5.44772 3 5 3.44772 5 4V20C5 20.3466 5.17945 20.6684 5.47427 20.8507C5.76909 21.0329 6.13723 21.0494 6.44721 20.8944L12 18.118L17.5528 20.8944C17.8628 21.0494 18.2309 21.0329 18.5257 20.8507C18.8205 20.6684 19 20.3466 19 20V4C19 3.44772 18.5523 3 18 3H6ZM7 18.382V5H17V18.382L12.4472 16.1056C12.1657 15.9648 11.8343 15.9648 11.5528 16.1056L7 18.382Z" fill="currentColor"></path>
</svg>