<svg width="1em" height="1em" viewBox="0 0 24 24" fill="none" xmlns="http://www.w3.org/2000/svg">
<path fill-rule="evenodd" clip-rule="evenodd" d="M5 3C5 2.44772 5.44772 2 6 2H18C18.5523 2 19 2.44772 19 3V21C19 21.3688 18.797 21.7077 18.4719 21.8817C18.1467 22.0557 17.7522 22.0366 17.4453 21.8321L12 18.2019L6.5547 21.8321C6.24784 22.0366 5.8533 22.0557 5.52814 21.8817C5.20298 21.7077 5 21.3688 5 21V3ZM7 4V19.1315L11.4453 16.1679C11.7812 15.944 12.2188 15.944 12.5547 16.1679L17 19.1315V4H7Z" fill="currentColor"></path>
</svg>