<svg width="1em" height="1em" viewBox="0 0 24 24" fill="none" xmlns="http://www.w3.org/2000/svg">
<path fill-rule="evenodd" clip-rule="evenodd" d="M3 11C3 6.04772 7.04772 2 12 2C16.9523 2 21 6.04772 21 11C21 15.1664 18.2212 18.5757 14.4586 19.6832L12.7568 21.6536C12.5669 21.8736 12.2906 22 12 22C11.7094 22 11.4331 21.8736 11.2432 21.6536L9.54143 19.6832C5.77877 18.5757 3 15.1664 3 11ZM12 4C8.15228 4 5 7.15228 5 11C5 14.3201 7.26783 17.0392 10.349 17.8315C10.5464 17.8823 10.7236 17.9921 10.8568 18.1464L12 19.4701L13.1432 18.1464C13.2764 17.9921 13.4536 17.8823 13.651 17.8315C16.7322 17.0392 19 14.3201 19 11C19 7.15228 15.8477 4 12 4ZM12.816 6.44765C12.6308 6.16985 12.3303 6 12.0125 6C11.6898 6 11.3704 6.18268 11.238 6.5323L10.2865 8.53042L10.283 8.53367L10.2801 8.5364L8.03532 8.8292C8.00355 8.83334 7.97226 8.84053 7.94187 8.85066C7.61048 8.96112 7.40487 9.2318 7.3301 9.50594C7.25668 9.77515 7.29188 10.124 7.54643 10.3786L9.09254 11.9247L8.70738 14.1393C8.70246 14.1676 8.69999 14.1963 8.69999 14.225C8.69999 14.9074 9.37435 15.2939 9.9581 15.0993C9.98675 15.0898 10.0145 15.0777 10.0409 15.0631L11.9284 14.025H12.0716L13.959 15.0631C13.9855 15.0777 14.0132 15.0898 14.0419 15.0993C14.3373 15.1978 14.6635 15.15 14.9072 15.0037C15.0337 14.9279 15.1628 14.8103 15.2425 14.6422C15.3204 14.4777 15.3371 14.2923 15.2876 14.1108L14.908 11.9277L16.5427 10.3891C16.5703 10.3631 16.5949 10.334 16.616 10.3024C16.7905 10.0406 16.848 9.71753 16.7699 9.43094C16.6903 9.13937 16.443 8.84384 16.0391 8.82586L13.8199 8.5364L13.817 8.53367L13.8135 8.53042L12.8514 6.51003C12.8411 6.48842 12.8293 6.46757 12.816 6.44765Z" fill="currentColor"></path>
</svg>