<svg width="1em" height="1em" viewBox="0 0 24 24" fill="none" xmlns="http://www.w3.org/2000/svg">
<path fill-rule="evenodd" clip-rule="evenodd" d="M3 11C3 6.02386 7.02386 2 12 2C16.9761 2 21 6.02386 21 11C21 15.2783 18.018 18.8372 14.0772 19.7507L12.387 21.8166C12.292 21.9327 12.15 22 12 22C11.85 22 11.708 21.9327 11.613 21.8166L9.92276 19.7507C5.98201 18.8372 3 15.2783 3 11ZM12 3C7.57614 3 4 6.57614 4 11C4 14.8589 6.72976 18.0585 10.303 18.8107C10.4146 18.8342 10.5148 18.8951 10.587 18.9834L12 20.7104L13.413 18.9834C13.4852 18.8951 13.5854 18.8342 13.697 18.8107C17.2702 18.0585 20 14.8589 20 11C20 6.57614 16.4239 3 12 3ZM12.816 6.82265C12.6308 6.54485 12.3303 6.375 12.0125 6.375C11.6898 6.375 11.3704 6.55768 11.238 6.9073L10.2865 8.90542L10.283 8.90867L10.2801 8.9114L8.03532 9.2042C8.00355 9.20834 7.97226 9.21553 7.94187 9.22566C7.61048 9.33612 7.40487 9.6068 7.3301 9.88094C7.25668 10.1502 7.29188 10.499 7.54643 10.7536L9.09254 12.2997L8.70738 14.5143C8.70246 14.5426 8.69999 14.5713 8.69999 14.6C8.69999 15.2824 9.37435 15.6689 9.9581 15.4743C9.98675 15.4648 10.0145 15.4527 10.0409 15.4381L11.9284 14.4H12.0716L13.959 15.4381C13.9855 15.4527 14.0132 15.4648 14.0419 15.4743C14.3373 15.5728 14.6635 15.525 14.9072 15.3787C15.0337 15.3029 15.1628 15.1853 15.2425 15.0172C15.3204 14.8527 15.3371 14.6673 15.2876 14.4858L14.908 12.3027L16.5427 10.7641C16.5703 10.7381 16.5949 10.709 16.616 10.6774C16.7905 10.4156 16.848 10.0925 16.7699 9.80594C16.6903 9.51437 16.443 9.21884 16.0391 9.20086L13.8199 8.9114L13.817 8.90867L13.8135 8.90542L12.8514 6.88503C12.8411 6.86342 12.8293 6.84257 12.816 6.82265Z" fill="currentColor"></path>
</svg>