<svg width="1em" height="1em" viewBox="0 0 24 24" fill="none" xmlns="http://www.w3.org/2000/svg">
<path fill-rule="evenodd" clip-rule="evenodd" d="M4 4C4 3.44772 4.44772 3 5 3H13.5C14.0523 3 14.5 3.44772 14.5 4V7H19C19.5523 7 20 7.44772 20 8V18H21C21.5523 18 22 18.4477 22 19C22 19.5523 21.5523 20 21 20H19H13.5H5H3C2.44772 20 2 19.5523 2 19C2 18.4477 2.44772 18 3 18H4V4ZM6 18H12.5V8V5H6V18ZM14.5 18H18V9H14.5V18ZM15.2998 13.5C15.2998 13.2239 15.5237 13 15.7998 13H16.7998C17.0759 13 17.2998 13.2239 17.2998 13.5V14.5C17.2998 14.7761 17.0759 15 16.7998 15H15.7998C15.5237 15 15.2998 14.7761 15.2998 14.5V13.5ZM10.2002 12C9.92405 12 9.7002 12.2239 9.7002 12.5V13.5C9.7002 13.7761 9.92405 14 10.2002 14H11.2002C11.4763 14 11.7002 13.7761 11.7002 13.5V12.5C11.7002 12.2239 11.4763 12 11.2002 12H10.2002ZM6.7002 12.5C6.7002 12.2239 6.92405 12 7.2002 12H8.2002C8.47634 12 8.7002 12.2239 8.7002 12.5V13.5C8.7002 13.7761 8.47634 14 8.2002 14H7.2002C6.92405 14 6.7002 13.7761 6.7002 13.5V12.5ZM15.7998 10C15.5237 10 15.2998 10.2239 15.2998 10.5V11.5C15.2998 11.7761 15.5237 12 15.7998 12H16.7998C17.0759 12 17.2998 11.7761 17.2998 11.5V10.5C17.2998 10.2239 17.0759 10 16.7998 10H15.7998ZM9.7002 9.5C9.7002 9.22386 9.92405 9 10.2002 9H11.2002C11.4763 9 11.7002 9.22386 11.7002 9.5V10.5C11.7002 10.7761 11.4763 11 11.2002 11H10.2002C9.92405 11 9.7002 10.7761 9.7002 10.5V9.5ZM7.2002 9C6.92405 9 6.7002 9.22386 6.7002 9.5V10.5C6.7002 10.7761 6.92405 11 7.2002 11H8.2002C8.47634 11 8.7002 10.7761 8.7002 10.5V9.5C8.7002 9.22386 8.47634 9 8.2002 9H7.2002ZM9.7002 6.5C9.7002 6.22386 9.92405 6 10.2002 6H11.2002C11.4763 6 11.7002 6.22386 11.7002 6.5V7.5C11.7002 7.77614 11.4763 8 11.2002 8H10.2002C9.92405 8 9.7002 7.77614 9.7002 7.5V6.5ZM7.2002 6C6.92405 6 6.7002 6.22386 6.7002 6.5V7.5C6.7002 7.77614 6.92405 8 7.2002 8H8.2002C8.47634 8 8.7002 7.77614 8.7002 7.5V6.5C8.7002 6.22386 8.47634 6 8.2002 6H7.2002Z" fill="currentColor"></path>
</svg>