<svg width="1em" height="1em" viewBox="0 0 24 24" fill="none" xmlns="http://www.w3.org/2000/svg">
<path fill-rule="evenodd" clip-rule="evenodd" d="M6.5 9.5C6.5 6.47614 8.97614 4 12 4C15.0239 4 17.5 6.47614 17.5 9.5C17.5 10.9631 16.7295 12.0939 15.8604 13.1741C15.7591 13.3 15.6551 13.4268 15.5508 13.5541L15.5508 13.5541C15.2232 13.9535 14.8923 14.3571 14.6308 14.7492C14.3748 15.1333 14.1542 15.5495 14.0554 16H9.94462C9.84579 15.5495 9.62522 15.1333 9.36915 14.7492C9.10773 14.3571 8.77682 13.9535 8.44923 13.5541L8.44922 13.5541C8.34488 13.4268 8.24088 13.3 8.13956 13.1741C7.27048 12.0939 6.5 10.9631 6.5 9.5ZM12 3C8.42386 3 5.5 5.92386 5.5 9.5C5.5 11.3369 6.47952 12.7061 7.36044 13.8009C7.47752 13.9465 7.59156 14.0856 7.70167 14.2199L7.70168 14.2199C8.02005 14.6083 8.30561 14.9567 8.5371 15.3039C8.8451 15.7659 9 16.1467 9 16.5C9 16.7761 9.22386 17 9.5 17H14.5C14.7761 17 15 16.7761 15 16.5C15 16.1467 15.1549 15.7659 15.4629 15.3039C15.6944 14.9567 15.9799 14.6083 16.2983 14.2199L16.2983 14.2199C16.4084 14.0856 16.5225 13.9465 16.6396 13.8009C17.5205 12.7061 18.5 11.3369 18.5 9.5C18.5 5.92386 15.5761 3 12 3ZM21.3536 6.85355C21.5488 6.65829 21.5488 6.34171 21.3536 6.14645C21.1583 5.95118 20.8417 5.95118 20.6464 6.14645L19.6464 7.14645C19.4512 7.34171 19.4512 7.65829 19.6464 7.85355C19.8417 8.04882 20.1583 8.04882 20.3536 7.85355L21.3536 6.85355ZM2 9.5C2 9.22386 2.22386 9 2.5 9H4C4.27614 9 4.5 9.22386 4.5 9.5C4.5 9.77614 4.27614 10 4 10H2.5C2.22386 10 2 9.77614 2 9.5ZM21.5 9H20C19.7239 9 19.5 9.22386 19.5 9.5C19.5 9.77614 19.7239 10 20 10H21.5C21.7761 10 22 9.77614 22 9.5C22 9.22386 21.7761 9 21.5 9ZM4.35355 11.1464C4.54882 11.3417 4.54882 11.6583 4.35355 11.8536L3.35355 12.8536C3.15829 13.0488 2.84171 13.0488 2.64645 12.8536C2.45118 12.6583 2.45118 12.3417 2.64645 12.1464L3.64645 11.1464C3.84171 10.9512 4.15829 10.9512 4.35355 11.1464ZM21.3536 12.1464L20.3536 11.1464C20.1583 10.9512 19.8417 10.9512 19.6464 11.1464C19.4512 11.3417 19.4512 11.6583 19.6464 11.8536L20.6464 12.8536C20.8417 13.0488 21.1583 13.0488 21.3536 12.8536C21.5488 12.6583 21.5488 12.3417 21.3536 12.1464ZM9 18C9 17.7239 9.22386 17.5 9.5 17.5H14.5C14.7761 17.5 15 17.7239 15 18C15 18.2761 14.7761 18.5 14.5 18.5H9.5C9.22386 18.5 9 18.2761 9 18ZM9.5 19C9.22386 19 9 19.2239 9 19.5C9 19.7761 9.22386 20 9.5 20H10.5742C10.6426 20.2178 10.7583 20.4154 10.9214 20.5786C11.2028 20.8599 11.5864 21 12 21C12.4136 21 12.7972 20.8599 13.0786 20.5786C13.2417 20.4154 13.3574 20.2178 13.4258 20H14.5C14.7761 20 15 19.7761 15 19.5C15 19.2239 14.7761 19 14.5 19H13H11H9.5ZM2.64645 6.14645C2.84171 5.95118 3.15829 5.95118 3.35355 6.14645L4.35355 7.14645C4.54882 7.34171 4.54882 7.65829 4.35355 7.85355C4.15829 8.04882 3.84171 8.04882 3.64645 7.85355L2.64645 6.85355C2.45118 6.65829 2.45118 6.34171 2.64645 6.14645Z" fill="currentColor"></path>
</svg>