<svg width="1em" height="1em" viewBox="0 0 24 24" fill="none" xmlns="http://www.w3.org/2000/svg">
<path d="M12 3C8.4 3 5.5 5.9 5.5 9.5C5.5 11.5 6.7 13 7.7 14.2C7.76008 14.2772 7.81943 14.353 7.87772 14.4274L7.87842 14.4283C8.49888 15.2205 9 15.8604 9 16.5C9 16.8 9.2 17 9.5 17H14.5C14.8 17 15 16.8 15 16.5C15 15.8604 15.501 15.2208 16.1214 14.4286L16.1224 14.4273C16.1807 14.3529 16.24 14.2772 16.3 14.2C17.3 13 18.5 11.5 18.5 9.5C18.5 5.9 15.6 3 12 3Z" fill="currentColor"></path>
<path d="M21.5 9H20C19.7 9 19.5 9.2 19.5 9.5C19.5 9.8 19.7 10 20 10H21.5C21.8 10 22 9.8 22 9.5C22 9.2 21.8 9 21.5 9Z" fill="currentColor"></path>
<path d="M19.6998 11.1C19.8998 10.9 20.1998 10.9 20.3998 11.1L21.3998 12.2C21.5998 12.4 21.5998 12.7 21.3998 12.9C21.2998 13 21.0998 13 20.9998 13C20.8998 13 20.6998 13 20.6998 12.8L19.6998 11.8C19.4998 11.6 19.4998 11.3 19.6998 11.1Z" fill="currentColor"></path>
<path d="M19.9998 8.00005C20.0998 8.00005 20.2998 8.00005 20.3998 7.90005L21.3998 6.90005C21.5998 6.70005 21.5998 6.40005 21.3998 6.20005C21.1998 6.00005 20.8998 6.00005 20.6998 6.20005L19.6998 7.20005C19.4998 7.40005 19.4998 7.70005 19.6998 7.90005C19.6998 8.00005 19.8998 8.00005 19.9998 8.00005Z" fill="currentColor"></path>
<path d="M2.5 9H4C4.3 9 4.5 9.2 4.5 9.5C4.5 9.8 4.3 10 4 10H2.5C2.2 10 2 9.8 2 9.5C2 9.2 2.2 9 2.5 9Z" fill="currentColor"></path>
<path d="M3.6002 11.1001L2.6002 12.1001C2.4002 12.3001 2.4002 12.6001 2.6002 12.8001C2.7002 13.0001 2.9002 13.0001 3.0002 13.0001C3.1002 13.0001 3.3002 13.0001 3.4002 12.9001L4.4002 11.9001C4.6002 11.7001 4.6002 11.4001 4.4002 11.2001C4.2002 11.0001 3.8002 11.0001 3.6002 11.1001Z" fill="currentColor"></path>
<path d="M2.6002 6.0999C2.8002 5.9999 3.2002 5.9999 3.4002 6.0999L4.4002 7.1999C4.6002 7.3999 4.6002 7.6999 4.4002 7.8999C4.3002 7.9999 4.1002 7.9999 4.0002 7.9999C3.9002 7.9999 3.7002 7.9999 3.6002 7.7999L2.6002 6.7999C2.4002 6.5999 2.4002 6.1999 2.6002 6.0999Z" fill="currentColor"></path>
<path d="M9.5 19C9.2 19 9 19.2 9 19.5C9 19.8 9.2 20 9.5 20H10.6C10.8 20.6 11.4 21 12 21C12.6 21 13.2 20.6 13.4 20H14.5C14.8 20 15 19.8 15 19.5C15 19.2 14.8 19 14.5 19H9.5Z" fill="currentColor"></path>
<path d="M9 18C9 17.7 9.2 17.5 9.5 17.5H14.5C14.8 17.5 15 17.7 15 18C15 18.3 14.8 18.5 14.5 18.5H9.5C9.2 18.5 9 18.3 9 18Z" fill="currentColor"></path>
</svg>