<svg width="1em" height="1em" viewBox="0 0 24 24" fill="none" xmlns="http://www.w3.org/2000/svg">
<path fill-rule="evenodd" clip-rule="evenodd" d="M7 5.5C7 4.14772 8.14772 3 9.5 3H14.5C15.8523 3 17 4.14772 17 5.5V6H21C21.5523 6 22 6.44772 22 7V20C22 20.5523 21.5523 21 21 21H3C2.44772 21 2 20.5523 2 20V7C2 6.44772 2.44772 6 3 6H7V5.5ZM9 6H15V5.5C15 5.25228 14.7477 5 14.5 5H9.5C9.25229 5 9 5.25228 9 5.5V6ZM4 13.9947V19H20V13.9947C19.1632 14.6254 18.1236 15 17 15H15C15 15.5523 14.5523 16 14 16H10C9.44772 16 9 15.5523 9 15H7C5.87636 15 4.83683 14.6254 4 13.9947ZM15 13H17C18.6477 13 20 11.6477 20 10V8H4V10C4 11.6477 5.35228 13 7 13H9C9 12.4477 9.44772 12 10 12H14C14.5523 12 15 12.4477 15 13Z" fill="currentColor"></path>
</svg>