<svg width="1em" height="1em" viewBox="0 0 24 24" fill="none" xmlns="http://www.w3.org/2000/svg">
<path fill-rule="evenodd" clip-rule="evenodd" d="M8.5 4C8.08638 4 7.70284 4.14006 7.42145 4.42145C7.14006 4.70284 7 5.08638 7 5.5V7H4C3.4 7 3 7.4 3 8V10.5C3 12.1239 4.37614 13.5 6 13.5H9.5C9.5 13.2364 9.59006 12.9778 9.78395 12.7839C9.97784 12.5901 10.2364 12.5 10.5 12.5H13.5C13.7636 12.5 14.0222 12.5901 14.2161 12.7839C14.4099 12.9778 14.5 13.2364 14.5 13.5H18C19.6239 13.5 21 12.1239 21 10.5V8C21 7.4 20.6 7 20 7H17V5.5C17 5.08638 16.8599 4.70284 16.5786 4.42145C16.2972 4.14006 15.9136 4 15.5 4H8.5ZM16 7V5.5C16 5.31362 15.9401 5.19716 15.8714 5.12855C15.8028 5.05994 15.6864 5 15.5 5H8.5C8.31362 5 8.19716 5.05994 8.12855 5.12855C8.05994 5.19716 8 5.31362 8 5.5V7H16Z" fill="currentColor"></path>
<path d="M3 13.1197V19C3 19.6 3.4 20 4 20H20C20.6 20 21 19.6 21 19V13.1197C20.2616 13.9611 19.1829 14.5 18 14.5H14.5C14.5 14.7636 14.4099 15.0222 14.2161 15.2161C14.0222 15.4099 13.7636 15.5 13.5 15.5H10.5C10.2364 15.5 9.97784 15.4099 9.78395 15.2161C9.59006 15.0222 9.5 14.7636 9.5 14.5H6C4.81714 14.5 3.73836 13.9611 3 13.1197Z" fill="currentColor"></path>
</svg>