<svg width="1em" height="1em" viewBox="0 0 24 24" fill="none" xmlns="http://www.w3.org/2000/svg">
<path fill-rule="evenodd" clip-rule="evenodd" d="M6 3C6.27614 3 6.5 3.22386 6.5 3.5V4H11.5V3.5C11.5 3.22386 11.7239 3 12 3C12.2761 3 12.5 3.22386 12.5 3.5V4H17.5V3.5C17.5 3.22386 17.7239 3 18 3C18.2761 3 18.5 3.22386 18.5 3.5V4H19.5C19.9136 4 20.2972 4.14006 20.5786 4.42145C20.8599 4.70284 21 5.08638 21 5.5V19.5C21 19.9136 20.8599 20.2972 20.5786 20.5786C20.2972 20.8599 19.9136 21 19.5 21H4.5C4.08638 21 3.70284 20.8599 3.42145 20.5786C3.14006 20.2972 3 19.9136 3 19.5V5.5C3 5.08638 3.14006 4.70284 3.42145 4.42145C3.70284 4.14006 4.08638 4 4.5 4H5.5V3.5C5.5 3.22386 5.72386 3 6 3ZM4 16.7V19.5C4 19.6864 4.05994 19.8028 4.12855 19.8714C4.19716 19.9401 4.31362 20 4.5 20H7.3V16.7H4ZM7.3 15.7H4V12.3H7.3V15.7ZM8.3 16.7V20H11.5V16.7H8.3ZM11.5 15.7H8.3V12.3H11.5V15.7ZM12.5 16.7V20H15.7V16.7H12.5ZM15.7 15.7H12.5V12.3H15.7V15.7ZM16.7 16.7V20H19.5C19.6864 20 19.8028 19.9401 19.8714 19.8714C19.9401 19.8028 20 19.6864 20 19.5V16.7H16.7ZM20 15.7H16.7V12.3H20V15.7ZM20 8V11.3H16.7V8H20ZM15.7 8V11.3H12.5V8H15.7ZM11.5 8V11.3H8.3V8H11.5ZM7.3 8V11.3H4V8H7.3ZM20 7V5.5C20 5.31362 19.9401 5.19716 19.8714 5.12855C19.8028 5.05994 19.6864 5 19.5 5H18.5V5.5C18.5 5.77614 18.2761 6 18 6C17.7239 6 17.5 5.77614 17.5 5.5V5H12.5V5.5C12.5 5.77614 12.2761 6 12 6C11.7239 6 11.5 5.77614 11.5 5.5V5H6.5V5.5C6.5 5.77614 6.27614 6 6 6C5.72386 6 5.5 5.77614 5.5 5.5V5H4.5C4.31362 5 4.19716 5.05994 4.12855 5.12855C4.05994 5.19716 4 5.31362 4 5.5V7H20Z" fill="currentColor"></path>
</svg>