<svg width="1em" height="1em" viewBox="0 0 24 24" fill="none" xmlns="http://www.w3.org/2000/svg">
<path fill-rule="evenodd" clip-rule="evenodd" d="M7 13C7 10.2386 9.23858 8 12 8C14.7614 8 17 10.2386 17 13C17 15.7614 14.7614 18 12 18C9.23858 18 7 15.7614 7 13ZM12 10C10.3431 10 9 11.3431 9 13C9 14.6569 10.3431 16 12 16C13.6569 16 15 14.6569 15 13C15 11.3431 13.6569 10 12 10Z" fill="currentColor"></path>
<path d="M7 9C7 9.55228 6.55228 10 6 10C5.44772 10 5 9.55228 5 9C5 8.44772 5.44772 8 6 8C6.55228 8 7 8.44772 7 9Z" fill="currentColor"></path>
<path fill-rule="evenodd" clip-rule="evenodd" d="M8.73806 3.35235C8.92806 3.12882 9.20663 3 9.5 3H14.5C14.7934 3 15.0719 3.12882 15.2619 3.35235L16.6624 5H20C20.5272 5 21.0443 5.18011 21.4321 5.56789C21.8199 5.95567 22 6.47275 22 7V19C22 19.5272 21.8199 20.0443 21.4321 20.4321C21.0443 20.8199 20.5272 21 20 21H4C3.47275 21 2.95567 20.8199 2.56789 20.4321C2.18011 20.0443 2 19.5272 2 19V7C2 6.47275 2.18011 5.95567 2.56789 5.56789C2.95567 5.18011 3.47275 5 4 5H7.33756L8.73806 3.35235ZM9.96244 5L8.56194 6.64765C8.37194 6.87118 8.09337 7 7.8 7H4V19H20V7H16.2C15.9066 7 15.6281 6.87118 15.4381 6.64765L14.0376 5H9.96244Z" fill="currentColor"></path>
</svg>