<svg width="1em" height="1em" viewBox="0 0 24 24" fill="none" xmlns="http://www.w3.org/2000/svg">
<path d="M15.7071 3.29289C15.3166 2.90237 14.6834 2.90237 14.2929 3.29289C13.9024 3.68342 13.9024 4.31658 14.2929 4.70711L16.5858 7H5C4.44772 7 4 7.44772 4 8C4 8.55228 4.44772 9 5 9H16.5858L14.2929 11.2929C13.9024 11.6834 13.9024 12.3166 14.2929 12.7071C14.6834 13.0976 15.3166 13.0976 15.7071 12.7071L19.7071 8.70711C20.0976 8.31658 20.0976 7.68342 19.7071 7.29289L15.7071 3.29289Z" fill="currentColor"></path>
<path d="M8.29289 11.2929C8.68342 10.9024 9.31658 10.9024 9.70711 11.2929C10.0976 11.6834 10.0976 12.3166 9.70711 12.7071L7.41421 15H19C19.5523 15 20 15.4477 20 16C20 16.5523 19.5523 17 19 17H7.41421L9.70711 19.2929C10.0976 19.6834 10.0976 20.3166 9.70711 20.7071C9.31658 21.0976 8.68342 21.0976 8.29289 20.7071L4.29289 16.7071C3.90237 16.3166 3.90237 15.6834 4.29289 15.2929L8.29289 11.2929Z" fill="currentColor"></path>
</svg>