<svg width="1em" height="1em" viewBox="0 0 20 20" fill="none" xmlns="http://www.w3.org/2000/svg">
<path fill-rule="evenodd" clip-rule="evenodd" d="M0 3C0 1.34772 1.34772 0 3 0H17C18.6523 0 20 1.34772 20 3V17C20 18.6523 18.6523 20 17 20H3C1.34772 20 0 18.6523 0 17V3ZM14.7459 7.86604C15.1138 7.45407 15.078 6.82191 14.666 6.45408C14.254 6.08625 13.6219 6.12204 13.2541 6.53401L8.95884 11.3447L6.70711 9.09292C6.31658 8.70239 5.68342 8.70239 5.29289 9.09292C4.90237 9.48344 4.90237 10.1166 5.29289 10.5071L8.29289 13.5071C8.48737 13.7016 8.75335 13.8074 9.02827 13.7996C9.30319 13.7918 9.56277 13.6712 9.74594 13.466L14.7459 7.86604Z" fill="currentColor"></path>
</svg>