<svg width="1em" height="1em" viewBox="0 0 24 24" fill="none" xmlns="http://www.w3.org/2000/svg">
<path fill-rule="evenodd" clip-rule="evenodd" d="M18.5 10.0042C18.4998 10.2503 18.4854 10.4961 18.457 10.7406C19.603 11.0876 20.586 11.8353 21.2265 12.8471C21.8669 13.8589 22.122 15.0673 21.9453 16.2517C21.7686 17.436 21.1717 18.5173 20.2638 19.298C19.3559 20.0787 18.1974 20.5069 17 20.5042H7.49997C6.21804 20.505 4.97615 20.0577 3.98914 19.2397C3.00212 18.4216 2.33208 17.2844 2.0949 16.0245C1.85773 14.7647 2.06835 13.4617 2.69032 12.3407C3.3123 11.2198 4.30651 10.3515 5.50097 9.88606C5.53102 8.17192 6.23706 6.53907 7.46536 5.34304C8.69365 4.14702 10.3447 3.48469 12.0591 3.50027C13.7734 3.51585 15.4121 4.20808 16.6185 5.42624C17.8248 6.6444 18.5011 8.28982 18.5 10.0042ZM7.49997 18.5042H17C17.7766 18.5067 18.5237 18.2069 19.0832 17.6684C19.6428 17.1298 19.9709 16.3947 19.9982 15.6186C20.0255 14.8425 19.7498 14.0862 19.2294 13.5097C18.7091 12.9332 17.9848 12.5817 17.21 12.5296C17.0612 12.5192 16.9166 12.4757 16.7868 12.4022C16.657 12.3287 16.5453 12.227 16.4599 12.1047C16.3745 11.9824 16.3175 11.8426 16.2932 11.6954C16.2689 11.5482 16.2778 11.3975 16.3193 11.2542C16.5003 10.6348 16.546 9.98368 16.4532 9.34505C16.3604 8.70642 16.1314 8.09521 15.7816 7.5529C15.4318 7.01058 14.9694 6.54985 14.4259 6.20194C13.8824 5.85404 13.2704 5.62711 12.6314 5.53655C11.9925 5.44599 11.3415 5.49391 10.7227 5.67708C10.1039 5.86024 9.53179 6.17435 9.04507 6.5981C8.55836 7.02186 8.16848 7.54534 7.90189 8.13304C7.63529 8.72073 7.49822 9.35889 7.49997 10.0042C7.50082 10.1723 7.5106 10.3402 7.52925 10.5072C7.55554 10.7521 7.49043 10.9981 7.34642 11.198C7.20241 11.3979 6.98965 11.5376 6.74897 11.5902C5.90632 11.7748 5.16162 12.2643 4.65797 12.9646C4.15433 13.665 3.92726 14.5268 4.02041 15.3844C4.11356 16.242 4.52036 17.0349 5.16263 17.6107C5.8049 18.1866 6.63733 18.5048 7.49997 18.5042ZM12.0001 9.00562C12.2656 9.00562 12.5203 9.11091 12.7084 9.29842L15.2071 11.7972C15.3009 11.8899 15.3755 12.0001 15.4265 12.1217C15.4775 12.2433 15.504 12.3737 15.5044 12.5055C15.5048 12.6374 15.4792 12.768 15.4289 12.8899C15.3787 13.0118 15.3048 13.1225 15.2116 13.2157C15.1184 13.3089 15.0076 13.3828 14.8857 13.4331C14.7639 13.4833 14.6332 13.509 14.5014 13.5086C14.3696 13.5082 14.2391 13.4817 14.1175 13.4307C13.996 13.3797 13.8857 13.3051 13.7931 13.2113L13.0001 12.4183V15.0042C13.0001 15.2694 12.8947 15.5238 12.7072 15.7113C12.5196 15.8989 12.2653 16.0042 12.0001 16.0042C11.7349 16.0042 11.4805 15.8989 11.293 15.7113C11.1054 15.5238 11.0001 15.2694 11.0001 15.0042V12.4182L10.2071 13.2112C10.019 13.3959 9.76557 13.4989 9.50195 13.4977C9.23834 13.4965 8.98586 13.3913 8.79945 13.2049C8.61305 13.0185 8.5078 12.766 8.5066 12.5024C8.50541 12.2387 8.60837 11.9853 8.79308 11.7972L11.2918 9.29842C11.4798 9.11091 11.7345 9.00562 12.0001 9.00562Z" fill="currentColor"></path>
</svg>