<svg width="1em" height="1em" viewBox="0 0 24 24" fill="none" xmlns="http://www.w3.org/2000/svg">
<path d="M18.1025 11.0938C18.2003 10.6525 18.2497 10.2019 18.25 9.75C18.2481 8.09297 17.5891 6.50433 16.4174 5.33263C15.2457 4.16093 13.657 3.50185 12 3.5C10.343 3.50185 8.75433 4.16093 7.58263 5.33263C6.41093 6.50433 5.75185 8.09297 5.75 9.75C5.75 9.90625 5.75781 10.0605 5.77051 10.2139C4.68355 10.5354 3.72942 11.1992 3.05006 12.1066C2.37071 13.014 2.00242 14.1165 2 15.25C2.00169 16.6419 2.55535 17.9762 3.53955 18.9604C4.52375 19.9447 5.85813 20.4983 7.25 20.5H17.25C18.5093 20.4986 19.7167 19.9977 20.6072 19.1072C21.4977 18.2167 21.9986 17.0093 22 15.75C21.9987 14.6403 21.6078 13.5662 20.8955 12.7153C20.1832 11.8643 19.1947 11.2904 18.1025 11.0938ZM15.3535 12.8535C15.3072 12.9 15.2521 12.9369 15.1914 12.962C15.1307 12.9872 15.0657 13.0001 15 13C14.9343 13.0001 14.8693 12.9872 14.8086 12.962C14.748 12.9369 14.6929 12.9 14.6465 12.8535L12.5 10.707V15.5C12.5 15.5657 12.4871 15.6307 12.462 15.6914C12.4369 15.7521 12.4001 15.8072 12.3536 15.8536C12.3072 15.9001 12.2521 15.9369 12.1914 15.962C12.1307 15.9871 12.0657 16 12 16C11.9343 16 11.8693 15.9871 11.8086 15.962C11.7479 15.9369 11.6928 15.9001 11.6464 15.8536C11.5999 15.8072 11.5631 15.7521 11.538 15.6914C11.5129 15.6307 11.5 15.5657 11.5 15.5V10.707L9.35352 12.8535C9.3071 12.8999 9.252 12.9368 9.19134 12.9619C9.13069 12.987 9.06567 13 9.00002 13C8.93436 13 8.86936 12.987 8.8087 12.9619C8.74805 12.9368 8.69293 12.8999 8.64652 12.8535C8.60009 12.8071 8.56325 12.752 8.53812 12.6913C8.51299 12.6307 8.50006 12.5656 8.50006 12.5C8.50006 12.4343 8.51299 12.3693 8.53812 12.3087C8.56325 12.248 8.60009 12.1929 8.64652 12.1465L11.6459 9.1471C11.6926 9.10049 11.7481 9.06357 11.8091 9.03846C11.9314 8.98793 12.0687 8.98793 12.191 9.03846C12.252 9.06357 12.3075 9.10049 12.3542 9.1471L15.3536 12.1465C15.4 12.1929 15.4368 12.248 15.462 12.3087C15.4871 12.3693 15.5 12.4344 15.5 12.5C15.5 12.5657 15.4871 12.6307 15.4619 12.6913C15.4368 12.752 15.4 12.8071 15.3535 12.8535H15.3535Z" fill="currentColor"></path>
</svg>