<svg width="1em" height="1em" viewBox="0 0 24 24" fill="none" xmlns="http://www.w3.org/2000/svg">
<path fill-rule="evenodd" clip-rule="evenodd" d="M16.2071 7.7929C16.4555 8.04128 16.5554 8.40177 16.4702 8.74254L15.0742 14.3266C15.0354 14.4939 14.9531 14.6531 14.8274 14.7863C14.8141 14.8004 14.8004 14.814 14.7863 14.8273C14.6533 14.953 14.4943 15.0352 14.3272 15.074L8.74256 16.4701C8.40178 16.5553 8.04129 16.4555 7.79291 16.2071C7.54453 15.9587 7.44468 15.5982 7.52988 15.2575L8.9259 9.67339C8.96668 9.4973 9.05569 9.33011 9.19292 9.19289C9.3303 9.0555 9.49772 8.96645 9.67403 8.92573L15.2575 7.52986C15.5983 7.44467 15.9587 7.54452 16.2071 7.7929ZM10.4418 11.856L9.87439 14.1256L12.144 13.5582L10.4418 11.856ZM13.5582 12.144L11.856 10.4418L14.1257 9.87437L13.5582 12.144Z" fill="currentColor"></path>
<path fill-rule="evenodd" clip-rule="evenodd" d="M2 12C2 6.47715 6.47715 2 12 2C17.5228 2 22 6.47715 22 12C22 17.5228 17.5228 22 12 22C6.47715 22 2 17.5228 2 12ZM13 5V4.06189C16.6187 4.51314 19.4869 7.38128 19.9381 11H19C18.4477 11 18 11.4477 18 12C18 12.5523 18.4477 13 19 13H19.9381C19.4869 16.6187 16.6187 19.4869 13 19.9381V19C13 18.4477 12.5523 18 12 18C11.4477 18 11 18.4477 11 19V19.9381C7.38128 19.4869 4.51314 16.6187 4.06189 13H5C5.55228 13 6 12.5523 6 12C6 11.4477 5.55228 11 5 11H4.06189C4.51314 7.38128 7.38128 4.51314 11 4.06189V5C11 5.55228 11.4477 6 12 6C12.5523 6 13 5.55228 13 5Z" fill="currentColor"></path>
</svg>