<svg width="1em" height="1em" viewBox="0 0 24 24" fill="none" xmlns="http://www.w3.org/2000/svg">
<path d="M16 10C16 11.1046 15.1046 12 14 12C12.8954 12 12 11.1046 12 10C12 8.89543 12.8954 8 14 8C15.1046 8 16 8.89543 16 10Z" fill="currentColor"></path>
<path d="M10.1 15.2C9.99998 15.6 10.3 16 11.2 16H17.2C17.7 16 18 15.6 17.9 15.2C17.5 13.4 15.9 12 14 12C12.1 12 10.5 13.4 10.1 15.2Z" fill="currentColor"></path>
<path fill-rule="evenodd" clip-rule="evenodd" d="M6 2C4.34772 2 3 3.34772 3 5V19C3 20.6523 4.34772 22 6 22H18C19.6523 22 21 20.6523 21 19V5C21 3.34772 19.6523 2 18 2H6ZM5 5C5 4.45228 5.45228 4 6 4H7V20H6C5.45228 20 5 19.5477 5 19V5ZM9 20H18C18.5477 20 19 19.5477 19 19V5C19 4.45228 18.5477 4 18 4H9V20Z" fill="currentColor"></path>
</svg>