<svg width="1em" height="1em" viewBox="0 0 24 24" fill="none" xmlns="http://www.w3.org/2000/svg">
<path fill-rule="evenodd" clip-rule="evenodd" d="M7 6H5C4.47275 6 3.95567 6.18011 3.56789 6.56789C3.18011 6.95567 3 7.47275 3 8V19C3 19.5272 3.18011 20.0443 3.56789 20.4321C3.95567 20.8199 4.47275 21 5 21H15C15.5272 21 16.0443 20.8199 16.4321 20.4321C16.8199 20.0443 17 19.5272 17 19V18H19C19.5272 18 20.0443 17.8199 20.4321 17.4321C20.8199 17.0443 21 16.5272 21 16V5C21 4.47275 20.8199 3.95567 20.4321 3.56789C20.0443 3.18011 19.5272 3 19 3H9C8.47275 3 7.95567 3.18011 7.56789 3.56789C7.18011 3.95567 7 4.47275 7 5V6ZM9 6H15C15.5272 6 16.0443 6.18011 16.4321 6.56789C16.8199 6.95567 17 7.47275 17 8V16H19V5H9V6ZM5 19V8H15V19H5Z" fill="currentColor"></path>
</svg>