<svg width="1em" height="1em" viewBox="0 0 24 24" fill="none" xmlns="http://www.w3.org/2000/svg">
<path d="M6.5 14C5.94772 14 5.5 14.4477 5.5 15C5.5 15.5523 5.94772 16 6.5 16H8.5C9.05228 16 9.5 15.5523 9.5 15C9.5 14.4477 9.05228 14 8.5 14H6.5Z" fill="currentColor"></path>
<path fill-rule="evenodd" clip-rule="evenodd" d="M2.56789 4.56789C2.95567 4.18011 3.47275 4 4 4H20C20.5272 4 21.0443 4.18011 21.4321 4.56789C21.8199 4.95567 22 5.47275 22 6V18C22 18.5272 21.8199 19.0443 21.4321 19.4321C21.0443 19.8199 20.5272 20 20 20H4C3.47275 20 2.95567 19.8199 2.56789 19.4321C2.18011 19.0443 2 18.5272 2 18V6C2 5.47275 2.18011 4.95567 2.56789 4.56789ZM4 6V8H20V6H4ZM4 18V12H20V18H4Z" fill="currentColor"></path>
</svg>