<svg width="1em" height="1em" viewBox="0 0 24 24" fill="none" xmlns="http://www.w3.org/2000/svg">
<path fill-rule="evenodd" clip-rule="evenodd" d="M22 13C22 13.2761 21.7761 13.5 21.5 13.5C21.2239 13.5 21 13.2761 21 13V11.5H3V17.5C3 17.6326 3.05268 17.7598 3.14645 17.8536C3.24021 17.9473 3.36739 18 3.5 18H14.5C14.7761 18 15 18.2239 15 18.5C15 18.7761 14.7761 19 14.5 19H3.5C3.10218 19 2.72065 18.842 2.43934 18.5607C2.15803 18.2794 2 17.8978 2 17.5V6.5C2 6.10218 2.15804 5.72064 2.43934 5.43934C2.72064 5.15804 3.10217 5 3.5 5H20.5C20.8978 5 21.2794 5.15804 21.5607 5.43934C21.842 5.72065 22 6.10218 22 6.5V13ZM3.5 6C3.36739 6 3.24021 6.05268 3.14645 6.14645C3.05268 6.24022 3 6.36739 3 6.5V7.5H21V6.5C21 6.36739 20.9473 6.24021 20.8536 6.14645C20.7598 6.05268 20.6326 6 20.5 6H3.5Z" fill="currentColor"></path>
<path d="M4 13.5C4 13.2239 4.22386 13 4.5 13H11.5C11.7761 13 12 13.2239 12 13.5C12 13.7761 11.7761 14 11.5 14H4.5C4.22386 14 4 13.7761 4 13.5Z" fill="currentColor"></path>
<path d="M4.5 15C4.22386 15 4 15.2239 4 15.5C4 15.7761 4.22386 16 4.5 16H9.5C9.77614 16 10 15.7761 10 15.5C10 15.2239 9.77614 15 9.5 15H4.5Z" fill="currentColor"></path>
<path d="M18.5 14C18.7761 14 19 14.2239 19 14.5V16H20.5C20.7761 16 21 16.2239 21 16.5C21 16.7761 20.7761 17 20.5 17H19V18.5C19 18.7761 18.7761 19 18.5 19C18.2239 19 18 18.7761 18 18.5V17H16.5C16.2239 17 16 16.7761 16 16.5C16 16.2239 16.2239 16 16.5 16H18V14.5C18 14.2239 18.2239 14 18.5 14Z" fill="currentColor"></path>
</svg>