<svg width="1em" height="1em" viewBox="0 0 24 24" fill="none" xmlns="http://www.w3.org/2000/svg">
<path fill-rule="evenodd" clip-rule="evenodd" d="M12 5C9.03638 5 6.5 7.66427 6.5 11.1V16C6.5 16.5523 6.05228 17 5.5 17H5C3.34772 17 2 15.6523 2 14V13C2 11.4951 3.11793 10.2429 4.56572 10.0314C5.04668 6.14316 8.11412 3 12 3C15.8859 3 18.9533 6.14316 19.4343 10.0315C20.8821 10.2429 22 11.4951 22 13V14C22 15.1252 21.375 16.1091 20.4545 16.6224C20.166 18.5662 18.54 20 16.5 20H13.7324C13.3866 20.5978 12.7403 21 12 21C10.8954 21 10 20.1046 10 19C10 17.8954 10.8954 17 12 17C12.7403 17 13.3866 17.4022 13.7324 18H16.5C17.2889 18 17.9383 17.5973 18.2671 16.9727C17.8272 16.8678 17.5 16.4721 17.5 16V11.1C17.5 7.66427 14.9636 5 12 5ZM4.5 12.136C4.20223 12.3102 4 12.6338 4 13V14C4 14.3662 4.20223 14.6898 4.5 14.864V12.136ZM19.5 14.864V12.136C19.7978 12.3102 20 12.6338 20 13V14C20 14.3662 19.7978 14.6898 19.5 14.864Z" fill="currentColor"></path>
</svg>