<svg width="1em" height="1em" viewBox="0 0 24 24" fill="none" xmlns="http://www.w3.org/2000/svg">
<path fill-rule="evenodd" clip-rule="evenodd" d="M12 4C8.71819 4 6 6.93213 6 10.6V16.5C6 16.7761 5.77614 17 5.5 17C4.12386 17 3 15.8761 3 14.5V13.5C3 12.295 3.86173 11.2834 5 11.0505V10.6C5 6.46787 8.08181 3 12 3C15.9182 3 19 6.46787 19 10.6V11.0505C20.1383 11.2834 21 12.295 21 13.5V14.5C21 15.3143 20.6065 16.0403 20 16.4974L20 16.5C20 18.4761 18.4761 20 16.5 20H13.4146C13.2087 20.5826 12.6531 21 12 21C11.1716 21 10.5 20.3284 10.5 19.5C10.5 18.6716 11.1716 18 12 18C12.6531 18 13.2087 18.4174 13.4146 19H16.5C17.767 19 18.7586 18.148 18.9618 16.9571C18.812 16.9852 18.6577 17 18.5 17C18.2239 17 18 16.7761 18 16.5V10.6C18 6.93213 15.2818 4 12 4ZM12.5 19.5C12.5 19.2239 12.2761 19 12 19C11.7239 19 11.5 19.2239 11.5 19.5C11.5 19.7761 11.7239 20 12 20C12.2761 20 12.5 19.7761 12.5 19.5ZM5 12.0865C4.41938 12.2939 4 12.8512 4 13.5V14.5C4 15.1488 4.41938 15.7061 5 15.9135V12.0865ZM19 15.9135V12.0865C19.5806 12.2939 20 12.8512 20 13.5V14.5C20 15.1488 19.5806 15.7061 19 15.9135Z" fill="currentColor"></path>
</svg>