<svg width="1em" height="1em" viewBox="0 0 20 20" fill="none" xmlns="http://www.w3.org/2000/svg">
<path d="M10 13C10.5523 13 11 12.5523 11 12C11 11.4477 10.5523 11 10 11C9.44771 11 9 11.4477 9 12C9 12.5523 9.44771 13 10 13Z" fill="currentColor"></path>
<path d="M8 12C8 12.5523 7.55228 13 7 13C6.44772 13 6 12.5523 6 12C6 11.4477 6.44772 11 7 11C7.55228 11 8 11.4477 8 12Z" fill="currentColor"></path>
<path d="M4 13C4.55228 13 5 12.5523 5 12C5 11.4477 4.55228 11 4 11C3.44772 11 3 11.4477 3 12C3 12.5523 3.44772 13 4 13Z" fill="currentColor"></path>
<path fill-rule="evenodd" clip-rule="evenodd" d="M10 0C4.5 0 0 4.5 0 10C0 15.5 4.5 20 10 20C15.5 20 20 15.5 20 10C20 4.5 15.5 0 10 0ZM10 2C14.4 2 18 5.6 18 10C18 14.4 14.4 18 10 18C8.26963 18 6.66299 17.4432 5.35038 16.5H12C12.5272 16.5 13.0443 16.3199 13.4321 15.9321C13.8199 15.5443 14 15.0272 14 14.5V5.5C14 4.97275 13.8199 4.45567 13.4321 4.06789C13.0443 3.68011 12.5272 3.5 12 3.5H5.35038C6.66299 2.55677 8.26963 2 10 2ZM12 14.5H3.39503C2.5156 13.2158 2 11.6652 2 10H12V14.5ZM12 7H2.58702C2.80333 6.46962 3.07511 5.96719 3.39503 5.5H12V7Z" fill="currentColor"></path>
</svg>