<svg width="1em" height="1em" viewBox="0 0 24 24" fill="none" xmlns="http://www.w3.org/2000/svg">
<path fill-rule="evenodd" clip-rule="evenodd" d="M12 2C12.3311 2 12.6407 2.16389 12.8269 2.43769L14.0493 4.2353L16.0789 3.29299C16.3726 3.15664 16.7141 3.17092 16.9953 3.3313C17.2766 3.49168 17.4628 3.77832 17.495 4.1005L17.7136 6.28638L19.8995 6.50496C20.2217 6.53718 20.5083 6.72339 20.6687 7.00466C20.8291 7.28593 20.8434 7.62744 20.707 7.92111L19.7647 9.9507L21.5623 11.1731C21.8361 11.3593 22 11.6689 22 12C22 12.3311 21.8361 12.6407 21.5623 12.8269L19.7647 14.0493L20.707 16.0789C20.8434 16.3726 20.8291 16.7141 20.6687 16.9953C20.5083 17.2766 20.2217 17.4628 19.8995 17.495L17.7136 17.7136L17.495 19.8995C17.4628 20.2217 17.2766 20.5083 16.9953 20.6687C16.7141 20.8291 16.3726 20.8434 16.0789 20.707L14.0493 19.7647L12.8269 21.5623C12.6407 21.8361 12.3311 22 12 22C11.6689 22 11.3593 21.8361 11.1731 21.5623L9.9507 19.7647L7.92111 20.707C7.62744 20.8434 7.28593 20.8291 7.00466 20.6687C6.72339 20.5083 6.53718 20.2217 6.50496 19.8995L6.28638 17.7136L4.1005 17.495C3.77832 17.4628 3.49168 17.2766 3.3313 16.9953C3.17092 16.7141 3.15664 16.3726 3.29299 16.0789L4.2353 14.0493L2.43769 12.8269C2.16389 12.6407 2 12.3311 2 12C2 11.6689 2.16389 11.3593 2.43769 11.1731L4.2353 9.9507L3.29299 7.92111C3.15664 7.62744 3.17092 7.28593 3.3313 7.00466C3.49168 6.72339 3.77832 6.53718 4.1005 6.50496L6.28638 6.28638L6.50496 4.1005C6.53718 3.77832 6.72339 3.49168 7.00466 3.3313C7.28593 3.17092 7.62744 3.15664 7.92111 3.29299L9.9507 4.2353L11.1731 2.43769C11.3593 2.16389 11.6689 2 12 2ZM11 9.5C11 10.3284 10.3284 11 9.5 11C8.67157 11 8 10.3284 8 9.5C8 8.67157 8.67157 8 9.5 8C10.3284 8 11 8.67157 11 9.5ZM10.2071 15.2071L15.2071 10.2071C15.5976 9.81658 15.5976 9.18342 15.2071 8.79289C14.8166 8.40237 14.1834 8.40237 13.7929 8.79289L8.79289 13.7929C8.40237 14.1834 8.40237 14.8166 8.79289 15.2071C9.18342 15.5976 9.81658 15.5976 10.2071 15.2071ZM14.5 16C15.3284 16 16 15.3284 16 14.5C16 13.6716 15.3284 13 14.5 13C13.6716 13 13 13.6716 13 14.5C13 15.3284 13.6716 16 14.5 16Z" fill="currentColor"></path>
</svg>