<svg width="1em" height="1em" viewBox="0 0 24 24" fill="none" xmlns="http://www.w3.org/2000/svg">
<path fill-rule="evenodd" clip-rule="evenodd" d="M4 7C4 5.34315 5.34315 4 7 4C8.65685 4 10 5.34315 10 7C10 8.65685 8.65685 10 7 10C5.34315 10 4 8.65685 4 7ZM7 6C6.44772 6 6 6.44772 6 7C6 7.55228 6.44772 8 7 8C7.55228 8 8 7.55228 8 7C8 6.44772 7.55228 6 7 6Z" fill="currentColor"></path>
<path fill-rule="evenodd" clip-rule="evenodd" d="M14 17C14 15.3431 15.3431 14 17 14C18.6569 14 20 15.3431 20 17C20 18.6569 18.6569 20 17 20C15.3431 20 14 18.6569 14 17ZM17 16C16.4477 16 16 16.4477 16 17C16 17.5523 16.4477 18 17 18C17.5523 18 18 17.5523 18 17C18 16.4477 17.5523 16 17 16Z" fill="currentColor"></path>
<path d="M19.207 6.62129C19.5975 6.23077 19.5975 5.5976 19.207 5.20708C18.8164 4.81655 18.1833 4.81655 17.7927 5.20708L5.20696 17.7929C4.81643 18.1834 4.81643 18.8166 5.20696 19.2071C5.59748 19.5976 6.23065 19.5976 6.62117 19.2071L19.207 6.62129Z" fill="currentColor"></path>
</svg>