<svg width="1em" height="1em" viewBox="0 0 24 24" fill="none" xmlns="http://www.w3.org/2000/svg">
<path d="M8.5 9.5C8.5 8.94772 8.94772 8.5 9.5 8.5C10.0523 8.5 10.5 8.94772 10.5 9.5C10.5 10.0523 10.0523 10.5 9.5 10.5C8.94772 10.5 8.5 10.0523 8.5 9.5Z" fill="currentColor"></path>
<path d="M14.5 13.5C13.9477 13.5 13.5 13.9477 13.5 14.5C13.5 15.0523 13.9477 15.5 14.5 15.5C15.0523 15.5 15.5 15.0523 15.5 14.5C15.5 13.9477 15.0523 13.5 14.5 13.5Z" fill="currentColor"></path>
<path fill-rule="evenodd" clip-rule="evenodd" d="M12 2C12.1629 2 12.3156 2.07934 12.4092 2.21264L14.0089 4.49047L16.5396 3.31643C16.6871 3.24798 16.8588 3.25558 16.9997 3.33681C17.1406 3.41804 17.2332 3.56274 17.2479 3.72473L17.5002 6.49978L20.2753 6.75205C20.4373 6.76678 20.582 6.85938 20.6632 7.00031C20.7444 7.14123 20.752 7.31286 20.6836 7.46042L19.5095 9.99113L21.7874 11.5908C21.9207 11.6844 22 11.8371 22 12C22 12.1629 21.9207 12.3156 21.7874 12.4092L19.5095 14.0089L20.6836 16.5396C20.752 16.6871 20.7444 16.8588 20.6632 16.9997C20.582 17.1406 20.4373 17.2332 20.2753 17.2479L17.5002 17.5002L17.2479 20.2753C17.2332 20.4373 17.1406 20.582 16.9997 20.6632C16.8588 20.7444 16.6871 20.752 16.5396 20.6836L14.0089 19.5095L12.4092 21.7874C12.3156 21.9207 12.1629 22 12 22C11.8371 22 11.6844 21.9207 11.5908 21.7874L9.99113 19.5095L7.46042 20.6836C7.31286 20.752 7.14123 20.7444 7.00031 20.6632C6.85938 20.582 6.76678 20.4373 6.75205 20.2753L6.49978 17.5002L3.72473 17.2479C3.56274 17.2332 3.41804 17.1406 3.33681 16.9997C3.25558 16.8588 3.24798 16.6871 3.31643 16.5396L4.49047 14.0089L2.21264 12.4092C2.07934 12.3156 2 12.1629 2 12C2 11.8371 2.07934 11.6844 2.21264 11.5908L4.49047 9.99113L3.31643 7.46042C3.24798 7.31286 3.25558 7.14123 3.33681 7.00031C3.41804 6.85938 3.56274 6.76678 3.72473 6.75205L6.49978 6.49978L6.75205 3.72473C6.76678 3.56274 6.85938 3.41804 7.00031 3.33681C7.14123 3.25558 7.31286 3.24798 7.46042 3.31643L9.99113 4.49047L11.5908 2.21264C11.6844 2.07934 11.8371 2 12 2ZM9.5 7.5C8.39543 7.5 7.5 8.39543 7.5 9.5C7.5 10.6046 8.39543 11.5 9.5 11.5C10.6046 11.5 11.5 10.6046 11.5 9.5C11.5 8.39543 10.6046 7.5 9.5 7.5ZM15.3536 9.35355C15.5488 9.15829 15.5488 8.84171 15.3536 8.64645C15.1583 8.45118 14.8417 8.45118 14.6464 8.64645L8.64645 14.6464C8.45118 14.8417 8.45118 15.1583 8.64645 15.3536C8.84171 15.5488 9.15829 15.5488 9.35355 15.3536L15.3536 9.35355ZM12.5 14.5C12.5 13.3954 13.3954 12.5 14.5 12.5C15.6046 12.5 16.5 13.3954 16.5 14.5C16.5 15.6046 15.6046 16.5 14.5 16.5C13.3954 16.5 12.5 15.6046 12.5 14.5Z" fill="currentColor"></path>
</svg>