<svg width="1em" height="1em" viewBox="0 0 24 24" fill="none" xmlns="http://www.w3.org/2000/svg">
<path d="M19.6603 11.25C19.2403 10.89 18.6103 10.93 18.2503 11.34L13.0003 17.34V4C13.0003 3.45 12.5503 3 12.0003 3C11.4503 3 11.0003 3.45 11.0003 4V17.34L5.75032 11.34C5.39032 10.92 4.75032 10.88 4.34032 11.25C3.92032 11.61 3.88032 12.25 4.25032 12.66L11.2503 20.66C11.2603 20.67 11.2703 20.67 11.2803 20.68C11.3503 20.75 11.4303 20.8 11.5103 20.85C11.5403 20.87 11.5703 20.9 11.6003 20.91C11.7203 20.97 11.8603 21 12.0003 21C12.1403 21 12.2803 20.97 12.4003 20.91C12.4303 20.9 12.4603 20.87 12.4903 20.85C12.5803 20.8 12.6603 20.75 12.7203 20.68C12.7303 20.67 12.7403 20.67 12.7503 20.66L19.7503 12.66C20.1203 12.24 20.0703 11.61 19.6603 11.25Z" fill="currentColor"></path>
</svg>