<svg width="1em" height="1em" viewBox="0 0 24 24" fill="none" xmlns="http://www.w3.org/2000/svg">
<path fill-rule="evenodd" clip-rule="evenodd" d="M4 12C4 7.62386 7.62386 4 12 4C16.3761 4 20 7.62386 20 12C20 16.3761 16.3761 20 12 20C7.62386 20 4 16.3761 4 12ZM10.9997 5.07318C7.63776 5.56846 5 8.51527 5 12C5 12.7664 5.12758 13.5067 5.36238 14.2007L9.02266 12.3706C9.0077 12.2492 9 12.1255 9 12C9 10.6939 9.83465 9.58275 10.9997 9.17082V5.07318ZM12.9997 5.07308V9.17059C14.165 9.58234 15 10.6937 15 12C15 12.1255 14.9923 12.2492 14.9773 12.3707L18.6376 14.2008C18.8724 13.5068 19 12.7664 19 12C19 8.51504 16.3619 5.56808 12.9997 5.07308ZM17.732 15.9841L14.0826 14.1594C13.543 14.6799 12.8089 15 12 15C11.1911 15 10.4569 14.6798 9.91735 14.1593L6.26791 15.984C7.54147 17.7986 9.64823 19 12 19C14.3517 19 16.4585 17.7986 17.732 15.9841ZM12 10C10.8954 10 10 10.8954 10 12C10 13.1046 10.8954 14 12 14C13.1046 14 14 13.1046 14 12C14 10.8954 13.1046 10 12 10Z" fill="currentColor"></path>
<path fill-rule="evenodd" clip-rule="evenodd" d="M2 12C2 6.52386 6.52386 2 12 2C17.4761 2 22 6.52386 22 12C22 17.4761 17.4761 22 12 22C6.52386 22 2 17.4761 2 12ZM12 3C7.07614 3 3 7.07614 3 12C3 16.9239 7.07614 21 12 21C16.9239 21 21 16.9239 21 12C21 7.07614 16.9239 3 12 3Z" fill="currentColor"></path>
</svg>