<svg width="1em" height="1em" viewBox="0 0 24 24" fill="none" xmlns="http://www.w3.org/2000/svg">
<path fill-rule="evenodd" clip-rule="evenodd" d="M8.62855 4.12855C8.55994 4.19716 8.5 4.31362 8.5 4.5V6H15.5V4.5C15.5 4.31362 15.4401 4.19716 15.3714 4.12855C15.3028 4.05994 15.1864 4 15 4H9C8.81362 4 8.69716 4.05994 8.62855 4.12855ZM7.5 4.5V6H4.5C4.08638 6 3.70284 6.14006 3.42145 6.42145C3.14006 6.70284 3 7.08638 3 7.5V19.5C3 19.9136 3.14006 20.2972 3.42145 20.5786C3.70284 20.8599 4.08638 21 4.5 21H19.5C19.9136 21 20.2972 20.8599 20.5786 20.5786C20.8599 20.2972 21 19.9136 21 19.5V7.5C21 7.08638 20.8599 6.70284 20.5786 6.42145C20.2972 6.14006 19.9136 6 19.5 6H16.5V4.5C16.5 4.08638 16.3599 3.70284 16.0786 3.42145C15.7972 3.14006 15.4136 3 15 3H9C8.58638 3 8.20284 3.14006 7.92145 3.42145C7.64006 3.70284 7.5 4.08638 7.5 4.5ZM4.5 7H8H16H19.5C19.6864 7 19.8028 7.05994 19.8714 7.12855C19.9401 7.19716 20 7.31362 20 7.5V19.5C20 19.6864 19.9401 19.8028 19.8714 19.8714C19.8028 19.9401 19.6864 20 19.5 20H4.5C4.31362 20 4.19716 19.9401 4.12855 19.8714C4.05994 19.8028 4 19.6864 4 19.5V7.5C4 7.31362 4.05994 7.19716 4.12855 7.12855C4.19716 7.05994 4.31362 7 4.5 7ZM12.4785 12.0314C12.4785 12.0314 12.0067 10.6207 14.1516 10.6207C14.219 10.6207 15.4636 9.82625 15.9499 9.50848C15.9612 9.49717 15.9795 9.49717 15.9909 9.50848C16.0022 9.51978 16.0022 9.5381 15.9909 9.5494C15.6418 9.89125 14.8137 10.6905 14.3538 11.0468C14.3137 11.0731 14.1767 11.4279 14.0067 11.8683C13.8505 12.2726 13.6665 12.7492 13.5041 13.1099C13.2152 13.7478 12.765 14.1234 11.595 14.7613C11.1572 15.0005 10.7989 15.5986 10.4415 16.1952C10.1405 16.6976 9.84007 17.199 9.4934 17.484C9.4839 17.4918 9.47032 17.492 9.46058 17.4846C9.45084 17.4771 9.44749 17.4639 9.45248 17.4527L11.1376 13.6539C10.9619 13.6323 10.4949 13.2158 9.97006 12.691C9.96043 12.6838 9.97006 12.6717 9.98209 12.6717L12.3341 13.4421L12.1728 13.1725C12.1611 13.1505 12.1412 13.134 12.1174 13.1267L9.58969 12.2986C9.57508 12.2938 9.56185 12.2856 9.55118 12.2745L9.31044 12.0097L12.0019 12.8788L11.8574 12.5947C11.8479 12.5797 11.8334 12.5687 11.8165 12.5634L9.01193 11.6438C8.98329 11.6345 8.95757 11.6179 8.9373 11.5957L8.71823 11.3549L11.6721 12.3179L11.5059 12.0386C11.4973 12.0224 11.4826 12.0103 11.465 12.0049L8.43176 11.0131L8.3812 10.9938C8.36228 10.9887 8.34544 10.9777 8.33306 10.9625C8.16213 10.7747 8.05621 10.6544 8.00325 10.5918C7.99915 10.5862 7.99891 10.5786 8.00263 10.5728C8.00636 10.5669 8.01329 10.564 8.0201 10.5653C8.14545 10.6065 8.4525 10.7079 8.85047 10.8392C10.1034 11.2528 12.2574 11.9638 12.4785 12.0314Z" fill="currentColor"></path>
</svg>