<svg width="1em" height="1em" viewBox="0 0 24 24" fill="none" xmlns="http://www.w3.org/2000/svg">
<path d="M20.2 3.9999C18.9 2.6999 16.5 2.6999 15.2 3.9999L3.6 15.5999C3.5 15.6999 3.5 15.7999 3.5 15.8999L3 20.6999C3 20.7999 3 20.9999 3.1 21.0999C3.2 21.1999 3.3 21.1999 3.5 21.1999L8.2 20.7999C8.3 20.7999 8.4 20.6999 8.5 20.6999L20.2 8.9999C20.9 8.2999 21.2 7.3999 21.2 6.4999C21.2 5.5999 20.9 4.6999 20.2 3.9999ZM4.2 18.7999L4.4 17.0999L7.2 19.8999L5.5 20.0999L4.2 18.7999ZM4.6 15.9999L15.1 5.4999L16.5 6.8999L6.1 17.3999L4.6 15.9999ZM8.2 19.5999L6.8 18.1999L17.3 7.6999L18.7 9.0999L8.2 19.5999ZM19.5 8.2999L15.8 4.7999L15.9 4.6999C16.9 3.6999 18.5 3.6999 19.5 4.6999C20 5.1999 20.2 5.7999 20.2 6.4999C20.2 7.1999 20 7.7999 19.5 8.2999Z" fill="currentColor"></path>
</svg>