<svg width="1em" height="1em" viewBox="0 0 24 24" fill="none" xmlns="http://www.w3.org/2000/svg">
<path d="M24 18C24 19.1046 23.1046 20 22 20H2C0.89543 20 0 19.1046 0 18V6C0 4.89543 0.895431 4 2 4H22C23.1046 4 24 4.89543 24 6V18Z" fill="#231F20"></path>
<path d="M5.52544 10.117C5.73007 10.0485 5.94903 10.0117 6.17666 10.0117C7.16959 10.0117 7.9981 10.7169 8.18841 11.6546L9.59586 11.3672C9.27294 9.77459 7.86497 8.57532 6.17666 8.57532C5.78961 8.57532 5.41794 8.63827 5.07031 8.75458L5.52544 10.117Z" fill="#FBC707"></path>
<path d="M3.86424 14.6784L4.81603 13.6023C4.391 13.2257 4.12328 12.6765 4.12328 12.0646C4.12328 11.4529 4.391 10.9039 4.8155 10.5278L3.86345 9.45154C3.14165 10.0908 2.68652 11.0246 2.68652 12.0646C2.68652 13.1051 3.14218 14.0391 3.86424 14.6784Z" fill="#38A7E4"></path>
<path d="M8.18698 12.4767C7.99681 13.4134 7.16869 14.1175 6.17602 14.1175C5.94813 14.1175 5.72891 14.0807 5.52428 14.0119L5.06836 15.3745C5.41625 15.491 5.78871 15.5535 6.17602 15.5535C7.86275 15.5535 9.27046 14.3567 9.59469 12.7649L8.18698 12.4767Z" fill="#EF3120"></path>
<path d="M13.6387 13.2231L13.6376 13.2247L13.5974 13.1973C13.4821 13.3846 13.3026 13.536 13.0755 13.6342C12.6435 13.8221 12.2433 13.7739 11.956 13.5218L11.9296 13.5618L11.9288 13.5611L11.4386 14.2943C11.5603 14.3787 11.6909 14.4506 11.828 14.5078C12.3696 14.7325 12.9236 14.722 13.4693 14.4848C13.8638 14.3141 14.1736 14.053 14.3854 13.7224L13.6387 13.2231ZM12.1085 11.4143C11.6529 11.6102 11.4175 12.0379 11.466 12.5397L13.3976 11.7081C13.0658 11.3175 12.6332 11.1883 12.1085 11.4143ZM10.8261 13.6477C10.7799 13.5731 10.7172 13.4533 10.6795 13.3655C10.4567 12.8481 10.4459 12.3127 10.6341 11.7987C10.841 11.2347 11.2366 10.8033 11.747 10.5835C12.3896 10.307 13.0998 10.3618 13.7154 10.7268C14.1061 10.951 14.3833 11.2973 14.5939 11.787C14.6208 11.8497 14.6441 11.917 14.6672 11.9737L10.8261 13.6477Z" fill="white"></path>
<path d="M16.0097 9.50354V13.5801L16.6435 13.8368L16.2834 14.6769L15.5839 14.3862C15.4267 14.318 15.32 14.2139 15.2389 14.0964C15.1619 13.9766 15.1038 13.8124 15.1038 13.5913V9.50354H16.0097Z" fill="white"></path>
<path d="M17.6514 12.5414C17.652 12.1945 17.8055 11.8831 18.0478 11.6715L17.3975 10.9467C16.9566 11.3366 16.6791 11.9059 16.6783 12.5405C16.6776 13.1758 16.9547 13.7457 17.3958 14.1366L18.0449 13.4107C17.8039 13.1986 17.6514 12.8877 17.6514 12.5414Z" fill="white"></path>
<path d="M18.8066 13.6984C18.6788 13.6982 18.5556 13.6769 18.4403 13.6385L18.1298 14.5622C18.342 14.6334 18.5697 14.672 18.8058 14.6723C19.8352 14.6732 20.6951 13.9427 20.8941 12.9716L19.9397 12.777C19.8314 13.3032 19.3649 13.6989 18.8066 13.6984Z" fill="white"></path>
<path d="M18.8097 10.4127C18.5735 10.4124 18.3467 10.4508 18.1343 10.5214L18.4424 11.4456C18.5576 11.4076 18.6809 11.3863 18.8089 11.3863C19.3685 11.3869 19.835 11.7849 19.9406 12.3127L20.8953 12.1189C20.6992 11.1466 19.8404 10.4133 18.8097 10.4127Z" fill="white"></path>
</svg>