<svg width="1em" height="1em" viewBox="0 0 24 24" fill="none" xmlns="http://www.w3.org/2000/svg">
<path d="M12.5864 16.2323C12.9104 16.5562 12.9104 17.0814 12.5864 17.4054C12.2625 17.7293 11.7373 17.7293 11.4134 17.4054C11.0894 17.0814 11.0894 16.5562 11.4134 16.2323C11.7373 15.9084 12.2625 15.9084 12.5864 16.2323Z" fill="currentColor"></path>
<path d="M11.5566 12.9579C11.853 12.2876 13.0508 11.2602 13.0508 11.2602C13.1586 11.1879 13.2604 11.1072 13.3553 11.0187C13.7127 10.6609 13.9135 10.176 13.9135 9.67028C13.9135 8.61661 13.0593 7.76244 12.0056 7.76244C10.952 7.76244 10.0978 8.61661 10.0978 9.67028V9.65758C10.0978 10.0485 9.78089 10.3654 9.38996 10.3654C8.99995 10.3654 8.6836 10.05 8.68214 9.6603C8.68386 8.78146 9.03421 7.93905 9.65651 7.31811C10.9537 6.02378 13.0545 6.02608 14.3488 7.32324C15.6432 8.6204 15.6409 10.7212 14.3437 12.0156C14.2216 12.1581 14.0528 12.3048 13.8705 12.4633C13.3606 12.9065 12.7444 13.4422 12.7444 14.2364C12.7444 14.6487 12.4102 14.9829 11.9979 14.9829C11.5856 14.9829 11.2514 14.6487 11.2514 14.2364C11.2747 13.7952 11.3782 13.362 11.5566 12.9579Z" fill="currentColor"></path>
<path d="M8.68214 9.6603C8.68213 9.6594 8.68213 9.65849 8.68213 9.65758V9.66391C8.68213 9.66271 8.68213 9.6615 8.68214 9.6603Z" fill="currentColor"></path>
<path fill-rule="evenodd" clip-rule="evenodd" d="M12 22C17.5228 22 22 17.5228 22 12C22 6.47715 17.5228 2 12 2C6.47715 2 2 6.47715 2 12C2 17.5228 6.47715 22 12 22ZM12 20C16.4183 20 20 16.4183 20 12C20 7.58172 16.4183 4 12 4C7.58172 4 4 7.58172 4 12C4 16.4183 7.58172 20 12 20Z" fill="currentColor"></path>
</svg>