<svg width="1em" height="1em" viewBox="0 0 24 24" fill="none" xmlns="http://www.w3.org/2000/svg">
<path fill-rule="evenodd" clip-rule="evenodd" d="M12 3.0415C7.05237 3.0415 3.0415 7.05237 3.0415 12C3.0415 16.9477 7.05237 20.9586 12 20.9586C16.9477 20.9586 20.9586 16.9477 20.9586 12C20.9586 7.05237 16.9477 3.0415 12 3.0415ZM12 19.9632C7.60211 19.9632 4.0369 16.3979 4.0369 12C4.0369 7.60211 7.60211 4.0369 12 4.0369C16.3979 4.0369 19.9632 7.60211 19.9632 12C19.9632 16.3979 16.3979 19.9632 12 19.9632ZM12.5865 16.2323C12.9105 16.5562 12.9105 17.0815 12.5865 17.4054C12.2626 17.7293 11.7374 17.7293 11.4135 17.4054C11.0895 17.0815 11.0895 16.5562 11.4135 16.2323C11.7374 15.9084 12.2626 15.9084 12.5865 16.2323ZM13.0507 11.2602C13.0507 11.2602 11.8529 12.2876 11.5565 12.9579C11.378 13.362 11.2746 13.7952 11.2512 14.2364C11.2512 14.6487 11.5855 14.9829 11.9978 14.9829C12.4101 14.9829 12.7443 14.6487 12.7443 14.2364C12.7443 13.158 13.8802 12.5564 14.3436 12.0156C15.6408 10.7212 15.6431 8.6204 14.3487 7.32324C13.0544 6.02607 10.9536 6.02377 9.6564 7.31811C9.03188 7.94127 8.68125 8.78749 8.68203 9.66974V9.65758C8.68203 10.0485 8.99894 10.3654 9.38986 10.3654C9.78079 10.3654 10.0977 10.0485 10.0977 9.65758V9.66974C10.0977 8.61608 10.9519 7.76244 12.0055 7.76244C13.0592 7.76244 13.9134 8.61661 13.9134 9.67028C13.9134 10.1759 13.7126 10.6609 13.3552 11.0187C13.2603 11.1072 13.1585 11.1879 13.0507 11.2602Z" fill="currentColor"></path>
</svg>