<svg width="1em" height="1em" viewBox="0 0 24 24" fill="none" xmlns="http://www.w3.org/2000/svg">
<path fill-rule="evenodd" clip-rule="evenodd" d="M3 8.51765C3 5.6987 5.20883 3.5 8.03333 3.5C10.0138 3.5 11.2733 4.7955 12 6.00902C12.7267 4.7955 13.9862 3.5 15.9667 3.5C18.7912 3.5 21 5.6987 21 8.51765C21 9.90026 20.52 11.3069 19.8116 12.6262C19.1013 13.949 18.1454 15.2138 17.1538 16.3217C16.1613 17.4306 15.1238 18.3929 14.2411 19.1101C13.7998 19.4687 13.3934 19.7691 13.0472 19.9974C12.7119 20.2185 12.4005 20.3938 12.1576 20.4745C12.0553 20.5085 11.9447 20.5085 11.8424 20.4745C11.5995 20.3938 11.2881 20.2185 10.9528 19.9974C10.6066 19.7691 10.2002 19.4687 9.75891 19.1101C8.87622 18.3929 7.83866 17.4306 6.84618 16.3217C5.8546 15.2138 4.89867 13.949 4.18839 12.6262C3.47999 11.3069 3 9.90026 3 8.51765ZM8.03333 4.5C5.75784 4.5 4 6.25425 4 8.51765C4 9.67621 4.40543 10.9166 5.06942 12.1532C5.73154 13.3863 6.63499 14.5862 7.59132 15.6548C8.54675 16.7223 9.54566 17.6483 10.3895 18.334C10.8115 18.6769 11.1909 18.9566 11.5033 19.1625C11.7127 19.3006 11.8788 19.3966 12 19.4572C12.1212 19.3966 12.2873 19.3006 12.4967 19.1625C12.8091 18.9566 13.1885 18.6769 13.6105 18.334C14.4543 17.6483 15.4532 16.7223 16.4087 15.6548C17.365 14.5862 18.2685 13.3863 18.9306 12.1532C19.5946 10.9166 20 9.67621 20 8.51765C20 6.25425 18.2422 4.5 15.9667 4.5C14.1137 4.5 13.0086 6.02617 12.4593 7.30342C12.3804 7.48695 12.1998 7.60588 12 7.60588C11.8002 7.60588 11.6196 7.48695 11.5407 7.30342C10.9914 6.02617 9.88628 4.5 8.03333 4.5Z" fill="currentColor"></path>
</svg>