<svg width="1em" height="1em" viewBox="0 0 24 24" fill="none" xmlns="http://www.w3.org/2000/svg">
<path fill-rule="evenodd" clip-rule="evenodd" d="M7 8C7 7.17157 7.67157 6.5 8.5 6.5C9.32843 6.5 10 7.17157 10 8C10 8.82843 9.32843 9.5 8.5 9.5C7.67157 9.5 7 8.82843 7 8ZM6.05001 8.5H4.5C4.22386 8.5 4 8.27614 4 8C4 7.72386 4.22386 7.5 4.5 7.5H6.05001C6.28164 6.35888 7.29052 5.5 8.5 5.5C9.70948 5.5 10.7184 6.35888 10.95 7.5H19.5C19.7761 7.5 20 7.72386 20 8C20 8.27614 19.7761 8.5 19.5 8.5H10.95C10.7184 9.64112 9.70948 10.5 8.5 10.5C7.29052 10.5 6.28164 9.64112 6.05001 8.5ZM14 16C14 15.1716 14.6716 14.5 15.5 14.5C16.3284 14.5 17 15.1716 17 16C17 16.8284 16.3284 17.5 15.5 17.5C14.6716 17.5 14 16.8284 14 16ZM13.05 16.5H4.5C4.22386 16.5 4 16.2761 4 16C4 15.7239 4.22386 15.5 4.5 15.5H13.05C13.2816 14.3589 14.2905 13.5 15.5 13.5C16.7095 13.5 17.7184 14.3589 17.95 15.5H19.5C19.7761 15.5 20 15.7239 20 16C20 16.2761 19.7761 16.5 19.5 16.5H17.95C17.7184 17.6411 16.7095 18.5 15.5 18.5C14.2905 18.5 13.2816 17.6411 13.05 16.5Z" fill="currentColor"></path>
</svg>