<svg width="1em" height="1em" viewBox="0 0 24 24" fill="none" xmlns="http://www.w3.org/2000/svg">
<path fill-rule="evenodd" clip-rule="evenodd" d="M6 6V5.954C6 4.32271 7.32272 3 8.954 3C9.9401 3 10.8639 3.49206 11.4121 4.3153L12 5.19722L12.5877 4.31563C13.1359 3.49219 14.0598 3 15.046 3C16.6773 3 18 4.32271 18 5.954V6H20C20.5523 6 21 6.44772 21 7V11C21 11.5523 20.5523 12 20 12V20C20 20.5523 19.5523 21 19 21H5C4.44772 21 4 20.5523 4 20V12C3.44772 12 3 11.5523 3 11V7C3 6.44772 3.44772 6 4 6H6ZM8 5.954C8 5.42729 8.42729 5 8.954 5C9.27363 5 9.57205 5.16037 9.74795 5.4247L10.1315 6H8V5.954ZM13 19H18V12H13V19ZM11 12V19H6V12H11ZM13 10H19V8H13V10ZM11 8V10H5V8H11ZM16 6H13.8685L14.2525 5.42399C14.4284 5.15966 14.7264 5 15.046 5C15.5727 5 16 5.42729 16 5.954V6Z" fill="currentColor"></path>
</svg>