<svg width="1em" height="1em" viewBox="0 0 24 24" fill="none" xmlns="http://www.w3.org/2000/svg">
<path fill-rule="evenodd" clip-rule="evenodd" d="M5.50463 19.6035C5.46334 19.5729 5.4245 19.5392 5.38844 19.5026C3.31065 17.6702 2 14.9882 2 12C2 6.47715 6.47715 2 12 2C17.5228 2 22 6.47715 22 12C22 14.9884 20.6892 17.6706 18.6112 19.503C18.5753 19.5393 18.5367 19.5728 18.4957 19.6033C16.7482 21.0976 14.4795 22 12 22C9.52065 22 7.25204 21.0977 5.50463 19.6035ZM13 6.96537V4.38635C13.4268 4.70975 13.8728 5.25379 14.2876 6.08325C14.393 6.2941 14.4932 6.51799 14.5875 6.75388C14.1018 6.8526 13.5684 6.92551 13 6.96537ZM11 6.96538V4.38635C10.5732 4.70975 10.1272 5.25379 9.71245 6.08325C9.60702 6.2941 9.5068 6.518 9.41246 6.75388C9.89824 6.85261 10.4316 6.92551 11 6.96538ZM8.83774 8.67664C9.50849 8.82315 10.2372 8.92291 11 8.96964V11H8.52906C8.57721 10.1778 8.68372 9.39774 8.83774 8.67664ZM7.5129 6.11913C7.63937 5.79374 7.77649 5.48302 7.92359 5.18883C7.94119 5.15363 7.959 5.11855 7.97702 5.0836C7.63091 5.28536 7.30131 5.51234 6.99076 5.76205C7.11142 5.87411 7.28384 5.9962 7.5129 6.11913ZM5.59985 7.19943C5.96144 7.5434 6.42011 7.82741 6.92584 8.05928C6.71666 8.98005 6.57998 9.96949 6.52604 11H4.06189C4.23831 9.58522 4.78416 8.28517 5.59985 7.19943ZM13 8.96964C13.7628 8.92291 14.4915 8.82314 15.1623 8.67663C15.3163 9.39774 15.4228 10.1778 15.4709 11H13V8.96964ZM17.0742 8.05926C17.2833 8.98004 17.42 9.96948 17.474 11H19.9381C19.7617 9.58522 19.2158 8.28516 18.4001 7.19941C18.0386 7.54339 17.5799 7.8274 17.0742 8.05926ZM17.0092 5.76204C16.6987 5.51234 16.3691 5.28535 16.023 5.0836C16.041 5.11855 16.0588 5.15363 16.0764 5.18883C16.2235 5.48302 16.3606 5.79373 16.4871 6.11912C16.7161 5.99619 16.8886 5.8741 17.0092 5.76204ZM8.52906 13H11V15.6296C10.2844 15.6723 9.60081 15.7606 8.97133 15.8891C8.74488 15.0165 8.59009 14.0422 8.52906 13ZM9.65291 17.7951C10.0699 17.7216 10.5217 17.6662 11 17.6336V19.6136C10.5732 19.2902 10.1272 18.7462 9.71245 17.9167C9.69241 17.8767 9.67257 17.8361 9.65291 17.7951ZM6.52604 13C6.59065 14.2344 6.77399 15.4099 7.05843 16.479C6.62557 16.6725 6.23006 16.9063 5.90946 17.1873C4.92248 16.0296 4.25978 14.587 4.06189 13H6.52604ZM7.71951 18.378C7.59969 18.4377 7.49712 18.4968 7.41086 18.5537C7.59409 18.6822 7.78296 18.8033 7.97702 18.9164C7.959 18.8814 7.94119 18.8464 7.92359 18.8112C7.85326 18.6705 7.78521 18.5261 7.71951 18.378ZM19.9381 13C19.7402 14.587 19.0775 16.0296 18.0905 17.1873C17.7699 16.9063 17.3744 16.6726 16.9416 16.479C17.226 15.4099 17.4093 14.2344 17.474 13H19.9381ZM14.2876 17.9167C14.3076 17.8767 14.3274 17.8361 14.3471 17.7951C13.9301 17.7216 13.4783 17.6662 13 17.6336V19.6136C13.4268 19.2902 13.8728 18.7462 14.2876 17.9167ZM13 15.6296C13.7156 15.6723 14.3992 15.7606 15.0287 15.8891C15.2551 15.0165 15.4099 14.0422 15.4709 13H13V15.6296ZM16.5891 18.5537C16.5029 18.4968 16.4003 18.4377 16.2805 18.3781C16.2148 18.5261 16.1467 18.6705 16.0764 18.8112C16.0588 18.8464 16.041 18.8814 16.023 18.9164C16.217 18.8033 16.4059 18.6822 16.5891 18.5537Z" fill="currentColor"></path>
</svg>