<svg width="1em" height="1em" viewBox="0 0 24 24" fill="none" xmlns="http://www.w3.org/2000/svg">
<path fill-rule="evenodd" clip-rule="evenodd" d="M20.64 12.2044C20.64 11.5663 20.5827 10.9526 20.4764 10.3635H12V13.8449H16.8436C16.635 14.9699 16.0009 15.9231 15.0477 16.5613V18.8194H17.9564C19.6582 17.2526 20.64 14.9453 20.64 12.2044Z" fill="#4285F4"></path>
<path fill-rule="evenodd" clip-rule="evenodd" d="M11.9998 21C14.4298 21 16.467 20.1941 17.9561 18.8195L15.0475 16.5613C14.2416 17.1013 13.2107 17.4204 11.9998 17.4204C9.65567 17.4204 7.67158 15.8372 6.96385 13.71H3.95703V16.0418C5.43794 18.9831 8.48158 21 11.9998 21Z" fill="#34A853"></path>
<path fill-rule="evenodd" clip-rule="evenodd" d="M6.96409 13.7101C6.78409 13.1701 6.68182 12.5933 6.68182 12.0001C6.68182 11.4069 6.78409 10.8301 6.96409 10.2901V7.95825H3.95727C3.34773 9.17325 3 10.5478 3 12.0001C3 13.4523 3.34773 14.8269 3.95727 16.0419L6.96409 13.7101Z" fill="#FBBC05"></path>
<path fill-rule="evenodd" clip-rule="evenodd" d="M11.9998 6.57955C13.3211 6.57955 14.5075 7.03364 15.4402 7.92545L18.0216 5.34409C16.4629 3.89182 14.4257 3 11.9998 3C8.48158 3 5.43794 5.01682 3.95703 7.95818L6.96385 10.29C7.67158 8.16273 9.65567 6.57955 11.9998 6.57955Z" fill="#EA4335"></path>
</svg>