<svg width="1em" height="1em" viewBox="0 0 24 24" fill="none" xmlns="http://www.w3.org/2000/svg">
<path d="M21.5 9H17.6758L15.3125 7.10938C15.2236 7.03883 15.1135 7.0003 15 7H9C8.8865 7.00029 8.77641 7.03883 8.6875 7.10938L6.32422 9H2.5C2.43433 8.99996 2.36929 9.01287 2.30861 9.03798C2.24793 9.0631 2.1928 9.09992 2.14636 9.14636C2.09992 9.1928 2.0631 9.24793 2.03798 9.30861C2.01287 9.36929 1.99996 9.43433 2 9.5V14.5C1.99996 14.5657 2.01287 14.6307 2.03798 14.6914C2.0631 14.7521 2.09992 14.8072 2.14636 14.8536C2.1928 14.9001 2.24793 14.9369 2.30861 14.962C2.36929 14.9871 2.43433 15 2.5 15H6.34405L11.1758 18.3594C11.4155 18.5267 11.699 18.6202 11.9912 18.6283C12.2834 18.6365 12.5716 18.5589 12.8203 18.4053L18.1875 15.0898C18.2295 15.064 18.2633 15.0294 18.3021 15H21.5C21.5657 15 21.6307 14.9871 21.6914 14.962C21.7521 14.9369 21.8072 14.9001 21.8536 14.8536C21.9001 14.8072 21.9369 14.7521 21.962 14.6914C21.9871 14.6307 22 14.5657 22 14.5V9.5C22 9.43433 21.9871 9.36929 21.962 9.30861C21.9369 9.24794 21.9001 9.1928 21.8536 9.14636C21.8072 9.09993 21.7521 9.0631 21.6914 9.03798C21.6307 9.01287 21.5657 8.99996 21.5 9ZM12.2949 17.5537C12.2121 17.605 12.1162 17.631 12.0188 17.6284C11.9214 17.6258 11.827 17.5947 11.7471 17.5391L6.78515 14.0898C6.77173 14.0805 6.75598 14.079 6.742 14.0712C6.68258 14.0373 6.61666 14.0164 6.54858 14.0098C6.53257 14.0057 6.51636 14.0024 6.5 14H3V10H6.5C6.60275 9.99762 6.70212 9.96285 6.78393 9.90063C6.79272 9.89453 6.80401 9.89734 6.8125 9.89063L9.17578 8H10.293L9.14648 9.14648C9.10005 9.1929 9.06321 9.24801 9.03808 9.30866C9.01295 9.36931 9.00002 9.43433 9.00002 9.49998C9.00002 9.56563 9.01295 9.63065 9.03808 9.6913C9.06321 9.75195 9.10005 9.80706 9.14648 9.85348C9.51133 10.2197 9.98246 10.4614 10.4927 10.5442C11.003 10.6269 11.5264 10.5465 11.9883 10.3144L12.6182 10H14.293L17.753 13.46C17.8062 13.5134 17.8467 13.578 17.8713 13.6492C17.896 13.7204 17.9043 13.7963 17.8956 13.8711C17.8869 13.9459 17.8613 14.0178 17.8209 14.0814C17.7805 14.145 17.7262 14.1986 17.6622 14.2383L12.2949 17.5537ZM21 14H18.8857L18.8887 13.9873C18.9156 13.7625 18.8911 13.5345 18.8168 13.3206C18.7425 13.1068 18.6205 12.9126 18.46 12.7529L14.8535 9.14648C14.8071 9.10003 14.752 9.06319 14.6913 9.03806C14.6307 9.01292 14.5657 8.99999 14.5 9H12.5C12.4224 8.99981 12.3457 9.01787 12.2764 9.05273L11.541 9.41992C11.3442 9.51877 11.1275 9.57171 10.9073 9.57475C10.6871 9.5778 10.469 9.53087 10.2695 9.4375L11.707 8H14.8242L17.1875 9.89062C17.2377 9.91621 17.2879 9.94179 17.3381 9.96735C17.369 9.97684 17.4007 9.98324 17.4329 9.98645C17.4549 9.9926 17.4773 9.99713 17.5 10H21V14Z" fill="currentColor"></path>
</svg>