<svg width="1em" height="1em" viewBox="0 0 24 24" fill="none" xmlns="http://www.w3.org/2000/svg">
<path d="M21.5 8.5H17.8516L15.625 6.71875C15.4475 6.5771 15.2271 6.49997 15 6.5H9C8.77289 6.49997 8.55252 6.5771 8.375 6.71875L6.14843 8.5H2.5C2.36866 8.49992 2.23859 8.52574 2.11723 8.57596C1.99587 8.62619 1.8856 8.69985 1.79272 8.79272C1.69985 8.8856 1.62619 8.99587 1.57597 9.11723C1.52574 9.23859 1.49992 9.36866 1.5 9.5V14.5C1.49992 14.6313 1.52574 14.7614 1.57597 14.8828C1.62619 15.0041 1.69985 15.1144 1.79272 15.2073C1.8856 15.3002 1.99587 15.3738 2.11723 15.424C2.23859 15.4743 2.36866 15.5001 2.5 15.5H6.18573L10.3516 18.3965C10.8316 18.7304 11.3988 18.9167 11.9833 18.9325C12.5678 18.9483 13.1442 18.7929 13.6416 18.4853L17.1113 16.3418C17.4545 16.1233 17.7494 15.8368 17.9776 15.5H21.5C21.6313 15.5001 21.7614 15.4743 21.8828 15.424C22.0041 15.3738 22.1144 15.3001 22.2073 15.2073C22.3001 15.1144 22.3738 15.0041 22.424 14.8828C22.4743 14.7614 22.5001 14.6313 22.5 14.5V9.5C22.5001 9.36866 22.4743 9.23859 22.424 9.11723C22.3738 8.99587 22.3001 8.8856 22.2073 8.79273C22.1144 8.69985 22.0041 8.6262 21.8828 8.57597C21.7614 8.52574 21.6313 8.49993 21.5 8.5ZM12.5908 16.7832C12.4253 16.8863 12.2331 16.9385 12.0381 16.9333C11.8431 16.9281 11.654 16.8657 11.4941 16.7539L7.07129 13.6787C7.04125 13.6638 7.01045 13.6505 6.979 13.6389C6.86081 13.5726 6.73005 13.5318 6.59515 13.5192C6.56378 13.5111 6.53203 13.5047 6.5 13.5H3.5V10.5H6.5L6.50049 10.4999L6.501 10.5C6.62385 10.4981 6.7453 10.4736 6.85922 10.4276C6.89922 10.409 6.9379 10.3877 6.975 10.3638C7.02737 10.3408 7.07757 10.3132 7.125 10.2812L8.57556 9.1203C8.50051 9.30268 8.48112 9.50318 8.51981 9.69656C8.5585 9.88994 8.65356 10.0675 8.793 10.207L9.27346 10.6875C9.71843 11.1331 10.2924 11.4272 10.914 11.5282C11.5356 11.6292 12.1732 11.5318 12.7364 11.25L13.2364 11H13.6494L16.1592 13.0088C16.2844 13.1088 16.3838 13.2374 16.4489 13.3839C16.514 13.5303 16.5429 13.6903 16.5332 13.8503C16.5236 14.0102 16.4756 14.1655 16.3933 14.3031C16.3111 14.4406 16.1969 14.5564 16.0606 14.6406L12.5908 16.7832ZM20.5 13.5H18.5011C18.4655 13.1021 18.3505 12.7154 18.163 12.3626C17.9754 12.0099 17.7191 11.6983 17.4092 11.4463L14.625 9.21875C14.4475 9.0771 14.2271 8.99997 14 9H13C12.8447 8.99998 12.6916 9.03609 12.5527 9.10547L11.8418 9.46094C11.7035 9.52989 11.5512 9.56594 11.3967 9.56628C11.2422 9.56662 11.0897 9.53124 10.9512 9.46289L11.9141 8.5H14.6494L16.875 10.2812C16.9124 10.3039 16.9514 10.324 16.9916 10.3413C17.1057 10.421 17.2398 10.4676 17.3788 10.4756C17.4186 10.4864 17.4591 10.4945 17.5 10.5H20.5V13.5Z" fill="currentColor"></path>
</svg>