<svg width="1em" height="1em" viewBox="0 0 24 24" fill="none" xmlns="http://www.w3.org/2000/svg">
<path d="M12 2C6.5 2 2 6.5 2 12C2 17.5 6.5 22 12 22C17.5 22 22 17.5 22 12C22 6.5 17.5 2 12 2ZM19 17.6C18.6 18.1 18.1 18.6 17.6 19L14.7 16.1C15.3 15.7 15.7 15.2 16.1 14.7L19 17.6ZM6.4 19C5.9 18.6 5.4 18.1 5 17.6L7.9 14.7C8.3 15.3 8.8 15.7 9.3 16.1L6.4 19ZM5 6.4C5.4 5.9 5.9 5.4 6.4 5L9.3 7.9C8.7 8.3 8.3 8.8 7.9 9.3L5 6.4ZM8 12C8 9.8 9.8 8 12 8C14.2 8 16 9.8 16 12C16 14.2 14.2 16 12 16C9.8 16 8 14.2 8 12ZM17.6 5C18.1 5.4 18.6 5.9 19 6.4L16.1 9.3C15.7 8.7 15.2 8.3 14.7 7.9L17.6 5ZM16.6 13.8C16.8 13.2 17 12.6 17 12C17 11.4 16.9 10.7 16.6 10.2L19.6 7.2C20.5 8.6 21 10.2 21 12C21 13.8 20.5 15.4 19.6 16.8L16.6 13.8ZM16.8 4.4L13.8 7.4C13.3 7.1 12.6 7 12 7C11.4 7 10.7 7.1 10.2 7.4L7.2 4.4C8.6 3.5 10.2 3 12 3C13.8 3 15.4 3.5 16.8 4.4ZM4.4 7.2L7.4 10.2C7.1 10.7 7 11.4 7 12C7 12.6 7.1 13.3 7.4 13.8L4.4 16.8C3.5 15.4 3 13.8 3 12C3 10.2 3.5 8.6 4.4 7.2ZM7.2 19.6L10.2 16.6C10.7 16.9 11.4 17 12 17C12.6 17 13.3 16.9 13.8 16.6L16.8 19.6C15.4 20.5 13.8 21 12 21C10.2 21 8.6 20.5 7.2 19.6Z" fill="currentColor"></path>
</svg>