<svg width="1em" height="1em" viewBox="0 0 24 24" fill="none" xmlns="http://www.w3.org/2000/svg">
<path d="M12 2C10.0222 2 8.08879 2.58649 6.4443 3.6853C4.79981 4.78412 3.51809 6.3459 2.76121 8.17317C2.00433 10.0004 1.8063 12.0111 2.19215 13.9509C2.578 15.8907 3.53041 17.6725 4.92894 19.0711C6.32746 20.4696 8.10929 21.422 10.0491 21.8079C11.9889 22.1937 13.9996 21.9957 15.8268 21.2388C17.6541 20.4819 19.2159 19.2002 20.3147 17.5557C21.4135 15.9112 22 13.9778 22 12C22 10.6868 21.7413 9.38642 21.2388 8.17317C20.7363 6.95991 19.9997 5.85752 19.0711 4.92893C18.1425 4.00035 17.0401 3.26375 15.8268 2.7612C14.6136 2.25866 13.3132 2 12 2ZM20 12C20.0004 13.0726 19.7827 14.1342 19.36 15.12L16.93 12.69C16.9687 12.4618 16.9921 12.2313 17 12C16.9921 11.7687 16.9687 11.5382 16.93 11.31L19.36 8.88C19.7827 9.86585 20.0004 10.9274 20 12ZM18.3 16.91C17.8986 17.4314 17.4314 17.8986 16.91 18.3L14.76 16.16C15.319 15.7809 15.8009 15.299 16.18 14.74L18.32 16.89L18.3 16.91ZM4 12C3.99959 10.9274 4.21733 9.86585 4.64 8.88L7.07 11.31C7.03134 11.5382 7.00796 11.7687 7 12C7.00796 12.2313 7.03134 12.4618 7.07 12.69L4.64 15.12C4.21733 14.1342 3.99959 13.0726 4 12ZM5.7 7.09C6.10138 6.5686 6.5686 6.10138 7.09 5.7L9.25 7.83C8.69097 8.20908 8.20909 8.69097 7.83 9.25L5.69 7.1L5.7 7.09ZM7.09 18.3C6.5686 17.8986 6.10138 17.4314 5.7 16.91L7.84 14.76C8.21909 15.319 8.70097 15.8009 9.26 16.18L7.1 18.31L7.09 18.3ZM9 12C9 11.4067 9.17595 10.8266 9.5056 10.3333C9.83524 9.83994 10.3038 9.45542 10.852 9.22836C11.4001 9.0013 12.0033 8.94189 12.5853 9.05764C13.1672 9.1734 13.7018 9.45912 14.1213 9.87868C14.5409 10.2982 14.8266 10.8328 14.9424 11.4147C15.0581 11.9967 14.9987 12.5999 14.7716 13.1481C14.5446 13.6962 14.1601 14.1648 13.6667 14.4944C13.1734 14.8241 12.5933 15 12 15C11.2044 15 10.4413 14.6839 9.87868 14.1213C9.31607 13.5587 9 12.7956 9 12ZM16.91 5.7C17.4314 6.10138 17.8986 6.5686 18.3 7.09L16.17 9.25C15.7909 8.69097 15.309 8.20908 14.75 7.83L16.9 5.69L16.91 5.7ZM15.12 4.64L12.69 7.07C12.4618 7.03134 12.2313 7.00795 12 7C11.7687 7.00795 11.5382 7.03134 11.31 7.07L8.88 4.64C9.86591 4.21745 10.9274 3.99956 12 3.99956C13.0726 3.99956 14.1341 4.21745 15.12 4.64ZM8.88 19.36L11.31 16.93C11.5382 16.9687 11.7687 16.992 12 17C12.2313 16.992 12.4618 16.9687 12.69 16.93L15.12 19.36C14.134 19.782 13.0726 19.9996 12 19.9996C10.9275 19.9996 9.86605 19.782 8.88 19.36Z" fill="currentColor"></path>
</svg>