<svg width="1em" height="1em" viewBox="0 0 24 24" fill="none" xmlns="http://www.w3.org/2000/svg">
<path d="M11 6.5C10.4477 6.5 10 6.94772 10 7.5C10 8.05228 10.4477 8.5 11 8.5H17C17.5523 8.5 18 8.05228 18 7.5C18 6.94772 17.5523 6.5 17 6.5H11Z" fill="currentColor"></path>
<path d="M10 10.5C10 9.94772 10.4477 9.5 11 9.5H17C17.5523 9.5 18 9.94772 18 10.5C18 11.0523 17.5523 11.5 17 11.5H11C10.4477 11.5 10 11.0523 10 10.5Z" fill="currentColor"></path>
<path d="M11 12.5C10.4477 12.5 10 12.9477 10 13.5C10 14.0523 10.4477 14.5 11 14.5H17C17.5523 14.5 18 14.0523 18 13.5C18 12.9477 17.5523 12.5 17 12.5H11Z" fill="currentColor"></path>
<path fill-rule="evenodd" clip-rule="evenodd" d="M6 2C4.34772 2 3 3.34772 3 5V21C3 21.5523 3.44772 22 4 22H16C16.5523 22 17 21.5523 17 21V19H20C20.5523 19 21 18.5523 21 18V5C21 3.34772 19.6523 2 18 2H6ZM19 5V17H9V5C9 4.64966 8.93941 4.31301 8.82817 4H18C18.5477 4 19 4.45228 19 5ZM5 5C5 4.45228 5.45228 4 6 4C6.54772 4 7 4.45228 7 5V18C7 18.5523 7.44772 19 8 19H15V20H5V5Z" fill="currentColor"></path>
</svg>