<svg width="1em" height="1em" viewBox="0 0 24 24" fill="none" xmlns="http://www.w3.org/2000/svg">
<path d="M12 8.5C12.5523 8.5 13 8.05228 13 7.5C13 6.94772 12.5523 6.5 12 6.5C11.4477 6.5 11 6.94772 11 7.5C11 8.05228 11.4477 8.5 12 8.5Z" fill="currentColor"></path>
<path d="M12 9.5C12.5523 9.5 13 9.94772 13 10.5V16.5C13 17.0523 12.5523 17.5 12 17.5C11.4477 17.5 11 17.0523 11 16.5V10.5C11 9.94772 11.4477 9.5 12 9.5Z" fill="currentColor"></path>
<path fill-rule="evenodd" clip-rule="evenodd" d="M12 2C6.47715 2 2 6.47715 2 12C2 17.5228 6.47715 22 12 22C17.5228 22 22 17.5228 22 12C22 6.47715 17.5228 2 12 2ZM4 12C4 7.58172 7.58172 4 12 4C16.4183 4 20 7.58172 20 12C20 16.4183 16.4183 20 12 20C7.58172 20 4 16.4183 4 12Z" fill="currentColor"></path>
</svg>