<svg width="1em" height="1em" viewBox="0 0 24 24" fill="none" xmlns="http://www.w3.org/2000/svg">
<path fill-rule="evenodd" clip-rule="evenodd" d="M11.9998 15C13.6538 15 14.9998 13.654 14.9998 12C14.9998 11.946 14.9868 11.896 14.9838 11.844L11.8438 14.984C11.8958 14.987 11.9458 15 11.9998 15ZM8.99975 12C8.99975 12.054 9.01275 12.104 9.01575 12.156L12.1558 9.01601C12.1038 9.01301 12.0538 9.00001 11.9998 9.00001C10.3457 9.00001 8.99975 10.346 8.99975 12ZM19.7068 4.29301C19.3158 3.90201 18.6838 3.90201 18.2927 4.29301L4.29275 18.293C3.90175 18.684 3.90175 19.316 4.29275 19.707C4.48775 19.902 4.74375 20 4.99975 20C5.25575 20 5.51175 19.902 5.70675 19.707L19.7068 5.70701C20.0978 5.31601 20.0978 4.68401 19.7068 4.29301ZM21.9028 11.572C21.8347 11.427 20.9037 9.53001 19.0177 7.81101L16.6458 10.182C16.8667 10.747 16.9998 11.357 16.9998 12C16.9998 14.757 14.7568 17 11.9998 17C11.3568 17 10.7467 16.868 10.1827 16.646L8.46875 18.36C9.50975 18.752 10.6827 19 11.9998 19C18.7138 19 21.7757 12.696 21.9028 12.428C22.0317 12.157 22.0317 11.843 21.9028 11.572ZM2.09675 12.428C1.96775 12.157 1.96775 11.843 2.09675 11.572C2.22375 11.304 5.28575 5.00001 11.9998 5.00001C13.3168 5.00001 14.4897 5.24801 15.5308 5.64001L13.8168 7.35401C13.2528 7.13201 12.6427 7.00001 11.9998 7.00001C9.24275 7.00001 6.99975 9.24301 6.99975 12C6.99975 12.643 7.13275 13.253 7.35375 13.818L4.98175 16.189C3.09575 14.47 2.16475 12.573 2.09675 12.428Z" fill="currentColor"></path>
</svg>