<svg width="1em" height="1em" viewBox="0 0 24 24" fill="none" xmlns="http://www.w3.org/2000/svg">
<path d="M17.5 7.5C17.5 8.05228 17.0523 8.5 16.5 8.5C15.9477 8.5 15.5 8.05228 15.5 7.5C15.5 6.94772 15.9477 6.5 16.5 6.5C17.0523 6.5 17.5 6.94772 17.5 7.5Z" fill="currentColor"></path>
<path fill-rule="evenodd" clip-rule="evenodd" d="M15 3C11.6477 3 9 5.64772 9 9C9 9.47275 9.05249 9.95844 9.16505 10.4207L3.29289 16.2929C3.10536 16.4804 3 16.7348 3 17V20C3 20.5523 3.44772 21 4 21H7C7.26522 21 7.51957 20.8946 7.70711 20.7071L9.20711 19.2071C9.39464 19.0196 9.5 18.7652 9.5 18.5V17.5H10.5C11.0523 17.5 11.5 17.0523 11.5 16.5V15.5H12.5C12.7652 15.5 13.0196 15.3946 13.2071 15.2071L13.5793 14.835C14.0416 14.9475 14.5272 15 15 15C18.3523 15 21 12.3523 21 9C21 5.64772 18.3523 3 15 3ZM7.5 16.5C7.5 15.9477 7.94772 15.5 8.5 15.5H9.5V14.5C9.5 13.9477 9.94772 13.5 10.5 13.5H12.0858L12.5929 12.9929C12.8758 12.71 13.3 12.623 13.6714 12.7715C14.0316 12.9156 14.5015 13 15 13C17.2477 13 19 11.2477 19 9C19 6.75228 17.2477 5 15 5C12.7523 5 11 6.75228 11 9C11 9.49846 11.0844 9.96843 11.2285 10.3286C11.377 10.7 11.29 11.1242 11.0071 11.4071L5 17.4142V19H6.58579L7.5 18.0858V16.5Z" fill="currentColor"></path>
</svg>