<svg width="1em" height="1em" viewBox="0 0 24 24" fill="none" xmlns="http://www.w3.org/2000/svg">
<path fill-rule="evenodd" clip-rule="evenodd" d="M17 5.5C16.1716 5.5 15.5 6.17157 15.5 7C15.5 7.82843 16.1716 8.5 17 8.5C17.8284 8.5 18.5 7.82843 18.5 7C18.5 6.17157 17.8284 5.5 17 5.5ZM16.5 7C16.5 6.72386 16.7239 6.5 17 6.5C17.2761 6.5 17.5 6.72386 17.5 7C17.5 7.27614 17.2761 7.5 17 7.5C16.7239 7.5 16.5 7.27614 16.5 7Z" fill="currentColor"></path>
<path fill-rule="evenodd" clip-rule="evenodd" d="M15.5 3C12.4239 3 10 5.42386 10 8.5C10 9.03344 10.0724 9.57644 10.2241 10.0688L3.14645 17.1464C3.05268 17.2402 3 17.3674 3 17.5V20.5C3 20.7761 3.22386 21 3.5 21H6.5C6.63261 21 6.75979 20.9473 6.85355 20.8536L7.85355 19.8536C7.94732 19.7598 8 19.6326 8 19.5V18H9.5C9.63261 18 9.75979 17.9473 9.85355 17.8536L10.8536 16.8536C10.9473 16.7598 11 16.6326 11 16.5V15H12.5C12.6326 15 12.7598 14.9473 12.8536 14.8536L13.9312 13.7759C14.4236 13.9276 14.9666 14 15.5 14C18.5761 14 21 11.5761 21 8.5C21 5.42386 18.5761 3 15.5 3ZM11 8.5C11 5.97614 12.9761 4 15.5 4C18.0239 4 20 5.97614 20 8.5C20 11.0239 18.0239 13 15.5 13C14.9508 13 14.4158 12.9078 13.9857 12.7358C13.8 12.6615 13.5879 12.705 13.4464 12.8464L12.2929 14H10.5C10.2239 14 10 14.2239 10 14.5V16.2929L9.29289 17H7.5C7.22386 17 7 17.2239 7 17.5V19.2929L6.29289 20H4V17.7071L11.1536 10.5536C11.295 10.4121 11.3385 10.2 11.2642 10.0143C11.0922 9.58422 11 9.04923 11 8.5Z" fill="currentColor"></path>
</svg>