<svg width="1em" height="1em" viewBox="0 0 24 24" fill="none" xmlns="http://www.w3.org/2000/svg">
<rect y="4" width="24" height="16" rx="2" fill="#6F5F5E"></rect>
<path d="M13.805 12.988C13.8105 12.988 13.8105 12.988 13.805 12.988C14.1803 12.6017 14.6329 11.9724 14.92 11.0616C14.92 11.0616 14.931 11.0285 14.9476 11.0285C14.9641 11.0285 14.9807 11.0672 14.9807 11.0672C15.5989 13.0708 17.0892 13.8602 17.5971 14.0313C17.6247 14.0423 17.6247 14.0644 17.6247 14.0754C17.3652 14.782 16.9733 15.4223 16.4821 15.9742C16.471 15.9798 16.4545 15.9908 16.4269 15.9742C14.8261 15.0635 13.9209 13.2861 13.7994 13.0377C13.7884 13.0156 13.805 12.9991 13.805 12.988Z" fill="#FFD400"></path>
<path d="M14.8868 17.2162C12.6292 15.0193 12.0331 11.0948 12.0331 11.0948C12.0331 11.0948 12.022 11.0285 11.9944 11.0285C11.9668 11.0285 11.9558 11.0948 11.9558 11.0948C11.9558 11.0948 11.3652 15.0193 9.10208 17.2162C9.10208 17.2162 9.08 17.2383 9.10208 17.2548C9.9466 17.7185 10.9181 17.989 11.9503 17.9945H12.0276C13.0598 17.989 14.0312 17.7185 14.8758 17.2548C14.9089 17.2383 14.8868 17.2162 14.8868 17.2162Z" fill="#FFD400"></path>
<path d="M15.1297 6.87764C15.0966 6.86109 15.0966 6.90524 15.0966 6.90524C15.1021 7.61177 15.196 11.5198 17.9227 12.7121C17.9503 12.7231 17.9558 12.7065 17.9558 12.701C17.9834 12.4692 18 12.2373 18 12C17.9945 9.82521 16.8464 7.93192 15.1297 6.87764Z" fill="#FFD400"></path>
<path d="M8.87029 6.87764C8.9034 6.86109 8.9034 6.90524 8.9034 6.90524C8.89788 7.61177 8.80405 11.5198 6.07728 12.7121C6.0552 12.7231 6.04416 12.7065 6.04416 12.701C6.01656 12.4692 6 12.2373 6 12C6 9.82521 7.14811 7.93192 8.87029 6.87764Z" fill="#FFD400"></path>
<path d="M14.7654 6.67341C13.9871 6.26495 13.1095 6.0276 12.1711 6C12.1435 6 12.149 6.03312 12.149 6.03312C12.149 7.22539 12.3422 10.0129 13.2696 11.8951C13.2751 11.9172 13.2916 11.9062 13.3027 11.9062L13.3082 11.9006C13.402 11.8013 14.8427 10.2171 14.7875 6.71757C14.7875 6.68997 14.7709 6.67341 14.7654 6.67341Z" fill="#FFD400"></path>
<path d="M9.22907 6.67341C10.0074 6.26495 10.8905 6.0276 11.8234 6C11.851 6 11.8454 6.03312 11.8454 6.03312C11.8454 7.22539 11.6523 10.0129 10.7194 11.8951C10.7139 11.9172 10.6918 11.9062 10.6918 11.9062C10.6863 11.9062 10.6863 11.9006 10.6863 11.9006C10.5925 11.8013 9.1518 10.2171 9.207 6.71757C9.207 6.68997 9.21803 6.67341 9.22907 6.67341Z" fill="#FFD400"></path>
<path d="M10.1928 12.9478C9.81704 12.5609 9.36387 11.9309 9.08202 11.019C9.08202 11.019 9.07097 10.9859 9.05439 10.9859C9.03781 10.9859 9.02123 11.0246 9.02123 11.0246C8.40226 13.0307 6.91012 13.821 6.40168 13.9923C6.37405 14.0033 6.37405 14.0254 6.37405 14.0365C6.63379 14.7439 7.02617 15.3849 7.51803 15.9376C7.52908 15.9431 7.54566 15.9542 7.57329 15.9376C9.17044 15.0257 10.0823 13.2462 10.2039 12.9975C10.2149 12.9754 10.2039 12.9588 10.1928 12.9478Z" fill="#FFD400"></path>
</svg>