<svg width="1em" height="1em" viewBox="0 0 24 24" fill="none" xmlns="http://www.w3.org/2000/svg">
<path d="M19.5 11.5H5.84L12.33 5.87999C12.54 5.69999 12.56 5.37999 12.38 5.16999C12.2 4.95999 11.88 4.93999 11.67 5.11999L4.17 11.62L4.16 11.63C4.13 11.67 4.1 11.71 4.07 11.75C4.06 11.77 4.05 11.78 4.04 11.8C4.02 11.86 4 11.93 4 12C4 12.07 4.02 12.14 4.04 12.2C4.05 12.22 4.06 12.23 4.07 12.24C4.1 12.29 4.13 12.33 4.16 12.36L4.17 12.37L11.67 18.87C11.77 18.96 11.88 19 12 19C12.14 19 12.28 18.94 12.38 18.83C12.56 18.62 12.54 18.31 12.33 18.12L5.84 12.5H19.5C19.78 12.5 20 12.28 20 12C20 11.72 19.78 11.5 19.5 11.5Z" fill="currentColor"></path>
</svg>