<svg width="1em" height="1em" viewBox="0 0 24 24" fill="none" xmlns="http://www.w3.org/2000/svg">
<path d="M13.5 14C13.5 14.4443 13.3069 14.8434 13 15.1181V16C13 16.5523 12.5523 17 12 17C11.4477 17 11 16.5523 11 16V15.1181C10.6931 14.8434 10.5 14.4443 10.5 14C10.5 13.1716 11.1716 12.5 12 12.5C12.8284 12.5 13.5 13.1716 13.5 14Z" fill="currentColor"></path>
<path fill-rule="evenodd" clip-rule="evenodd" d="M8 9V8C8 5.74772 9.74772 4 12 4C14.2523 4 16 5.74772 16 8V9H17C17.5523 9 18 9.44772 18 10V19C18 19.5523 17.5523 20 17 20H7C6.44772 20 6 19.5523 6 19V10C6 9.44772 6.44772 9 7 9H8ZM10 8C10 6.85228 10.8523 6 12 6C13.1477 6 14 6.85228 14 8V9H10V8ZM8 11V18H16V11H8Z" fill="currentColor"></path>
</svg>