<svg width="1em" height="1em" viewBox="0 0 24 24" fill="none" xmlns="http://www.w3.org/2000/svg">
<rect y="4.00012" width="24" height="16" rx="2" fill="black"></rect>
<path d="M14.1531 14.6777H9.73633V6.73999H14.1531V14.6777Z" fill="#6C6BBD"></path>
<path d="M10.0196 10.7081C10.0196 9.09794 10.7735 7.66361 11.9475 6.73927C11.089 6.06335 10.0054 5.65991 8.82787 5.65991C6.04009 5.65991 3.78027 7.92005 3.78027 10.7081C3.78027 13.4962 6.04009 15.7564 8.82787 15.7564C10.0054 15.7564 11.089 15.3529 11.9475 14.677C10.7735 13.7527 10.0196 12.3184 10.0196 10.7081Z" fill="#EB001B"></path>
<path d="M19.9559 13.8356V13.6399H19.9048L19.8458 13.7743L19.787 13.6399H19.7357V13.8356H19.7719V13.688L19.8271 13.8154H19.8647L19.9199 13.6877V13.8356H19.9559ZM19.632 13.8356V13.6732H19.6975V13.6402H19.5306V13.6732H19.5961V13.8356H19.632Z" fill="#0099DF"></path>
<path d="M20.1099 10.7083C20.1099 13.4964 17.8501 15.7565 15.0623 15.7565C13.8848 15.7565 12.8012 15.3531 11.9424 14.6771C13.1167 13.7528 13.8707 12.3185 13.8707 10.7083C13.8707 9.09806 13.1167 7.66373 11.9424 6.73939C12.8012 6.06347 13.8848 5.66003 15.0623 5.66003C17.8501 5.66003 20.1099 7.92017 20.1099 10.7083Z" fill="#0099DF"></path>
<path d="M15.6422 16.9192C15.7009 16.9192 15.7853 16.9304 15.8498 16.9558L15.7599 17.2305C15.6983 17.2052 15.6367 17.1968 15.5776 17.1968C15.387 17.1968 15.2917 17.3201 15.2917 17.5415V18.2932H14.9999V16.9529H15.2888V17.1156C15.3645 16.9978 15.474 16.9192 15.6422 16.9192ZM14.5644 17.2193H14.0878V17.8249C14.0878 17.9594 14.1353 18.0493 14.2813 18.0493C14.3571 18.0493 14.4524 18.0239 14.5391 17.9735L14.6231 18.2229C14.5307 18.2874 14.385 18.3269 14.2589 18.3269C13.9138 18.3269 13.7935 18.1417 13.7935 17.8304V17.2193H13.5213V16.9529H13.7935V16.5463H14.0878V16.9529H14.5644V17.2193ZM10.8321 17.5053C10.8632 17.3117 10.9807 17.1798 11.1883 17.1798C11.3761 17.1798 11.4968 17.2976 11.5276 17.5053H10.8321ZM11.8305 17.6231C11.8277 17.2052 11.5696 16.9192 11.1938 16.9192C10.8013 16.9192 10.5265 17.2052 10.5265 17.6231C10.5265 18.049 10.8125 18.3266 11.2137 18.3266C11.4156 18.3266 11.6004 18.2762 11.7631 18.1388L11.62 17.9228C11.508 18.0127 11.3648 18.0631 11.2304 18.0631C11.0426 18.0631 10.8715 17.9761 10.8295 17.7351H11.8248C11.8277 17.6985 11.8305 17.6622 11.8305 17.6231ZM13.1118 17.295C13.0306 17.2443 12.8653 17.1798 12.6942 17.1798C12.5344 17.1798 12.4391 17.2389 12.4391 17.3371C12.4391 17.4266 12.5398 17.452 12.666 17.4687L12.8033 17.4883C13.0951 17.5306 13.2716 17.6539 13.2716 17.8894C13.2716 18.1446 13.0473 18.3269 12.6605 18.3269C12.4416 18.3269 12.2398 18.2707 12.0799 18.1529L12.2173 17.9257C12.3155 18.0015 12.4615 18.066 12.6634 18.066C12.8624 18.066 12.969 18.0072 12.969 17.9032C12.969 17.8278 12.8932 17.7855 12.7334 17.7633L12.596 17.7437C12.2959 17.7014 12.1332 17.5669 12.1332 17.3483C12.1332 17.0819 12.3521 16.9192 12.6913 16.9192C12.9044 16.9192 13.098 16.967 13.2379 17.0595L13.1118 17.295ZM16.708 17.1962C16.648 17.1962 16.5925 17.2068 16.5408 17.2276C16.4895 17.2488 16.4449 17.2784 16.4073 17.3162C16.3698 17.3541 16.3402 17.3997 16.3187 17.4526C16.2972 17.5056 16.2866 17.564 16.2866 17.6275C16.2866 17.6914 16.2972 17.7495 16.3187 17.8025C16.3402 17.8554 16.3698 17.901 16.4073 17.9389C16.4449 17.9767 16.4895 18.0063 16.5408 18.0275C16.5925 18.0486 16.648 18.0589 16.708 18.0589C16.7681 18.0589 16.8239 18.0486 16.8753 18.0275C16.9269 18.0063 16.9719 17.9767 17.0094 17.9389C17.0476 17.901 17.0771 17.8554 17.099 17.8025C17.1205 17.7495 17.131 17.6914 17.131 17.6275C17.131 17.564 17.1205 17.5056 17.099 17.4526C17.0771 17.3997 17.0476 17.3541 17.0094 17.3162C16.9719 17.2784 16.9269 17.2488 16.8753 17.2276C16.8239 17.2068 16.7681 17.1962 16.708 17.1962ZM16.708 16.9192C16.812 16.9192 16.9083 16.9372 16.9969 16.9735C17.0855 17.0094 17.1622 17.0591 17.2267 17.1224C17.2915 17.1856 17.3419 17.2604 17.3785 17.3464C17.4151 17.4327 17.4334 17.5264 17.4334 17.6275C17.4334 17.7286 17.4151 17.8224 17.3785 17.9087C17.3419 17.9947 17.2915 18.0698 17.2267 18.133C17.1622 18.1963 17.0855 18.2457 16.9969 18.282C16.9083 18.3179 16.812 18.3359 16.708 18.3359C16.604 18.3359 16.5078 18.3179 16.4192 18.282C16.3306 18.2457 16.2545 18.1963 16.1903 18.133C16.1262 18.0698 16.0758 17.9947 16.0392 17.9087C16.0026 17.8224 15.9843 17.7286 15.9843 17.6275C15.9843 17.5264 16.0026 17.4327 16.0392 17.3464C16.0758 17.2604 16.1262 17.1856 16.1903 17.1224C16.2545 17.0591 16.3306 17.0094 16.4192 16.9735C16.5078 16.9372 16.604 16.9192 16.708 16.9192ZM9.12846 17.6231C9.12846 17.3875 9.28284 17.1939 9.53511 17.1939C9.77614 17.1939 9.93886 17.3791 9.93886 17.6231C9.93886 17.867 9.77614 18.0518 9.53511 18.0518C9.28284 18.0518 9.12846 17.8586 9.12846 17.6231ZM10.2136 16.9529H9.92217V17.1156C9.82942 16.995 9.68948 16.9192 9.49884 16.9192C9.12301 16.9192 8.82869 17.2135 8.82869 17.6231C8.82869 18.0323 9.12301 18.3269 9.49884 18.3269C9.68948 18.3269 9.82942 18.2512 9.92217 18.1305V18.2932H10.2136V16.9529ZM8.57065 18.2932V17.452C8.57065 17.1352 8.36877 16.9221 8.04365 16.9192C7.87258 16.9163 7.69574 16.9696 7.57249 17.1577C7.48006 17.0091 7.33403 16.9192 7.12926 16.9192C6.98644 16.9192 6.84618 16.9613 6.73674 17.1182V16.9529H6.44531V18.2932H6.73962V17.5502C6.73962 17.3175 6.86865 17.1939 7.06764 17.1939C7.26117 17.1939 7.35938 17.3201 7.35938 17.5473V18.2932H7.65369V17.5502C7.65369 17.3175 7.78849 17.1939 7.9817 17.1939C8.18101 17.1939 8.27634 17.3201 8.27634 17.5473V18.2932H8.57065Z" fill="white"></path>
<path d="M17.7472 18.1928V18.2259H17.7776C17.7844 18.2259 17.7902 18.2243 17.794 18.2217C17.7982 18.2192 17.8004 18.2147 17.8004 18.2092C17.8004 18.2038 17.7982 18.1996 17.794 18.197C17.7902 18.1941 17.7844 18.1928 17.7776 18.1928H17.7472ZM17.778 18.1697C17.7937 18.1697 17.8059 18.1733 17.8146 18.1803C17.8232 18.1874 17.8274 18.197 17.8274 18.2092C17.8274 18.2195 17.8242 18.2278 17.8171 18.2346C17.8104 18.241 17.8004 18.2452 17.7879 18.2468L17.8284 18.2933H17.7969L17.7593 18.2471H17.7472V18.2933H17.7208V18.1697H17.778ZM17.7699 18.3357C17.7844 18.3357 17.7979 18.3331 17.8101 18.3276C17.8226 18.3222 17.8335 18.3148 17.8428 18.3055C17.8521 18.2962 17.8595 18.2853 17.8649 18.2724C17.8701 18.2599 17.873 18.2464 17.873 18.232C17.873 18.2176 17.8701 18.2041 17.8649 18.1916C17.8595 18.179 17.8521 18.1678 17.8428 18.1585C17.8335 18.1492 17.8226 18.1418 17.8101 18.1367C17.7979 18.1312 17.7844 18.1286 17.7699 18.1286C17.7555 18.1286 17.7417 18.1312 17.7292 18.1367C17.7163 18.1418 17.7051 18.1492 17.6958 18.1585C17.6865 18.1678 17.6791 18.179 17.674 18.1916C17.6685 18.2041 17.666 18.2176 17.666 18.232C17.666 18.2464 17.6685 18.2599 17.674 18.2724C17.6791 18.2853 17.6865 18.2962 17.6958 18.3055C17.7051 18.3148 17.7163 18.3222 17.7292 18.3276C17.7417 18.3331 17.7555 18.3357 17.7699 18.3357ZM17.7699 18.0988C17.7889 18.0988 17.8062 18.1023 17.8226 18.1094C17.8393 18.1161 17.8534 18.1258 17.8659 18.138C17.8781 18.1498 17.8877 18.164 17.8948 18.1803C17.9019 18.1964 17.9054 18.2137 17.9054 18.232C17.9054 18.2503 17.9019 18.2676 17.8948 18.2837C17.8877 18.2997 17.8781 18.3138 17.8659 18.3257C17.8534 18.3379 17.8393 18.3475 17.8226 18.3546C17.8062 18.3617 17.7889 18.3652 17.7699 18.3652C17.7507 18.3652 17.733 18.3617 17.7163 18.3546C17.6997 18.3475 17.6852 18.3379 17.673 18.3257C17.6608 18.3138 17.6512 18.2997 17.6441 18.2837C17.6371 18.2676 17.6335 18.2503 17.6335 18.232C17.6335 18.2137 17.6371 18.1964 17.6441 18.1803C17.6512 18.164 17.6608 18.1498 17.673 18.138C17.6852 18.1258 17.6997 18.1161 17.7163 18.1094C17.733 18.1023 17.7507 18.0988 17.7699 18.0988Z" fill="white"></path>
</svg>