<svg width="1em" height="1em" viewBox="0 0 20 19" fill="none" xmlns="http://www.w3.org/2000/svg">
<path d="M19.6 0.200024C19.3 2.44081e-05 19 2.44156e-05 18.7 0.100024L13 1.90002L7.3 0.100024C7.1 2.44156e-05 6.9 2.44156e-05 6.7 0.100024L0.7 2.10002C0.3 2.20002 0 2.60002 0 3.00002V17C0 17.3 0.2 17.6 0.4 17.8C0.6 17.9 0.8 18 1 18C1.1 18 1.2 18 1.3 17.9L7 16.1L12.7 18C12.9 18.1 13.1 18.1 13.3 18L19.3 16C19.7 15.9 20 15.5 20 15.1V1.00002C20 0.700024 19.8 0.400024 19.6 0.200024ZM8 2.40002L12 3.70002V15.6L8 14.3V2.40002ZM2 3.70002L6 2.40002V14.3L2 15.6V3.70002ZM18 14.3L14 15.6V3.70002L18 2.40002V14.3Z" fill="currentColor"></path>
</svg>