<svg width="1em" height="1em" viewBox="0 0 24 24" fill="none" xmlns="http://www.w3.org/2000/svg">
<path d="M11.1079 6.54849C11.478 5.81731 12.5222 5.81731 12.8923 6.54849L15.509 11.719L18.5314 10.1167C19.1944 9.76494 19.9789 10.2413 19.9998 10.9663L19.9972 11.0768L19.515 17.345L20.4285 19.6286C20.6766 20.249 20.2589 20.9208 19.6158 20.9935L19.5 21H4.5C3.79254 21 3.30877 20.2855 3.57152 19.6286L4.485 17.343L4.00305 11.0768C3.94548 10.3284 4.69557 9.79967 5.36855 10.0701L5.46881 10.1167L8.49001 11.719L11.1079 6.54849ZM17.823 18.5H6.17599L5.976 19H18.023L17.823 18.5ZM12 9.214L9.81433 13.5327C9.56151 14.0322 8.94792 14.2269 8.4534 13.9645L6.136 12.735L6.42599 16.5H17.574L17.864 12.734L15.5468 13.9645C15.0876 14.2081 14.5257 14.0577 14.2454 13.635L14.1859 13.5327L12 9.214ZM4 7C4.55214 7 5 7.44786 5 8C5 8.55214 4.55214 9 4 9C3.44786 9 3 8.55214 3 8C3 7.44786 3.44786 7 4 7ZM20 7C20.5521 7 21 7.44786 21 8C21 8.55214 20.5521 9 20 9C19.4479 9 19 8.55214 19 8C19 7.44786 19.4479 7 20 7ZM12 3C12.5521 3 13 3.44786 13 4C13 4.55214 12.5521 5 12 5C11.4479 5 11 4.55214 11 4C11 3.44786 11.4479 3 12 3Z" fill="currentColor"></path>
</svg>