<svg width="1em" height="1em" viewBox="0 0 24 24" fill="none" xmlns="http://www.w3.org/2000/svg">
<path d="M12 18C12.2455 18 12.4496 18.1769 12.4919 18.4101L12.5 18.5V20.5C12.5 20.7761 12.2761 21 12 21C11.7545 21 11.5504 20.8231 11.5081 20.5899L11.5 20.5V18.5C11.5 18.2239 11.7239 18 12 18ZM11.5516 4.77845C11.735 4.40678 12.265 4.40678 12.4484 4.77845L14.243 8.417L18.2599 9.00088C18.6406 9.05618 18.8091 9.49457 18.5937 9.78857L18.5371 9.85362L15.631 12.687L16.3178 16.6872C16.3831 17.0684 16.0141 17.3651 15.6663 17.2462L15.5923 17.2143L12 15.325L8.40872 17.2142C8.06638 17.3943 7.67007 17.135 7.67567 16.7675L7.68318 16.6872L8.369 12.687L5.46293 9.85368C5.18744 9.58504 5.309 9.13134 5.65611 9.02021L5.74014 9.00088L9.75599 8.417L11.5516 4.77845ZM18.7843 14.0886L18.8535 14.1465L20.8535 16.1465C21.0488 16.3417 21.0488 16.6583 20.8535 16.8535C20.68 17.0271 20.4106 17.0464 20.2157 16.9114L20.1465 16.8535L18.1465 14.8535C17.9512 14.6583 17.9512 14.3417 18.1465 14.1465C18.32 13.9729 18.5894 13.9536 18.7843 14.0886ZM5.85354 14.1465C6.02711 14.32 6.0464 14.5894 5.9114 14.7843L5.85354 14.8535L3.85354 16.8535C3.65828 17.0488 3.34171 17.0488 3.14645 16.8535C2.97288 16.68 2.95359 16.4106 3.08859 16.2157L3.14645 16.1465L5.14645 14.1465C5.34171 13.9512 5.65828 13.9512 5.85354 14.1465ZM12 6.12899L10.5364 9.09594C10.4636 9.24355 10.3227 9.34585 10.1599 9.3695L6.886 9.84399L9.25506 12.1547C9.34929 12.2466 9.40254 12.3709 9.40583 12.4999L9.39882 12.5972L8.839 15.858L11.7673 14.3182C11.8838 14.2569 12.0185 14.2446 12.1423 14.2814L12.2327 14.3181L15.161 15.858L14.6022 12.5972C14.58 12.4675 14.6099 12.3357 14.683 12.2293L14.7459 12.1548L17.113 9.84399L13.8401 9.3695C13.7098 9.35058 13.5937 9.28132 13.5151 9.1788L13.4636 9.09594L12 6.12899ZM18.8535 3.14645C19.0271 3.32002 19.0464 3.58943 18.9114 3.7843L18.8535 3.85354L16.8535 5.85354C16.6583 6.04881 16.3417 6.04881 16.1465 5.85354C15.9729 5.67998 15.9536 5.41056 16.0886 5.21569L16.1465 5.14645L18.1465 3.14645C18.3417 2.95119 18.6583 2.95119 18.8535 3.14645ZM5.7843 3.08859L5.85354 3.14645L7.85354 5.14645C8.04881 5.34171 8.04881 5.65828 7.85354 5.85354C7.67998 6.02711 7.41056 6.0464 7.21569 5.9114L7.14645 5.85354L5.14645 3.85354C4.95119 3.65828 4.95119 3.34171 5.14645 3.14645C5.32002 2.97288 5.58943 2.95359 5.7843 3.08859Z" fill="currentColor"></path>
</svg>