<svg width="1em" height="1em" viewBox="0 0 24 24" fill="none" xmlns="http://www.w3.org/2000/svg">
<path d="M12 18C12.5128 18 12.9355 18.386 12.9933 18.8834L13 19V20C13 20.5523 12.5523 21 12 21C11.4872 21 11.0645 20.614 11.0067 20.1166L11 20V19C11 18.4477 11.4477 18 12 18ZM11.1032 4.55722C11.47 3.81387 12.53 3.81387 12.8968 4.55722L14.575 7.961L18.3317 8.50609C19.1128 8.61952 19.4472 9.53893 18.9648 10.1261L18.8863 10.2115L16.169 12.861L16.8106 16.6028C16.9443 17.3825 16.1691 17.9855 15.4603 17.7032L15.3597 17.6568L12 15.89L8.64145 17.6568C7.94121 18.025 7.12805 17.4742 7.17735 16.7129L7.19037 16.6028L7.831 12.861L5.11386 10.2117C4.54874 9.6606 4.81898 8.72022 5.55451 8.52901L5.66828 8.50609L9.42401 7.961L11.1032 4.55722ZM19.6129 14.7097L19.7071 14.7929L20.7071 15.7929C21.0976 16.1834 21.0976 16.8166 20.7071 17.2071C20.3466 17.5676 19.7794 17.5953 19.3871 17.2903L19.2929 17.2071L18.2929 16.2071C17.9024 15.8166 17.9024 15.1834 18.2929 14.7929C18.6534 14.4324 19.2206 14.4047 19.6129 14.7097ZM5.70711 14.7929C6.06759 15.1534 6.09533 15.7206 5.7903 16.1129L5.70711 16.2071L4.70711 17.2071C4.31658 17.5976 3.68342 17.5976 3.29289 17.2071C2.93241 16.8466 2.90468 16.2794 3.2097 15.8871L3.29289 15.7929L4.29289 14.7929C4.68342 14.4024 5.31658 14.4024 5.70711 14.7929ZM12 7.259L10.9848 9.31719C10.8391 9.6124 10.5575 9.81701 10.2317 9.86432L7.961 10.194L9.60416 11.7967C9.81028 11.9977 9.91835 12.2762 9.90491 12.5599L9.89163 12.6816L9.50299 14.943L11.5345 13.8756C11.7895 13.7416 12.0879 13.7248 12.3537 13.8253L12.4654 13.8756L14.497 14.943L14.1094 12.6816C14.0607 12.3979 14.1369 12.1092 14.3145 11.8875L14.3967 11.7969L16.039 10.194L13.7683 9.86432C13.4832 9.82292 13.232 9.66109 13.0761 9.42351L13.0152 9.31719L12 7.259ZM19.2071 3.29289C19.5676 3.65338 19.5953 4.22061 19.2903 4.6129L19.2071 4.70711L18.2071 5.70711C17.8166 6.09763 17.1834 6.09763 16.7929 5.70711C16.4324 5.34663 16.4047 4.77939 16.7097 4.3871L16.7929 4.29289L17.7929 3.29289C18.1834 2.90237 18.8166 2.90237 19.2071 3.29289ZM6.1129 3.2097L6.20711 3.29289L7.20711 4.29289C7.59763 4.68342 7.59763 5.31658 7.20711 5.70711C6.84663 6.06759 6.27939 6.09533 5.8871 5.7903L5.79289 5.70711L4.79289 4.70711C4.40237 4.31658 4.40237 3.68342 4.79289 3.29289C5.15338 2.93241 5.72061 2.90468 6.1129 3.2097Z" fill="currentColor"></path>
</svg>