<svg width="1em" height="1em" viewBox="0 0 24 24" fill="none" xmlns="http://www.w3.org/2000/svg">
<path d="M6.5881 3H17.4121L17.4752 3.00175L17.6062 3.01893L17.7157 3.04721L17.7935 3.07553L17.9156 3.13599C17.9877 3.17774 18.0532 3.22791 18.1113 3.28474L18.2012 3.38565L18.2563 3.46387L18.3175 3.5754L20.9274 9.62566L20.9646 9.7358L20.9934 9.88338L21.0001 10L20.997 10.0799L20.9832 10.1834L20.9477 10.3194L20.9232 10.3852L20.8725 10.4893C20.8461 10.536 20.8155 10.5815 20.781 10.6247L20.8481 10.5303L20.8121 10.5838L12.8114 20.5891C12.6819 20.7716 12.5017 20.8933 12.3046 20.9543L12.1486 20.989L12.0361 20.9994L11.9421 20.9983L11.8334 20.9862L11.8155 20.983C11.5726 20.9396 11.3442 20.8081 11.1888 20.5891L3.2256 10.6327L3.15205 10.5303L3.09645 10.429L3.06401 10.3527L3.02989 10.2435L3.00789 10.126L3 10L3.00272 9.92579L3.01485 9.82864L3.02663 9.76993L3.05902 9.66074L3.08188 9.60394L5.6828 3.57522L5.74408 3.46364L5.80771 3.37464C5.88305 3.28017 5.97639 3.19862 6.08449 3.13577L6.21605 3.07176L6.28438 3.04721C6.33294 3.03173 6.38182 3.02016 6.43066 3.01231L6.52588 3.00169L6.5881 3ZM14.0901 11H9.9091L12.0001 16.973L14.0901 11ZM17.919 10.9998H16.209L14.879 14.8008L17.919 10.9998ZM7.791 10.9998H6.08L9.12102 14.7998L7.791 10.9998ZM6.44701 6.85082L5.52 8.99982L7.13211 9L6.44701 6.85082ZM17.552 6.85082L16.8671 9L18.479 8.99982L17.552 6.85082ZM12.0001 5.983L10.2401 9H13.7591L12.0001 5.983ZM10.259 4.99982H7.95601L8.76901 7.55383L10.259 4.99982ZM16.043 4.99982H13.74L15.23 7.55283L16.043 4.99982Z" fill="currentColor"></path>
</svg>