<svg width="1em" height="1em" viewBox="0 0 24 24" fill="none" xmlns="http://www.w3.org/2000/svg">
<path d="M7 10C7 9.44772 7.44772 9 8 9H16C16.5523 9 17 9.44772 17 10C17 10.5523 16.5523 11 16 11H8C7.44772 11 7 10.5523 7 10Z" fill="currentColor"></path>
<path d="M8 13C7.44772 13 7 13.4477 7 14C7 14.5523 7.44772 15 8 15H14C14.5523 15 15 14.5523 15 14C15 13.4477 14.5523 13 14 13H8Z" fill="currentColor"></path>
<path fill-rule="evenodd" clip-rule="evenodd" d="M2.50003 12C2.50003 6.74772 6.74774 2.5 12 2.5C17.2523 2.5 21.5 6.74772 21.5 12C21.5 17.2523 17.2523 21.5 12 21.5C10.366 21.5 8.74886 21.0389 7.38414 20.2891L3.80911 21.451C3.45146 21.5673 3.05884 21.473 2.79292 21.2071C2.527 20.9412 2.43276 20.5486 2.54899 20.1909L3.7104 16.6173C2.96339 15.2718 2.50003 13.7292 2.50003 12ZM12 4.5C7.85231 4.5 4.50003 7.85228 4.50003 12C4.50003 13.4939 4.93701 14.8146 5.65169 15.9759C5.80536 16.2256 5.84169 16.5302 5.75106 16.8091L5.05779 18.9422L7.19094 18.249C7.46981 18.1583 7.7744 18.1947 8.02412 18.3483C9.17989 19.0596 10.6002 19.5 12 19.5C16.1477 19.5 19.5 16.1477 19.5 12C19.5 7.85228 16.1477 4.5 12 4.5Z" fill="currentColor"></path>
</svg>