<svg width="1em" height="1em" viewBox="0 0 24 24" fill="none" xmlns="http://www.w3.org/2000/svg">
<path d="M7 8C7 7.44772 7.44772 7 8 7H16C16.5523 7 17 7.44772 17 8C17 8.55228 16.5523 9 16 9H8C7.44772 9 7 8.55228 7 8Z" fill="currentColor"></path>
<path d="M8 11C7.44772 11 7 11.4477 7 12C7 12.5523 7.44772 13 8 13H12C12.5523 13 13 12.5523 13 12C13 11.4477 12.5523 11 12 11H8Z" fill="currentColor"></path>
<path fill-rule="evenodd" clip-rule="evenodd" d="M3 6C3 4.34772 4.34772 3 6 3H18C19.6523 3 21 4.34772 21 6V15C21 16.6523 19.6523 18 18 18H8.33333L4.6 20.8C4.29698 21.0273 3.89157 21.0638 3.55279 20.8944C3.214 20.725 3 20.3788 3 20V6ZM6 5C5.45228 5 5 5.45228 5 6V18L7.4 16.2C7.5731 16.0702 7.78363 16 8 16H18C18.5477 16 19 15.5477 19 15V6C19 5.45228 18.5477 5 18 5H6Z" fill="currentColor"></path>
</svg>