<svg width="1em" height="1em" viewBox="0 0 24 24" fill="none" xmlns="http://www.w3.org/2000/svg">
<path d="M7.5 10C7.5 9.72389 7.72386 9.50003 8 9.50003H16C16.2761 9.50003 16.5 9.72389 16.5 10C16.5 10.2762 16.2761 10.5 16 10.5H8C7.72386 10.5 7.5 10.2762 7.5 10Z" fill="currentColor"></path>
<path d="M8 13.5C7.72386 13.5 7.5 13.7239 7.5 14C7.5 14.2762 7.72386 14.5 8 14.5H14C14.2761 14.5 14.5 14.2762 14.5 14C14.5 13.7239 14.2761 13.5 14 13.5H8Z" fill="currentColor"></path>
<path fill-rule="evenodd" clip-rule="evenodd" d="M11.9987 2.00003C13.5538 1.99154 15.0895 2.34588 16.4837 3.03489C17.8784 3.72412 19.093 4.72923 20.031 5.9703C20.969 7.21137 21.6045 8.65416 21.887 10.184C22.1695 11.7138 22.0912 13.2884 21.6583 14.7826C21.2254 16.2768 20.4498 17.6494 19.3933 18.7913C18.3368 19.9332 17.0285 20.8128 15.5723 21.3602C14.1161 21.9077 12.5523 22.1078 11.0052 21.9448C9.53866 21.7903 8.12543 21.3134 6.86632 20.5495L2.66037 21.9736C2.48018 22.0346 2.28098 21.9881 2.14646 21.8536C2.01194 21.7191 1.96541 21.5199 2.02643 21.3397L3.45083 17.1329C2.57037 15.6725 2.07807 14.0096 2.02287 12.3026C1.96506 10.5149 2.38875 8.74453 3.2496 7.1767C4.11045 5.60888 5.37683 4.30121 6.91624 3.39052C8.45524 2.48008 10.2106 1.99984 11.9987 2.00003ZM12 2.50003L11.9999 3.00003C10.3905 2.99963 8.81057 3.43175 7.4254 4.25119C6.04024 5.07063 4.90075 6.24727 4.12616 7.658C3.35157 9.06873 2.97033 10.6617 3.02235 12.2703C3.07436 13.8788 3.55771 15.4438 4.42183 16.8016C4.50312 16.9293 4.52216 17.087 4.4736 17.2304L3.29815 20.7019L6.76966 19.5264C6.91353 19.4777 7.07174 19.4971 7.19966 19.579C8.37871 20.334 9.71766 20.8036 11.11 20.9503C12.5024 21.097 13.9099 20.9169 15.2204 20.4242C16.5309 19.9315 17.7085 19.1398 18.6593 18.1122C19.6102 17.0845 20.3082 15.8491 20.6978 14.5043C21.0874 13.1595 21.1579 11.7424 20.9036 10.3656C20.6494 8.98873 20.0774 7.69022 19.2332 6.57326C18.389 5.4563 17.2959 4.5517 16.0407 3.93139C14.7855 3.31108 13.4029 2.99217 12.0028 3.00002L12 2.50003Z" fill="currentColor"></path>
</svg>