<svg width="1em" height="1em" viewBox="0 0 24 24" fill="none" xmlns="http://www.w3.org/2000/svg">
<path d="M7.5 8C7.5 7.72386 7.72386 7.5 8 7.5H16C16.2761 7.5 16.5 7.72386 16.5 8C16.5 8.27614 16.2761 8.5 16 8.5H8C7.72386 8.5 7.5 8.27614 7.5 8Z" fill="currentColor"></path>
<path d="M8 11.5C7.72386 11.5 7.5 11.7239 7.5 12C7.5 12.2761 7.72386 12.5 8 12.5H12C12.2761 12.5 12.5 12.2761 12.5 12C12.5 11.7239 12.2761 11.5 12 11.5H8Z" fill="currentColor"></path>
<path fill-rule="evenodd" clip-rule="evenodd" d="M4.23223 4.23223C4.70107 3.76339 5.33696 3.5 6 3.5H18C18.663 3.5 19.2989 3.76339 19.7678 4.23223C20.2366 4.70107 20.5 5.33696 20.5 6V15C20.5 15.663 20.2366 16.2989 19.7678 16.7678C19.2989 17.2366 18.663 17.5 18 17.5H8.16667L4.3 20.4C4.14849 20.5136 3.94579 20.5319 3.77639 20.4472C3.607 20.3625 3.5 20.1894 3.5 20V6C3.5 5.33696 3.76339 4.70107 4.23223 4.23223ZM6 4.5C5.60218 4.5 5.22064 4.65804 4.93934 4.93934C4.65804 5.22064 4.5 5.60218 4.5 6V19L7.7 16.6C7.78655 16.5351 7.89182 16.5 8 16.5H18C18.3978 16.5 18.7794 16.342 19.0607 16.0607C19.342 15.7794 19.5 15.3978 19.5 15V6C19.5 5.60218 19.342 5.22064 19.0607 4.93934C18.7794 4.65804 18.3978 4.5 18 4.5H6Z" fill="currentColor"></path>
</svg>