<svg width="1em" height="1em" viewBox="0 0 24 24" fill="none" xmlns="http://www.w3.org/2000/svg">
<path d="M12 9C12.5523 9 13 8.55228 13 8C13 7.44772 12.5523 7 12 7C11.4477 7 11 7.44772 11 8C11 8.55228 11.4477 9 12 9Z" fill="currentColor"></path>
<path d="M13 11.5C13 10.9477 12.5523 10.5 12 10.5C11.4477 10.5 11 10.9477 11 11.5V16C11 16.5523 11.4477 17 12 17C12.5523 17 13 16.5523 13 16V11.5Z" fill="currentColor"></path>
<path fill-rule="evenodd" clip-rule="evenodd" d="M2.00001 12C2.00001 6.52386 6.52387 2 12 2C17.4762 2 22 6.52386 22 12C22 17.4761 17.4762 22 12 22C10.0762 22 8.35567 21.4176 6.84431 20.5472L2.66135 21.9733C2.48093 22.0348 2.28124 21.9883 2.14646 21.8536C2.01168 21.7188 1.96525 21.5191 2.02676 21.3387L3.44847 17.1683C2.48125 15.6333 2.00001 13.9061 2.00001 12ZM12 3C7.07616 3 3.00001 7.07614 3.00001 12C3.00001 13.8069 3.47383 15.4093 4.41604 16.8226C4.50229 16.952 4.52344 17.1142 4.47327 17.2613L3.30151 20.6985L6.73868 19.5267C6.87796 19.4793 7.03108 19.4955 7.15726 19.5713C8.59787 20.4356 10.2098 21 12 21C16.9239 21 21 16.9239 21 12C21 7.07614 16.9239 3 12 3Z" fill="currentColor"></path>
</svg>