<svg width="1em" height="1em" viewBox="0 0 24 24" fill="none" xmlns="http://www.w3.org/2000/svg">
<path fill-rule="evenodd" clip-rule="evenodd" d="M19.7072 4.29292C19.99 4.57578 20.0771 5 19.9285 5.37142L13.9285 20.3714C13.7591 20.7949 13.3247 21.0501 12.8723 20.9918C12.42 20.9336 12.0643 20.5766 12.0078 20.1241L11.1042 12.8958L3.87601 11.9923C3.42345 11.9357 3.06649 11.5801 3.00824 11.1278C2.94999 10.6754 3.20519 10.2409 3.62866 10.0716L18.6287 4.07155C19.0001 3.92299 19.4243 4.01006 19.7072 4.29292ZM7.97113 10.4886L12.1241 11.0078C12.578 11.0645 12.9356 11.422 12.9923 11.876L13.5114 16.029L17.205 6.79508L7.97113 10.4886Z" fill="currentColor"></path>
</svg>