<svg width="1em" height="1em" viewBox="0 0 24 24" fill="none" xmlns="http://www.w3.org/2000/svg">
<path d="M9 9C9 8.44772 9.44772 8 10 8H17C17.5523 8 18 8.44772 18 9C18 9.55228 17.5523 10 17 10H10C9.44772 10 9 9.55228 9 9Z" fill="currentColor"></path>
<path d="M10 12C9.44772 12 9 12.4477 9 13C9 13.5523 9.44772 14 10 14H17C17.5523 14 18 13.5523 18 13C18 12.4477 17.5523 12 17 12H10Z" fill="currentColor"></path>
<path fill-rule="evenodd" clip-rule="evenodd" d="M6 5C6 4.44772 6.44772 4 7 4H20C20.5523 4 21 4.44772 21 5V19C21 19.5523 20.5523 20 20 20H4C3.44772 20 3 19.5523 3 19V7C3 6.44772 3.44772 6 4 6H6V5ZM6 8V15C6 15.5523 6.44772 16 7 16C7.55228 16 8 15.5523 8 15V6H19V18H5V8H6Z" fill="currentColor"></path>
</svg>