<svg width="1em" height="1em" viewBox="0 0 24 24" fill="none" xmlns="http://www.w3.org/2000/svg">
<path fill-rule="evenodd" clip-rule="evenodd" d="M12 5.5C12.5523 5.5 13 5.94772 13 6.5H14.5C15.0523 6.5 15.5 6.94772 15.5 7.5C15.5 8.05228 15.0523 8.5 14.5 8.5H13V9.5C14.3807 9.5 15.5 10.6193 15.5 12C15.5 13.3807 14.3807 14.5 13 14.5C13 15.0523 12.5523 15.5 12 15.5C11.4477 15.5 11 15.0523 11 14.5H9.5C8.94772 14.5 8.5 14.0523 8.5 13.5C8.5 12.9477 8.94772 12.5 9.5 12.5H11V11.5C9.61929 11.5 8.5 10.3807 8.5 9C8.5 7.61929 9.61929 6.5 11 6.5C11 5.94772 11.4477 5.5 12 5.5ZM11 8.5C10.7239 8.5 10.5 8.72386 10.5 9C10.5 9.27614 10.7239 9.5 11 9.5V8.5ZM13 11.5V12.5C13.2761 12.5 13.5 12.2761 13.5 12C13.5 11.7239 13.2761 11.5 13 11.5Z" fill="currentColor"></path>
<path fill-rule="evenodd" clip-rule="evenodd" d="M4 3C3.44772 3 3 3.44772 3 4V17C3 17.5523 3.44772 18 4 18H20C20.5523 18 21 17.5523 21 17V4C21 3.44772 20.5523 3 20 3H4ZM5 16V5H19V16H5Z" fill="currentColor"></path>
<path d="M3 19C2.44772 19 2 19.4477 2 20C2 20.5523 2.44772 21 3 21H21C21.5523 21 22 20.5523 22 20C22 19.4477 21.5523 19 21 19H3Z" fill="currentColor"></path>
</svg>