<svg width="1em" height="1em" viewBox="0 0 24 24" fill="none" xmlns="http://www.w3.org/2000/svg">
<path fill-rule="evenodd" clip-rule="evenodd" d="M12 6C12.2761 6 12.5 6.22386 12.5 6.5V7H15C15.2761 7 15.5 7.22386 15.5 7.5C15.5 7.77614 15.2761 8 15 8H12.5V10.5H13.25C14.4926 10.5 15.5 11.5074 15.5 12.75C15.5 13.9926 14.4926 15 13.25 15H12.5V15.5C12.5 15.7761 12.2761 16 12 16C11.7239 16 11.5 15.7761 11.5 15.5V15H9C8.72386 15 8.5 14.7761 8.5 14.5C8.5 14.2239 8.72386 14 9 14H11.5V11.5H10.75C9.50736 11.5 8.5 10.4926 8.5 9.25C8.5 8.00736 9.50736 7 10.75 7H11.5V6.5C11.5 6.22386 11.7239 6 12 6ZM11.5 8H10.75C10.0596 8 9.5 8.55964 9.5 9.25C9.5 9.94036 10.0596 10.5 10.75 10.5H11.5V8ZM12.5 11.5V14H13.25C13.9404 14 14.5 13.4404 14.5 12.75C14.5 12.0596 13.9404 11.5 13.25 11.5H12.5Z" fill="currentColor"></path>
<path fill-rule="evenodd" clip-rule="evenodd" d="M3.5 4C3.22386 4 3 4.22386 3 4.5V17.5C3 17.7761 3.22386 18 3.5 18H20.5C20.7761 18 21 17.7761 21 17.5V4.5C21 4.22386 20.7761 4 20.5 4H3.5ZM4 17V5H20V17H4Z" fill="currentColor"></path>
<path d="M2.5 19C2.22386 19 2 19.2239 2 19.5C2 19.7761 2.22386 20 2.5 20H21.5C21.7761 20 22 19.7761 22 19.5C22 19.2239 21.7761 19 21.5 19H2.5Z" fill="currentColor"></path>
</svg>