<svg width="1em" height="1em" viewBox="0 0 24 24" fill="none" xmlns="http://www.w3.org/2000/svg">
<path d="M9 15C8.44772 15 8 15.4477 8 16C8 16.5523 8.44772 17 9 17H15C15.5523 17 16 16.5523 16 16C16 15.4477 15.5523 15 15 15H9Z" fill="currentColor"></path>
<path d="M8 12.5C8 11.9477 8.44772 11.5 9 11.5H15C15.5523 11.5 16 11.9477 16 12.5C16 13.0523 15.5523 13.5 15 13.5H9C8.44772 13.5 8 13.0523 8 12.5Z" fill="currentColor"></path>
<path d="M9 8C8.44772 8 8 8.44772 8 9C8 9.55228 8.44772 10 9 10H15C15.5523 10 16 9.55228 16 9C16 8.44772 15.5523 8 15 8H9Z" fill="currentColor"></path>
<path fill-rule="evenodd" clip-rule="evenodd" d="M8 3C8 2.44772 8.44772 2 9 2H15C15.5523 2 16 2.44772 16 3H17C18.6523 3 20 4.34772 20 6V18C20 19.6523 18.6523 21 17 21H7C5.34772 21 4 19.6523 4 18V6C4 4.34772 5.34772 3 7 3H8ZM9 6C8.44772 6 8 5.55228 8 5H7C6.45228 5 6 5.45228 6 6V18C6 18.5477 6.45228 19 7 19H17C17.5477 19 18 18.5477 18 18V6C18 5.45228 17.5477 5 17 5H16C16 5.55228 15.5523 6 15 6H9Z" fill="currentColor"></path>
</svg>