<svg width="1em" height="1em" viewBox="0 0 24 24" fill="none" xmlns="http://www.w3.org/2000/svg">
<path fill-rule="evenodd" clip-rule="evenodd" d="M12 7C12.5523 7 13 7.44772 13 8H14.5C15.0523 8 15.5 8.44772 15.5 9C15.5 9.55228 15.0523 10 14.5 10H13V11C14.3523 11 15.5 12.1477 15.5 13.5C15.5 14.8523 14.3523 16 13 16C13 16.5523 12.5523 17 12 17C11.4477 17 11 16.5523 11 16H9.5C8.94772 16 8.5 15.5523 8.5 15C8.5 14.4477 8.94772 14 9.5 14H11V13C9.64772 13 8.5 11.8523 8.5 10.5C8.5 9.14772 9.64772 8 11 8C11 7.44772 11.4477 7 12 7ZM11 10C10.7523 10 10.5 10.2523 10.5 10.5C10.5 10.7477 10.7523 11 11 11V10ZM13 13V14C13.2477 14 13.5 13.7477 13.5 13.5C13.5 13.2523 13.2477 13 13 13Z" fill="currentColor"></path>
<path fill-rule="evenodd" clip-rule="evenodd" d="M12 2C12.3311 2 12.6407 2.16389 12.8269 2.43769L14.0493 4.2353L16.0789 3.29299C16.3726 3.15664 16.7141 3.17092 16.9953 3.3313C17.2766 3.49168 17.4628 3.77832 17.495 4.1005L17.7136 6.28638L19.8995 6.50496C20.2217 6.53718 20.5083 6.72339 20.6687 7.00466C20.8291 7.28593 20.8434 7.62744 20.707 7.92111L19.7647 9.9507L21.5623 11.1731C21.8361 11.3593 22 11.6689 22 12C22 12.3311 21.8361 12.6407 21.5623 12.8269L19.7647 14.0493L20.707 16.0789C20.8434 16.3726 20.8291 16.7141 20.6687 16.9953C20.5083 17.2766 20.2217 17.4628 19.8995 17.495L17.7136 17.7136L17.495 19.8995C17.4628 20.2217 17.2766 20.5083 16.9953 20.6687C16.7141 20.8291 16.3726 20.8434 16.0789 20.707L14.0493 19.7647L12.8269 21.5623C12.6407 21.8361 12.3311 22 12 22C11.6689 22 11.3593 21.8361 11.1731 21.5623L9.9507 19.7647L7.92111 20.707C7.62744 20.8434 7.28593 20.8291 7.00466 20.6687C6.72339 20.5083 6.53718 20.2217 6.50496 19.8995L6.28638 17.7136L4.1005 17.495C3.77832 17.4628 3.49168 17.2766 3.3313 16.9953C3.17092 16.7141 3.15664 16.3726 3.29299 16.0789L4.2353 14.0493L2.43769 12.8269C2.16389 12.6407 2 12.3311 2 12C2 11.6689 2.16389 11.3593 2.43769 11.1731L4.2353 9.9507L3.29299 7.92111C3.15664 7.62744 3.17092 7.28593 3.3313 7.00466C3.49168 6.72339 3.77832 6.53718 4.1005 6.50496L6.28638 6.28638L6.50496 4.1005C6.53718 3.77832 6.72339 3.49168 7.00466 3.3313C7.28593 3.17092 7.62744 3.15664 7.92111 3.29299L9.9507 4.2353L11.1731 2.43769C11.3593 2.16389 11.6689 2 12 2ZM12 4.77838L11.1269 6.06231C10.8515 6.46737 10.3232 6.61329 9.87889 6.40701L8.35504 5.69951L8.19504 7.2995C8.14768 7.77309 7.77309 8.14768 7.2995 8.19504L5.69951 8.35504L6.40701 9.87889C6.61329 10.3232 6.46737 10.8515 6.06231 11.1269L4.77838 12L6.06231 12.8731C6.46737 13.1485 6.61329 13.6768 6.40701 14.1211L5.69951 15.645L7.2995 15.805C7.77309 15.8523 8.14768 16.2269 8.19504 16.7005L8.35504 18.3005L9.87889 17.593C10.3232 17.3867 10.8515 17.5326 11.1269 17.9377L12 19.2216L12.8731 17.9377C13.1485 17.5326 13.6768 17.3867 14.1211 17.593L15.645 18.3005L15.805 16.7005C15.8523 16.2269 16.2269 15.8523 16.7005 15.805L18.3005 15.645L17.593 14.1211C17.3867 13.6768 17.5326 13.1485 17.9377 12.8731L19.2216 12L17.9377 11.1269C17.5326 10.8515 17.3867 10.3232 17.593 9.87889L18.3005 8.35504L16.7005 8.19504C16.2269 8.14768 15.8523 7.77309 15.805 7.2995L15.645 5.69951L14.1211 6.40701C13.6768 6.61329 13.1485 6.46737 12.8731 6.06231L12 4.77838Z" fill="currentColor"></path>
</svg>