<svg width="1em" height="1em" viewBox="0 0 24 24" fill="none" xmlns="http://www.w3.org/2000/svg">
<path fill-rule="evenodd" clip-rule="evenodd" d="M12 6C12.2761 6 12.5 6.22386 12.5 6.5V8H14.5C14.7761 8 15 8.22386 15 8.5C15 8.77614 14.7761 9 14.5 9H12.5V11.5H13.25C13.8467 11.5 14.419 11.7371 14.841 12.159C15.2629 12.581 15.5 13.1533 15.5 13.75C15.5 14.3467 15.2629 14.919 14.841 15.341C14.419 15.7629 13.8467 16 13.25 16H12.5V17.5C12.5 17.7761 12.2761 18 12 18C11.7239 18 11.5 17.7761 11.5 17.5V16H9C8.72386 16 8.5 15.7761 8.5 15.5C8.5 15.2239 8.72386 15 9 15H11.5V12.5H10.75C10.1533 12.5 9.58097 12.2629 9.15901 11.841C8.73705 11.419 8.5 10.8467 8.5 10.25C8.5 9.65326 8.73705 9.08097 9.15901 8.65901C9.58097 8.23705 10.1533 8 10.75 8H11.5V6.5C11.5 6.22386 11.7239 6 12 6ZM11.5 9H10.75C10.4185 9 10.1005 9.1317 9.86612 9.36612C9.6317 9.60054 9.5 9.91848 9.5 10.25C9.5 10.5815 9.6317 10.8995 9.86612 11.1339C10.1005 11.3683 10.4185 11.5 10.75 11.5H11.5V9ZM12.5 12.5V15H13.25C13.5815 15 13.8995 14.8683 14.1339 14.6339C14.3683 14.3995 14.5 14.0815 14.5 13.75C14.5 13.4185 14.3683 13.1005 14.1339 12.8661C13.8995 12.6317 13.5815 12.5 13.25 12.5H12.5Z" fill="currentColor"></path>
<path fill-rule="evenodd" clip-rule="evenodd" d="M12 2C12.1629 2 12.3156 2.07934 12.4092 2.21264L14.0089 4.49047L16.5396 3.31643C16.6871 3.24798 16.8588 3.25558 16.9997 3.33681C17.1406 3.41804 17.2332 3.56274 17.2479 3.72473L17.5002 6.49978L20.2753 6.75205C20.4373 6.76678 20.582 6.85938 20.6632 7.00031C20.7444 7.14123 20.752 7.31286 20.6836 7.46042L19.5095 9.99113L21.7874 11.5908C21.9207 11.6844 22 11.8371 22 12C22 12.1629 21.9207 12.3156 21.7874 12.4092L19.5095 14.0089L20.6836 16.5396C20.752 16.6871 20.7444 16.8588 20.6632 16.9997C20.582 17.1406 20.4373 17.2332 20.2753 17.2479L17.5002 17.5002L17.2479 20.2753C17.2332 20.4373 17.1406 20.582 16.9997 20.6632C16.8588 20.7444 16.6871 20.752 16.5396 20.6836L14.0089 19.5095L12.4092 21.7874C12.3156 21.9207 12.1629 22 12 22C11.8371 22 11.6844 21.9207 11.5908 21.7874L9.99113 19.5095L7.46042 20.6836C7.31286 20.752 7.14123 20.7444 7.00031 20.6632C6.85938 20.582 6.76678 20.4373 6.75205 20.2753L6.49978 17.5002L3.72473 17.2479C3.56274 17.2332 3.41804 17.1406 3.33681 16.9997C3.25558 16.8588 3.24798 16.6871 3.31643 16.5396L4.49047 14.0089L2.21264 12.4092C2.07934 12.3156 2 12.1629 2 12C2 11.8371 2.07934 11.6844 2.21264 11.5908L4.49047 9.99113L3.31643 7.46042C3.24798 7.31286 3.25558 7.14123 3.33681 7.00031C3.41804 6.85938 3.56274 6.76678 3.72473 6.75205L6.49978 6.49978L6.75205 3.72473C6.76678 3.56274 6.85938 3.41804 7.00031 3.33681C7.14123 3.25558 7.31286 3.24798 7.46042 3.31643L9.99113 4.49047L11.5908 2.21264C11.6844 2.07934 11.8371 2 12 2ZM12 3.36999L10.5692 5.40736C10.4301 5.60541 10.1691 5.67542 9.94958 5.57357L7.68366 4.52237L7.45795 7.00527C7.43609 7.24564 7.24564 7.43609 7.00527 7.45795L4.52237 7.68366L5.57357 9.94958C5.67542 10.1691 5.60541 10.4301 5.40736 10.5692L3.36999 12L5.40736 13.4308C5.60541 13.5699 5.67542 13.8309 5.57357 14.0504L4.52237 16.3163L7.00527 16.5421C7.24564 16.5639 7.43609 16.7544 7.45795 16.9947L7.68366 19.4776L9.94958 18.4264C10.1691 18.3246 10.4301 18.3946 10.5692 18.5926L12 20.63L13.4308 18.5926C13.5699 18.3946 13.8309 18.3246 14.0504 18.4264L16.3163 19.4776L16.5421 16.9947C16.5639 16.7544 16.7544 16.5639 16.9947 16.5421L19.4776 16.3163L18.4264 14.0504C18.3246 13.8309 18.3946 13.5699 18.5926 13.4308L20.63 12L18.5926 10.5692C18.3946 10.4301 18.3246 10.1691 18.4264 9.94958L19.4776 7.68366L16.9947 7.45795C16.7544 7.43609 16.5639 7.24564 16.5421 7.00527L16.3163 4.52237L14.0504 5.57357C13.8309 5.67542 13.5699 5.60541 13.4308 5.40736L12 3.36999Z" fill="currentColor"></path>
</svg>