<svg width="1em" height="1em" viewBox="0 0 24 24" fill="none" xmlns="http://www.w3.org/2000/svg">
<path fill-rule="evenodd" clip-rule="evenodd" d="M18.9999 3.00006C18.3809 3.0018 17.7777 3.19494 17.2728 3.55299C16.7679 3.91105 16.3862 4.41651 16.1799 5.00006H15.8999C15.6346 5.01332 15.3856 5.13139 15.2074 5.32831C15.0292 5.52522 14.9366 5.78484 14.9499 6.05006C14.9631 6.31527 15.0812 6.56436 15.2781 6.74252C15.475 6.92068 15.7346 7.01332 15.9999 7.00006H16.1899C16.3735 7.51933 16.6965 7.97804 17.1235 8.3259C17.5505 8.67377 18.065 8.89736 18.6107 8.97219C19.1564 9.04701 19.7121 8.97017 20.217 8.75009C20.7219 8.53001 21.1565 8.17519 21.4731 7.7245C21.7897 7.27382 21.9761 6.74468 22.0119 6.19507C22.0477 5.64546 21.9315 5.0966 21.6761 4.60864C21.4207 4.12068 21.0358 3.71246 20.5638 3.42872C20.0917 3.14498 19.5506 2.99668 18.9999 3.00006ZM18.9999 7.00006C18.8021 7.00006 18.6087 6.94141 18.4443 6.83153C18.2798 6.72164 18.1517 6.56547 18.076 6.38274C18.0003 6.20001 17.9805 5.99895 18.0191 5.80497C18.0577 5.61099 18.1529 5.4328 18.2928 5.29295C18.4326 5.1531 18.6108 5.05786 18.8048 5.01927C18.9987 4.98069 19.1998 5.00049 19.3825 5.07618C19.5653 5.15186 19.7214 5.28004 19.8313 5.44449C19.9412 5.60894 19.9999 5.80228 19.9999 6.00006C19.9999 6.26527 19.8945 6.51963 19.707 6.70716C19.5194 6.8947 19.2651 7.00006 18.9999 7.00006Z" fill="currentColor"></path>
<path d="M11.9999 14.83C11.8844 14.7667 11.7575 14.7268 11.6266 14.7126C11.4956 14.6984 11.3631 14.7103 11.2367 14.7474C11.1104 14.7846 10.9926 14.8464 10.8902 14.9292C10.7877 15.012 10.7027 15.1143 10.6399 15.23C10.5098 15.4734 10.3484 15.6986 10.1599 15.9C9.97362 16.0874 9.86908 16.3409 9.86908 16.605C9.86908 16.8692 9.97362 17.1227 10.1599 17.31C10.2528 17.4038 10.3634 17.4782 10.4853 17.5289C10.6072 17.5797 10.7379 17.6058 10.8699 17.6058C11.0019 17.6058 11.1326 17.5797 11.2544 17.5289C11.3763 17.4782 11.4869 17.4038 11.5799 17.31C11.8891 16.9823 12.1547 16.616 12.3699 16.22C12.4392 16.1051 12.4846 15.9774 12.5035 15.8445C12.5224 15.7116 12.5143 15.5762 12.4798 15.4465C12.4453 15.3168 12.385 15.1954 12.3025 15.0895C12.2201 14.9836 12.1171 14.8953 11.9999 14.83Z" fill="currentColor"></path>
<path d="M11.6099 7.80004C11.8218 7.40513 12.0877 7.04164 12.3999 6.72004C12.4905 6.62483 12.599 6.5484 12.7191 6.49512C12.8393 6.44183 12.9687 6.41274 13.1001 6.40949C13.2315 6.40624 13.3623 6.4289 13.4849 6.47618C13.6076 6.52346 13.7197 6.59443 13.8149 6.68504C13.9101 6.77565 13.9865 6.88413 14.0398 7.00428C14.0931 7.12443 14.1222 7.2539 14.1254 7.38529C14.1287 7.51669 14.106 7.64744 14.0588 7.77007C14.0115 7.89271 13.9405 8.00483 13.8499 8.10004C13.6553 8.29502 13.4902 8.51737 13.3599 8.76004C13.2735 8.91786 13.1462 9.04946 12.9914 9.14097C12.8365 9.23249 12.6598 9.28053 12.4799 9.28004C12.3124 9.28088 12.1473 9.23962 11.9999 9.16004C11.8849 9.09639 11.7837 9.01071 11.7018 8.9079C11.62 8.80509 11.5593 8.68717 11.5231 8.56086C11.4868 8.43456 11.4759 8.30236 11.4908 8.17181C11.5057 8.04127 11.5461 7.91494 11.6099 7.80004Z" fill="currentColor"></path>
<path d="M11.9999 10.45C11.7347 10.45 11.4803 10.5553 11.2928 10.7428C11.1052 10.9304 10.9999 11.1847 10.9999 11.45V12.54C10.9999 12.8052 11.1052 13.0595 11.2928 13.2471C11.4803 13.4346 11.7347 13.54 11.9999 13.54C12.2651 13.54 12.5194 13.4346 12.707 13.2471C12.8945 13.0595 12.9999 12.8052 12.9999 12.54V11.45C12.9999 11.1847 12.8945 10.9304 12.707 10.7428C12.5194 10.5553 12.2651 10.45 11.9999 10.45Z" fill="currentColor"></path>
<path fill-rule="evenodd" clip-rule="evenodd" d="M7.80987 17H7.89987C8.16509 16.9735 8.42998 17.0534 8.63627 17.2222C8.84256 17.391 8.97335 17.6348 8.99987 17.9C9.02639 18.1652 8.94647 18.4301 8.77769 18.6364C8.60891 18.8427 8.36509 18.9735 8.09987 19H7.80987C7.57398 19.6672 7.1098 20.2296 6.49939 20.5876C5.88898 20.9457 5.17163 21.0765 4.47414 20.9568C3.77664 20.8371 3.14391 20.4747 2.68777 19.9337C2.23163 19.3926 1.98145 18.7077 1.98145 18C1.98145 17.2923 2.23163 16.6074 2.68777 16.0663C3.14391 15.5253 3.77664 15.1629 4.47414 15.0432C5.17163 14.9235 5.88898 15.0543 6.49939 15.4124C7.1098 15.7705 7.57398 16.3328 7.80987 17ZM4.4443 18.8315C4.60875 18.9414 4.80209 19 4.99987 19C5.26509 19 5.51944 18.8947 5.70698 18.7071C5.89452 18.5196 5.99987 18.2652 5.99987 18C5.99987 17.8022 5.94122 17.6089 5.83134 17.4444C5.72146 17.28 5.56528 17.1518 5.38256 17.0761C5.19983 17.0004 4.99876 16.9806 4.80478 17.0192C4.6108 17.0578 4.43262 17.153 4.29277 17.2929C4.15291 17.4328 4.05767 17.6109 4.01909 17.8049C3.9805 17.9989 4.00031 18.2 4.07599 18.3827C4.15168 18.5654 4.27985 18.7216 4.4443 18.8315Z" fill="currentColor"></path>
</svg>