<svg width="1em" height="1em" viewBox="0 0 24 24" fill="none" xmlns="http://www.w3.org/2000/svg">
<path fill-rule="evenodd" clip-rule="evenodd" d="M5.66148 9.5833L5.64648 9.87338L11.2584 16.3983L11.46 16.4304L11.4854 16.4177L11.5839 16.2375L9.19047 8.29771L8.78428 8.02637L5.66148 9.5833Z" fill="#0096B8"></path>
<path fill-rule="evenodd" clip-rule="evenodd" d="M11.2584 16.3984L11.4597 16.4305L7.32124 10.1903L5.64648 9.87354L11.2584 16.3984Z" fill="#005675"></path>
<path fill-rule="evenodd" clip-rule="evenodd" d="M8.78419 8.02637L7.35352 9.69564L7.93778 9.94879L9.19038 8.29798V8.29771L8.78419 8.02637Z" fill="#0BBBEF"></path>
<path fill-rule="evenodd" clip-rule="evenodd" d="M7.9375 9.94887L11.4855 16.4178L11.584 16.237L9.19094 8.29834L7.9375 9.94887Z" fill="#007290"></path>
<path fill-rule="evenodd" clip-rule="evenodd" d="M14.3513 8.04331L11.9512 18.7806L12.0358 18.9821L12.076 19L12.3478 18.9295L18.303 9.98892L18.2964 9.52248L14.6674 7.8689L14.3513 8.04331Z" fill="#81B73E"></path>
<path fill-rule="evenodd" clip-rule="evenodd" d="M15.8852 10.193L12.0762 18.9999L12.3473 18.9293L18.3027 9.98877L15.8852 10.193Z" fill="#69931D"></path>
<path fill-rule="evenodd" clip-rule="evenodd" d="M11.9512 18.7799L12.0361 18.9814L15.2006 9.81924L14.3513 8.04346L11.9512 18.7799Z" fill="#277933"></path>
<path fill-rule="evenodd" clip-rule="evenodd" d="M18.2967 9.52295L15.749 9.55558L15.8863 10.1935L18.3035 9.98911L18.297 9.52295H18.2967Z" fill="#AECC53"></path>
<path fill-rule="evenodd" clip-rule="evenodd" d="M14.3516 8.04314L15.2001 9.81864L15.7488 9.55536L14.6677 7.86914L14.3516 8.04314Z" fill="#69931D"></path>
<path fill-rule="evenodd" clip-rule="evenodd" d="M13.9144 5L9.2689 5.04957L9.12402 5.32522L11.6909 12.6577L11.8433 12.7594L11.8478 12.7601L11.9892 12.6791L14.2147 5.30855L13.9144 5Z" fill="#E4032E"></path>
<path fill-rule="evenodd" clip-rule="evenodd" d="M9.125 5.32523L11.6918 12.6578L11.8434 12.7595L10.9252 6.21298L9.125 5.32495V5.32523Z" fill="#791B15"></path>
<path fill-rule="evenodd" clip-rule="evenodd" d="M11.7988 6.21412L11.849 12.76L11.9904 12.6785L14.2158 5.30859L11.7988 6.21412Z" fill="#B51227"></path>
</svg>