<svg width="1em" height="1em" viewBox="0 0 24 24" fill="none" xmlns="http://www.w3.org/2000/svg">
<path fill-rule="evenodd" clip-rule="evenodd" d="M15.4564 13.5305C15.6274 13.3415 15.7834 13.138 15.9245 12.9222C16.7036 11.7307 17 10.218 17 8.8C17 7.38163 16.7034 5.94468 15.8957 4.83614C15.0523 3.67854 13.7384 3 12 3C10.2781 3 8.9598 3.64111 8.10832 4.79311C7.29394 5.89493 7 7.33834 7 8.8C7 10.2623 7.29423 11.7802 8.07879 12.9647C8.21354 13.1682 8.36155 13.3597 8.52277 13.5378C7.48102 13.9023 6.61389 14.4421 5.92185 15.1265C4.57106 16.4622 4 18.2378 4 20C4 20.5523 4.44772 21 5 21H19C19.5523 21 20 20.5523 20 20C20 18.2378 19.4289 16.4622 18.0781 15.1265C17.3815 14.4376 16.5074 13.8951 15.4564 13.5305ZM9 8.8C9 7.56166 9.25606 6.60507 9.71668 5.98189C10.1402 5.40889 10.8219 5 12 5C13.1616 5 13.8477 5.42145 14.2793 6.01386C14.7466 6.65532 15 7.61837 15 8.8C15 9.98196 14.7464 11.0693 14.2505 11.8278C13.7877 12.5357 13.0945 13 12 13C10.8903 13 10.2012 12.5472 9.74621 11.8603C9.25577 11.1198 9 10.0377 9 8.8ZM12 15C9.69543 15 8.22267 15.664 7.32815 16.5485C6.65879 17.2105 6.25002 18.0581 6.08477 19H17.9152C17.75 18.0581 17.3412 17.2105 16.6719 16.5485C15.7773 15.664 14.3046 15 12 15Z" fill="currentColor"></path>
</svg>