<svg width="1em" height="1em" viewBox="0 0 24 24" fill="none" xmlns="http://www.w3.org/2000/svg">
<circle cx="12" cy="12" r="10" fill="white"></circle>
<path fill-rule="evenodd" clip-rule="evenodd" d="M22 12C22 17.5228 17.5228 22 12 22C6.47715 22 2 17.5228 2 12C2 6.47715 6.47715 2 12 2C17.5228 2 22 6.47715 22 12ZM12 15.5C13.933 15.5 15.5 13.4853 15.5 11C15.5 8.51472 13.933 6.5 12 6.5C10.067 6.5 8.5 8.51472 8.5 11C8.5 13.4853 10.067 15.5 12 15.5ZM13.76 16.15C12.633 16.6167 11.3669 16.6167 10.24 16.15C8.89819 17.1603 7.41583 17.9689 5.83997 18.55C7.50857 20.1165 9.71128 20.9884 12 20.9884C14.2887 20.9884 16.4914 20.1165 18.16 18.55C16.5841 17.9689 15.1017 17.1603 13.76 16.15Z" fill="currentColor"></path>
</svg>