<svg width="1em" height="1em" viewBox="0 0 24 24" fill="none" xmlns="http://www.w3.org/2000/svg">
<path fill-rule="evenodd" clip-rule="evenodd" d="M7.01354 20.67C8.48134 21.516 10.1842 22 12 22C17.5228 22 22 17.5228 22 12C22 6.47715 17.5228 2 12 2C6.47715 2 2 6.47715 2 12C2 15.707 4.01707 18.9429 7.01354 20.67ZM12 3C7.02944 3 3 7.02944 3 12C3 14.5104 4.02781 16.7807 5.68557 18.4131C6.27132 18.1502 7.13713 17.7591 8.01277 17.2543C8.88401 16.7521 9.71487 16.1646 10.2767 15.5214C8.89374 14.6998 8 12.9228 8 11C8 8.3628 9.6812 6 12 6C14.3188 6 16 8.3628 16 11C16 12.9217 15.1073 14.6977 13.7257 15.5199C14.2895 16.1519 15.1332 16.7192 16.0187 17.2134C16.5434 17.5063 17.064 17.7636 17.523 17.9885L17.6301 18.0409C17.8864 18.1663 18.1283 18.2846 18.335 18.3928C19.9807 16.7619 21 14.5 21 12C21 7.02944 16.9706 3 12 3ZM12 21C14.0134 21 16.032 20.2531 17.5152 19.0986C17.4084 19.0458 17.293 18.9893 17.1696 18.9288L17.0832 18.8865C16.6235 18.6614 16.0816 18.3937 15.5313 18.0866C14.547 17.5372 13.4711 16.8276 12.7795 15.9467C12.5019 16.0002 12.2395 16.0001 12.0248 16H11.9751C11.7607 16.0001 11.4986 16.0002 11.2214 15.9469C10.5379 16.8262 9.49062 17.5566 8.5122 18.1207C7.79293 18.5353 7.07856 18.8776 6.52108 19.1328C6.82154 19.3682 7.13759 19.5832 7.46676 19.7766C8.16726 20.1859 8.92804 20.5032 9.73254 20.7119C10.4645 20.9014 11.2265 21 12 21ZM12 15C13.5472 15 15 13.3334 15 11C15 8.66664 13.5472 7 12 7C10.4528 7 9 8.66664 9 11C9 13.3334 10.4528 15 12 15Z" fill="currentColor"></path>
</svg>