<svg width="1em" height="1em" viewBox="0 0 24 24" fill="none" xmlns="http://www.w3.org/2000/svg">
<circle cx="12" cy="12" r="10" fill="white"></circle>
<path fill-rule="evenodd" clip-rule="evenodd" d="M22 12C22 17.5228 17.5228 22 12 22C6.47715 22 2 17.5228 2 12C2 6.47715 6.47715 2 12 2C17.5228 2 22 6.47715 22 12ZM12 15.5C13.933 15.5 15.5 13.4853 15.5 11C15.5 8.51472 13.933 6.5 12 6.5C10.067 6.5 8.5 8.51472 8.5 11C8.5 13.4853 10.067 15.5 12 15.5ZM17.92 17.36C17.104 17.0289 16.312 16.6413 15.55 16.2C14.5727 17.065 13.3049 17.5293 12 17.5C10.6952 17.5293 9.42731 17.065 8.45002 16.2C7.68799 16.6413 6.89606 17.0289 6.08002 17.36C6.82983 18.1849 7.74379 18.844 8.76326 19.2951C9.78274 19.7461 10.8852 19.9791 12 19.9791C13.1148 19.9791 14.2173 19.7461 15.2368 19.2951C16.2562 18.844 17.1702 18.1849 17.92 17.36Z" fill="currentColor"></path>
</svg>