<svg width="1em" height="1em" viewBox="0 0 24 24" fill="none" xmlns="http://www.w3.org/2000/svg">
<path fill-rule="evenodd" clip-rule="evenodd" d="M13 8V7C13 6.44772 12.5523 6 12 6C11.4477 6 11 6.44772 11 7V8C9.61929 8 8.5 9.11929 8.5 10.5C8.5 11.8807 9.61929 13 11 13L11 14H9.5C8.94772 14 8.5 14.4477 8.5 15C8.5 15.5523 8.94772 16 9.5 16H11V17C11 17.5523 11.4477 18 12 18C12.5523 18 13 17.5523 13 17L13 16C14.3807 16 15.5 14.8807 15.5 13.5C15.5 12.1193 14.3807 11 13 11V10H14.5C15.0523 10 15.5 9.55228 15.5 9C15.5 8.44772 15.0523 8 14.5 8H13ZM11 10C10.7239 10 10.5 10.2239 10.5 10.5C10.5 10.7761 10.7239 11 11 11V10ZM13 13V14C13.2761 14 13.5 13.7761 13.5 13.5C13.5 13.2239 13.2761 13 13 13Z" fill="currentColor"></path>
<path fill-rule="evenodd" clip-rule="evenodd" d="M2 12C2 6.47715 6.47715 2 12 2C17.5228 2 22 6.47715 22 12C22 17.5228 17.5228 22 12 22C6.47715 22 2 17.5228 2 12ZM12 4C7.58172 4 4 7.58172 4 12C4 16.4183 7.58172 20 12 20C16.4183 20 20 16.4183 20 12C20 7.58172 16.4183 4 12 4Z" fill="currentColor"></path>
</svg>