<svg width="1em" height="1em" viewBox="0 0 24 24" fill="none" xmlns="http://www.w3.org/2000/svg">
<path fill-rule="evenodd" clip-rule="evenodd" d="M12 6C12.2761 6 12.5 6.22386 12.5 6.5V8H14.5C14.7761 8 15 8.22386 15 8.5C15 8.77614 14.7761 9 14.5 9H12.5V11.5H13.25C13.8467 11.5 14.419 11.7371 14.841 12.159C15.2629 12.581 15.5 13.1533 15.5 13.75C15.5 14.3467 15.2629 14.919 14.841 15.341C14.419 15.7629 13.8467 16 13.25 16H12.5V17.5C12.5 17.7761 12.2761 18 12 18C11.7239 18 11.5 17.7761 11.5 17.5V16H9C8.72386 16 8.5 15.7761 8.5 15.5C8.5 15.2239 8.72386 15 9 15H11.5V12.5H10.75C10.1533 12.5 9.58097 12.2629 9.15901 11.841C8.73705 11.419 8.5 10.8467 8.5 10.25C8.5 9.65326 8.73705 9.08097 9.15901 8.65901C9.58097 8.23705 10.1533 8 10.75 8H11.5V6.5C11.5 6.22386 11.7239 6 12 6ZM11.5 9H10.75C10.4185 9 10.1005 9.1317 9.86612 9.36612C9.6317 9.60054 9.5 9.91848 9.5 10.25C9.5 10.5815 9.6317 10.8995 9.86612 11.1339C10.1005 11.3683 10.4185 11.5 10.75 11.5H11.5V9ZM12.5 12.5V15H13.25C13.5815 15 13.8995 14.8683 14.1339 14.6339C14.3683 14.3995 14.5 14.0815 14.5 13.75C14.5 13.4185 14.3683 13.1005 14.1339 12.8661C13.8995 12.6317 13.5815 12.5 13.25 12.5H12.5Z" fill="currentColor"></path>
<path fill-rule="evenodd" clip-rule="evenodd" d="M2 12C2 6.47715 6.47715 2 12 2C17.5228 2 22 6.47715 22 12C22 17.5228 17.5228 22 12 22C6.47715 22 2 17.5228 2 12ZM12 3C7.02944 3 3 7.02944 3 12C3 16.9706 7.02944 21 12 21C16.9706 21 21 16.9706 21 12C21 7.02944 16.9706 3 12 3Z" fill="currentColor"></path>
</svg>