<svg width="1em" height="1em" viewBox="0 0 24 24" fill="none" xmlns="http://www.w3.org/2000/svg">
<path d="M13.5 3C13.3674 3 13.2402 3.05268 13.1464 3.14645L3.14645 13.1464C2.95118 13.3417 2.95118 13.6583 3.14645 13.8536L10.1464 20.8536C10.3417 21.0488 10.6583 21.0488 10.8536 20.8536L13.3536 18.3536C13.5488 18.1583 13.5488 17.8417 13.3536 17.6464C13.1583 17.4512 12.8417 17.4512 12.6464 17.6464L10.5 19.7929L4.20711 13.5L13.7071 4H20V10.2929L18.6464 11.6464C18.4512 11.8417 18.4512 12.1583 18.6464 12.3536C18.8417 12.5488 19.1583 12.5488 19.3536 12.3536L20.8536 10.8536C20.9473 10.7598 21 10.6326 21 10.5V3.5C21 3.22386 20.7761 3 20.5 3H13.5Z" fill="currentColor"></path>
<path d="M18.2998 14C18.2998 13.7239 18.0759 13.5 17.7998 13.5C17.5237 13.5 17.2998 13.7239 17.2998 14V16.3H15C14.7239 16.3 14.5 16.5239 14.5 16.8C14.5 17.0762 14.7239 17.3 15 17.3H17.2998V19.5C17.2998 19.7761 17.5237 20 17.7998 20C18.0759 20 18.2998 19.7761 18.2998 19.5V17.3H20.5C20.7761 17.3 21 17.0762 21 16.8C21 16.5239 20.7761 16.3 20.5 16.3H18.2998V14Z" fill="currentColor"></path>
<path d="M16 7C16 7.6 16.4 8 17 8C17.6 8 18 7.6 18 7C18 6.4 17.6 6 17 6C16.4 6 16 6.4 16 7Z" fill="currentColor"></path>
</svg>