<svg width="1em" height="1em" viewBox="0 0 24 24" fill="none" xmlns="http://www.w3.org/2000/svg">
<path d="M15 8C15 8.6 15.4 9 16 9C16.6 9 17 8.6 17 8C17 7.4 16.6 7 16 7C15.4 7 15 7.4 15 8Z" fill="currentColor"></path>
<path fill-rule="evenodd" clip-rule="evenodd" d="M13.1 3C12.8348 3 12.5804 3.10536 12.3929 3.29289L3.29289 12.3929C3.10536 12.5804 3 12.8348 3 13.1C3 13.3652 3.10536 13.6196 3.29289 13.8071L10.1929 20.7071C10.5834 21.0976 11.2166 21.0976 11.6071 20.7071L20.7071 11.6071C20.8946 11.4196 21 11.1652 21 10.9V4C21 3.44772 20.5523 3 20 3H13.1ZM5.41421 13.1L13.5142 5H19V10.4858L10.9 18.5858L5.41421 13.1Z" fill="currentColor"></path>
</svg>