<svg width="1em" height="1em" viewBox="0 0 24 24" fill="none" xmlns="http://www.w3.org/2000/svg">
<path d="M16 7C16 7.6 16.4 8 17 8C17.6 8 18 7.6 18 7C18 6.4 17.6 6 17 6C16.4 6 16 6.4 16 7Z" fill="currentColor"></path>
<path fill-rule="evenodd" clip-rule="evenodd" d="M13.5 3C13.3674 3 13.2402 3.05268 13.1464 3.14645L3.14645 13.1464C2.95118 13.3417 2.95118 13.6583 3.14645 13.8536L10.1464 20.8536C10.3417 21.0488 10.6583 21.0488 10.8536 20.8536L20.8536 10.8536C20.9473 10.7598 21 10.6326 21 10.5V3.5C21 3.22386 20.7761 3 20.5 3H13.5ZM4.20711 13.5L13.7071 4H20V10.2929L10.5 19.7929L4.20711 13.5Z" fill="currentColor"></path>
</svg>