<svg width="1em" height="1em" viewBox="0 0 24 24" fill="none" xmlns="http://www.w3.org/2000/svg">
<path d="M4 12C4 7.55228 7.55228 4 12 4C12.5523 4 13 3.55228 13 3C13 2.44772 12.5523 2 12 2C6.44772 2 2 6.44772 2 12C2 14.8975 3.24678 17.5103 5.23745 19.353C5.08935 19.5274 5 19.7533 5 20C5 20.5523 5.44772 21 6 21H8C8.55228 21 9 20.5523 9 20V18C9 17.4477 8.55228 17 8 17C7.44772 17 7 17.4477 7 18V18.2361C5.16014 16.7413 4 14.4951 4 12Z" fill="currentColor"></path>
<path d="M17 5.76385V6C17 6.55228 16.5523 7 16 7C15.4477 7 15 6.55228 15 6V4C15 3.44772 15.4477 3 16 3H18C18.5523 3 19 3.44772 19 4C19 4.24672 18.9107 4.47256 18.7626 4.64695C20.7532 6.48968 22 9.10245 22 12C22 17.5523 17.5523 22 12 22C11.4477 22 11 21.5523 11 21C11 20.4477 11.4477 20 12 20C16.4477 20 20 16.4477 20 12C20 9.50492 18.8399 7.25864 17 5.76385Z" fill="currentColor"></path>
<path fill-rule="evenodd" clip-rule="evenodd" d="M8.40039 10.5C8.40039 9.10035 9.5761 8.04903 11 8.00167V8C11 7.44772 11.4477 7 12 7C12.5523 7 13 7.44772 13 8H14.4004C14.9527 8 15.4004 8.44772 15.4004 9C15.4004 9.55228 14.9527 10 14.4004 10H13V11.0066C14.3789 11.0983 15.5004 12.133 15.5004 13.5C15.5004 14.8951 14.2626 15.8957 13 15.9923V16C13 16.5523 12.5523 17 12 17C11.4477 17 11 16.5523 11 16H9.50039C8.9481 16 8.50039 15.5523 8.50039 15C8.50039 14.4477 8.9481 14 9.50039 14H11V12.998C9.70385 12.9478 8.40039 11.9316 8.40039 10.5ZM10.4004 10.5C10.4004 10.3435 10.5475 10.0431 11 10.0042V10.9932C10.841 10.9717 10.689 10.9009 10.5735 10.7993C10.432 10.6747 10.4004 10.5579 10.4004 10.5ZM13 13.9732V13.0177C13.3751 13.0885 13.5004 13.3555 13.5004 13.5C13.5004 13.5579 13.4688 13.6747 13.3273 13.7993C13.2361 13.8795 13.1222 13.9405 13 13.9732Z" fill="currentColor"></path>
</svg>