<svg width="1em" height="1em" viewBox="0 0 24 24" fill="none" xmlns="http://www.w3.org/2000/svg">
<path fill-rule="evenodd" clip-rule="evenodd" d="M4.5 14C4.77614 14 5 14.2239 5 14.5V19H19V14.5C19 14.2239 19.2239 14 19.5 14C19.7761 14 20 14.2239 20 14.5V19.5C20 19.7761 19.7761 20 19.5 20H4.5C4.22386 20 4 19.7761 4 19.5V14.5C4 14.2239 4.22386 14 4.5 14Z" fill="currentColor"></path>
<path d="M12.5 4.5C12.5 4.22386 12.2761 4 12 4C11.7239 4 11.5 4.22386 11.5 4.5V13.2929L8.35355 10.1464C8.15829 9.95118 7.84171 9.95118 7.64645 10.1464C7.45118 10.3417 7.45118 10.6583 7.64645 10.8536L11.6464 14.8536C11.6944 14.9015 11.7496 14.9377 11.8086 14.9621C11.8667 14.9861 11.9303 14.9996 11.997 15L12 15L12.003 15C12.13 14.9992 12.2567 14.9504 12.3536 14.8536L16.3536 10.8536C16.5488 10.6583 16.5488 10.3417 16.3536 10.1464C16.1583 9.95118 15.8417 9.95118 15.6464 10.1464L12.5 13.2929V4.5Z" fill="currentColor"></path>
</svg>