<svg width="1em" height="1em" viewBox="0 0 24 24" fill="none" xmlns="http://www.w3.org/2000/svg">
<path fill-rule="evenodd" clip-rule="evenodd" d="M12 7C12.2761 7 12.5 7.22386 12.5 7.5V8.5H15C15.2761 8.5 15.5 8.72386 15.5 9C15.5 9.27614 15.2761 9.5 15 9.5H12.5V11.5H13.5C14.5761 11.5 15.5 12.4239 15.5 13.5C15.5 14.5761 14.5761 15.5 13.5 15.5H12.5V16.5C12.5 16.7761 12.2761 17 12 17C11.7239 17 11.5 16.7761 11.5 16.5V15.5H9C8.72386 15.5 8.5 15.2761 8.5 15C8.5 14.7239 8.72386 14.5 9 14.5H11.5V12.5H10.5C9.42386 12.5 8.5 11.5761 8.5 10.5C8.5 9.42386 9.42386 8.5 10.5 8.5H11.5V7.5C11.5 7.22386 11.7239 7 12 7ZM10.5 9.5H11.5V11.5H10.5C9.97614 11.5 9.5 11.0239 9.5 10.5C9.5 9.97614 9.97614 9.5 10.5 9.5ZM12.5 14.5V12.5H13.5C14.0239 12.5 14.5 12.9761 14.5 13.5C14.5 14.0239 14.0239 14.5 13.5 14.5H12.5Z" fill="currentColor"></path>
<path fill-rule="evenodd" clip-rule="evenodd" d="M5.5 2C5.22386 2 5 2.22386 5 2.5V19.5C5 19.6409 5.05943 19.7752 5.16366 19.87L7.36366 21.87C7.55767 22.0463 7.85496 22.0429 8.04483 21.8621L9.80792 20.1829L11.6637 21.87C11.8544 22.0433 12.1456 22.0433 12.3363 21.87L14.1921 20.1829L15.9552 21.8621C16.145 22.0429 16.4423 22.0463 16.6363 21.87L18.8363 19.87C18.9406 19.7752 19 19.6409 19 19.5V5.5C19 5.36739 18.9473 5.24021 18.8536 5.14645L15.8536 2.14645C15.7598 2.05268 15.6326 2 15.5 2H5.5ZM6 19.2788V3H15V5.5C15 5.77614 15.2239 6 15.5 6H18V19.2788L16.3079 20.8171L14.5448 19.1379C14.355 18.9571 14.0577 18.9537 13.8637 19.13L12 20.8243L10.1363 19.13C9.94233 18.9537 9.64504 18.9571 9.45517 19.1379L7.69208 20.8171L6 19.2788ZM17.2929 5L16 3.70711V5H17.2929Z" fill="currentColor"></path>
</svg>