<svg width="1em" height="1em" viewBox="0 0 24 24" fill="none" xmlns="http://www.w3.org/2000/svg">
<path d="M7.5 8C7.5 7.72386 7.72386 7.5 8 7.5H16C16.2761 7.5 16.5 7.72386 16.5 8C16.5 8.27614 16.2761 8.5 16 8.5H8C7.72386 8.5 7.5 8.27614 7.5 8Z" fill="currentColor"></path>
<path d="M8 11.5C7.72386 11.5 7.5 11.7239 7.5 12C7.5 12.2761 7.72386 12.5 8 12.5H12C12.2761 12.5 12.5 12.2761 12.5 12C12.5 11.7239 12.2761 11.5 12 11.5H8Z" fill="currentColor"></path>
<path fill-rule="evenodd" clip-rule="evenodd" d="M3.5 4C3.5 3.72386 3.72386 3.5 4 3.5H20C20.2761 3.5 20.5 3.72386 20.5 4V17C20.5 17.2761 20.2761 17.5 20 17.5H12.1667L8.3 20.4C8.14849 20.5136 7.94579 20.5319 7.77639 20.4472C7.607 20.3625 7.5 20.1894 7.5 20V17.5H4C3.72386 17.5 3.5 17.2761 3.5 17V4ZM4.5 4.5V16.5H8C8.27614 16.5 8.5 16.7239 8.5 17V19L11.7 16.6C11.7865 16.5351 11.8918 16.5 12 16.5H19.5V4.5H4.5Z" fill="currentColor"></path>
</svg>