<svg width="1em" height="1em" viewBox="0 0 24 24" fill="none" xmlns="http://www.w3.org/2000/svg">
<path d="M14.639 3.63902C14.8301 3.43098 15.1466 3.42395 15.346 3.62332L19.346 7.62332C19.4934 7.77073 19.5401 7.99685 19.4639 8.19453C19.3878 8.39222 19.2042 8.52175 19 8.52175H5C4.72386 8.52175 4.5 8.28816 4.5 8.00001C4.5 7.71186 4.72386 7.47827 5 7.47827H17.7556L14.654 4.3767C14.4547 4.17733 14.4479 3.84706 14.639 3.63902Z" fill="currentColor"></path>
<path d="M5.00002 15.4783C4.79585 15.4783 4.61219 15.6078 4.53607 15.8055C4.45995 16.0032 4.50666 16.2293 4.65406 16.3767L8.65406 20.3767C8.85344 20.5761 9.16995 20.569 9.36101 20.361C9.55208 20.153 9.54534 19.8227 9.34597 19.6233L6.2444 16.5217H19C19.2762 16.5217 19.5 16.2882 19.5 16C19.5 15.7119 19.2762 15.4783 19 15.4783H5.00002Z" fill="currentColor"></path>
</svg>