<svg width="1em" height="1em" viewBox="0 0 24 24" fill="none" xmlns="http://www.w3.org/2000/svg">
<path d="M15.7071 3.29289C15.3166 2.90237 14.6834 2.90237 14.2929 3.29289C13.9024 3.68342 13.9024 4.31658 14.2929 4.70711L16.5858 7H5C4.44772 7 4 7.44772 4 8C4 8.55228 4.44772 9 5 9H19C19.4045 9 19.7691 8.75636 19.9239 8.38268C20.0787 8.00901 19.9931 7.57889 19.7071 7.29289L15.7071 3.29289Z" fill="currentColor"></path>
<path d="M5.00003 15C4.59557 15 4.23093 15.2436 4.07615 15.6173C3.92137 15.991 4.00692 16.4211 4.29292 16.7071L8.29292 20.7071C8.68345 21.0976 9.31661 21.0976 9.70714 20.7071C10.0977 20.3166 10.0977 19.6834 9.70714 19.2929L7.41424 17H19C19.5523 17 20 16.5523 20 16C20 15.4477 19.5523 15 19 15H5.00003Z" fill="currentColor"></path>
</svg>