<svg width="1em" height="1em" viewBox="0 0 24 24" fill="none" xmlns="http://www.w3.org/2000/svg">
<path fill-rule="evenodd" clip-rule="evenodd" d="M13.96 9.59627L18.342 10.2332L15.1708 13.3245L15.9196 17.6892L11.9997 15.6283L8.07973 17.6892L8.82852 13.3245L5.65737 10.2332L3.62729 8.03103L8.95893 9.75332L10.04 9.59627L10.1831 9.30671L3.3146 7.04632C3.39856 6.89939 3.48596 6.75429 3.57699 6.61196C3.59846 6.57839 3.62014 6.54497 3.64202 6.51172L10.4737 8.71848L10.8309 7.99422L4.15839 5.79833C4.1943 5.75288 4.23051 5.70767 4.26706 5.66274C4.36465 5.54278 4.46468 5.42485 4.56797 5.30985C4.58235 5.29383 4.5968 5.27788 4.61131 5.26198L11.1383 7.37093L11.4949 6.64843L5.27316 4.60083C5.32101 4.5573 5.36931 4.51427 5.41805 4.47174C5.66874 4.253 5.93109 4.04742 6.20285 3.85403C6.23056 3.83431 6.25837 3.81472 6.28627 3.79525L12 5.62481L13.96 9.59627ZM8.85079 3.5664L12.305 4.67244C12.5632 4.75512 12.7768 4.93911 12.8968 5.18225L14.6241 8.68229L18.4858 9.24363C18.8625 9.29839 19.1754 9.56223 19.293 9.92423C19.4106 10.2862 19.3125 10.6836 19.04 10.9493L16.2453 13.6735L16.9052 17.5202C16.9696 17.8953 16.8154 18.2745 16.5074 18.4983C16.1994 18.722 15.7912 18.7515 15.4542 18.5744L11.9997 16.7581L8.54509 18.5744C8.20816 18.7515 7.79989 18.722 7.49194 18.4983C7.18398 18.2745 7.02977 17.8953 7.09413 17.5202L7.75402 13.6735L4.95935 10.9493C4.9466 10.9369 4.93419 10.9241 4.92212 10.911L3.41842 9.27983C3.14662 10.138 3 11.0519 3 12C3 16.9707 7.02958 21 12 21C16.9707 21 21 16.9704 21 12C21 7.02958 16.9707 3 12 3C10.8921 3 9.83098 3.2002 8.85079 3.5664ZM7.41993 3.10823C8.79215 2.39995 10.3494 2 12 2C17.523 2 22 6.47732 22 12C22 17.5227 17.523 22 12 22C6.47732 22 2 17.523 2 12C2 10.7159 2.24205 9.48833 2.68302 8.3604C2.73884 8.21764 2.79784 8.07647 2.85994 7.93699C2.98881 7.64753 3.13103 7.36532 3.28581 7.09114C3.29453 7.0757 3.30329 7.06028 3.31209 7.04489C3.31442 7.04081 3.31675 7.03673 3.31909 7.03266C3.40105 6.88973 3.48644 6.74903 3.57515 6.61065C3.59664 6.57713 3.61832 6.54375 3.64019 6.51051C3.64164 6.50831 3.64309 6.5061 3.64454 6.5039C3.71754 6.39315 3.79269 6.28393 3.86992 6.17631C3.9624 6.04743 4.05788 5.92084 4.15624 5.79663C4.15778 5.79468 4.15933 5.79273 4.16087 5.79079C4.19515 5.74757 4.22978 5.70463 4.26476 5.662C4.36305 5.54218 4.46431 5.42492 4.56797 5.30985C4.58235 5.29383 4.5968 5.27788 4.61131 5.26198C4.61116 5.26214 4.61145 5.26182 4.61131 5.26198C4.69785 5.16715 4.7864 5.07332 4.87649 4.98189C5.00518 4.85128 5.13749 4.72424 5.27316 4.60083C5.27313 4.60086 5.2732 4.6008 5.27316 4.60083C5.32101 4.5573 5.36931 4.51427 5.41805 4.47174C5.66806 4.25297 5.92882 4.04638 6.19988 3.85305C6.22808 3.83294 6.25639 3.81297 6.28481 3.79314C6.28573 3.7925 6.28665 3.79186 6.28756 3.79122C6.64838 3.53966 7.02655 3.31128 7.41993 3.10823Z" fill="#6C6C6C"></path>
</svg>