<svg width="1em" height="1em" viewBox="0 0 24 24" fill="none" xmlns="http://www.w3.org/2000/svg">
<path d="M12 4.5L11.9519 4.50015C11.6758 4.50189 11.4533 4.72715 11.4551 5.00328C11.4568 5.27942 11.6821 5.50187 11.9582 5.50013L12 5.5L12.0418 5.50013C12.3179 5.50187 12.5432 5.27942 12.5449 5.00328C12.5467 4.72715 12.3242 4.50189 12.0481 4.50015L12 4.5Z" fill="currentColor"></path>
<path d="M8.78584 6.34891C9.02573 6.21214 9.10934 5.9068 8.97258 5.6669C8.83582 5.42701 8.53047 5.3434 8.29058 5.48016C8.26283 5.49598 8.23519 5.51197 8.20767 5.52813C7.96954 5.66795 7.88984 5.97434 8.02966 6.21247C8.16948 6.45059 8.47587 6.53029 8.714 6.39047C8.73785 6.37647 8.76179 6.36261 8.78584 6.34891Z" fill="currentColor"></path>
<path d="M15.7094 5.48016C15.4695 5.3434 15.1642 5.42701 15.0274 5.6669C14.8907 5.9068 14.9743 6.21214 15.2142 6.34891C15.2382 6.36261 15.2622 6.37647 15.286 6.39047C15.5241 6.53029 15.8305 6.45059 15.9703 6.21247C16.1102 5.97434 16.0305 5.66795 15.7923 5.52813C15.7648 5.51197 15.7372 5.49598 15.7094 5.48016Z" fill="currentColor"></path>
<path d="M6.39047 8.71399C6.53029 8.47587 6.45059 8.16948 6.21247 8.02966C5.97434 7.88984 5.66795 7.96954 5.52813 8.20767C5.51197 8.23519 5.49598 8.26283 5.48016 8.29058C5.3434 8.53047 5.42701 8.83582 5.6669 8.97258C5.9068 9.10934 6.21214 9.02573 6.34891 8.78584C6.36261 8.76179 6.37647 8.73785 6.39047 8.71399Z" fill="currentColor"></path>
<path d="M18.4719 8.20767C18.3321 7.96954 18.0257 7.88984 17.7875 8.02966C17.5494 8.16948 17.4697 8.47587 17.6095 8.714C17.6235 8.73785 17.6374 8.76179 17.6511 8.78584C17.7879 9.02573 18.0932 9.10934 18.3331 8.97258C18.573 8.83582 18.6566 8.53047 18.5198 8.29058C18.504 8.26283 18.488 8.23519 18.4719 8.20767Z" fill="currentColor"></path>
<path d="M5.50013 11.9582C5.50187 11.6821 5.27942 11.4568 5.00328 11.4551C4.72715 11.4533 4.50189 11.6758 4.50015 11.9519L4.5 12L4.50015 12.0481C4.50189 12.3242 4.72715 12.5467 5.00328 12.5449C5.27942 12.5432 5.50187 12.3179 5.50013 12.0418L5.5 12L5.50013 11.9582Z" fill="currentColor"></path>
<path d="M19.4998 11.9519C19.4981 11.6758 19.2729 11.4533 18.9967 11.4551C18.7206 11.4568 18.4981 11.6821 18.4999 11.9582L18.5 12L18.4999 12.0418C18.4981 12.3179 18.7206 12.5432 18.9967 12.5449C19.2729 12.5467 19.4981 12.3242 19.4998 12.0481L19.5 12L19.4998 11.9519Z" fill="currentColor"></path>
<path d="M6.34891 15.2142C6.21214 14.9743 5.9068 14.8907 5.6669 15.0274C5.42701 15.1642 5.3434 15.4695 5.48016 15.7094C5.49598 15.7372 5.51197 15.7648 5.52813 15.7923C5.66795 16.0305 5.97434 16.1102 6.21247 15.9703C6.45059 15.8305 6.53029 15.5241 6.39047 15.286C6.37647 15.2622 6.36261 15.2382 6.34891 15.2142Z" fill="currentColor"></path>
<path d="M18.5198 15.7094C18.6566 15.4695 18.573 15.1642 18.3331 15.0274C18.0932 14.8907 17.7879 14.9743 17.6511 15.2142C17.6374 15.2382 17.6235 15.2622 17.6095 15.286C17.4697 15.5241 17.5494 15.8305 17.7875 15.9703C18.0257 16.1102 18.3321 16.0305 18.4719 15.7923C18.488 15.7648 18.504 15.7372 18.5198 15.7094Z" fill="currentColor"></path>
<path d="M8.71399 17.6095C8.47587 17.4697 8.16948 17.5494 8.02966 17.7875C7.88984 18.0257 7.96954 18.3321 8.20767 18.4719C8.23519 18.488 8.26283 18.504 8.29058 18.5198C8.53047 18.6566 8.83582 18.573 8.97258 18.3331C9.10934 18.0932 9.02573 17.7879 8.78584 17.6511C8.76179 17.6374 8.73785 17.6235 8.71399 17.6095Z" fill="currentColor"></path>
<path d="M15.7923 18.4719C16.0305 18.3321 16.1102 18.0257 15.9703 17.7875C15.8305 17.5494 15.5241 17.4697 15.286 17.6095C15.2622 17.6235 15.2382 17.6374 15.2142 17.6511C14.9743 17.7879 14.8907 18.0932 15.0274 18.3331C15.1642 18.573 15.4695 18.6566 15.7094 18.5198C15.7372 18.504 15.7648 18.488 15.7923 18.4719Z" fill="currentColor"></path>
<path d="M11.9582 18.4999C11.6821 18.4981 11.4568 18.7206 11.4551 18.9967C11.4533 19.2729 11.6758 19.4981 11.9519 19.4998L12 19.5L12.0481 19.4998C12.3242 19.4981 12.5467 19.2729 12.5449 18.9967C12.5432 18.7206 12.3179 18.4981 12.0418 18.4999L12 18.5L11.9582 18.4999Z" fill="currentColor"></path>
<path fill-rule="evenodd" clip-rule="evenodd" d="M11.5 8.19995H11C9.71658 8.19995 8.5 9.03942 8.5 10.4C8.5 11.6432 9.69608 12.6 11 12.6H11.5V15H9C8.72386 15 8.5 15.2238 8.5 15.5C8.5 15.7761 8.72386 16 9 16H11.5V16.5C11.5 16.7761 11.7239 17 12 17C12.2761 17 12.5 16.7761 12.5 16.5V16H13C14.3039 16 15.5 15.0432 15.5 13.8C15.5 12.4394 14.2834 11.6 13 11.6H12.5V9.19995H15C15.2761 9.19995 15.5 8.97609 15.5 8.69995C15.5 8.42381 15.2761 8.19995 15 8.19995H12.5V7.5C12.5 7.22386 12.2761 7 12 7C11.7239 7 11.5 7.22386 11.5 7.5V8.19995ZM11 9.19995C10.0834 9.19995 9.5 9.76048 9.5 10.4C9.5 10.9567 10.1039 11.6 11 11.6H11.5V9.19995H11ZM12.5 12.6V15H13C13.8961 15 14.5 14.3567 14.5 13.8C14.5 13.1605 13.9166 12.6 13 12.6H12.5Z" fill="currentColor"></path>
<path fill-rule="evenodd" clip-rule="evenodd" d="M12 2C6.47715 2 2 6.47715 2 12C2 17.5228 6.47715 22 12 22C17.5228 22 22 17.5228 22 12C22 6.47715 17.5228 2 12 2ZM3 12C3 7.02944 7.02944 3 12 3C16.9706 3 21 7.02944 21 12C21 16.9706 16.9706 21 12 21C7.02944 21 3 16.9706 3 12Z" fill="currentColor"></path>
</svg>