<svg width="1em" height="1em" viewBox="0 0 24 24" fill="none" xmlns="http://www.w3.org/2000/svg">
<path d="M12 4.5C11.976 4.5 11.952 4.50011 11.928 4.50034C11.3758 4.50555 10.9323 4.95746 10.9375 5.50972C10.9427 6.06198 11.3946 6.50546 11.9469 6.50025L12 6.5L12.0531 6.50025C12.6054 6.50546 13.0573 6.06198 13.0625 5.50972C13.0677 4.95746 12.6242 4.50555 12.072 4.50034C12.048 4.50011 12.024 4.5 12 4.5Z" fill="currentColor"></path>
<path d="M8.14838 8.0738C8.54261 7.68701 8.54864 7.05387 8.16185 6.65965C7.77506 6.26542 7.14192 6.2594 6.7477 6.64618C6.71354 6.6797 6.6797 6.71354 6.64618 6.7477C6.2594 7.14192 6.26542 7.77506 6.65965 8.16185C7.05387 8.54864 7.68701 8.54261 8.0738 8.14838C8.09842 8.12329 8.12329 8.09842 8.14838 8.0738Z" fill="currentColor"></path>
<path d="M17.2523 6.64618C16.8581 6.2594 16.2249 6.26542 15.8382 6.65965C15.4514 7.05387 15.4574 7.68701 15.8516 8.0738C15.8767 8.09842 15.9016 8.12329 15.9262 8.14838C16.313 8.54261 16.9461 8.54864 17.3404 8.16185C17.7346 7.77506 17.7406 7.14192 17.3538 6.7477C17.3203 6.71354 17.2865 6.6797 17.2523 6.64618Z" fill="currentColor"></path>
<path d="M6.50025 11.9469C6.50546 11.3946 6.06198 10.9427 5.50972 10.9375C4.95746 10.9323 4.50555 11.3758 4.50034 11.928C4.50011 11.952 4.5 11.976 4.5 12C4.5 12.024 4.50011 12.048 4.50034 12.072C4.50555 12.6242 4.95746 13.0677 5.50972 13.0625C6.06198 13.0573 6.50546 12.6054 6.50025 12.0531L6.5 12L6.50025 11.9469Z" fill="currentColor"></path>
<path d="M19.4997 11.928C19.4945 11.3758 19.0425 10.9323 18.4903 10.9375C17.938 10.9427 17.4945 11.3946 17.4998 11.9469L17.5 12L17.4998 12.0531C17.4945 12.6054 17.938 13.0573 18.4903 13.0625C19.0425 13.0677 19.4945 12.6242 19.4997 12.072C19.4999 12.048 19.5 12.024 19.5 12C19.5 11.976 19.4999 11.952 19.4997 11.928Z" fill="currentColor"></path>
<path d="M8.0738 15.8516C7.68701 15.4574 7.05387 15.4514 6.65965 15.8382C6.26542 16.2249 6.2594 16.8581 6.64618 17.2523C6.6797 17.2865 6.71354 17.3203 6.7477 17.3538C7.14192 17.7406 7.77506 17.7346 8.16185 17.3404C8.54864 16.9461 8.54261 16.313 8.14838 15.9262C8.12329 15.9016 8.09842 15.8767 8.0738 15.8516Z" fill="currentColor"></path>
<path d="M17.3538 17.2523C17.7406 16.8581 17.7346 16.2249 17.3404 15.8382C16.9461 15.4514 16.313 15.4574 15.9262 15.8516C15.9016 15.8767 15.8767 15.9016 15.8516 15.9262C15.4574 16.313 15.4514 16.9461 15.8382 17.3404C16.2249 17.7346 16.8581 17.7406 17.2523 17.3538C17.2865 17.3203 17.3203 17.2865 17.3538 17.2523Z" fill="currentColor"></path>
<path d="M11.9469 17.4998C11.3946 17.4945 10.9427 17.938 10.9375 18.4903C10.9323 19.0425 11.3758 19.4945 11.928 19.4997C11.952 19.4999 11.976 19.5 12 19.5C12.024 19.5 12.048 19.4999 12.072 19.4997C12.6242 19.4945 13.0677 19.0425 13.0625 18.4903C13.0573 17.938 12.6054 17.4945 12.0531 17.4998L12 17.5L11.9469 17.4998Z" fill="currentColor"></path>
<path fill-rule="evenodd" clip-rule="evenodd" d="M11 8.00167C9.5761 8.04903 8.40039 9.10035 8.40039 10.5C8.40039 11.9316 9.70385 12.9478 11 12.998V14H9.50039C8.9481 14 8.50039 14.4477 8.50039 15C8.50039 15.5523 8.9481 16 9.50039 16H11C11 16.5523 11.4477 17 12 17C12.5523 17 13 16.5523 13 16V15.9923C14.2626 15.8957 15.5004 14.8951 15.5004 13.5C15.5004 12.133 14.3789 11.0983 13 11.0066V10H14.4004C14.9527 10 15.4004 9.55228 15.4004 9C15.4004 8.44772 14.9527 8 14.4004 8H13C13 7.44772 12.5523 7 12 7C11.4477 7 11 7.44772 11 8V8.00167ZM11 10.0042C10.5475 10.0431 10.4004 10.3435 10.4004 10.5C10.4004 10.5579 10.432 10.6747 10.5735 10.7993C10.689 10.9009 10.841 10.9717 11 10.9932V10.0042ZM13 13.0177V13.9732C13.1222 13.9405 13.2361 13.8795 13.3273 13.7993C13.4688 13.6747 13.5004 13.5579 13.5004 13.5C13.5004 13.3555 13.3751 13.0885 13 13.0177Z" fill="currentColor"></path>
<path fill-rule="evenodd" clip-rule="evenodd" d="M12 2C6.47715 2 2 6.47715 2 12C2 17.5228 6.47715 22 12 22C17.5228 22 22 17.5228 22 12C22 6.47715 17.5228 2 12 2ZM4 12C4 7.58172 7.58172 4 12 4C16.4183 4 20 7.58172 20 12C20 16.4183 16.4183 20 12 20C7.58172 20 4 16.4183 4 12Z" fill="currentColor"></path>
</svg>