<svg width="1em" height="1em" viewBox="0 0 24 24" fill="none" xmlns="http://www.w3.org/2000/svg">
<path d="M20.85 12.4901C20.87 12.4601 20.9 12.4301 20.91 12.4001C20.97 12.2801 21 12.1401 21 12.0001C21 11.8601 20.97 11.7201 20.91 11.6001C20.9 11.5701 20.87 11.5401 20.85 11.5101C20.8 11.4201 20.75 11.3401 20.68 11.2801C20.67 11.2701 20.67 11.2601 20.66 11.2501L12.66 4.25009C12.24 3.88009 11.61 3.93009 11.25 4.34009C10.88 4.76009 10.93 5.39009 11.34 5.75009L17.34 11.0001H4C3.45 11.0001 3 11.4501 3 12.0001C3 12.5501 3.45 13.0001 4 13.0001H17.34L11.34 18.2501C10.92 18.6101 10.88 19.2501 11.25 19.6601C11.45 19.8801 11.72 20.0001 12 20.0001C12.23 20.0001 12.47 19.9201 12.66 19.7501L20.66 12.7501C20.67 12.7401 20.67 12.7301 20.68 12.7201C20.75 12.6601 20.8 12.5801 20.85 12.4901Z" fill="currentColor"></path>
</svg>