<svg width="1em" height="1em" viewBox="0 0 24 24" fill="none" xmlns="http://www.w3.org/2000/svg">
<path fill-rule="evenodd" clip-rule="evenodd" d="M2 10.5C2 5.8 5.8 2 10.5 2C15.2 2 19 5.8 19 10.5C19 12.6698 18.1901 14.6479 16.8556 16.1487L20.3533 19.6465C20.5486 19.8417 20.5486 20.1583 20.3533 20.3536C20.1581 20.5488 19.8415 20.5488 19.6462 20.3536L16.1485 16.8558C14.6476 18.1902 12.6697 19 10.5 19C5.8 19 2 15.2 2 10.5ZM18 10.5C18 6.4 14.6 3 10.5 3C6.4 3 3 6.4 3 10.5C3 14.6 6.4 18 10.5 18C14.6 18 18 14.6 18 10.5Z" fill="currentColor"></path>
</svg>