<svg width="1em" height="1em" viewBox="0 0 24 24" fill="none" xmlns="http://www.w3.org/2000/svg">
<path fill-rule="evenodd" clip-rule="evenodd" d="M20.4988 3.9652C20.4905 3.84681 20.4402 3.73311 20.3536 3.64646C20.2673 3.56021 20.1542 3.50995 20.0364 3.50133C20.009 3.49932 19.9813 3.49958 19.9536 3.50216C19.9183 3.50543 19.8833 3.51244 19.8492 3.5232L2.85892 8.52033C2.64929 8.58198 2.50398 8.77262 2.50008 8.99109C2.49618 9.20956 2.63459 9.40526 2.84189 9.47435L11.6047 12.3953L14.5257 21.1581C14.5948 21.3654 14.7905 21.5038 15.0089 21.4999C15.2274 21.496 15.418 21.3507 15.4797 21.1411L20.4768 4.15087C20.4878 4.1159 20.4949 4.07996 20.4981 4.04374C20.5004 4.0175 20.5006 3.99124 20.4988 3.9652ZM18.2599 5.03298L4.67061 9.02984L11.865 11.428L18.2599 5.03298ZM12.5721 12.1351L18.967 5.74008L14.9702 19.3294L12.5721 12.1351Z" fill="currentColor"></path>
</svg>