<svg width="1em" height="1em" viewBox="0 0 24 24" fill="none" xmlns="http://www.w3.org/2000/svg">
<path fill-rule="evenodd" clip-rule="evenodd" d="M9.90028 2.19872C11.2847 1.90479 12.7152 1.90479 14.0997 2.19872C14.3326 2.24818 14.5 2.46193 14.5 2.70998V4.38585C14.8783 4.50871 15.2464 4.66158 15.6007 4.84308L16.8016 3.62576C16.9666 3.45844 17.2198 3.43028 17.415 3.55754C18.6103 4.33704 19.6318 5.35799 20.4133 6.55647C20.5521 6.76929 20.5214 7.05592 20.341 7.23151L19.1421 8.39844C19.3186 8.74609 19.4679 9.10711 19.5885 9.47825H21.31C21.5444 9.47825 21.7474 9.64826 21.7981 9.88713C22.0939 11.2801 22.0939 12.7199 21.7981 14.1128C21.7474 14.3517 21.5444 14.5217 21.31 14.5217H19.6085C19.4888 14.89 19.3409 15.2484 19.1662 15.5935L20.3459 16.7733C20.5222 16.9496 20.5507 17.2329 20.4133 17.4435C19.6318 18.642 18.6103 19.6629 17.415 20.4424C17.2198 20.5697 16.9666 20.5415 16.8016 20.3742L15.6007 19.1569C15.2464 19.3384 14.8783 19.4913 14.5 19.6141V21.31C14.5 21.558 14.3326 21.7718 14.0997 21.8212C12.7152 22.1152 11.2847 22.1152 9.90028 21.8212C9.66734 21.7718 9.49997 21.558 9.49997 21.31V19.6341C9.12084 19.511 8.75198 19.3577 8.39691 19.1757L7.19593 20.3767C7.0307 20.5419 6.77906 20.569 6.58499 20.4424C5.38963 19.6629 4.36813 18.642 3.5866 17.4435C3.44853 17.2318 3.47814 16.9468 3.65648 16.7709L4.85249 15.591C4.67836 15.2466 4.53088 14.8891 4.4114 14.5217H2.70997C2.4755 14.5217 2.27253 14.3517 2.22181 14.1128C1.92606 12.7199 1.92606 11.2801 2.22181 9.88713C2.27253 9.64826 2.4755 9.47825 2.70997 9.47825H4.4114C4.53088 9.11085 4.67836 8.75337 4.85249 8.40896L3.65648 7.22912C3.47814 7.05319 3.44853 6.7682 3.5866 6.55647C4.36813 5.35799 5.38963 4.33704 6.58499 3.55754C6.78014 3.43028 7.03332 3.45844 7.19837 3.62576L8.39925 4.84308C8.75359 4.66158 9.12167 4.50871 9.49997 4.38585V2.70998C9.49997 2.46193 9.66734 2.24818 9.90028 2.19872ZM18.1504 8.68299C18.101 8.63259 18.0612 8.57111 18.0348 8.50124C17.9595 8.30183 18.0087 8.07465 18.1589 7.92846L19.3378 6.78104C18.7493 5.96598 18.0312 5.25114 17.2113 4.66524L16.0384 5.85421C15.8804 6.01436 15.6406 6.04777 15.4479 5.93647C14.955 5.65183 14.4264 5.43283 13.8757 5.28535C13.6546 5.22614 13.5 5.01818 13.5 4.77998V3.14553C12.5068 2.98049 11.4931 2.98049 10.5 3.14553V4.77998C10.5 5.01818 10.3454 5.22614 10.1243 5.28535C9.57352 5.43283 9.04497 5.65183 8.55209 5.93647C8.35938 6.04777 8.11956 6.01436 7.96158 5.85421L6.78867 4.66524C5.96789 5.25172 5.24921 5.96742 4.6604 6.7835L5.82347 7.93085C5.99426 8.09934 6.02954 8.36922 5.90822 8.57928C5.62503 9.06964 5.40771 9.59451 5.26153 10.1404C5.20116 10.3658 5.00429 10.5217 4.77997 10.5217H3.12106C2.95965 11.5006 2.95965 12.4993 3.12106 13.4782H4.77997C5.00429 13.4782 5.20116 13.6341 5.26153 13.8596C5.40771 14.4055 5.62503 14.9303 5.90822 15.4207C6.02954 15.6308 5.99426 15.9006 5.82347 16.0691L4.6604 17.2165C5.24975 18.0333 5.96922 18.7496 6.79095 19.3364L7.96402 18.1633C8.12214 18.0052 8.36047 17.9728 8.55209 18.0835C9.04497 18.3681 9.57352 18.5871 10.1243 18.7346C10.3454 18.7938 10.5 19.0018 10.5 19.24V20.8744C11.4931 21.0395 12.5068 21.0395 13.5 20.8744V19.22C13.5 18.9818 13.6546 18.7738 13.8757 18.7146C14.4264 18.5671 14.955 18.3481 15.4479 18.0635C15.6406 17.9522 15.8804 17.9856 16.0384 18.1458L17.2113 19.3347C18.0329 18.7477 18.7522 18.0311 19.3413 17.214L18.194 16.0667C18.0252 15.8979 17.9911 15.6296 18.1117 15.4207C18.3949 14.9303 18.6122 14.4055 18.7584 13.8596C18.8188 13.6341 19.0157 13.4782 19.24 13.4782H20.8989C21.0603 12.4993 21.0603 11.5006 20.8989 10.5217H19.22C18.9957 10.5217 18.7988 10.3658 18.7384 10.1404C18.6025 9.63281 18.4051 9.14338 18.1504 8.68299ZM12 9.02172C11.402 9.02172 10.8191 9.19914 10.3251 9.52922C9.83131 9.85916 9.44976 10.3258 9.22536 10.8676C9.00107 11.4091 8.94276 12.0035 9.05679 12.5768C9.17085 13.1502 9.45299 13.6801 9.87105 14.0982C10.2893 14.5165 10.8248 14.8037 11.4108 14.9202C11.9968 15.0368 12.6041 14.9768 13.1549 14.7486C13.7056 14.5205 14.1728 14.1357 14.5 13.6461C14.8269 13.1568 15 12.584 15 12C15 11.2174 14.6893 10.4622 14.1289 9.9018C13.5678 9.34067 12.8023 9.02172 12 9.02172ZM9.78585 8.65046C10.443 8.21137 11.2135 7.97825 12 7.97825C13.0541 7.97825 14.0692 8.3968 14.8208 9.14842C15.5731 9.90076 16 10.926 16 12C16 12.8005 15.7625 13.581 15.3203 14.2429C14.8782 14.9044 14.2523 15.4168 13.5238 15.7185C12.7956 16.0202 11.9953 16.0988 11.2235 15.9452C10.4516 15.7917 9.73982 15.4122 9.17915 14.8515C8.61825 14.2906 8.23369 13.5733 8.07766 12.7888C7.92159 12.0042 8.0019 11.1912 8.30743 10.4536C8.61284 9.71627 9.1285 9.08969 9.78585 8.65046Z" fill="currentColor"></path>
</svg>