<svg width="1em" height="1em" viewBox="0 0 24 24" fill="none" xmlns="http://www.w3.org/2000/svg">
<path fill-rule="evenodd" clip-rule="evenodd" d="M15.7777 2.67412C16.4355 2.2346 17.2089 2 18 2C19.0609 2 20.0783 2.42143 20.8284 3.17157C21.5786 3.92172 22 4.93913 22 6C22 6.79113 21.7654 7.56448 21.3259 8.22228C20.8864 8.88008 20.2616 9.39277 19.5307 9.69552C18.7998 9.99827 17.9956 10.0775 17.2196 9.92314C16.4437 9.7688 15.731 9.38784 15.1716 8.82843C14.9851 8.64191 14.8184 8.43834 14.6733 8.22107C14.6636 8.22674 14.6537 8.23212 14.6436 8.23721L9.80355 10.6572C9.79341 10.6623 9.78318 10.667 9.77287 10.6713C9.92182 11.0942 10 11.5431 10 12C10 12.455 9.92241 12.9041 9.77287 13.3287C9.78318 13.333 9.79341 13.3377 9.80355 13.3428L14.6436 15.7628C14.6537 15.7679 14.6636 15.7733 14.6733 15.7789C14.9639 15.3438 15.3384 14.9676 15.7777 14.6741C16.4355 14.2346 17.2089 14 18 14C19.0609 14 20.0783 14.4214 20.8284 15.1716C21.5786 15.9217 22 16.9391 22 18C22 18.7911 21.7654 19.5645 21.3259 20.2223C20.8864 20.8801 20.2616 21.3928 19.5307 21.6955C18.7998 21.9983 17.9956 22.0775 17.2196 21.9231C16.4437 21.7688 15.731 21.3878 15.1716 20.8284C14.6122 20.269 14.2312 19.5563 14.0769 18.7804C13.9366 18.0753 13.9892 17.3469 14.2271 16.6713C14.2168 16.667 14.2065 16.6623 14.1963 16.6572L9.35634 14.2372C9.34619 14.2321 9.3363 14.2268 9.32666 14.2211L9.32588 14.2223C8.88635 14.8801 8.26164 15.3928 7.53074 15.6955C6.79983 15.9983 5.99556 16.0775 5.21964 15.9231C4.44372 15.7688 3.73098 15.3878 3.17157 14.8284C2.61216 14.269 2.2312 13.5563 2.07686 12.7804C1.92252 12.0044 2.00173 11.2002 2.30448 10.4693C2.60723 9.73836 3.11992 9.11365 3.77772 8.67412C4.43552 8.2346 5.20888 8 6 8C7.06087 8 8.07828 8.42143 8.82843 9.17157C9.01541 9.35855 9.18197 9.56214 9.32667 9.77887C9.33631 9.77322 9.3462 9.76785 9.35634 9.76278L14.1963 7.34278C14.2065 7.3377 14.2168 7.33299 14.2271 7.32866C14.1643 7.15039 14.114 6.96721 14.0769 6.78036C13.9225 6.00444 14.0017 5.20017 14.3045 4.46927C14.6072 3.73836 15.1199 3.11365 15.7777 2.67412ZM19.6667 3.50559C19.1734 3.17595 18.5933 3 18 3C17.2044 3 16.4413 3.31607 15.8787 3.87868C15.3161 4.44129 15 5.20435 15 6C15 6.59334 15.1759 7.17336 15.5056 7.66671C15.8352 8.16006 16.3038 8.54458 16.852 8.77164C17.4001 8.9987 18.0033 9.05811 18.5853 8.94236C19.1672 8.8266 19.7018 8.54088 20.1213 8.12132C20.5409 7.70176 20.8266 7.16721 20.9424 6.58527C21.0581 6.00333 20.9987 5.40013 20.7716 4.85195C20.5446 4.30377 20.1601 3.83524 19.6667 3.50559ZM18 15C18.5933 15 19.1734 15.1759 19.6667 15.5056C20.1601 15.8352 20.5446 16.3038 20.7716 16.8519C20.9987 17.4001 21.0581 18.0033 20.9424 18.5853C20.8266 19.1672 20.5409 19.7018 20.1213 20.1213C19.7018 20.5409 19.1672 20.8266 18.5853 20.9424C18.0033 21.0581 17.4001 20.9987 16.852 20.7716C16.3038 20.5446 15.8352 20.1601 15.5056 19.6667C15.1759 19.1734 15 18.5933 15 18C15 17.2044 15.3161 16.4413 15.8787 15.8787C16.4413 15.3161 17.2044 15 18 15ZM7.66671 9.50559C7.17337 9.17595 6.59335 9 6 9C5.20435 9 4.44129 9.31607 3.87868 9.87868C3.31607 10.4413 3 11.2044 3 12C3 12.5933 3.17595 13.1734 3.50559 13.6667C3.83524 14.1601 4.30377 14.5446 4.85195 14.7716C5.40013 14.9987 6.00333 15.0581 6.58527 14.9424C7.16722 14.8266 7.70177 14.5409 8.12132 14.1213C8.54088 13.7018 8.8266 13.1672 8.94236 12.5853C9.05811 12.0033 8.9987 11.4001 8.77164 10.8519C8.54458 10.3038 8.16006 9.83524 7.66671 9.50559Z" fill="currentColor"></path>
</svg>