<svg width="1em" height="1em" viewBox="0 0 24 24" fill="none" xmlns="http://www.w3.org/2000/svg">
<path fill-rule="evenodd" clip-rule="evenodd" d="M14.0384 4.34664C14.2337 4.15138 14.5502 4.15138 14.7455 4.34664L19.0535 8.65464C19.2488 8.8499 19.2488 9.16649 19.0535 9.36175L9.36151 19.0538C9.26774 19.1475 9.14056 19.2002 9.00795 19.2002H4.69995C4.42381 19.2002 4.19995 18.9763 4.19995 18.7002V14.3922C4.19995 14.2596 4.25263 14.1324 4.3464 14.0386L14.0384 4.34664ZM5.19995 14.5993V18.2002H8.80084L17.9928 9.0082L14.392 5.4073L5.19995 14.5993ZM10.2 19.7002C10.2 19.4241 10.4238 19.2002 10.7 19.2002H19.7C19.9761 19.2002 20.2 19.4241 20.2 19.7002C20.2 19.9763 19.9761 20.2002 19.7 20.2002H10.7C10.4238 20.2002 10.2 19.9763 10.2 19.7002ZM13.7 17.2002C13.4238 17.2002 13.2 17.4241 13.2 17.7002C13.2 17.9763 13.4238 18.2002 13.7 18.2002H19.7C19.9761 18.2002 20.2 17.9763 20.2 17.7002C20.2 17.4241 19.9761 17.2002 19.7 17.2002H13.7Z" fill="currentColor"></path>
</svg>