<svg width="1em" height="1em" viewBox="0 0 24 24" fill="none" xmlns="http://www.w3.org/2000/svg">
<path fill-rule="evenodd" clip-rule="evenodd" d="M12.4719 4.11833C12.797 4.29235 13 4.63121 13 5V19C13 19.3688 12.797 19.7077 12.4719 19.8817C12.1467 20.0557 11.7522 20.0366 11.4453 19.8321L5.69722 16H3C2.44772 16 2 15.5523 2 15V9C2 8.44772 2.44772 8 3 8H5.69722L11.4453 4.16795C11.7522 3.96338 12.1467 3.94431 12.4719 4.11833ZM11 6.86852L6.5547 9.83205C6.39043 9.94156 6.19742 10 6 10H4V14H6C6.19742 14 6.39043 14.0584 6.5547 14.168L11 17.1315V6.86852Z" fill="currentColor"></path>
</svg>