<svg width="1em" height="1em" viewBox="0 0 24 24" fill="none" xmlns="http://www.w3.org/2000/svg">
<path fill-rule="evenodd" clip-rule="evenodd" d="M12.7236 4.05279C12.893 4.13749 13 4.31062 13 4.5V19.5C13 19.6894 12.893 19.8625 12.7236 19.9472C12.5542 20.0319 12.3515 20.0136 12.2 19.9L6.33333 15.5H3.5C3.22386 15.5 3 15.2761 3 15V9C3 8.72386 3.22386 8.5 3.5 8.5H6.33333L12.2 4.1C12.3515 3.98637 12.5542 3.96809 12.7236 4.05279ZM12 5.5L6.8 9.4C6.71345 9.46491 6.60819 9.5 6.5 9.5H4V14.5H6.5C6.60819 14.5 6.71345 14.5351 6.8 14.6L12 18.5V5.5Z" fill="currentColor"></path>
</svg>