<svg width="1em" height="1em" viewBox="0 0 24 24" fill="none" xmlns="http://www.w3.org/2000/svg">
<path d="M21.271 8.46389C21.2356 8.33647 21.1517 8.22801 21.0372 8.16175C20.9227 8.09548 20.7869 8.07669 20.6587 8.1094L19.21 8.49709C19.0929 8.52856 18.9912 8.60149 18.9239 8.70232C18.8565 8.80315 18.8281 8.92501 18.8438 9.04524C18.8596 9.16548 18.9185 9.27589 19.0096 9.35595C19.1006 9.43601 19.2177 9.48027 19.339 9.48049C19.3828 9.48023 19.4264 9.47466 19.4688 9.46389L20.9176 9.07619C21.0455 9.04172 21.1546 8.9579 21.2209 8.84312C21.2872 8.72833 21.3052 8.59196 21.271 8.46389Z" fill="currentColor"></path>
<path d="M20.2577 5.542C20.3453 5.44241 20.3897 5.31213 20.3812 5.17981C20.3726 5.04748 20.3119 4.92397 20.2123 4.83643C20.1127 4.74888 19.9824 4.70449 19.8501 4.71301C19.7178 4.72153 19.5943 4.78226 19.5067 4.88185L18.3163 6.23535C18.2288 6.33494 18.1844 6.46523 18.1929 6.59755C18.2014 6.72987 18.2622 6.85339 18.3618 6.94093C18.4614 7.02847 18.5916 7.07287 18.724 7.06435C18.8563 7.05583 18.9798 6.9951 19.0673 6.89551L20.2577 5.542Z" fill="currentColor"></path>
<path d="M21.8539 11.499L20.1464 10.9219C20.0212 10.8809 19.8849 10.891 19.7671 10.95C19.6493 11.009 19.5595 11.1121 19.5173 11.2369C19.4751 11.3617 19.4839 11.4981 19.5417 11.6165C19.5995 11.7349 19.7017 11.8257 19.8261 11.8691L21.5336 12.4463C21.5852 12.4636 21.6393 12.4725 21.6938 12.4726C21.8123 12.4726 21.927 12.4305 22.0173 12.3538C22.1077 12.2771 22.1678 12.1708 22.1871 12.0538C22.2063 11.9368 22.1834 11.8168 22.1223 11.7152C22.0613 11.6136 21.9662 11.537 21.8539 11.499Z" fill="currentColor"></path>
<path d="M17.6812 7.80177L15.8394 7.51063L15.2769 5.41114C15.1846 5.05752 14.9661 4.7499 14.6625 4.54634C14.359 4.34278 13.9915 4.25735 13.6293 4.30617C13.2671 4.35499 12.9353 4.53468 12.6965 4.81134C12.4577 5.088 12.3285 5.44249 12.3331 5.80793L7.37819 9.07901L3.59084 10.0938C3.46286 10.1282 3.35377 10.212 3.2875 10.3268C3.22123 10.4416 3.20318 10.578 3.23732 10.7061L3.36672 11.189L1.91802 11.5772C1.79004 11.6116 1.68095 11.6954 1.61467 11.8102C1.5484 11.925 1.53036 12.0614 1.5645 12.1895L2.34087 15.0879C2.36942 15.1942 2.43218 15.2882 2.51947 15.3552C2.60675 15.4223 2.7137 15.4588 2.82378 15.459C2.86743 15.4588 2.91089 15.4532 2.95317 15.4424L4.40217 15.0541L4.53132 15.5361C4.55986 15.6425 4.62263 15.7364 4.70992 15.8035C4.7972 15.8706 4.90415 15.907 5.01423 15.9072C5.05788 15.9071 5.10135 15.9015 5.14362 15.8906L5.76191 15.725L9.04743 20.7012C9.09304 20.7702 9.15505 20.8268 9.2279 20.866C9.30075 20.9052 9.38218 20.9258 9.46491 20.9258C9.50856 20.9256 9.55202 20.92 9.59431 20.9092L11.5264 20.3916C11.603 20.3711 11.6735 20.3326 11.7323 20.2794C11.791 20.2263 11.8363 20.1599 11.8644 20.0858C11.8925 20.0117 11.9025 19.932 11.8938 19.8532C11.885 19.7745 11.8577 19.6989 11.814 19.6328L8.71202 14.9346L8.93058 14.876L14.8697 15.2325C14.9987 15.4611 15.1857 15.6518 15.4118 15.7851C15.6379 15.9185 15.8952 15.9899 16.1577 15.9922C16.2885 15.9921 16.4186 15.975 16.5449 15.9414L16.5459 15.9404C16.9299 15.837 17.2571 15.5855 17.4558 15.2412C17.6545 14.8968 17.7086 14.4877 17.606 14.1035L17.0432 12.0028L18.4923 10.8311C18.5674 10.7703 18.6233 10.6891 18.6532 10.5972C18.6831 10.5054 18.6857 10.4068 18.6607 10.3135L18.086 8.16701C18.0611 8.07347 18.0096 7.98916 17.9378 7.92432C17.8659 7.85949 17.7768 7.81691 17.6812 7.80177ZM3.17727 14.3467L2.65969 12.4141L3.62551 12.1553L4.14309 14.0879L3.17727 14.3467ZM4.33254 10.9307L7.23054 10.1543L8.26569 14.0186L7.78425 14.1476L7.78278 14.1475L5.85109 14.665L5.84975 14.6657L5.3677 14.7949L4.33254 10.9307ZM10.5977 19.6045L9.68361 19.8496L6.77987 15.4523L7.69362 15.2074L10.5977 19.6045ZM9.2676 13.8945L8.16018 9.76075L12.5585 6.85749L13.5437 10.5337L14.5288 14.21L9.2676 13.8945ZM16.2862 14.9756C16.158 15.0089 16.0219 14.9904 15.9074 14.9241C15.7928 14.8577 15.7091 14.7488 15.6743 14.6211L13.3448 5.92774C13.3278 5.86429 13.3235 5.79812 13.3321 5.733C13.3407 5.66789 13.362 5.60511 13.3949 5.54825C13.4278 5.49139 13.4715 5.44156 13.5237 5.40161C13.5758 5.36167 13.6353 5.33238 13.6988 5.31544C13.7415 5.30461 13.7855 5.29903 13.8296 5.29884C13.9394 5.299 14.0461 5.33536 14.1331 5.40228C14.2201 5.4692 14.2827 5.56295 14.311 5.66901L16.6401 14.3633C16.674 14.4915 16.6558 14.6278 16.5895 14.7425C16.5232 14.8573 16.4141 14.9411 16.2862 14.9756V14.9756ZM16.7598 10.9453L16.1231 8.56835L17.2041 8.73925L17.6109 10.2578L16.7598 10.9453Z" fill="currentColor"></path>
</svg>