<svg width="1em" height="1em" viewBox="0 0 24 24" fill="none" xmlns="http://www.w3.org/2000/svg">
<path d="M19.5332 9.95509L20.499 9.6963C20.7548 9.62736 20.9728 9.45971 21.1051 9.23018C21.2375 9.00064 21.2733 8.72798 21.2047 8.47206C21.1361 8.21615 20.9688 7.99792 20.7394 7.86528C20.5101 7.73265 20.2375 7.69646 19.9815 7.76466L19.0156 8.02345C18.8888 8.05743 18.7699 8.11607 18.6657 8.196C18.5616 8.27594 18.4742 8.37561 18.4085 8.48932C18.3428 8.60304 18.3002 8.72857 18.2831 8.85876C18.266 8.98894 18.2746 9.12122 18.3086 9.24806C18.3426 9.37489 18.4012 9.49379 18.4812 9.59796C18.5611 9.70213 18.6608 9.78954 18.7745 9.8552C18.8882 9.92085 19.0137 9.96346 19.1439 9.9806C19.2741 9.99774 19.4064 9.98907 19.5332 9.95509Z" fill="currentColor"></path>
<path d="M19.2349 6.10839L19.9419 4.88378C20.0743 4.65406 20.1101 4.38114 20.0414 4.12503C19.9727 3.86892 19.8051 3.65058 19.5754 3.51802C19.3458 3.38545 19.0729 3.34951 18.8167 3.4181C18.5606 3.48669 18.3422 3.65419 18.2095 3.88378L17.5025 5.10839C17.37 5.33812 17.3342 5.61104 17.4029 5.86715C17.4717 6.12326 17.6393 6.3416 17.8689 6.47416C18.0986 6.60672 18.3715 6.64266 18.6276 6.57407C18.8838 6.50548 19.1022 6.33798 19.2349 6.10839Z" fill="currentColor"></path>
<path d="M21.9054 12.2109L20.6803 11.5039C20.5665 11.4382 20.4409 11.3955 20.3107 11.3783C20.1804 11.3611 20.0481 11.3698 19.9211 11.4038C19.7942 11.4377 19.6753 11.4964 19.571 11.5764C19.4668 11.6564 19.3793 11.7561 19.3136 11.8699C19.248 11.9837 19.2053 12.1093 19.1882 12.2396C19.1711 12.3698 19.1798 12.5022 19.2139 12.6291C19.2479 12.756 19.3066 12.8749 19.3867 12.9791C19.4667 13.0833 19.5665 13.1707 19.6803 13.2363L20.9054 13.9433C21.1351 14.0758 21.408 14.1116 21.6641 14.0429C21.9202 13.9742 22.1386 13.8065 22.2711 13.5769C22.4037 13.3472 22.4397 13.0743 22.3711 12.8182C22.3025 12.562 22.135 12.3436 21.9054 12.2109Z" fill="currentColor"></path>
<path d="M17.0552 8.4336C17.0051 8.24673 16.902 8.07838 16.7582 7.94892C16.6144 7.81945 16.4362 7.73442 16.2452 7.70411L14.7248 7.46443L14.1817 5.43751C14.111 5.15892 13.9461 4.91341 13.7148 4.74271C13.4836 4.57201 13.2004 4.48667 12.9133 4.50119C12.6263 4.51571 12.3531 4.62921 12.1403 4.82237C11.9275 5.01553 11.7882 5.27644 11.746 5.56074L7.10161 8.62751L3.39705 9.62013C3.2702 9.65407 3.15127 9.71268 3.04707 9.7926C2.94288 9.87253 2.85545 9.9722 2.78979 10.0859C2.72414 10.1997 2.68153 10.3252 2.66442 10.4554C2.6473 10.5856 2.65602 10.7179 2.69005 10.8447V10.8449L2.20616 10.9746C2.07935 11.0086 1.96049 11.0673 1.85635 11.1472C1.75221 11.2272 1.66483 11.3268 1.59922 11.4406C1.53361 11.5543 1.49105 11.6798 1.47396 11.81C1.45687 11.9402 1.46559 12.0724 1.49962 12.1992L2.27648 15.0967C2.33332 15.3094 2.45881 15.4973 2.63346 15.6314C2.80811 15.7654 3.02215 15.838 3.2423 15.8379C3.32984 15.8377 3.41698 15.8262 3.50157 15.8037L3.98387 15.6743L3.984 15.6748C4.04084 15.8875 4.16633 16.0755 4.34098 16.2095C4.51563 16.3435 4.72967 16.4161 4.94982 16.416C5.0372 16.4158 5.12419 16.4044 5.20861 16.3818L5.47838 16.3095L8.56603 20.9854C8.65712 21.1234 8.78103 21.2367 8.92666 21.3151C9.0723 21.3935 9.23511 21.4346 9.4005 21.4346C9.4879 21.4348 9.57494 21.4233 9.65929 21.4004L10.6251 21.1416C10.7782 21.1006 10.9193 21.0239 11.0368 20.9177C11.1544 20.8114 11.245 20.6788 11.3012 20.5307C11.3574 20.3826 11.3777 20.2232 11.3602 20.0657C11.3427 19.9083 11.2881 19.7572 11.2008 19.625L8.48027 15.5045L8.91582 15.3877L14.4779 15.7215C14.5933 15.8647 14.7389 15.9806 14.9042 16.061C15.0696 16.1414 15.2507 16.1843 15.4346 16.1865C15.542 16.1864 15.6488 16.1723 15.7525 16.1445L15.7593 16.1425C16.0784 16.0553 16.35 15.8455 16.515 15.5588C16.68 15.2722 16.725 14.9319 16.6402 14.6122L16.0966 12.5836L17.293 11.6161C17.4435 11.4946 17.5554 11.332 17.6152 11.148C17.675 10.9641 17.6801 10.7668 17.6299 10.58L17.0552 8.4336ZM6.81205 10.7754L7.20048 12.2241L7.58885 13.6729L6.62664 13.9311L6.62163 13.9316L5.65685 14.1912L5.6568 14.1904L4.88042 11.293L6.81205 10.7754ZM9.59282 13.4248L9.13213 11.7065L8.67156 9.98823L12.1904 7.66423L12.6761 9.47723L13.8013 13.6778L9.59282 13.4248Z" fill="currentColor"></path>
</svg>