<svg width="1em" height="1em" viewBox="0 0 24 24" fill="none" xmlns="http://www.w3.org/2000/svg">
<path fill-rule="evenodd" clip-rule="evenodd" d="M14.1179 8.26239L12.0001 4L9.88231 8.26239C9.5911 8.84852 9.03152 9.25507 8.38409 9.35091L3.67589 10.0479L7.07523 13.3792C7.54268 13.8373 7.75641 14.4951 7.6475 15.1404L6.85545 19.8336L11.0741 17.6301C11.6543 17.327 12.3459 17.327 12.9261 17.6301L17.1447 19.8336L16.3527 15.1404C16.2438 14.4951 16.4575 13.8373 16.925 13.3792L20.3243 10.0479L15.6161 9.35091C14.9687 9.25507 14.4091 8.84852 14.1179 8.26239ZM12.8957 3.55504C12.528 2.81499 11.4722 2.81499 11.1045 3.55504L8.98676 7.81743C8.84115 8.1105 8.56137 8.31377 8.23765 8.36169L3.52945 9.05868C2.71199 9.17969 2.38575 10.1837 2.97596 10.7621L6.37531 14.0934C6.60903 14.3224 6.7159 14.6514 6.66144 14.974L5.8694 19.6672C5.73188 20.482 6.58596 21.1026 7.31843 20.72L11.5371 18.5164C11.8272 18.3649 12.173 18.3649 12.4631 18.5164L16.6818 20.72C17.4142 21.1026 18.2683 20.482 18.1308 19.6672L17.3388 14.974C17.2843 14.6514 17.3912 14.3224 17.6249 14.0934L21.0242 10.7621C21.6144 10.1837 21.2882 9.17969 20.4708 9.05868L15.7625 8.36169C15.4388 8.31377 15.159 8.1105 15.0134 7.81743L12.8957 3.55504Z" fill="currentColor"></path>
</svg>