<svg width="1em" height="1em" viewBox="0 0 24 24" fill="none" xmlns="http://www.w3.org/2000/svg">
<path fill-rule="evenodd" clip-rule="evenodd" d="M12.7071 2.29289C12.3166 1.90237 11.6834 1.90237 11.2929 2.29289L8.58579 5H6C5.44772 5 5 5.44772 5 6V8.58579L2.29289 11.2929C1.90237 11.6834 1.90237 12.3166 2.29289 12.7071L5 15.4142V18C5 18.5523 5.44772 19 6 19H8.58579L11.2929 21.7071C11.6834 22.0976 12.3166 22.0976 12.7071 21.7071L15.4142 19H18C18.5523 19 19 18.5523 19 18V15.4142L21.7071 12.7071C22.0976 12.3166 22.0976 11.6834 21.7071 11.2929L19 8.58579V6C19 5.44772 18.5523 5 18 5H15.4142L12.7071 2.29289ZM9.70711 6.70711L12 4.41421L14.2929 6.70711C14.4804 6.89464 14.7348 7 15 7H17V9C17 9.26522 17.1054 9.51957 17.2929 9.70711L19.5858 12L17.2929 14.2929C17.1054 14.4804 17 14.7348 17 15V17H15C14.7348 17 14.4804 17.1054 14.2929 17.2929L12 19.5858L9.70711 17.2929C9.51957 17.1054 9.26522 17 9 17H7V15C7 14.7348 6.89464 14.4804 6.70711 14.2929L4.41421 12L6.70711 9.70711C6.89464 9.51957 7 9.26522 7 9V7H9C9.26522 7 9.51957 6.89464 9.70711 6.70711ZM12.4989 10.4706C12.4989 10.4706 12.0073 9.00096 14.2418 9.00096C14.3121 9.00096 15.6086 8.17337 16.1152 7.84233C16.127 7.83055 16.1461 7.83055 16.1578 7.84233C16.1696 7.8541 16.1696 7.87319 16.1578 7.88496C15.7942 8.24108 14.9315 9.07369 14.4525 9.44486C14.4107 9.47231 14.268 9.8419 14.0908 10.3006C13.9282 10.7219 13.7365 11.2183 13.5672 11.5941C13.2663 12.2587 12.7973 12.6499 11.5785 13.3145C11.1224 13.5636 10.7491 14.1867 10.3768 14.8082C10.0632 15.3317 9.75024 15.854 9.3891 16.1509C9.3792 16.159 9.36506 16.1592 9.35491 16.1514C9.34476 16.1437 9.34127 16.13 9.34647 16.1183L11.102 12.1609C10.9189 12.1383 10.4324 11.7044 9.88566 11.1577C9.87563 11.1502 9.88566 11.1377 9.8982 11.1377L12.3484 11.9402L12.1804 11.6593C12.1682 11.6364 12.1475 11.6193 12.1227 11.6117L9.48941 10.749C9.47419 10.744 9.46041 10.7354 9.44929 10.7239L9.1985 10.448L12.0023 11.3533L11.8518 11.0574C11.8419 11.0418 11.8268 11.0303 11.8092 11.0248L8.88753 10.0668C8.85769 10.0571 8.8309 10.0398 8.80978 10.0167L8.58156 9.76586L11.6587 10.769L11.4857 10.4781C11.4766 10.4612 11.4613 10.4486 11.443 10.443L8.28313 9.40975L8.23046 9.38968C8.21075 9.38432 8.19321 9.37292 8.18031 9.35708C8.00225 9.16147 7.8919 9.03607 7.83673 8.97087C7.83246 8.96503 7.83221 8.95718 7.83609 8.95108C7.83997 8.94498 7.84719 8.94189 7.85428 8.94328C7.98486 8.9862 8.30475 9.09179 8.71934 9.22864C10.0246 9.65948 12.2686 10.4002 12.4989 10.4706Z" fill="currentColor"></path>
</svg>