<svg width="1em" height="1em" viewBox="0 0 24 24" fill="none" xmlns="http://www.w3.org/2000/svg">
<path d="M18.5 15L21.5 12L18.5 9V5.5H15L12 2.5L9 5.5H5.5V9L2.5 12L5.5 15V18.5H9L12 21.5L15 18.5H18.5V15Z" stroke="#585858" stroke-miterlimit="10" stroke-linecap="round" stroke-linejoin="round"></path>
<path fill-rule="evenodd" clip-rule="evenodd" d="M8.33512 8.83017L8 8.28998H12.6023L12.9373 8.83017H8.33512ZM8.89204 9.81268H10.9447C11.3719 9.81268 11.3791 10.13 11.3245 10.3226C11.3218 10.3318 11.3196 10.3406 11.3178 10.3489L10.6548 12.6855C10.6257 12.7854 10.5914 12.8582 10.552 12.9039C10.5065 12.9543 10.4526 12.9965 10.3928 13.0286C10.3471 13.0579 10.3128 13.0807 10.2899 13.0972C10.2642 13.1181 10.2457 13.1465 10.2368 13.1784C10.2252 13.2039 10.2188 13.2314 10.2181 13.2594C10.2181 13.2839 10.2248 13.3079 10.2374 13.3288C10.2501 13.3497 10.2682 13.3667 10.2899 13.378C10.3377 13.4071 10.4053 13.4216 10.4926 13.4216L12.1895 13.4279C12.7842 13.4321 13.2718 13.3697 13.6523 13.2407C14.0329 13.1117 14.3396 12.9059 14.5725 12.6232C14.8054 12.3404 14.9905 11.9578 15.1278 11.4753C15.211 11.1758 15.2526 10.9118 15.2526 10.6831C15.2525 10.2215 15.0944 9.87109 14.7784 9.6319C14.4624 9.39272 13.9924 9.27315 13.3686 9.27319H12.011L12.0113 9.27249H8.55688L8.89204 9.81268ZM13.5558 9.95935C13.6473 10.0426 13.693 10.1944 13.693 10.4147C13.6929 10.6394 13.6388 10.9472 13.5308 11.338C13.4102 11.7581 13.2938 12.0773 13.1815 12.2956C13.0693 12.514 12.9476 12.6638 12.8165 12.7448C12.6854 12.8259 12.5243 12.8664 12.3331 12.8664H12.1833L13.0255 9.83464H13.1628C13.3333 9.83453 13.4643 9.87611 13.5558 9.95935ZM12.4463 14.4289C12.4463 14.4289 11.886 13.8411 10.9114 14.1426C10.4866 14.2741 10.2542 14.5003 10.041 14.7078L10.041 14.7078C9.86412 14.8799 9.70055 15.0391 9.45137 15.1204C9.46297 15.0891 9.46931 15.0553 9.46931 15.02C9.46931 14.8607 9.34019 14.7316 9.18091 14.7316C9.02163 14.7316 8.89251 14.8607 8.89251 15.02C8.89251 15.0759 8.90839 15.128 8.93588 15.1722L8.93563 15.1722C8.93563 15.1722 9.30911 15.9965 11.0152 15.5856C12.3028 15.2756 12.4463 14.4289 12.4463 14.4289ZM13.9815 14.1426C13.0069 13.8411 12.4466 14.4289 12.4466 14.4289C12.4466 14.4289 12.5902 15.2756 13.8777 15.5856C15.5838 15.9965 15.9573 15.1722 15.9573 15.1722L15.9566 15.1722C15.9841 15.128 16 15.0759 16 15.02C16 14.8607 15.8709 14.7316 15.7116 14.7316C15.5523 14.7316 15.4232 14.8607 15.4232 15.02C15.4232 15.0552 15.4295 15.089 15.4411 15.1202C15.1922 15.0389 15.0287 14.8798 14.8519 14.7078C14.6388 14.5003 14.4063 14.2741 13.9815 14.1426Z" fill="currentColor"></path>
</svg>