<svg width="1em" height="1em" viewBox="0 0 24 24" fill="none" xmlns="http://www.w3.org/2000/svg">
<path d="M5 3C4.44772 3 4 3.44772 4 4V20C4 20.5523 4.44772 21 5 21H9.5C10.0523 21 10.5 20.5523 10.5 20C10.5 19.4477 10.0523 19 9.5 19H6V5H18V9C18 9.55228 18.4477 10 19 10C19.5523 10 20 9.55228 20 9V4C20 3.44772 19.5523 3 19 3H5Z" fill="currentColor"></path>
<path d="M8 8C8 7.44772 8.44772 7 9 7H15C15.5523 7 16 7.44772 16 8C16 8.55228 15.5523 9 15 9H9C8.44772 9 8 8.55228 8 8Z" fill="currentColor"></path>
<path d="M8 11C8 10.4477 8.44772 10 9 10H13C13.5523 10 14 10.4477 14 11C14 11.5523 13.5523 12 13 12H9C8.44772 12 8 11.5523 8 11Z" fill="currentColor"></path>
<path fill-rule="evenodd" clip-rule="evenodd" d="M13 14.5C13 13.1193 14.1193 12 15.5 12C15.5 11.4477 15.9477 11 16.5 11C17.0523 11 17.5 11.4477 17.5 12H19C19.5523 12 20 12.4477 20 13C20 13.5523 19.5523 14 19 14H17.5V15C18.8807 15 20 16.1193 20 17.5C20 18.8807 18.8807 20 17.5 20C17.5 20.5523 17.0523 21 16.5 21C15.9477 21 15.5 20.5523 15.5 20H14C13.4477 20 13 19.5523 13 19C13 18.4477 13.4477 18 14 18H15.5V17C14.1193 17 13 15.8807 13 14.5ZM15.5 15V14C15.2239 14 15 14.2239 15 14.5C15 14.7761 15.2239 15 15.5 15ZM17.5 17V18C17.7761 18 18 17.7761 18 17.5C18 17.2239 17.7761 17 17.5 17Z" fill="currentColor"></path>
</svg>