<svg width="1em" height="1em" viewBox="0 0 24 24" fill="none" xmlns="http://www.w3.org/2000/svg">
<path fill-rule="evenodd" clip-rule="evenodd" d="M5.04485 3.00306C5.06319 3.00102 5.08162 3 5.10007 3H7.90007C9.04353 3 9.96585 3.78001 10.0966 4.94115C10.1916 5.69905 10.3815 6.45995 10.6682 7.22444C10.6704 7.23022 10.6725 7.23603 10.6744 7.24189C10.9255 7.99525 10.8061 8.90109 10.1536 9.55355L9.32785 10.3793C10.4133 12.1532 11.9468 13.6868 13.7207 14.7722L14.5465 13.9464C15.199 13.294 16.1048 13.1745 16.8582 13.4257C16.864 13.4276 16.8699 13.4297 16.8756 13.4318C17.6412 13.7189 18.4031 13.909 19.1621 14.0039C20.1767 14.1307 21.1171 15.0227 21.0001 16.2259V18.8C21.0001 19.9761 19.9762 21 18.8001 21H18.6001C18.5809 21 18.5618 20.9989 18.5428 20.9967C15.865 20.6877 13.2965 19.7614 10.9401 18.3271L10.9369 18.3251C8.76406 16.98 7.01388 15.1233 5.68084 13.0725C5.67522 13.0638 5.66986 13.055 5.66478 13.046C4.33683 10.6966 3.41168 8.13222 3.10312 5.35522C2.9698 4.15534 3.89653 3.13065 5.04485 3.00306ZM5.13011 4C4.49146 4.08422 4.03119 4.65242 4.09701 5.24478C4.38787 7.86254 5.25981 10.2937 6.52772 12.5405C7.79325 14.4839 9.43972 16.2218 11.4617 17.4739C13.6964 18.8339 16.1175 19.7058 18.629 20H18.8001C19.4239 20 20.0001 19.4239 20.0001 18.8V16.2C20.0001 16.1816 20.0011 16.1631 20.0031 16.1448C20.0678 15.5627 19.6152 15.0683 19.038 14.9961C18.2002 14.8914 17.3652 14.6827 16.5339 14.3717C16.0894 14.2264 15.5991 14.3081 15.2536 14.6536L14.1536 15.7536C13.9942 15.913 13.7478 15.946 13.552 15.8341C11.3745 14.5898 9.51024 12.7256 8.26594 10.5481C8.15408 10.3523 8.18708 10.1059 8.34651 9.94645L9.44651 8.84645C9.79197 8.50099 9.87363 8.01067 9.72838 7.56615C9.41741 6.73481 9.20866 5.89991 9.10393 5.06202L9.10308 5.05522C9.03232 4.41837 8.55541 4 7.90007 4H5.13011Z" fill="currentColor"></path>
</svg>