<svg width="1em" height="1em" viewBox="0 0 24 24" fill="none" xmlns="http://www.w3.org/2000/svg">
<path fill-rule="evenodd" clip-rule="evenodd" d="M13.9371 4.5C13.7151 3.63739 12.932 3 12.0001 3C11.0682 3 10.2852 3.63739 10.0631 4.5H5.00012C4.87158 4.5 4.75437 4.54851 4.66579 4.62821C4.63805 4.65315 4.61304 4.68122 4.59135 4.71199C4.55545 4.76285 4.5288 4.82072 4.51386 4.88313L2.01948 14.3617C2.01257 14.3858 2.00741 14.4107 2.00417 14.4361C2.00088 14.4613 1.99957 14.4865 2.00012 14.5113V15.5C2.00012 15.9136 2.14018 16.2972 2.42157 16.5786C2.70296 16.8599 3.0865 17 3.50012 17H6.50012C6.91375 17 7.29729 16.8599 7.57868 16.5786C7.86006 16.2972 8.00012 15.9136 8.00012 15.5V14.5114C8.00068 14.4864 7.99935 14.4612 7.99604 14.4358C7.9928 14.4105 7.98766 14.3858 7.98077 14.3618L5.64872 5.5H10.0631C10.244 6.2028 10.7973 6.7561 11.5001 6.93699V20H7.50012C7.22398 20 7.00012 20.2239 7.00012 20.5C7.00012 20.7761 7.22398 21 7.50012 21H16.5001C16.7763 21 17.0001 20.7761 17.0001 20.5C17.0001 20.2239 16.7763 20 16.5001 20H12.5001V6.93699C13.2029 6.7561 13.7562 6.2028 13.9371 5.5H18.3515L16.0195 14.3617C16.0126 14.3858 16.0074 14.4105 16.0042 14.4358C16.0009 14.4612 15.9996 14.4864 16.0001 14.5113V15.5C16.0001 15.9136 16.1402 16.2972 16.4216 16.5786C16.703 16.8599 17.0865 17 17.5001 17H20.5001C20.9137 17 21.2973 16.8599 21.5787 16.5786C21.8601 16.2972 22.0001 15.9136 22.0001 15.5V14.5114C22.0007 14.4864 21.9994 14.4612 21.996 14.4358C21.9928 14.4105 21.9877 14.3858 21.9808 14.3618L19.4864 4.88309C19.4714 4.82069 19.4448 4.76284 19.4089 4.71199C19.3872 4.68122 19.3622 4.65315 19.3345 4.62821C19.2459 4.54851 19.1287 4.5 19.0001 4.5H13.9371ZM12.0001 4C11.4478 4 11.0001 4.44772 11.0001 5C11.0001 5.55228 11.4478 6 12.0001 6C12.5524 6 13.0001 5.55228 13.0001 5C13.0001 4.44772 12.5524 4 12.0001 4ZM20.8515 14L19.0001 6.96469L17.1487 14H20.8515ZM6.85152 14L5.00012 6.96469L3.14872 14H6.85152ZM3.00012 15V15.5C3.00012 15.6864 3.06007 15.8028 3.12868 15.8714C3.19729 15.9401 3.31375 16 3.50012 16H6.50012C6.6865 16 6.80296 15.9401 6.87157 15.8714C6.94018 15.8028 7.00012 15.6864 7.00012 15.5V15H3.00012ZM17.0001 15V15.5C17.0001 15.6864 17.0601 15.8028 17.1287 15.8714C17.1973 15.9401 17.3137 16 17.5001 16H20.5001C20.6865 16 20.803 15.9401 20.8716 15.8714C20.9402 15.8028 21.0001 15.6864 21.0001 15.5V15H17.0001Z" fill="currentColor"></path>
</svg>