<svg width="1em" height="1em" viewBox="0 0 24 24" fill="none" xmlns="http://www.w3.org/2000/svg">
<path d="M16.7459 9.86602C17.1138 9.45405 17.078 8.8219 16.666 8.45407C16.254 8.08624 15.6219 8.12202 15.2541 8.53399L10.9588 13.3446L8.70711 11.0929C8.31658 10.7024 7.68342 10.7024 7.29289 11.0929C6.90237 11.4834 6.90237 12.1166 7.29289 12.5071L10.2929 15.5071C10.4874 15.7016 10.7534 15.8074 11.0283 15.7996C11.3032 15.7918 11.5628 15.6712 11.7459 15.466L16.7459 9.86602Z" fill="currentColor"></path>
<path fill-rule="evenodd" clip-rule="evenodd" d="M12 2C6.47715 2 2 6.47715 2 12C2 17.5228 6.47715 22 12 22C17.5228 22 22 17.5228 22 12C22 6.47715 17.5228 2 12 2ZM4 12C4 7.58172 7.58172 4 12 4C16.4183 4 20 7.58172 20 12C20 16.4183 16.4183 20 12 20C7.58172 20 4 16.4183 4 12Z" fill="currentColor"></path>
</svg>