<svg width="1em" height="1em" viewBox="0 0 24 24" fill="none" xmlns="http://www.w3.org/2000/svg">
<path d="M16.373 9.53301C16.5569 9.32702 16.539 9.01095 16.333 8.82703C16.127 8.64312 15.8109 8.66101 15.627 8.86699L10.9794 14.0723L8.35355 11.4464C8.15829 11.2512 7.84171 11.2512 7.64645 11.4464C7.45118 11.6417 7.45118 11.9583 7.64645 12.1536L10.6464 15.1536C10.7437 15.2508 10.8767 15.3037 11.0141 15.2998C11.1516 15.2959 11.2814 15.2356 11.373 15.133L16.373 9.53301Z" fill="currentColor"></path>
<path fill-rule="evenodd" clip-rule="evenodd" d="M12 2C6.47715 2 2 6.47715 2 12C2 17.5228 6.47715 22 12 22C17.5228 22 22 17.5228 22 12C22 6.47715 17.5228 2 12 2ZM3 12C3 7.02944 7.02944 3 12 3C16.9706 3 21 7.02944 21 12C21 16.9706 16.9706 21 12 21C7.02944 21 3 16.9706 3 12Z" fill="currentColor"></path>
</svg>