<svg width="1em" height="1em" viewBox="0 0 24 24" fill="none" xmlns="http://www.w3.org/2000/svg">
<path fill-rule="evenodd" clip-rule="evenodd" d="M3 12C3 7.02944 7.02944 3 12 3C16.9706 3 21 7.02944 21 12C21 16.9706 16.9706 21 12 21C7.02944 21 3 16.9706 3 12ZM12 2C6.47715 2 2 6.47715 2 12C2 17.5228 6.47715 22 12 22C17.5228 22 22 17.5228 22 12C22 6.47715 17.5228 2 12 2ZM16.8536 7.85355C17.0488 7.65829 17.0488 7.34171 16.8536 7.14645C16.6583 6.95118 16.3417 6.95118 16.1464 7.14645L12 11.2929L8.85355 8.14645C8.65829 7.95118 8.34171 7.95118 8.14645 8.14645C7.95118 8.34171 7.95118 8.65829 8.14645 8.85355L11.6464 12.3536C11.8417 12.5488 12.1583 12.5488 12.3536 12.3536L16.8536 7.85355Z" fill="currentColor"></path>
</svg>