<svg width="1em" height="1em" viewBox="0 0 24 24" fill="none" xmlns="http://www.w3.org/2000/svg">
<path d="M6.70711 14.7071L11 10.4142L11 20C11 20.5523 11.4477 21 12 21C12.5523 21 13 20.5523 13 20V10.4142L17.2929 14.7071C17.6834 15.0976 18.3166 15.0976 18.7071 14.7071C19.0976 14.3166 19.0976 13.6834 18.7071 13.2929L12.7071 7.29289C12.5196 7.10536 12.2652 7 12 7C11.7348 7 11.4804 7.10536 11.2929 7.29289L5.29289 13.2929C4.90237 13.6834 4.90237 14.3166 5.29289 14.7071C5.68342 15.0976 6.31658 15.0976 6.70711 14.7071Z" fill="currentColor"></path>
<path d="M5 3C4.44772 3 4 3.44772 4 4C4 4.55228 4.44772 5 5 5H19C19.5523 5 20 4.55228 20 4C20 3.44772 19.5523 3 19 3H5Z" fill="currentColor"></path>
</svg>