<svg width="1em" height="1em" viewBox="0 0 24 24" fill="none" xmlns="http://www.w3.org/2000/svg">
<path d="M12.5 9.20711L12.5 20.5C12.5 20.7761 12.2761 21 12 21C11.7239 21 11.5 20.7761 11.5 20.5L11.5 9.20711L6.35355 14.3536C6.15829 14.5488 5.84171 14.5488 5.64645 14.3536C5.45118 14.1583 5.45118 13.8417 5.64645 13.6464L11.6464 7.64645C11.7402 7.55268 11.8674 7.5 12 7.5C12.1326 7.5 12.2598 7.55268 12.3536 7.64645L18.3536 13.6464C18.5488 13.8417 18.5488 14.1583 18.3536 14.3536C18.1583 14.5488 17.8417 14.5488 17.6464 14.3536L12.5 9.20711Z" fill="currentColor"></path>
<path d="M4 4.5C4 4.22386 4.22386 4 4.5 4H19.5C19.7761 4 20 4.22386 20 4.5C20 4.77614 19.7761 5 19.5 5H4.5C4.22386 5 4 4.77614 4 4.5Z" fill="currentColor"></path>
</svg>