<svg width="1em" height="1em" viewBox="0 0 24 24" fill="none" xmlns="http://www.w3.org/2000/svg">
<path d="M13.115 18.0821C13.115 18.0821 11.7143 16.6126 9.27781 17.3664C6.84132 18.1203 6.93571 20.1219 4.33838 19.9402C4.33838 19.9402 5.27207 22.0009 9.5372 20.9738C12.7561 20.1987 13.115 18.0821 13.115 18.0821Z" fill="currentColor"></path>
<path d="M4.95098 20.2805C5.34918 20.2805 5.67198 19.9577 5.67198 19.5595C5.67198 19.1613 5.34918 18.8385 4.95098 18.8385C4.55278 18.8385 4.22998 19.1613 4.22998 19.5595C4.22998 19.9577 4.55278 20.2805 4.95098 20.2805Z" fill="currentColor"></path>
<path d="M13.1147 18.0821C13.1147 18.0821 14.5155 16.6126 16.9519 17.3664C19.3884 18.1203 19.294 20.1219 21.8914 19.9402C21.8914 19.9402 20.9577 22.0009 16.6926 20.9738C13.4737 20.1987 13.1147 18.0821 13.1147 18.0821Z" fill="currentColor"></path>
<path d="M21.2791 20.2805C21.6773 20.2805 22.0001 19.9577 22.0001 19.5595C22.0001 19.1613 21.6773 18.8385 21.2791 18.8385C20.8809 18.8385 20.5581 19.1613 20.5581 19.5595C20.5581 19.9577 20.8809 20.2805 21.2791 20.2805Z" fill="currentColor"></path>
<path d="M18.944 6.08932C19.734 6.68729 20.1291 7.56325 20.1294 8.71718C20.1294 9.28897 20.0254 9.94916 19.8173 10.6978C19.4742 11.9041 19.0116 12.8606 18.4293 13.5674C17.847 14.2742 17.0802 14.7888 16.1289 15.1113C15.1776 15.4337 13.9586 15.5897 12.4717 15.5793L8.22968 15.5636C8.01138 15.5636 7.84245 15.5272 7.72287 15.4544C7.66867 15.4262 7.62326 15.3837 7.59162 15.3314C7.55998 15.2791 7.54331 15.2192 7.54346 15.1581C7.54521 15.0881 7.56111 15.0191 7.5902 14.9554C7.61226 14.8757 7.65864 14.8048 7.72287 14.7526C7.78016 14.7113 7.86588 14.6541 7.98005 14.5811C8.12964 14.5008 8.26426 14.3953 8.37796 14.2692C8.47655 14.155 8.56229 13.973 8.63519 13.7233L10.5379 7.01726C10.578 6.89115 10.5991 6.75974 10.6003 6.62741C10.6032 6.52842 10.5846 6.42998 10.5457 6.3389C10.509 6.26103 10.4596 6.17006 10.3974 6.066C10.304 5.93101 10.2573 5.82187 10.2573 5.73856C10.2617 5.68046 10.2721 5.62297 10.2884 5.567C10.3082 5.50098 10.3433 5.44051 10.3907 5.39042C10.438 5.34033 10.4965 5.302 10.5613 5.27849C10.7018 5.22134 10.9175 5.1927 11.2086 5.19257H15.4195C16.9791 5.19247 18.1539 5.49138 18.944 6.08932ZM16.2306 8.04643C16.2306 7.49557 16.1163 7.11608 15.8875 6.90796C15.6588 6.69984 15.3313 6.59591 14.905 6.59618H14.5619L12.4563 14.1755H12.8307C13.3087 14.1755 13.7116 14.0742 14.0393 13.8716C14.3671 13.6689 14.6712 13.2946 14.9517 12.7486C15.2324 12.2028 15.5236 11.4048 15.8251 10.3547C16.0951 9.37758 16.2303 8.60817 16.2306 8.04643Z" fill="currentColor"></path>
<path d="M4.22999 6.54144H9.3616C10.4297 6.54144 10.4476 7.3347 10.3109 7.81619C10.1698 8.31378 10.5099 8.28461 10.609 8.12401C10.9565 7.56076 12.028 5.19098 12.028 5.19098H3.39209L4.22999 6.54144Z" fill="currentColor"></path>
<path d="M2 2.73499L2.8378 4.08545H14.3431L13.5055 2.73499H2Z" fill="currentColor"></path>
</svg>