<svg width="1em" height="1em" viewBox="0 0 24 24" fill="none" xmlns="http://www.w3.org/2000/svg">
<path d="M12 4C12.145 4 12.2829 4.06295 12.3779 4.17253L18.8779 11.6725C19.0587 11.8812 19.0362 12.197 18.8275 12.3778C18.6188 12.5587 18.303 12.5361 18.1222 12.3275L12 5.26344L5.87785 12.3275C5.697 12.5361 5.38122 12.5587 5.17254 12.3778C4.96386 12.197 4.94131 11.8812 5.12216 11.6725L11.6222 4.17253C11.7171 4.06295 11.855 4 12 4Z" fill="currentColor"></path>
<path fill-rule="evenodd" clip-rule="evenodd" d="M12 4C12.2762 4 12.5 4.22386 12.5 4.5V19.5C12.5 19.7761 12.2761 20 12 20C11.7239 20 11.5 19.7761 11.5 19.5V4.5C11.5 4.22386 11.7239 4 12 4Z" fill="currentColor"></path>
</svg>