<svg width="1em" height="1em" viewBox="0 0 24 24" fill="none" xmlns="http://www.w3.org/2000/svg">
<path fill-rule="evenodd" clip-rule="evenodd" d="M11.2929 4.29289C11.3888 4.19702 11.4993 4.12468 11.6172 4.07588C11.7351 4.02699 11.8644 4 12 4C12.2762 4 12.5262 4.11196 12.7072 4.29296L17.7071 9.29289C18.0976 9.68342 18.0976 10.3166 17.7071 10.7071C17.3166 11.0976 16.6834 11.0976 16.2929 10.7071L13 7.41421V15C13 15.5523 12.5523 16 12 16C11.4477 16 11 15.5523 11 15V7.41421L7.70711 10.7071C7.31658 11.0976 6.68342 11.0976 6.29289 10.7071C5.90237 10.3166 5.90237 9.68342 6.29289 9.29289L11.2929 4.29289ZM5 18C4.44772 18 4 18.4477 4 19C4 19.5523 4.44772 20 5 20H19C19.5523 20 20 19.5523 20 19C20 18.4477 19.5523 18 19 18H5Z" fill="currentColor"></path>
</svg>