<svg width="1em" height="1em" viewBox="0 0 24 24" fill="none" xmlns="http://www.w3.org/2000/svg">
<path fill-rule="evenodd" clip-rule="evenodd" d="M7 4C6.75558 4 6.54699 4.17671 6.50681 4.4178L5.77196 8.82689L5.22372 8.55277C4.97673 8.42928 4.67639 8.52939 4.5529 8.77638C4.4294 9.02337 4.52951 9.32371 4.7765 9.4472L5.59995 9.85893L5.53315 10.2597L3.64645 12.1464C3.55268 12.2402 3.5 12.3674 3.5 12.5V18C3.5 18.2761 3.72386 18.5 4 18.5H5V19C5 19.5523 5.44772 20 6 20C6.55228 20 7 19.5523 7 19V18.5H17V19C17 19.5523 17.4477 20 18 20C18.5523 20 19 19.5523 19 19V18.5H20C20.2761 18.5 20.5 18.2761 20.5 18V12.5C20.5 12.3674 20.4473 12.2402 20.3536 12.1464L18.4669 10.2598L18.4001 9.85902L19.2237 9.4472C19.4707 9.32371 19.5708 9.02337 19.4473 8.77638C19.3238 8.52939 19.0235 8.42928 18.7765 8.55277L18.2281 8.82699L17.4932 4.4178C17.453 4.17671 17.2444 4 17 4H7ZM17.4098 10L16.5764 5H7.42357L6.59023 10H17.4098ZM17.7929 11H6.20711L4.5 12.7071V17.5H6H18H19.5V12.7071L17.7929 11ZM6.5 13.5C6.22386 13.5 6 13.7239 6 14C6 14.2761 6.22386 14.5 6.5 14.5H8.5C8.77614 14.5 9 14.2761 9 14C9 13.7239 8.77614 13.5 8.5 13.5H6.5ZM15 14C15 13.7239 15.2239 13.5 15.5 13.5H17.5C17.7761 13.5 18 13.7239 18 14C18 14.2761 17.7761 14.5 17.5 14.5H15.5C15.2239 14.5 15 14.2761 15 14Z" fill="currentColor"></path>
</svg>