<svg width="1em" height="1em" viewBox="0 0 24 24" fill="none" xmlns="http://www.w3.org/2000/svg">
<path fill-rule="evenodd" clip-rule="evenodd" d="M7.83459 4C7.36621 4 6.91269 4.16438 6.5531 4.46449C6.1935 4.7646 5.95064 5.1814 5.86685 5.64222L5.86685 5.64222L5.42126 8.09293C4.93243 7.86569 4.34844 8.06747 4.10579 8.55276C3.8588 9.04674 4.05903 9.64741 4.55301 9.8944L4.97859 10.1072L3.29289 11.7929C3.10536 11.9804 3 12.2348 3 12.5V17.5C3 18.0523 3.44772 18.5 4 18.5H4.5C4.5 19.3284 5.17157 20 6 20C6.82843 20 7.5 19.3284 7.5 18.5H16.5C16.5 19.3284 17.1716 20 18 20C18.8284 20 19.5 19.3284 19.5 18.5H20C20.5523 18.5 21 18.0523 21 17.5V12.5C21 12.2348 20.8946 11.9804 20.7071 11.7929L19.0216 10.1073L19.4474 9.8944C19.9414 9.64741 20.1416 9.04674 19.8946 8.55276C19.6519 8.06734 19.0677 7.86559 18.5788 8.09311L18.1332 5.64222C18.0494 5.1814 17.8065 4.7646 17.4469 4.46449C17.0873 4.16438 16.6338 4 16.1654 4H7.83459ZM17.5858 11.5H6.41421L5 12.9142V16.5H6H18H19V12.9142L17.5858 11.5ZM16.8018 9.5L16.1654 6H7.83459L7.19822 9.5H16.8018ZM7.5 13C6.94772 13 6.5 13.4477 6.5 14C6.5 14.5523 6.94772 15 7.5 15H8.5C9.05228 15 9.5 14.5523 9.5 14C9.5 13.4477 9.05228 13 8.5 13H7.5ZM14.5 14C14.5 13.4477 14.9477 13 15.5 13H16.5C17.0523 13 17.5 13.4477 17.5 14C17.5 14.5523 17.0523 15 16.5 15H15.5C14.9477 15 14.5 14.5523 14.5 14Z" fill="currentColor"></path>
</svg>