<svg width="1em" height="1em" viewBox="0 0 24 24" fill="none" xmlns="http://www.w3.org/2000/svg">
<path fill-rule="evenodd" clip-rule="evenodd" d="M4 20H20C21.1046 20 22 19.1046 22 18V6C22 4.89543 21.1046 4 20 4H4C2.89543 4 2 4.89543 2 6V18C2 19.1046 2.89543 20 4 20ZM9.75365 15.4351C9.91041 15.5239 10.1028 15.5214 10.2572 15.4287L15.2572 12.4287C15.4079 12.3384 15.5 12.1756 15.5 12C15.5 11.8244 15.4079 11.6616 15.2572 11.5713L10.2572 8.57125C10.1028 8.47857 9.91041 8.47615 9.75365 8.5649C9.5969 8.65365 9.5 8.81986 9.5 9V15C9.5 15.1801 9.5969 15.3463 9.75365 15.4351Z" fill="currentColor"></path>
</svg>