<svg width="1em" height="1em" viewBox="0 0 24 24" fill="none" xmlns="http://www.w3.org/2000/svg">
<rect y="4" width="24" height="16" rx="2" fill="#2566AF"></rect>
<path d="M10.6564 15.1674H9.00832L10.0384 8.83699H11.6867L10.6564 15.1674ZM7.62182 8.83699L6.05058 13.1911L5.86465 12.2535L5.31025 9.40697C5.31025 9.40697 5.2432 8.83699 4.52844 8.83699H1.93087L1.90039 8.94418C1.90039 8.94418 2.69473 9.10945 3.62437 9.66774L5.05625 15.1675H6.77346L9.39558 8.83699H7.62182ZM20.5851 15.1674H22.0984L20.779 8.83682H19.4541C18.8423 8.83682 18.6933 9.30859 18.6933 9.30859L16.2353 15.1674H17.9533L18.2969 14.2271H20.3921L20.5851 15.1674ZM18.7716 12.9281L19.6375 10.5591L20.1247 12.9281H18.7716ZM16.3642 10.3593L16.5994 8.99989C16.5994 8.99989 15.8736 8.72388 15.117 8.72388C14.2991 8.72388 12.3569 9.08134 12.3569 10.8196C12.3569 12.455 14.6364 12.4753 14.6364 13.3343C14.6364 14.1934 12.5917 14.0394 11.917 13.4977L11.6719 14.9191C11.6719 14.9191 12.4079 15.2766 13.5322 15.2766C14.6569 15.2766 16.3537 14.6942 16.3537 13.1093C16.3537 11.4634 14.0536 11.3101 14.0536 10.5945C14.0538 9.87873 15.6589 9.97068 16.3642 10.3593Z" fill="white"></path>
<path d="M5.86486 12.2537L5.31029 9.40688C5.31029 9.40688 5.24323 8.83691 4.52847 8.83691H1.93087L1.90039 8.9441C1.90039 8.9441 3.1489 9.20284 4.34643 10.1723C5.49148 11.0988 5.86486 12.2537 5.86486 12.2537Z" fill="#E6A540"></path>
</svg>