<svg width="1em" height="1em" viewBox="0 0 24 24" fill="none" xmlns="http://www.w3.org/2000/svg">
<path fill-rule="evenodd" clip-rule="evenodd" d="M9.77772 8.67412C10.4355 8.2346 11.2089 8 12 8C13.0609 8 14.0783 8.42143 14.8284 9.17157C15.5786 9.92172 16 10.9391 16 12C16 12.7911 15.7654 13.5645 15.3259 14.2223C14.8864 14.8801 14.2616 15.3928 13.5307 15.6955C12.7998 15.9983 11.9956 16.0775 11.2196 15.9231C10.4437 15.7688 9.73098 15.3878 9.17157 14.8284C8.61216 14.269 8.2312 13.5563 8.07686 12.7804C7.92252 12.0044 8.00173 11.2002 8.30448 10.4693C8.60723 9.73836 9.11993 9.11365 9.77772 8.67412ZM10.3333 14.4944C10.8266 14.8241 11.4067 15 12 15C12.7957 15 13.5587 14.6839 14.1213 14.1213C14.6839 13.5587 15 12.7956 15 12C15 11.4067 14.8241 10.8266 14.4944 10.3333C14.1648 9.83994 13.6962 9.45542 13.1481 9.22836C12.5999 9.0013 11.9967 8.94189 11.4147 9.05764C10.8328 9.1734 10.2982 9.45912 9.87868 9.87868C9.45912 10.2982 9.1734 10.8328 9.05765 11.4147C8.94189 11.9967 9.0013 12.5999 9.22836 13.1481C9.45543 13.6962 9.83994 14.1648 10.3333 14.4944Z" fill="currentColor"></path>
<path fill-rule="evenodd" clip-rule="evenodd" d="M21.947 11.7759C22.0174 11.9167 22.0176 12.0828 21.9472 12.2236L21.5 12C21.9472 12.2236 21.9468 12.2244 21.9467 12.2246L21.9459 12.2262L21.9435 12.231L21.9353 12.247C21.9283 12.2605 21.9183 12.2795 21.9054 12.3036C21.8795 12.352 21.8415 12.421 21.7914 12.5078C21.6912 12.6814 21.5421 12.9263 21.343 13.2188C20.9454 13.8031 20.3455 14.5814 19.5338 15.3607C17.91 16.9195 15.4173 18.5 12 18.5C8.58267 18.5 6.09002 16.9195 4.46623 15.3607C3.65451 14.5814 3.05458 13.8031 2.65696 13.2188C2.45789 12.9263 2.3088 12.6814 2.20859 12.5078C2.15847 12.421 2.12052 12.352 2.09461 12.3036C2.08165 12.2795 2.0717 12.2605 2.06474 12.247L2.05653 12.231L2.0541 12.2262L2.0533 12.2246L2.05279 12.2236L2.5 12C2.05279 11.7764 2.05319 11.7756 2.0533 11.7754L2.0541 11.7738L2.05653 11.769L2.06474 11.753C2.0717 11.7395 2.08165 11.7205 2.09461 11.6964C2.12052 11.648 2.15847 11.579 2.20859 11.4922C2.3088 11.3186 2.45789 11.0737 2.65696 10.7812C3.05458 10.1969 3.65451 9.41857 4.46623 8.63931C6.09002 7.08047 8.58267 5.5 12 5.5C15.4173 5.5 17.91 7.08047 19.5338 8.63931C20.3455 9.41857 20.9454 10.1969 21.343 10.7812C21.5421 11.0737 21.6912 11.3186 21.7914 11.4922C21.8415 11.579 21.8795 11.648 21.9054 11.6964C21.9183 11.7205 21.9283 11.7395 21.9353 11.753L21.9435 11.769L21.9459 11.7738L21.947 11.7759ZM3.48367 12.6562C3.29992 12.3862 3.16385 12.1624 3.07461 12.0078L3.07011 12L3.07461 11.9922C3.16385 11.8376 3.29992 11.6138 3.48367 11.3438C3.85167 10.8031 4.40799 10.0814 5.15877 9.36069C6.65998 7.91953 8.91733 6.5 12 6.5C15.0827 6.5 17.34 7.91953 18.8412 9.36069C19.592 10.0814 20.1483 10.8031 20.5163 11.3438C20.7001 11.6138 20.8361 11.8376 20.9254 11.9922L20.9299 12L20.9254 12.0078C20.8361 12.1624 20.7001 12.3862 20.5163 12.6562C20.1483 13.1969 19.592 13.9186 18.8412 14.6393C17.34 16.0805 15.0827 17.5 12 17.5C8.91733 17.5 6.65998 16.0805 5.15877 14.6393C4.40799 13.9186 3.85167 13.1969 3.48367 12.6562ZM21.5 12C21.9472 11.7764 21.9471 11.7762 21.947 11.7759L21.5 12ZM2.5 12C2.05641 12.2218 2.0527 12.2234 2.05279 12.2236C1.9824 12.0828 1.9824 11.9172 2.05279 11.7764L2.5 12Z" fill="currentColor"></path>
</svg>