<svg width="1em" height="1em" viewBox="0 0 24 24" fill="none" xmlns="http://www.w3.org/2000/svg">
<path fill-rule="evenodd" clip-rule="evenodd" d="M9 6C9 4.32386 10.3239 3 12 3C13.6761 3 15 4.32386 15 6V12C15 13.6761 13.6761 15 12 15C10.3239 15 9 13.6761 9 12V6ZM12 4C10.8761 4 10 4.87614 10 6V12C10 13.1239 10.8761 14 12 14C13.1239 14 14 13.1239 14 12V6C14 4.87614 13.1239 4 12 4Z" fill="currentColor"></path>
<path d="M11.5 17.9787V20.5C11.5 20.7761 11.7239 21 12 21C12.2761 21 12.5 20.7761 12.5 20.5V17.9787C15.5487 17.7188 18 15.1079 18 12C18 11.7239 17.7761 11.5 17.5 11.5C17.2239 11.5 17 11.7239 17 12C17 14.7239 14.7239 17 12 17C9.27614 17 7 14.7239 7 12C7 11.7239 6.77614 11.5 6.5 11.5C6.22386 11.5 6 11.7239 6 12C6 15.1079 8.45131 17.7188 11.5 17.9787Z" fill="currentColor"></path>
</svg>