<svg width="1em" height="1em" viewBox="0 0 24 24" fill="none" xmlns="http://www.w3.org/2000/svg">
<path fill-rule="evenodd" clip-rule="evenodd" d="M8 7C8 4.74772 9.74771 3 12 3C14.2523 3 16 4.74772 16 7V11C16 13.2523 14.2523 15 12 15C9.74771 15 8 13.2523 8 11V7ZM12 5C10.8523 5 10 5.85228 10 7V11C10 12.1477 10.8523 13 12 13C13.1477 13 14 12.1477 14 11V7C14 5.85228 13.1477 5 12 5Z" fill="currentColor"></path>
<path d="M13 18.9284C16.3824 18.44 19 15.5129 19 12C19 11.4477 18.5523 11 18 11C17.4477 11 17 11.4477 17 12C17 14.7477 14.7477 17 12 17C9.25229 17 7 14.7477 7 12C7 11.4477 6.55228 11 6 11C5.44772 11 5 11.4477 5 12C5 15.5129 7.61756 18.44 11 18.9284V20C11 20.5523 11.4477 21 12 21C12.5523 21 13 20.5523 13 20V18.9284Z" fill="currentColor"></path>
</svg>