<svg width="1em" height="1em" viewBox="0 0 24 24" fill="none" xmlns="http://www.w3.org/2000/svg">
<path fill-rule="evenodd" clip-rule="evenodd" d="M7 4H5.5C5.22386 4 5 3.77614 5 3.5C5 3.22386 5.22386 3 5.5 3H18.5C18.7761 3 19 3.22386 19 3.5C19 3.77614 18.7761 4 18.5 4H17V7.8C17 9.62381 15.6738 10.8043 14.5037 11.4933C14.1595 11.696 13.8167 11.8639 13.5035 12C13.8167 12.1361 14.1595 12.304 14.5037 12.5067C15.6738 13.1957 17 14.3762 17 16.2V20H18.5C18.7761 20 19 20.2239 19 20.5C19 20.7761 18.7761 21 18.5 21H5.5C5.22386 21 5 20.7761 5 20.5C5 20.2239 5.22386 20 5.5 20H7V16.3C7 14.4799 8.32174 13.2744 9.48927 12.5609C9.85964 12.3345 10.2285 12.1487 10.5604 12C10.2285 11.8513 9.85964 11.6655 9.48927 11.4391C8.32174 10.7256 7 9.52009 7 7.7V4ZM16 4L8 4.00044V7.39997C9.95994 8.90258 11.4931 8.44184 13.157 7.94178C14.0401 7.67641 14.9599 7.39997 16 7.39997V4ZM11 16.6C10.1476 16.2212 8.21883 16.0217 8.01714 16.0017C8.14826 14.872 9.01413 14.0232 10.0107 13.4141C10.5394 13.091 11.0722 12.8568 11.4751 12.7031C11.6757 12.6266 11.8422 12.5707 11.9572 12.5344L12.0053 12.5194L12.0525 12.5331C12.1674 12.5668 12.3336 12.6189 12.5341 12.6909C12.9366 12.8355 13.4686 13.0576 13.9963 13.3683C15.0207 13.9716 15.9046 14.83 15.9928 16.006C15.8596 16.1149 13.8956 17.6617 11 16.6Z" fill="currentColor"></path>
</svg>