<svg width="1em" height="1em" viewBox="0 0 24 24" fill="none" xmlns="http://www.w3.org/2000/svg">
<path fill-rule="evenodd" clip-rule="evenodd" d="M3.80546 3.80546C4.32118 3.28973 5.02065 3 5.75 3H16C16.7956 3 17.5587 3.31607 18.1213 3.87868C18.6839 4.44129 19 5.20435 19 6V6.67157C19.4179 6.81933 19.8019 7.05928 20.1213 7.37868C20.6839 7.94129 21 8.70435 21 9.5V10.7679C21.1501 10.8546 21.2895 10.9611 21.4142 11.0858C21.7893 11.4609 22 11.9696 22 12.5C22 13.0523 21.5523 13.5 21 13.5C20.4477 13.5 20 13.0523 20 12.5H17C17 13.0523 16.5523 13.5 16 13.5C15.4477 13.5 15 13.0523 15 12.5C15 11.9696 15.2107 11.4609 15.5858 11.0858C15.9609 10.7107 16.4696 10.5 17 10.5H19V9.5C19 9.23478 18.8946 8.98043 18.7071 8.79289C18.5196 8.60536 18.2652 8.5 18 8.5H5.75C5.49411 8.5 5.24189 8.46433 5 8.39576V18C5 18.2652 5.10536 18.5196 5.29289 18.7071C5.48043 18.8946 5.73478 19 6 19H14C14.5523 19 15 19.4477 15 20C15 20.5523 14.5523 21 14 21H6C5.20435 21 4.44129 20.6839 3.87868 20.1213C3.31607 19.5587 3 18.7956 3 18V6C3 5.96815 3.00149 5.93666 3.0044 5.90557C3.00147 5.8539 3 5.80203 3 5.75C3 5.02065 3.28973 4.32118 3.80546 3.80546ZM17 6V6.5H5.75C5.55109 6.5 5.36032 6.42098 5.21967 6.28033C5.07902 6.13968 5 5.94891 5 5.75C5 5.55109 5.07902 5.36032 5.21967 5.21967C5.36032 5.07902 5.55109 5 5.75 5H16C16.2652 5 16.5196 5.10536 16.7071 5.29289C16.8946 5.48043 17 5.73478 17 6Z" fill="currentColor"></path>
<path d="M19 18V19C19 19.5523 18.5523 20 18 20C17.4477 20 17 19.5523 17 19V18H16C15.4477 18 15 17.5523 15 17C15 16.4477 15.4477 16 16 16H17V15C17 14.4477 17.4477 14 18 14C18.5523 14 19 14.4477 19 15V16H20C20.5523 16 21 16.4477 21 17C21 17.5523 20.5523 18 20 18H19Z" fill="currentColor"></path>
</svg>