<svg width="1em" height="1em" viewBox="0 0 24 24" fill="none" xmlns="http://www.w3.org/2000/svg">
<path fill-rule="evenodd" clip-rule="evenodd" d="M5 4C3.92386 4 3 4.92386 3 6V17.5C3 18.8761 4.12386 20 5.5 20H18.5C19.8761 20 21 18.8761 21 17.5V15.4258C21.2178 15.3574 21.4154 15.2417 21.5786 15.0786C21.8599 14.7972 22 14.4136 22 14V13C22 12.5864 21.8599 12.2028 21.5786 11.9214C21.4154 11.7583 21.2178 11.6426 21 11.5742V9.5C21 8.12386 19.8761 7 18.5 7V6.5C18.5 5.12386 17.3761 4 16 4H5ZM20 11.5V9.5C20 8.67614 19.3239 8 18.5 8H5C4.64 8 4.29703 7.89661 4 7.71871V17.5C4 18.3239 4.67614 19 5.5 19H18.5C19.3239 19 20 18.3239 20 17.5V15.5H17.5C17.0864 15.5 16.7028 15.3599 16.4214 15.0786C16.1401 14.7972 16 14.4136 16 14V13C16 12.5864 16.1401 12.2028 16.4214 11.9214C16.7028 11.6401 17.0864 11.5 17.5 11.5H20ZM17.5 7V6.5C17.5 5.67614 16.8239 5 16 5H5C4.47614 5 4 5.47614 4 6C4 6.52386 4.47614 7 5 7H17.5ZM17 13C17 12.8136 17.0599 12.6972 17.1286 12.6286C17.1972 12.5599 17.3136 12.5 17.5 12.5H20.5C20.6864 12.5 20.8028 12.5599 20.8714 12.6286C20.9401 12.6972 21 12.8136 21 13V14C21 14.1864 20.9401 14.3028 20.8714 14.3714C20.8028 14.4401 20.6864 14.5 20.5 14.5H17.5C17.3136 14.5 17.1972 14.4401 17.1286 14.3714C17.0599 14.3028 17 14.1864 17 14V13Z" fill="currentColor"></path>
</svg>