<svg width="1em" height="1em" viewBox="0 0 24 24" fill="none" xmlns="http://www.w3.org/2000/svg">
<path fill-rule="evenodd" clip-rule="evenodd" d="M3.58579 4.58579C3.96086 4.21071 4.46957 4 5 4H16C16.663 4 17.2989 4.26339 17.7678 4.73223C18.2366 5.20107 18.5 5.83696 18.5 6.5V7C19.163 7 19.7989 7.26339 20.2678 7.73223C20.7366 8.20107 21 8.83696 21 9.5V11.5858C21.209 11.6597 21.401 11.7796 21.5607 11.9393C21.842 12.2206 22 12.6022 22 13V14C22 14.2761 21.7761 14.5 21.5 14.5C21.2239 14.5 21 14.2761 21 14V13C21 12.8674 20.9473 12.7402 20.8536 12.6464C20.7598 12.5527 20.6326 12.5 20.5 12.5H17.5C17.3674 12.5 17.2402 12.5527 17.1464 12.6464C17.0527 12.7402 17 12.8674 17 13C17 13.2761 16.7761 13.5 16.5 13.5C16.2239 13.5 16 13.2761 16 13C16 12.6022 16.158 12.2206 16.4393 11.9393C16.7206 11.658 17.1022 11.5 17.5 11.5H20V9.5C20 9.10218 19.842 8.72064 19.5607 8.43934C19.2794 8.15804 18.8978 8 18.5 8H5C4.64588 8 4.30145 7.90609 4 7.73206V17.5C4 17.8978 4.15804 18.2794 4.43934 18.5607C4.72064 18.842 5.10218 19 5.5 19H14C14.2761 19 14.5 19.2239 14.5 19.5C14.5 19.7761 14.2761 20 14 20H5.5C4.83696 20 4.20107 19.7366 3.73223 19.2678C3.26339 18.7989 3 18.163 3 17.5V6C3 5.46957 3.21071 4.96086 3.58579 4.58579ZM17.5 6.5V7H5C4.73478 7 4.48043 6.89464 4.29289 6.70711C4.10536 6.51957 4 6.26522 4 6C4 5.73478 4.10536 5.48043 4.29289 5.29289C4.48043 5.10536 4.73478 5 5 5H16C16.3978 5 16.7794 5.15804 17.0607 5.43934C17.342 5.72064 17.5 6.10218 17.5 6.5Z" fill="currentColor"></path>
<path d="M18.5 15C18.7761 15 19 15.2239 19 15.5V17H20.5C20.7761 17 21 17.2239 21 17.5C21 17.7761 20.7761 18 20.5 18H19V19.5C19 19.7761 18.7761 20 18.5 20C18.2239 20 18 19.7761 18 19.5V18H16.5C16.2239 18 16 17.7761 16 17.5C16 17.2239 16.2239 17 16.5 17H18V15.5C18 15.2239 18.2239 15 18.5 15Z" fill="currentColor"></path>
</svg>