<svg width="1em" height="1em" viewBox="0 0 24 24" fill="none" xmlns="http://www.w3.org/2000/svg">
<path d="M12 18C12.5523 18 13 17.5523 13 17C13 16.4477 12.5523 16 12 16C11.4477 16 11 16.4477 11 17C11 17.5523 11.4477 18 12 18Z" fill="currentColor"></path>
<path d="M11 14C11 14.6 11.4 15 12 15C12.6 15 13 14.6 13 14V10C13 9.4 12.6 9 12 9C11.4 9 11 9.4 11 10V14Z" fill="currentColor"></path>
<path fill-rule="evenodd" clip-rule="evenodd" d="M13.6936 5.049C13.356 4.32522 12.6565 3.9751 11.9875 3.9751C11.3083 3.9751 10.6182 4.32775 10.2318 5.00396L2.92807 18.0105C2.91064 18.0415 2.89489 18.0735 2.88086 18.1062C2.61375 18.7294 2.64387 19.4331 2.96695 20.0047C3.30235 20.5981 3.93042 21.0001 4.70001 21.0001H19.3C20.063 21.0001 20.7099 20.6014 21.0366 19.9752C21.3551 19.3646 21.3244 18.6299 20.9704 18.0077L20.9682 18.004L13.6936 5.049ZM11.95 6.02878L4.70788 18.9257C4.69865 18.9586 4.69948 18.9839 4.7022 19.0001H19.2339L19.2318 18.9962L19.228 18.9897L11.95 6.02878Z" fill="currentColor"></path>
</svg>