<svg width="1em" height="1em" viewBox="0 0 24 24" fill="none" xmlns="http://www.w3.org/2000/svg">
<path d="M9.00124 15.1511C8.83261 15.239 8.63751 15.2564 8.45675 15.1995C8.27599 15.1426 8.12357 15.016 8.03138 14.846L7.98343 14.7375L5.9811 10.2095C5.95851 10.1597 5.94644 10.1055 5.94569 10.0505C5.94577 9.98045 5.96475 9.91175 6.00053 9.85213C6.0363 9.79251 6.08745 9.7443 6.14827 9.7129C6.2091 9.68149 6.27719 9.66812 6.34496 9.67428C6.41273 9.68044 6.4775 9.70589 6.53204 9.74779L8.89494 11.4813C9.03764 11.5781 9.20041 11.6389 9.37011 11.6589C9.53981 11.6789 9.7117 11.6575 9.87191 11.5965L20.9852 6.49992C18.9933 4.08102 15.7128 2.5 11.9999 2.5C5.92467 2.5 1 6.72851 1 11.9451C1 14.7914 2.48165 17.3531 4.80069 19.0846C4.89591 19.1544 4.97352 19.2467 5.02707 19.3538C5.08061 19.4608 5.10852 19.5795 5.10847 19.7C5.10639 19.7816 5.09336 19.8626 5.06975 19.9406C4.88463 20.6525 4.58821 21.7925 4.57431 21.8462C4.54316 21.9352 4.52324 22.0279 4.51503 22.1221C4.51508 22.2224 4.55377 22.3185 4.6226 22.3894C4.69143 22.4602 4.78475 22.5 4.88205 22.5C4.95751 22.4968 5.03069 22.4724 5.09363 22.4294L7.50174 20.9972C7.67782 20.8862 7.87959 20.8259 8.08599 20.8227C8.19557 20.8227 8.30455 20.8396 8.40931 20.8727C9.57688 21.2171 10.7855 21.3914 11.9999 21.3907C18.075 21.3907 23 17.1618 23 11.9451C22.994 10.3933 22.5595 8.87521 21.7472 7.5684L9.0814 15.1031L9.00124 15.1511Z" fill="#3AAA35"></path>
</svg>